<?xml version="1.0" encoding="UTF-8" standalone="no"?>
<!DOCTYPE svg PUBLIC "-//W3C//DTD SVG 1.1//EN" "http://www.w3.org/Graphics/SVG/1.1/DTD/svg11.dtd">
<svg width="100%" height="100%" viewBox="0 0 534 386" version="1.1" xmlns="http://www.w3.org/2000/svg" xmlns:xlink="http://www.w3.org/1999/xlink" xml:space="preserve" xmlns:serif="http://www.serif.com/" style="fill-rule:evenodd;clip-rule:evenodd;stroke-linejoin:round;stroke-miterlimit:1.41421;">
    <g transform="matrix(1,0,0,1,-1690.69,-1297.93)">
        <path id="Knockout" d="M2175.02,1297.93L2224.33,1297.93L2224.33,1346.48C2223.03,1346.25 2221.7,1346.12 2220.33,1346.12C2208.06,1346.12 2198.11,1356.08 2198.11,1368.35C2198.11,1380.62 2208.06,1390.58 2220.33,1390.58C2221.7,1390.58 2223.03,1390.45 2224.33,1390.22L2224.33,1590.07C2223.03,1589.83 2221.7,1589.7 2220.33,1589.7C2208.06,1589.7 2198.11,1599.66 2198.11,1611.93C2198.11,1624.2 2208.06,1634.16 2220.33,1634.16C2221.7,1634.16 2223.03,1634.04 2224.33,1633.8L2224.33,1683.04L2175.05,1683.04C2175.3,1681.7 2175.44,1680.33 2175.44,1678.92C2175.44,1666.65 2165.48,1656.69 2153.21,1656.69C2140.94,1656.69 2130.98,1666.65 2130.98,1678.92C2130.98,1680.33 2131.12,1681.7 2131.37,1683.04L1786.65,1683.04C1786.9,1681.7 1787.03,1680.33 1787.03,1678.92C1787.03,1666.65 1777.07,1656.69 1764.81,1656.69C1752.54,1656.69 1742.58,1666.65 1742.58,1678.92C1742.58,1680.33 1742.71,1681.7 1742.96,1683.04L1690.69,1683.04L1690.69,1633.59C1692.31,1633.96 1693.99,1634.16 1695.71,1634.16C1707.98,1634.16 1717.94,1624.2 1717.94,1611.93C1717.94,1599.66 1707.98,1589.7 1695.71,1589.7C1693.99,1589.7 1692.31,1589.9 1690.69,1590.28L1690.69,1390.01C1692.31,1390.38 1693.99,1390.58 1695.71,1390.58C1707.98,1390.58 1717.94,1380.62 1717.94,1368.35C1717.94,1356.08 1707.98,1346.12 1695.71,1346.12C1693.99,1346.12 1692.31,1346.32 1690.69,1346.69L1690.69,1297.93L1743,1297.93C1742.72,1299.33 1742.58,1300.77 1742.58,1302.24C1742.58,1314.51 1752.54,1324.46 1764.81,1324.46C1777.07,1324.46 1787.03,1314.51 1787.03,1302.24C1787.03,1300.77 1786.89,1299.33 1786.62,1297.93L2131.4,1297.93C2131.13,1299.33 2130.98,1300.77 2130.98,1302.24C2130.98,1314.51 2140.94,1324.46 2153.21,1324.46C2165.48,1324.46 2175.44,1314.51 2175.44,1302.24C2175.44,1300.77 2175.29,1299.33 2175.02,1297.93Z" style="fill:white;"/>
    </g>
</svg>
