<?xml version="1.0" encoding="UTF-8" standalone="no"?>
<!DOCTYPE svg PUBLIC "-//W3C//DTD SVG 1.1//EN" "http://www.w3.org/Graphics/SVG/1.1/DTD/svg11.dtd">
<svg width="100%" height="100%" viewBox="0 0 459 374" version="1.1" xmlns="http://www.w3.org/2000/svg" xmlns:xlink="http://www.w3.org/1999/xlink" xml:space="preserve" xmlns:serif="http://www.serif.com/" style="fill-rule:evenodd;clip-rule:evenodd;stroke-linejoin:round;stroke-miterlimit:1.41421;">
    <g transform="matrix(1,0,0,1,-1708.77,-890.429)">
        <path id="Knockout" d="M1709.72,1077.17C1759.64,1051.55 1710.79,1005.23 1756.3,946.621C1799.95,890.408 1893.06,952.016 1937.69,890.985L1937.69,890.429L1937.89,890.708L1938.09,890.429L1938.09,890.985C1982.71,952.016 2075.82,890.408 2119.47,946.621C2164.98,1005.23 2116.13,1051.55 2166.06,1077.17L2167.01,1077.16L2166.53,1077.4L2167.01,1077.65L2166.06,1077.64C2116.13,1103.27 2164.98,1149.58 2119.47,1208.19C2075.82,1264.4 1982.71,1202.79 1938.09,1263.83L1938.09,1264.38L1937.89,1264.1L1937.69,1264.38L1937.69,1263.83C1893.06,1202.79 1799.95,1264.4 1756.3,1208.19C1710.79,1149.58 1759.64,1103.27 1709.72,1077.64L1708.77,1077.65L1709.25,1077.4L1708.77,1077.16L1709.72,1077.17Z" style="fill:white;"/>
    </g>
</svg>
