<?xml version="1.0" encoding="UTF-8" standalone="no"?>
<!DOCTYPE svg PUBLIC "-//W3C//DTD SVG 1.1//EN" "http://www.w3.org/Graphics/SVG/1.1/DTD/svg11.dtd">
<svg width="100%" height="100%" viewBox="0 0 537 340" version="1.1" xmlns="http://www.w3.org/2000/svg" xmlns:xlink="http://www.w3.org/1999/xlink" xml:space="preserve" xmlns:serif="http://www.serif.com/" style="fill-rule:evenodd;clip-rule:evenodd;stroke-linejoin:round;stroke-miterlimit:1.41421;">
    <g transform="matrix(1,0,0,1,-2603.02,-1268.3)">
        <path id="Knockout" d="M2657.8,1348.79L2657.8,1322.48L2734.2,1322.48C2768.74,1289.16 2818.02,1268.3 2872.69,1268.3C2927.36,1268.3 2976.64,1289.16 3011.18,1322.48L3084.92,1322.48L3084.92,1348.79C3115.16,1348.79 3139.71,1389.67 3139.71,1440.03C3139.71,1490.38 3115.16,1531.26 3084.92,1531.26L3084.92,1557.22L3007.29,1557.22C2972.99,1588.41 2925.34,1607.76 2872.69,1607.76C2820.05,1607.76 2772.39,1588.41 2738.09,1557.22L2657.8,1557.22L2657.8,1531.26C2627.57,1531.26 2603.02,1490.38 2603.02,1440.03C2603.02,1389.67 2627.57,1348.79 2657.8,1348.79Z" style="fill:white;"/>
    </g>
</svg>
