<?xml version="1.0" encoding="UTF-8" standalone="no"?><!DOCTYPE svg PUBLIC "-//W3C//DTD SVG 1.1//EN" "http://www.w3.org/Graphics/SVG/1.1/DTD/svg11.dtd"><svg width="100%" height="100%" viewBox="0 0 1013 152" version="1.1" xmlns="http://www.w3.org/2000/svg" xmlns:xlink="http://www.w3.org/1999/xlink" xml:space="preserve" xmlns:serif="http://www.serif.com/" style="fill-rule:evenodd;clip-rule:evenodd;stroke-linejoin:round;stroke-miterlimit:2;"><path id="Birch-4" serif:id="Birch 4" d="M2.004,73.092c0.866,-0.815 5.281,-0.959 37.216,-1.216c35.95,-0.289 52.199,-0.905 53.521,-2.029c0.391,-0.332 7.231,-0.757 15.855,-0.983c8.342,-0.219 18.2,-0.561 21.908,-0.76c5.774,-0.31 19.352,-0.511 23.874,-0.353c8.788,0.306 52.567,-0.477 53.018,-0.949c0.738,-0.771 4.669,-0.779 5.123,-0.011c0.191,0.323 1.202,0.587 2.247,0.587c1.045,0 2.056,-0.264 2.247,-0.587c0.478,-0.809 2.313,-0.736 3.676,0.147c0.858,0.556 1.232,0.567 1.543,0.047c0.52,-0.873 15.184,-1.343 47.598,-1.525l24.168,-0.137l2.936,-1.969c1.616,-1.083 2.937,-2.205 2.937,-2.495c-0,-0.289 0.505,-0.525 1.122,-0.525c0.617,-0 2.06,-0.925 3.207,-2.055c1.146,-1.13 2.268,-2.055 2.493,-2.055c0.695,0 5.234,-4.483 18.262,-18.033c6.897,-7.174 13.302,-13.455 14.232,-13.958c0.93,-0.502 1.691,-1.15 1.691,-1.439c0,-0.723 6.912,-5.897 10.674,-7.99c1.869,-1.04 5.358,-4.097 8.835,-7.741l5.745,-6.021l3.664,-0c3.163,-0 3.664,0.145 3.664,1.064c-0,0.585 -0.758,1.823 -1.685,2.751c-2.151,2.154 -2.136,3.543 0.051,4.725c1.874,1.012 7.096,0.927 13.711,-0.223c1.854,-0.323 6.471,-0.609 10.26,-0.636c3.789,-0.027 7.328,-0.295 7.864,-0.595c0.864,-0.482 12.538,-1.435 27.378,-2.235c2.781,-0.15 5.309,-0.487 5.618,-0.75c0.656,-0.558 8.413,-1.752 11.416,-1.757c1.136,-0.002 2.786,-0.396 3.666,-0.876c1.016,-0.553 3.575,-0.927 7.004,-1.023c4.639,-0.13 5.43,-0.016 5.592,0.815c0.134,0.691 -0.581,1.264 -2.51,2.009c-1.484,0.573 -2.969,1.254 -3.299,1.512c-0.33,0.258 -2.479,0.766 -4.775,1.13c-2.296,0.363 -5.185,0.928 -6.421,1.255c-1.236,0.328 -4.775,0.818 -7.865,1.09c-6.371,0.56 -16.603,1.963 -20.784,2.849c-1.545,0.328 -10.14,0.763 -19.1,0.967c-33.856,0.771 -39.019,1.717 -49.434,9.059c-3.28,2.312 -11.102,9.466 -13.582,12.422c-0.819,0.977 -18.282,19.879 -23.072,24.973c-1.931,2.054 -3.511,3.95 -3.511,4.214c0,0.263 0.501,0.953 1.113,1.532c0.842,0.796 1.297,0.892 1.87,0.396c0.522,-0.453 1.338,-0.482 2.635,-0.093c1.06,0.318 2.142,0.343 2.484,0.057c0.333,-0.278 6.672,-0.441 14.087,-0.361c7.415,0.08 24.478,0.133 37.918,0.118c13.44,-0.016 25.7,-0.014 27.245,0.002c1.545,0.018 5.969,0.029 9.831,0.027c10.259,-0.007 39.232,0.174 41.85,0.262c1.236,0.041 7.744,-0.075 14.462,-0.258c6.774,-0.185 12.35,-0.104 12.519,0.181c0.172,0.291 0.857,0.294 1.58,0.006c0.702,-0.278 23.76,-0.538 51.24,-0.575c47.373,-0.065 53.121,-0.194 54.457,-1.217c0.309,-0.237 3.629,-0.595 7.378,-0.795c6.323,-0.339 6.922,-0.278 8.285,0.843c1.798,1.477 1.902,3.761 0.265,5.819c-1.077,1.354 -1.628,1.49 -7.109,1.761l-5.942,0.294l-1.438,2.519c-0.792,1.386 -2.263,3.035 -3.271,3.664c-1.697,1.061 -2.005,1.081 -4.213,0.278c-1.31,-0.477 -2.936,-0.871 -3.613,-0.876c-0.678,-0.004 -2.161,-0.581 -3.296,-1.281c-1.775,-1.095 -3.366,-1.343 -11.374,-1.775c-5.12,-0.276 -9.42,-0.618 -9.555,-0.759c-0.135,-0.141 -0.909,0.1 -1.719,0.535c-1.984,1.064 -5.627,0.431 -9.9,-1.72c-3.822,-1.925 -8.402,-2.254 -11.249,-0.808c-1.403,0.712 -1.644,1.144 -1.5,2.697c0.096,1.036 -0.336,2.888 -0.983,4.213c-0.635,1.301 -1.154,2.888 -1.154,3.528c-0,0.639 -0.269,1.336 -0.597,1.548c-0.981,0.634 -2.774,-1.545 -2.774,-3.371c0,-2.684 -1.445,-4.99 -3.592,-5.73c-1.059,-0.366 -2.061,-1.032 -2.225,-1.48c-0.463,-1.262 -4.097,-2.056 -9.419,-2.06l-4.845,-0.004l-3.582,3.331c-1.97,1.832 -3.834,3.68 -4.143,4.106c-0.714,0.983 -5.899,1.781 -5.899,0.907c0,-0.342 -0.947,-0.938 -2.106,-1.325c-2.358,-0.788 -3.898,-1.956 -2.158,-1.638c1.418,0.259 2.295,-2.648 1.11,-3.677c-0.625,-0.542 -1.024,-0.48 -1.834,0.287c-0.569,0.538 -1.765,0.981 -2.658,0.984c-11.369,0.034 -16.267,-0.174 -16.895,-0.719c-0.406,-0.351 -0.737,-0.465 -0.737,-0.253c-0,0.213 -0.505,0.104 -1.122,-0.241c-1.468,-0.821 -10.647,-0.853 -11.424,-0.04c-0.33,0.344 -1.244,0.626 -2.032,0.626c-0.787,0 -2.75,0.524 -4.361,1.164c-1.611,0.64 -3.293,1.018 -3.737,0.839c-0.444,-0.178 -2,0.244 -3.457,0.938c-1.562,0.743 -3.182,1.121 -3.948,0.92c-0.715,-0.187 -1.965,-0.076 -2.779,0.247c-1.84,0.731 -3.108,0.109 -6.284,-3.086c-2.062,-2.073 -2.587,-2.322 -4.287,-2.034c-1.082,0.183 -2.208,0.047 -2.548,-0.308c-0.438,-0.458 -0.707,-0.373 -0.955,0.304c-0.191,0.518 -0.703,0.799 -1.139,0.624c-0.482,-0.193 -1,0.223 -1.322,1.064c-0.291,0.761 -0.546,1.152 -0.565,0.87c-0.086,-1.227 -1.725,1.11 -2.05,2.922c-0.504,2.81 -7.755,10.482 -10.72,11.342c-1.184,0.344 -2.58,0.626 -3.102,0.628c-0.522,0.002 -1.085,0.232 -1.251,0.513c-0.166,0.28 -1.381,0.679 -2.702,0.886c-1.32,0.208 -3.367,0.538 -4.548,0.734c-3.118,0.518 -5.802,-0.988 -9.54,-5.355c-1.759,-2.056 -3.198,-3.988 -3.198,-4.294c-0,-0.305 -0.379,-0.884 -0.843,-1.286c-0.463,-0.402 -0.843,-1.161 -0.843,-1.687c0,-1.439 -4.758,-1.175 -7.561,0.42c-1.224,0.697 -2.556,1.267 -2.961,1.267c-0.404,-0 -1.758,0.675 -3.009,1.5c-2.006,1.323 -2.496,1.423 -4.164,0.847c-1.041,-0.358 -2.792,-1.694 -3.893,-2.967c-1.101,-1.274 -2.158,-2.316 -2.348,-2.316c-0.191,0 -1.303,-1.122 -2.472,-2.495l-2.125,-2.495l-1.77,1.359c-1.516,1.165 -2.389,1.349 -6.096,1.283c-2.38,-0.042 -4.833,-0.057 -5.451,-0.033c-3.048,0.116 -6.256,-0.791 -7.416,-2.096c-1.767,-1.99 -3.739,-1.742 -7.604,0.955c-4.967,3.466 -7.36,3.136 -12.402,-1.709c-1.556,-1.496 -1.712,-1.519 -9.83,-1.477c-10.491,0.054 -13.026,0.62 -15.932,3.561c-1.232,1.247 -2.596,2.974 -3.031,3.839c-0.94,1.872 -2.959,2.73 -3.697,1.572c-0.279,-0.438 -0.399,-1.589 -0.266,-2.557c0.292,-2.126 -1.584,-5.369 -3.379,-5.839c-0.671,-0.176 -1.603,-0.474 -2.072,-0.662c-0.521,-0.209 -1.434,0.341 -2.349,1.415c-1.999,2.344 -3.86,2.773 -6.085,1.402c-2.628,-1.62 -4.301,-1.92 -5.931,-1.065c-2.129,1.117 -5.009,1.58 -5.427,0.874c-0.197,-0.335 -0.704,-0.47 -1.127,-0.3c-0.422,0.169 -0.897,0.088 -1.056,-0.18c-0.159,-0.268 -1.494,-0.246 -2.967,0.05c-1.779,0.357 -4.221,0.303 -7.267,-0.161c-4.275,-0.651 -4.76,-0.615 -7.101,0.536c-1.382,0.679 -3.02,1.907 -3.638,2.729c-0.619,0.822 -1.42,1.494 -1.78,1.494c-0.36,0 -0.5,0.261 -0.312,0.579c0.567,0.96 -2.482,5.765 -5.058,7.971c-3.689,3.159 -7.706,3.885 -8.372,1.514c-0.148,-0.531 -0.581,-3.719 -0.96,-7.085c-0.98,-8.704 -1.279,-8.917 -11.726,-8.384c-1.391,0.071 -4.203,-0.025 -6.25,-0.215c-3.646,-0.337 -3.746,-0.308 -4.915,1.408c-0.664,0.975 -1.194,2.653 -1.194,3.784c0,2.111 -1.781,5.125 -3.029,5.125c-0.386,-0 -1.754,-0.942 -3.041,-2.093c-1.287,-1.152 -3.164,-2.34 -4.17,-2.642c-2.543,-0.762 -6.103,-0.67 -7.522,0.194c-3.927,2.392 -4.981,2.869 -7.384,3.346c-2.034,0.403 -2.953,0.33 -3.905,-0.313c-0.684,-0.462 -1.887,-0.84 -2.673,-0.84c-0.787,-0 -1.862,-0.527 -2.389,-1.171c-0.528,-0.644 -1.852,-1.475 -2.944,-1.847c-1.091,-0.371 -2.523,-1.113 -3.182,-1.647c-2.382,-1.934 -11.421,-4.048 -13.274,-3.105c-2.528,1.286 -9.731,1.753 -19.374,1.257c-1.158,-0.06 -3.117,0.186 -4.353,0.546c-1.236,0.36 -5.315,0.661 -9.064,0.669c-4.912,0.011 -7.267,0.258 -8.426,0.886c-1.248,0.677 -3.572,0.85 -10.372,0.773c-8.628,-0.097 -8.804,-0.074 -11.402,1.517c-2.181,1.336 -3.633,1.698 -8.371,2.091c-3.152,0.261 -5.883,0.384 -6.068,0.273c-0.684,-0.411 -2.665,2.112 -3.033,3.865c-0.486,2.311 0.321,3.333 3.295,4.168c1.277,0.358 2.507,0.955 2.734,1.325c0.607,0.989 0.519,3.775 -0.132,4.195c-0.308,0.2 -0.561,0.852 -0.561,1.45c-0,0.597 -0.995,2.401 -2.21,4.008c-1.215,1.606 -2.371,3.809 -2.569,4.896c-0.198,1.086 -0.841,2.59 -1.429,3.344c-1.02,1.306 -1.342,1.359 -6.964,1.145c-5.317,-0.202 -6.042,-0.365 -7.392,-1.663c-0.823,-0.791 -1.98,-2.562 -2.571,-3.934c-0.59,-1.372 -1.265,-2.495 -1.501,-2.495c-0.235,0 -1.171,-1.065 -2.08,-2.367c-0.956,-1.37 -3.148,-3.256 -5.202,-4.476c-3.758,-2.232 -5.66,-4.651 -6.853,-8.714c-0.851,-2.894 -2.606,-4.989 -4.182,-4.989c-1.211,-0 -6.193,-1.695 -7.464,-2.539c-1.031,-0.684 -0.856,-3.593 0.281,-4.662l-0,0.001Zm590.409,76.981c-0.838,-0.668 -1.733,-1.362 -2.667,-2.066c-2.633,-1.987 -5.617,-4.43 -6.629,-5.431c-1.013,-1 -2.213,-1.818 -2.667,-1.818c-0.454,-0 -1.774,-0.876 -2.933,-1.947c-1.16,-1.071 -3.499,-2.69 -5.198,-3.599c-1.699,-0.908 -4.101,-2.362 -5.337,-3.231c-1.236,-0.868 -3.511,-2.468 -5.056,-3.555c-1.544,-1.087 -3.43,-2.607 -4.191,-3.378c-0.76,-0.771 -2.901,-2.637 -4.757,-4.147c-1.856,-1.509 -4.32,-3.735 -5.476,-4.946c-2.096,-2.195 -3.455,-2.728 -4.113,-1.614c-0.618,1.045 -2.556,0.624 -4.588,-0.996c-3.09,-2.463 -12.153,-3.343 -19.504,-1.894c-3.657,0.721 -11.424,0.691 -11.86,-0.046c-0.191,-0.322 -0.949,-0.587 -1.685,-0.587c-0.736,0 -1.495,0.265 -1.686,0.587c-0.494,0.836 -23.602,0.781 -25.106,-0.06c-0.865,-0.484 -1.264,-0.469 -1.577,0.06c-0.318,0.538 -0.706,0.548 -1.613,0.04c-0.84,-0.469 -1.518,-0.487 -2.282,-0.06c-1.525,0.853 -12.559,0.789 -13.388,-0.077c-0.92,-0.962 -5.733,-0.879 -6.317,0.108c-0.37,0.626 -0.643,0.644 -1.286,0.086c-0.573,-0.497 -1.243,-0.54 -2.241,-0.143c-1.925,0.764 -13.543,0.277 -14.927,-0.627c-0.851,-0.555 -2.287,-0.57 -6.346,-0.065c-3.345,0.416 -11.559,0.543 -22.661,0.352c-9.578,-0.165 -18.172,-0.258 -19.099,-0.207c-0.927,0.051 -2.381,0.073 -3.23,0.049c-0.85,-0.023 -2.367,-0.027 -3.371,-0.008c-1.004,0.019 -5.617,0.097 -10.252,0.174c-4.634,0.076 -8.868,0.353 -9.409,0.615c-0.598,0.289 -0.983,0.236 -0.983,-0.135c-0,-1.107 -2.197,-1.38 -3.49,-0.434c-1.012,0.742 -3.01,0.918 -10.365,0.918c-5.468,0 -9.249,-0.234 -9.458,-0.587c-0.422,-0.714 -2.908,-0.781 -3.318,-0.088c-0.404,0.684 -15.152,1.351 -36.004,1.628c-9.578,0.127 -23.938,0.384 -31.911,0.57c-7.974,0.186 -14.925,0.157 -15.448,-0.064c-0.523,-0.222 -20.23,-0.406 -43.793,-0.409c-31.712,-0.004 -43.045,0.172 -43.627,0.677c-0.768,0.665 -6.063,0.504 -10.221,-0.311c-0.978,-0.192 -2.323,-0.044 -2.988,0.327c-0.666,0.373 -4.668,0.791 -8.907,0.931c-4.233,0.14 -11.236,0.412 -15.562,0.604c-4.325,0.193 -11.587,0.422 -16.137,0.508c-5.549,0.105 -8.548,0.396 -9.11,0.884c-0.582,0.505 -2.774,0.68 -7.176,0.575c-3.485,-0.084 -9.497,0.033 -13.359,0.26c-5.476,0.32 -63.547,1.035 -74.41,0.915c-3.118,-0.034 -4.164,-1.098 -3.296,-3.353l-0,0.002c0.158,-0.412 1.329,-1.305 2.602,-1.983c3.196,-1.704 9.648,-1.282 14.106,0.922l3.102,1.533l13.64,-0.234c13.155,-0.227 15.607,-0.479 15.607,-1.606c-0,-0.288 0.526,-0.524 1.169,-0.524c0.643,-0 2.932,-0.925 5.086,-2.055c2.155,-1.13 4.391,-2.055 4.97,-2.055c0.579,0 1.432,-0.396 1.895,-0.88c1.198,-1.252 5.516,-1.121 7.773,0.236c1.021,0.615 2.71,1.303 3.752,1.531c1.043,0.227 2.705,0.911 3.693,1.521c1.576,0.972 2.522,1.063 7.655,0.738c3.221,-0.205 8.255,-0.461 11.185,-0.571c2.931,-0.109 5.988,-0.484 6.794,-0.833c1.876,-0.812 7.32,-1.24 16.527,-1.301c16.065,-0.106 25.004,0.18 26.524,0.847c2.337,1.027 3.603,1.029 5.777,0.011c1.523,-0.713 3.801,-0.903 10.111,-0.843c4.48,0.043 9.207,0.217 10.505,0.388c1.298,0.172 2.513,0.051 2.701,-0.267c0.744,-1.256 18.831,-0.115 19.282,1.217c0.232,0.686 4.252,0.731 5.578,0.062c0.537,-0.27 1.984,-0.996 3.216,-1.614c1.574,-0.789 2.63,-1.908 3.553,-3.765c1.79,-3.599 3.965,-5.87 5.622,-5.87c0.933,-0 2.704,1.32 5.514,4.109c2.277,2.26 4.408,4.109 4.736,4.109c0.947,0 2.629,-1.079 4.137,-2.655c2.263,-2.365 5.133,-1.846 10.152,1.835c1.754,1.287 5.606,1.786 6.188,0.802c0.456,-0.773 15.998,-0.754 15.998,0.017c0,0.323 0.618,0.587 1.372,0.587c0.754,0 1.527,-0.264 1.718,-0.587c0.191,-0.322 1.005,-0.587 1.81,-0.587c1.893,0 7.459,-1.832 7.459,-2.455c-0,-0.264 0.486,-0.48 1.08,-0.48c0.594,0 1.795,-0.73 2.669,-1.622c0.873,-0.893 2.283,-1.944 3.132,-2.336c0.85,-0.392 1.545,-0.962 1.545,-1.267c0,-1.026 7.08,-2.804 13.492,-3.388c2.784,-0.254 3.466,-0.066 6.707,1.848c2.227,1.315 5.165,2.443 7.676,2.945c2.237,0.447 4.78,1.196 5.651,1.665c0.871,0.468 2.468,1.126 3.55,1.462c3.461,1.076 10.359,3.644 11.367,4.233c0.537,0.313 1.47,0.569 2.074,0.569c0.604,0 1.236,0.234 1.405,0.52c0.558,0.943 16.88,-0.179 18.156,-1.249c0.474,-0.397 0.948,-0.375 1.459,0.068c0.416,0.361 3.675,0.799 7.241,0.975c5.373,0.264 6.633,0.164 7.349,-0.584c0.662,-0.693 2.176,-0.904 6.488,-0.904c3.094,0 5.776,0.256 5.96,0.567c0.447,0.757 10.006,0.694 10.456,-0.068c0.49,-0.827 11.699,-0.682 12.674,0.164c0.57,0.493 1.66,0.477 4.271,-0.063c5.004,-1.035 18.33,-1.698 20.279,-1.008c1.176,0.415 1.723,0.369 2.044,-0.174c0.241,-0.408 0.725,-0.557 1.074,-0.332c0.749,0.484 4.546,-0.713 4.546,-1.433c0,-0.272 0.822,-0.676 1.826,-0.899c1.004,-0.222 2.71,-0.882 3.792,-1.467c2.917,-1.578 5.33,-2.272 9.183,-2.642c3.513,-0.337 3.954,-0.199 7.357,2.316c1.056,0.78 3.274,1.32 7.237,1.761c3.143,0.35 6.057,0.868 6.476,1.15c0.419,0.282 4.793,0.541 9.719,0.574c6.791,0.045 9.066,-0.125 9.408,-0.703c0.397,-0.672 2.245,-1.351 5.952,-2.187c0.807,-0.182 1.597,0.407 2.809,2.094c1.477,2.058 1.901,2.311 3.433,2.044c1.166,-0.202 1.983,-0.006 2.456,0.589c0.92,1.158 1.639,1.125 2.973,-0.136c0.899,-0.85 2.175,-1.027 7.401,-1.027c4.17,-0 6.597,0.245 7.147,0.722c0.537,0.466 1.414,0.563 2.474,0.274c0.903,-0.246 6.823,-0.403 13.157,-0.35c6.334,0.053 15.75,0.128 20.925,0.166c9.013,0.066 9.41,0.118 9.41,1.243c-0,1.08 -0.375,1.174 -4.668,1.174c-4.893,-0 -6.183,0.511 -6.8,2.692c-0.482,1.704 2.594,5.763 7.356,9.708c2.096,1.736 4.508,3.981 5.36,4.988c1.068,1.264 2.267,1.952 3.863,2.219c1.272,0.213 3.297,0.883 4.499,1.49c1.203,0.607 2.186,0.831 2.186,0.498c0,-0.353 0.361,-0.292 0.867,0.146c0.656,0.569 1.024,0.587 1.516,0.072c0.825,-0.861 6.178,-0.891 6.994,-0.039c0.379,0.397 4.739,0.752 11.443,0.934c5.957,0.161 11.436,0.533 12.175,0.827c0.74,0.293 2.087,0.534 2.994,0.534c0.907,-0 1.648,0.264 1.648,0.587c0,0.323 0.605,0.587 1.345,0.587c0.739,-0 1.489,0.396 1.667,0.88c0.389,1.058 0.022,1.066 -13.588,0.314c-5.353,-0.296 -10.03,-0.769 -10.392,-1.052c-0.766,-0.597 -11.151,-0.51 -12.097,0.101c-1.2,0.775 -0.642,2.844 1.26,4.677c1.045,1.007 3.208,2.888 4.807,4.179c1.598,1.292 3.418,3.207 4.044,4.256c0.515,0.864 1.263,1.598 1.824,1.831l-4.277,-0Zm3.185,-42.776c12.667,0 20.035,0.214 20.256,0.587c0.191,0.323 2.34,0.587 4.775,0.587c2.435,0 4.584,-0.264 4.775,-0.587c0.201,-0.34 3.272,-0.587 7.303,-0.587c4.031,0 7.101,0.247 7.302,0.587c0.422,0.714 3.469,0.784 3.88,0.09c0.162,-0.274 2.832,-0.671 5.935,-0.884c6.135,-0.42 10.103,-1.226 12.517,-2.541c0.85,-0.463 3.378,-0.99 5.617,-1.171c2.239,-0.181 4.615,-0.682 5.279,-1.115c1.055,-0.687 1.571,-0.604 4.07,0.656c1.574,0.794 3.116,1.443 3.426,1.443c0.311,-0 0.565,0.207 0.565,0.46c-0,0.77 3.175,2.475 4.609,2.475c0.74,0 1.597,0.264 1.905,0.585c0.888,0.928 11.116,1.029 12.166,0.121c0.592,-0.513 1.001,-0.561 1.245,-0.147c0.464,0.785 5.173,0.808 5.635,0.029c0.483,-0.817 7.213,-0.739 8.009,0.093c0.979,1.023 15.691,1.025 17.088,0.002c0.873,-0.639 1.233,-0.646 1.939,-0.033c0.674,0.585 7.054,0.778 28.765,0.872c15.345,0.066 31.408,0.173 35.696,0.237c7.81,0.118 8.74,-0.1 8.765,-2.053c0.011,-0.944 -6.254,-3.865 -8.993,-4.192c-1.382,-0.165 -3.019,-0.524 -3.637,-0.796c-0.618,-0.273 -2.387,-0.658 -3.932,-0.856c-7.967,-1.023 -8.874,-1.285 -10.256,-2.964c-1.989,-2.417 -1.392,-4.588 2.265,-8.237c1.629,-1.625 3.784,-3.311 4.788,-3.746c1.004,-0.434 2.009,-1.086 2.233,-1.447c0.509,-0.819 4.361,-2.711 5.52,-2.711c0.473,-0 2.234,-1.436 3.913,-3.191c2.726,-2.849 3.053,-3.454 3.053,-5.654c-0,-2.075 -0.324,-2.783 -2.05,-4.484c-1.96,-1.933 -2.175,-2.002 -4.915,-1.586c-3.418,0.518 -39.148,0.223 -43.312,-0.357c-0.309,-0.043 -1.952,0.222 -3.651,0.589c-6.499,1.403 -10.475,1.409 -14.41,0.02c-2.728,-0.963 -4.347,-1.202 -6.288,-0.926c-1.438,0.204 -4.89,0.576 -7.67,0.826c-2.781,0.251 -6.254,0.823 -7.718,1.272c-2.133,0.653 -3.035,0.675 -4.534,0.108c-2.58,-0.974 -3.118,-0.905 -5.109,0.657c-2.818,2.211 -3.601,2.301 -5.671,0.651c-1.422,-1.133 -2.415,-1.458 -4.033,-1.319c-1.984,0.171 -2.249,0.417 -3.517,3.267c-1.375,3.089 -2.505,3.786 -3.853,2.377c-0.371,-0.387 -0.675,-1.288 -0.675,-2.002c0,-1.272 -2.862,-4.338 -4.051,-4.338c-1.812,0 -8.304,1.445 -9.992,2.223c-2.637,1.217 -6.447,1.172 -7.783,-0.091c-0.813,-0.769 -2.474,-1.062 -7.237,-1.274c-6.37,-0.285 -9.741,0.324 -14.122,2.552c-2.079,1.057 -5.687,5.578 -5.687,7.126c0,1.322 -3.304,4.557 -5.135,5.028c-2.038,0.524 -4.435,-0.889 -6.314,-3.723c-2.078,-3.134 -6.998,-7.731 -8.273,-7.731c-1.54,-0 -6.963,-2.644 -8.31,-4.052c-1.32,-1.38 -1.55,-3.701 -0.46,-4.646c0.47,-0.408 9.366,-0.738 25.7,-0.954c29.745,-0.394 39.88,-0.782 40.781,-1.564c0.414,-0.358 11.115,-0.641 28.105,-0.741l27.437,-0.161l3.933,-2.231c2.162,-1.227 4.52,-2.568 5.238,-2.979c0.94,-0.538 4.954,-0.768 14.324,-0.822c12.055,-0.069 19.515,-0.718 20.884,-1.819c0.309,-0.249 2.199,-0.886 4.2,-1.417c2.001,-0.532 5.034,-1.644 6.741,-2.473c1.706,-0.829 3.608,-1.695 4.226,-1.924c0.618,-0.228 2.766,-1.215 4.775,-2.193c6.299,-3.067 8.645,-4.154 10.673,-4.944c1.081,-0.422 2.162,-1.102 2.403,-1.511c0.24,-0.41 1.332,-0.921 2.426,-1.135c1.094,-0.215 2.286,-0.886 2.648,-1.491c0.417,-0.7 1.305,-1.102 2.432,-1.102c0.975,0 3.215,-0.792 4.977,-1.761c1.762,-0.968 4.054,-1.761 5.093,-1.761c1.26,0 2.505,-0.55 3.735,-1.651c1.015,-0.909 4.879,-3.213 8.586,-5.122c3.708,-1.908 7.344,-3.939 8.081,-4.512c0.737,-0.574 1.778,-1.043 2.313,-1.043c0.536,0 2.701,-0.924 4.813,-2.055c2.112,-1.13 4.111,-2.054 4.443,-2.054c0.333,-0 1.037,-0.529 1.566,-1.174c0.53,-0.646 1.638,-1.174 2.463,-1.174c1.527,-0 6.375,-2.613 6.375,-3.436c-0,-0.249 1.58,-0.92 3.511,-1.493c3.788,-1.123 9.92,-3.703 10.785,-4.537c0.745,-0.717 2.414,-0.642 2.871,0.129c0.586,0.992 -0.653,1.93 -7.336,5.558c-14.355,7.79 -16.849,9.205 -19.161,10.867c-1.338,0.962 -3.768,2.169 -5.399,2.682c-3.038,0.954 -7.921,3.344 -9.426,4.613c-1.367,1.152 -16.222,7.924 -17.382,7.924c-0.271,0 -2.223,1.021 -4.336,2.269c-2.113,1.247 -4.347,2.434 -4.965,2.636c-1.629,0.535 -9.146,4.036 -11.967,5.574c-1.329,0.725 -3.701,2.612 -5.272,4.194c-2.801,2.822 -2.85,2.931 -2.554,5.677c0.234,2.168 0.697,3.17 2.051,4.434c1.615,1.508 2.107,1.634 6.403,1.634c2.776,-0 4.916,0.274 5.304,0.679c0.449,0.469 0.876,0.494 1.376,0.08c1.04,-0.859 22.047,-1.605 37.521,-1.334c16.013,0.282 22.521,0.307 40.727,0.159c7.724,-0.063 15.055,-0.095 16.29,-0.072c1.236,0.024 13.749,-0.14 27.807,-0.363c14.058,-0.224 36.919,-0.385 50.802,-0.358c22.578,0.044 25.35,0.151 26.262,1.014c0.913,0.864 1.019,2.075 1.019,11.684c0,8.051 -0.175,10.783 -0.702,10.972c-1.076,0.385 -5.364,-3.561 -7.471,-6.875c-3.532,-5.558 -5.315,-7.207 -8.96,-8.292c-4.113,-1.223 -5.698,-1.268 -10.393,-0.294c-6.713,1.394 -7.122,1.406 -8.238,0.248c-2.62,-2.717 -5.806,-3.161 -10.419,-1.451c-5.572,2.066 -9.158,2.617 -14.61,2.246c-4.409,-0.3 -5.393,-0.201 -6.385,0.644c-1.327,1.13 -3.041,4.73 -3.041,6.387c0,1.563 -1.576,3.718 -2.459,3.364c-0.41,-0.164 -1.713,-1.838 -2.896,-3.718c-1.993,-3.168 -6.77,-7.089 -8.636,-7.089c-0.338,0 -0.614,-0.257 -0.614,-0.57c0,-1.268 -6.028,-2.374 -13.497,-2.477c-9.663,-0.134 -30.526,0.489 -34.065,1.018c-1.771,0.264 -3.269,0.942 -4.309,1.951c-2.764,2.679 -3.172,4.093 -2.793,9.694c0.426,6.318 -0.218,7.409 -4.373,7.409c-3.676,-0 -3.999,0.95 -1.186,3.483c2.42,2.178 5.295,6.438 5.853,8.671c0.178,0.711 0.009,1.742 -0.375,2.291c-0.641,0.916 -0.907,0.846 -3.273,-0.855c-1.417,-1.019 -2.729,-2.357 -2.916,-2.973c-0.188,-0.617 -1.785,-2.391 -3.549,-3.942c-4.282,-3.764 -11.631,-11.513 -12.081,-12.739c-0.51,-1.389 -1.716,-1.216 -2.369,0.34c-0.425,1.012 -1.099,1.362 -2.889,1.499c-2.525,0.192 -6.372,-1.171 -6.372,-2.257c-0,-0.369 -0.506,-1.343 -1.124,-2.164c-0.871,-1.157 -1.123,-2.381 -1.123,-5.451c-0,-4.948 -0.566,-5.561 -4.717,-5.113c-1.656,0.178 -3.484,0.6 -4.062,0.938c-1.444,0.841 -6.048,1.909 -9.722,2.255c-5.237,0.493 -9.63,4.298 -8.512,7.371c0.578,1.589 0.946,1.905 7.07,6.078c6.468,4.407 6.085,3.657 5.652,11.08c-0.476,8.161 0.025,9.58 4.737,13.404c2.71,2.199 4.055,2.879 6.224,3.148c1.522,0.188 2.768,0.57 2.768,0.847c-0,0.617 1.899,0.673 2.472,0.075c0.744,-0.778 6.396,-1.696 7.593,-1.233c1.28,0.494 1.611,2.714 0.468,3.131c-0.387,0.141 -6.019,0.345 -12.517,0.455c-6.498,0.109 -12.108,0.388 -12.467,0.619c-1.13,0.73 -7.842,0.691 -8.697,-0.05c-0.589,-0.511 -9.466,-0.78 -33.346,-1.01c-17.899,-0.172 -35.269,-0.422 -38.6,-0.556c-16.351,-0.656 -33.67,-1.089 -37.198,-0.929c-4.738,0.214 -63.633,0.249 -78.645,0.046c-6.586,-0.088 -10.952,-0.385 -11.402,-0.775c-0.472,-0.409 -7.241,-0.73 -19.24,-0.911c-17.587,-0.265 -18.511,-0.333 -18.511,-1.372c0,-1.046 0.863,-1.094 19.909,-1.094l0,0.001Zm254.786,-5.576c1.552,-1.468 6.05,-1.563 6.811,-0.144c0.742,1.387 7.189,5.72 8.508,5.72c0.579,0 1.431,0.396 1.895,0.881c0.885,0.925 3.981,1.065 19.581,0.888c5.075,-0.058 7.8,-0.34 8.934,-0.926c0.897,-0.464 2.226,-0.843 2.954,-0.843c0.728,0 2.117,-0.792 3.087,-1.761c0.969,-0.969 1.852,-1.761 1.961,-1.761c0.109,-0 1.182,1.059 2.385,2.355c2.008,2.162 2.524,2.398 6.319,2.887c2.273,0.293 7.747,0.721 12.164,0.951c6.974,0.363 8.009,0.543 7.854,1.368c-0.159,0.846 -1.361,0.927 -10.841,0.738c-5.864,-0.117 -10.872,-0.416 -11.13,-0.665c-0.257,-0.248 -1.191,-0.166 -2.075,0.183c-1.213,0.479 -1.943,0.447 -2.973,-0.129c-1.024,-0.572 -1.655,-0.602 -2.522,-0.116c-1.452,0.812 -9.095,0.862 -9.095,0.059c-0,-0.322 -1.138,-0.587 -2.528,-0.587c-1.391,0 -2.528,0.224 -2.528,0.498c-0,0.402 -16.141,1.147 -32.396,1.495c-2.372,0.051 -3.18,-0.207 -4.407,-1.406c-3.169,-3.095 -4.093,-7.666 -1.958,-9.685l-0,-0Zm84.137,7.924c0.241,0 1.01,0.42 1.71,0.932c1.005,0.735 1.444,0.783 2.087,0.225c0.577,-0.5 3.797,-0.681 11.07,-0.62c12.614,0.107 12.621,0.107 27.109,-0.135c11.164,-0.187 18.831,-0.985 20.179,-2.101c0.837,-0.693 3.861,-1.293 8.201,-1.627c3.144,-0.242 3.882,-0.103 5.197,0.978c1.906,1.567 2.099,4.566 0.397,6.175c-1.01,0.955 -2.075,1.058 -9.664,0.932c-4.691,-0.077 -8.693,-0.246 -8.892,-0.375c-0.748,-0.483 -8.108,-0.807 -26.934,-1.186c-18.803,-0.379 -27.509,-0.65 -28.088,-0.876c-0.445,-0.173 -1.343,-0.374 -2.106,-0.471c-0.75,-0.096 -1.001,-1.851 -0.266,-1.851l0,0Z" style="fill:#30553c;fill-rule:nonzero;stroke:#30553c;stroke-width:2.08px;"/></svg>