<?xml version="1.0" encoding="UTF-8" standalone="no"?><!DOCTYPE svg PUBLIC "-//W3C//DTD SVG 1.1//EN" "http://www.w3.org/Graphics/SVG/1.1/DTD/svg11.dtd"><svg width="100%" height="100%" viewBox="0 0 1024 120" version="1.1" xmlns="http://www.w3.org/2000/svg" xmlns:xlink="http://www.w3.org/1999/xlink" xml:space="preserve" xmlns:serif="http://www.serif.com/" style="fill-rule:evenodd;clip-rule:evenodd;stroke-linejoin:round;stroke-miterlimit:2;"><path id="path39" d="M678.562,2.931c-0.837,1.357 -3.37,3.371 -5.116,3.902c-1.25,0.379 -3.423,1.354 -4.83,2.166c-1.406,0.811 -3.563,1.998 -4.793,2.635c-4.745,2.461 -3.966,4.577 2.003,5.44c2.004,0.289 5.368,0.531 7.478,0.538c3.532,0.01 3.835,0.107 3.835,1.223c-0,1.207 -0.04,1.21 -10.369,0.817c-8.452,-0.321 -11.156,-0.227 -14.63,0.511c-5.734,1.218 -11.245,3.11 -13.507,4.637c-1.023,0.691 -3.708,1.954 -5.966,2.805c-2.257,0.852 -5.288,2.139 -6.734,2.86c-1.446,0.721 -2.783,1.158 -2.97,0.971c-0.187,-0.187 -0.507,0.097 -0.712,0.632c-0.205,0.534 -0.138,1.207 0.151,1.495c0.319,0.32 8.815,0.307 21.794,-0.032c22.616,-0.591 27.429,-0.307 29.271,1.728c1.376,1.521 2.289,10.242 1.286,12.286c-1.024,2.087 -2.456,2.904 -3.72,2.123c-0.548,-0.338 -2.274,-1.316 -3.837,-2.174c-1.562,-0.857 -4.247,-2.918 -5.965,-4.579l-3.125,-3.021l-8.238,0.776c-10.866,1.025 -14.747,1.003 -18.951,-0.105c-2.061,-0.544 -5.717,-0.919 -8.925,-0.917l-5.433,0.004l-6.857,3.474c-3.771,1.91 -7.412,3.473 -8.092,3.473c-0.68,-0 -2.362,0.283 -3.738,0.63c-1.886,0.475 -3.242,0.458 -5.507,-0.07c-3.001,-0.7 -8.975,-3.371 -11.982,-5.358c-1.15,-0.76 -2.727,-1.068 -5.681,-1.11c-4.616,-0.065 -7.787,1.153 -9.651,3.706c-1.387,1.899 -0.769,3.205 2.578,5.453c2.676,1.797 3.031,2.941 1.197,3.856c-3.832,1.911 -3.909,3.391 -0.427,8.264c4.07,5.694 4.743,7.521 4.757,12.92c0.017,6.355 0.73,7.097 7.726,8.04c2.788,0.376 5.837,0.914 6.774,1.197c4.474,1.349 14.672,0.507 18.394,-1.518c1.368,-0.744 2.94,-1.353 3.495,-1.353c0.554,-0 2.539,1.15 4.409,2.556c3.642,2.738 5.169,3.109 6.66,1.618c0.756,-0.756 0.865,-1.572 0.559,-4.205c-0.456,-3.926 0.312,-4.729 3.642,-3.811c2.814,0.775 8.582,3.71 10.186,5.182c1.174,1.078 1.874,1.197 6.148,1.046c5.166,-0.183 10.971,-1.678 12.744,-3.282c0.598,-0.542 1.088,-1.584 1.088,-2.317c0,-0.954 0.323,-1.332 1.136,-1.332c0.937,-0 1.137,0.378 1.137,2.158c-0,1.981 0.772,3.523 1.764,3.523c0.986,-0 3.55,-5.68 6.149,-13.623c3.001,-9.173 3.544,-10.239 5.213,-10.239c1.307,-0 1.482,0.747 2.205,9.374c0.314,3.75 0.852,7.841 1.195,9.091c0.832,3.03 2.916,5.125 5.941,5.972c2.318,0.649 2.66,0.594 5.077,-0.823c2.832,-1.659 3.367,-2.407 9.999,-13.966c4.938,-8.606 5.348,-10.303 3.409,-14.103c-1.461,-2.864 -5.382,-6.709 -7.194,-7.056c-0.806,-0.154 -2.403,-0.066 -3.55,0.195c-4.164,0.948 -8.619,-3.029 -8.619,-7.694c0,-2.593 1.281,-4.435 3.89,-5.589c1.059,-0.469 9.033,-0.722 26.836,-0.849c22.498,-0.162 25.412,-0.082 26.071,0.713c0.954,1.148 0.057,2.204 -3.877,4.566c-3.739,2.245 -4.653,3.929 -5.023,9.255c-0.301,4.336 -0.73,5.477 -3.404,9.071c-1.128,1.515 -1.568,1.747 -2.436,1.282c-0.802,-0.429 -1.154,-1.5 -1.448,-4.406c-0.505,-4.986 -2.38,-12.091 -3.524,-13.356c-2.222,-2.456 -5.489,-0.067 -7.28,5.323c-0.537,1.619 -2.006,4.584 -3.263,6.589c-2.921,4.658 -3.437,8.297 -1.552,10.944c1.349,1.895 1.35,1.877 -0.225,8.818c-1.179,5.196 -1.163,8.466 0.05,9.678c0.773,0.773 1.495,0.871 3.835,0.518c3.963,-0.598 6.991,-0.386 9.837,0.691c3.282,1.241 6.873,0.736 8.384,-1.178c0.626,-0.792 1.777,-2.258 2.558,-3.258c0.781,-0.999 2.187,-3.224 3.125,-4.943c3.054,-5.601 4.405,-5.443 7.588,0.886c2.928,5.824 4.17,10.022 3.492,11.805c-1.038,2.731 -2.73,3.236 -10.632,3.172c-3.996,-0.032 -13.019,0.229 -20.049,0.581c-13.346,0.667 -52.028,0.705 -156.24,0.152c-71.027,-0.376 -71.143,-0.375 -74.044,0.785c-2.016,0.807 -2.463,0.806 -4.853,-0.007c-1.995,-0.679 -6.207,-0.982 -17.404,-1.255c-26.508,-0.646 -30.628,-0.825 -34.473,-1.502c-5.454,-0.96 -22.88,-0.366 -25.182,0.858c-2.232,1.188 -3.279,1.148 -5.973,-0.226c-1.9,-0.97 -3.365,-1.143 -9.778,-1.154c-14.374,-0.026 -46.8,0.474 -58.443,0.902c-8.974,0.33 -12.149,0.261 -13.635,-0.296c-2.981,-1.116 -29.613,-1.637 -60.172,-1.176c-19.808,0.298 -65.41,-0.437 -67.606,-1.091c-1.091,-0.325 -4.287,-0.595 -7.102,-0.602c-2.814,-0.006 -6.835,-0.259 -8.934,-0.563c-3.688,-0.533 -23.053,-1.555 -37.089,-1.957c-3.861,-0.111 -7.498,-0.507 -8.385,-0.914c-1.272,-0.583 -1.83,-0.578 -2.96,0.027c-1.029,0.551 -3.213,0.667 -8.379,0.443c-9.918,-0.428 -15.217,0.009 -15.217,1.257c0,0.629 0.746,1.187 2.131,1.594c1.171,0.344 3.457,1.024 5.078,1.511c1.621,0.487 3.41,0.882 3.977,0.878c0.566,-0.005 3.688,0.698 6.937,1.562c4.958,1.318 6.268,1.914 8.143,3.702c1.229,1.171 2.463,2.13 2.743,2.13c0.28,0 2.421,0.895 4.757,1.989c2.336,1.093 4.372,1.988 4.526,1.988c0.153,0 2.724,1.432 5.713,3.182c6.493,3.801 9.213,4.69 15.792,5.157c5.197,0.369 6.287,1.106 3.511,2.371c-1.7,0.774 -1.667,2.32 0.067,3.195c2.944,1.487 5.836,4.757 4.972,5.621c-0.848,0.848 -2.155,0.175 -5.183,-2.672c-3.158,-2.969 -4.598,-3.765 -19.834,-10.966c-8.466,-4.001 -9.547,-3.271 -4.097,2.769c3.932,4.357 8,9.636 7.676,9.96c-0.325,0.325 -8.57,-7.784 -10.265,-10.095c-2.516,-3.429 -9.494,-9.123 -13.35,-10.893c-8.199,-3.764 -14.816,-6.07 -19.317,-6.734c-1.719,-0.253 -4.403,-0.841 -5.965,-1.306c-2.563,-0.763 -7.24,-1.451 -21.822,-3.215c-6.134,-0.741 -23.526,-0.746 -31.584,-0.008c-3.437,0.314 -8.678,1.099 -11.647,1.743c-2.969,0.645 -6.488,1.411 -7.82,1.702c-4.938,1.081 -17.216,0.109 -18.857,-1.492c-0.605,-0.591 -0.888,-2.672 -1.059,-7.791c-0.199,-5.996 -0.099,-7.095 0.71,-7.766c0.825,-0.685 1.203,-0.532 3.047,1.23c2.54,2.427 4.112,3.282 6.032,3.282c2.458,0 3.412,-2.27 3.809,-9.064c0.346,-5.908 0.397,-6.082 3.656,-12.435c2.701,-5.266 3.189,-6.629 2.671,-7.458c-0.348,-0.558 -0.8,-2.005 -1.004,-3.215c-1.166,-6.917 -2.384,-7.888 -9.322,-7.435c-2.68,0.176 -5.525,0.569 -6.323,0.874c-2.771,1.059 -4.553,-1.486 -2.486,-3.553l-0,-0c1.182,-1.183 -4.017,-1.124 81.347,-0.915c31.665,0.078 54.818,0.35 55.002,0.647c0.398,0.645 3.49,0.673 3.885,0.035c0.364,-0.589 12.052,-0.859 14.805,-0.343c1.107,0.208 2.012,0.58 2.012,0.827c0,0.601 -3.225,1.697 -4.995,1.697c-0.779,-0 -3.145,0.515 -5.259,1.144c-3.363,1.002 -4.242,1.576 -7.048,4.608c-1.764,1.904 -3.601,4.064 -4.082,4.799c-0.481,0.734 -1.376,1.494 -1.988,1.689c-1.85,0.587 -2.763,-0.729 -2.763,-3.984c0,-3.166 -0.723,-4.291 -3.41,-5.303c-1.243,-0.468 -28.247,-1.305 -48.859,-1.514c-3.906,-0.04 -16.689,-0.299 -28.407,-0.575c-11.718,-0.276 -22.297,-0.52 -23.509,-0.541c-2.862,-0.051 -3.927,1.334 -2.36,3.066c1.17,1.292 1.201,1.888 0.572,10.832c-0.38,5.407 -0.308,6.199 0.746,8.238c1.353,2.619 5.454,6.687 9.442,9.365c6.202,4.167 12.348,5.109 16.529,2.534c2.864,-1.764 4.171,-1.764 6.592,0.001c1.062,0.774 2.77,1.849 3.797,2.388c1.8,0.945 2.001,0.933 5.681,-0.322c3.688,-1.258 3.928,-1.271 7.201,-0.399c4.686,1.249 7.878,1.115 12.522,-0.527c2.188,-0.773 4.395,-1.407 4.905,-1.408c0.511,-0.001 1.862,1.031 3.004,2.294l2.075,2.297l1.633,-1.163c0.898,-0.64 2.569,-2.865 3.712,-4.946c2.142,-3.896 3.035,-6.987 4.567,-15.813c1.07,-6.165 3.219,-10.227 5.411,-10.227c1.325,0 1.388,0.152 1.238,2.974c-0.115,2.16 0.176,3.63 1.065,5.371c1.029,2.018 1.168,2.988 0.875,6.117c-0.191,2.045 -0.751,5.125 -1.245,6.844c-1.973,6.87 -1.675,8.118 2.171,9.092c1.323,0.335 3.344,1.013 4.492,1.506c1.467,0.631 3.275,0.831 6.083,0.672c5.05,-0.285 8.005,-2.169 10.801,-6.885c1.297,-2.187 2.289,-3.249 3.036,-3.249c1.002,-0 1.073,0.27 0.728,2.777c-0.342,2.483 -0.243,2.875 0.925,3.693c3.22,2.255 4.941,0.343 8.195,-9.105c1.717,-4.984 2.517,-8.247 2.518,-10.261c0,-2.731 0.157,-3.074 2.073,-4.535c1.139,-0.869 2.421,-2.416 2.848,-3.438c0.859,-2.055 1.408,-2.278 2.468,-1.001c0.544,0.655 0.566,1.422 0.094,3.267c-0.339,1.326 -1.041,4.738 -1.56,7.581c-0.899,4.926 -0.895,5.275 0.092,7.386c1.617,3.462 7.36,8.804 12.653,11.77c5.153,2.887 7.248,3.242 10.679,1.808c2.805,-1.172 6.416,-1.067 9.367,0.272c4.033,1.83 5.536,1.559 8.181,-1.478l2.296,-2.635l3.792,1.828c4.205,2.028 6.665,2.231 20.675,1.705l6.9,-0.26l2.33,1.872c1.282,1.03 3.568,2.445 5.08,3.146c1.513,0.701 3.788,2.096 5.055,3.1c1.268,1.003 2.656,1.825 3.085,1.825c0.996,-0 4.327,-2.26 7.117,-4.827c2.753,-2.534 3.762,-2.843 5.521,-1.69c1.122,0.736 3.17,0.958 9.826,1.067c10.396,0.171 15.448,-0.389 19.487,-2.159c4.639,-2.034 6.434,-2.293 7.456,-1.077c0.775,0.923 2.187,4.02 2.989,6.555c0.392,1.24 2.381,1.307 2.846,0.096c0.189,-0.494 0.345,-1.733 0.345,-2.753c-0,-2.16 1.46,-3.737 3.453,-3.729c0.757,0.002 2.511,0.908 3.898,2.01c2.921,2.322 3.339,2.301 10.538,-0.521c4.135,-1.62 4.728,-2.056 6.672,-4.903c1.39,-2.037 2.451,-4.51 3.045,-7.102c1.092,-4.77 1.871,-6.534 2.885,-6.534c0.416,0 0.768,0.192 0.783,0.426c0.015,0.235 0.141,3.495 0.283,7.244c0.321,8.53 1.271,14.319 2.422,14.761c0.484,0.185 2.309,-0.648 4.203,-1.92c1.841,-1.236 4.622,-2.521 6.179,-2.855c1.558,-0.334 3.783,-1.086 4.944,-1.671c1.162,-0.585 3.281,-1.234 4.709,-1.442c2.143,-0.312 2.862,-0.17 4.115,0.816c0.835,0.657 3.118,1.845 5.073,2.641c3.634,1.479 5.288,1.531 12.511,0.392c1.988,-0.314 2.179,-0.218 2.734,1.373c0.676,1.94 2.4,2.644 4.03,1.647c0.606,-0.371 1.875,-2.018 2.819,-3.661c0.944,-1.642 2.226,-3.258 2.848,-3.591c1.609,-0.861 3.554,0.566 5.469,4.013c2.46,4.427 3.984,5.016 16.16,6.253c6.438,0.653 10.682,-0.13 15.636,-2.886c3.616,-2.011 3.966,-2.022 7.874,-0.234c1.708,0.781 3.928,1.431 4.935,1.445c1.006,0.013 2.852,0.392 4.102,0.841c2.098,0.753 2.503,0.721 5.276,-0.422c2.804,-1.156 3.218,-1.186 6.249,-0.459c5.346,1.284 12.218,1.394 15.333,0.245c3.421,-1.262 4.579,-2.262 5.144,-4.444c0.25,-0.962 0.821,-1.816 1.27,-1.897c0.449,-0.081 2.442,1.388 4.43,3.266c1.987,1.877 3.904,3.443 4.261,3.479c1.501,0.151 2.867,-0.223 4.545,-1.246c2.438,-1.487 5.535,-1.37 8.788,0.331c2.168,1.134 3.638,1.441 7.233,1.513c4.513,0.09 11.37,-0.653 12.495,-1.355c0.329,-0.205 1.892,-0.883 3.474,-1.507l2.877,-1.134l4.42,2.235c5.028,2.541 7.747,2.816 11.402,1.156c3.687,-1.674 4.587,-3.273 5.063,-8.991l0.415,-4.976l6.977,-6.484l-1.307,-3.659c-1.032,-2.892 -1.225,-4.271 -0.919,-6.579c0.521,-3.925 -0.533,-5.163 -4.396,-5.163c-2.289,0 -2.753,-0.175 -2.753,-1.04c0,-0.572 0.64,-1.382 1.421,-1.8c1.619,-0.867 1.806,-1.814 0.562,-2.846c-0.691,-0.574 -2.271,-0.527 -8.096,0.241c-3.981,0.524 -8.85,1.331 -10.82,1.793c-1.97,0.462 -3.813,0.697 -4.095,0.523c-0.282,-0.174 -0.941,0.512 -1.465,1.526c-0.768,1.483 -0.89,2.815 -0.63,6.836c0.303,4.671 0.253,4.994 -0.776,4.994c-0.876,-0 -1.099,-0.401 -1.099,-1.98c0,-1.837 -0.437,-4.173 -1.78,-9.516c-0.303,-1.208 -1.06,-2.403 -1.758,-2.777c-2.253,-1.206 -11.881,-0.577 -19.614,1.281c-2.604,0.626 -3.336,0.59 -5.761,-0.282c-3.978,-1.43 -8.199,-1.716 -13.414,-0.909c-2.5,0.387 -7.996,0.794 -12.215,0.904c-9.775,0.254 -11.607,0.894 -15.323,5.359c-2.332,2.802 -2.832,3.829 -3.165,6.488c-0.302,2.418 -0.73,3.423 -1.824,4.284c-2.034,1.599 -4.224,1.436 -5.874,-0.437c-4.514,-5.126 -4.828,-6.568 -2.402,-11.026l1.523,-2.799l-1.175,-1.175c-1.458,-1.458 -5.551,-1.992 -8.302,-1.084c-3.205,1.057 -4.79,2.621 -5.216,5.147c-0.24,1.417 -0.909,2.681 -1.785,3.37c-1.499,1.18 -1.087,1.228 -8.158,-0.957c-1.094,-0.338 -3.267,-1.006 -4.829,-1.485c-1.563,-0.479 -4.375,-1.425 -6.25,-2.104c-3.259,-1.18 -3.524,-1.194 -6.038,-0.315c-2.486,0.87 -2.765,0.86 -5.113,-0.175c-1.366,-0.602 -3.754,-1.177 -5.305,-1.277c-2.358,-0.152 -2.856,-0.013 -3.032,0.852c-0.14,0.682 0.202,1.143 1.002,1.352c1.881,0.492 1.165,2.088 -1.121,2.495c-1.09,0.195 -2.238,0.421 -2.55,0.502c-1.633,0.427 -2.586,-0.316 -4.773,-3.722c-2.58,-4.019 -3.924,-4.885 -9.32,-6.011c-5.835,-1.216 -7.532,-1.371 -9.769,-0.892c-2.611,0.558 -8.97,1.266 -18.749,2.087c-8.61,0.722 -11.915,1.47 -14.772,3.341c-2.795,1.831 -6.043,1.909 -9.499,0.227c-4.619,-2.247 -9.264,-3.991 -13.183,-4.95c-2.163,-0.53 -4.549,-1.367 -5.303,-1.86c-1.13,-0.741 -1.693,-0.782 -3.209,-0.233c-1.012,0.365 -3.811,0.664 -6.22,0.664c-5.028,0 -7.272,0.769 -10.881,3.726l-2.515,2.061l-1.724,-1.228c-0.948,-0.675 -1.724,-1.418 -1.724,-1.651c0,-0.689 -3.885,-2.338 -5.558,-2.36c-1.845,-0.024 -8.037,-1.454 -8.559,-1.976c-0.203,-0.203 0.121,-0.727 0.718,-1.164c1.209,-0.884 19.039,-0.903 55.726,-0.058c10.624,0.244 24.683,0.43 31.242,0.412c7.17,-0.02 12.673,0.214 13.801,0.587c1.031,0.34 2.313,0.43 2.847,0.199c0.534,-0.231 4.933,-0.353 9.777,-0.273c19.023,0.318 27.627,0.486 29.259,0.57c0.937,0.048 4.133,-0.03 7.102,-0.175c2.968,-0.144 21.376,-0.415 40.906,-0.602c98.396,-0.943 117.68,-1.248 131.526,-2.082c5.312,-0.321 10.553,-0.809 11.647,-1.085c1.093,-0.276 3.522,-0.804 5.397,-1.173c7.038,-1.387 17.226,-4.085 22.442,-5.943c2.968,-1.058 7.059,-2.498 9.09,-3.201c2.031,-0.702 9.957,-4.321 17.612,-8.042c7.656,-3.721 16.988,-8.257 20.738,-10.08c3.75,-1.823 7.457,-3.496 8.238,-3.717c0.202,-0.058 0.497,-0.179 0.855,-0.347l0,1.889Zm70.438,80.036c0.464,-0.385 1.41,-1.833 2.101,-3.218c0.692,-1.385 1.588,-2.792 1.99,-3.126c1.109,-0.92 3.313,-0.117 4.036,1.471c1.149,2.522 8.809,5.434 14.295,5.434c3.087,-0 3.607,-0.347 6.748,-4.501c1.676,-2.218 3.238,-2.225 5.904,-0.028c3.269,2.695 5.375,3.352 9.555,2.981c3.489,-0.31 9.638,-2.93 9.638,-4.108c-0,-0.848 4.655,-5.707 5.468,-5.707c0.455,0 1.83,1.087 3.056,2.415l2.228,2.414l4.141,-0.019c7.429,-0.034 9.337,-0.766 13.335,-5.115c4.943,-5.378 5.292,-5.096 5.292,4.282c0,6.214 0.145,7.477 0.891,7.763c1.469,0.564 1.939,-0.482 2.869,-6.387c0.996,-6.332 2.535,-10.467 3.896,-10.467c1.112,0 1.33,0.592 1.67,4.53c0.357,4.122 1.052,4.566 7.117,4.541c5.317,-0.022 6.488,-0.454 8.82,-3.247c0.848,-1.016 2.006,-1.847 2.575,-1.847c0.597,0 2.27,1.573 3.957,3.72c5.203,6.62 8.273,7.495 12.272,3.496c1.343,-1.343 2.565,-3.069 2.716,-3.835c1.97,-10.012 2.669,-12.37 5.291,-17.845c2.817,-5.882 2.87,-6.832 0.719,-12.844c-2.094,-5.855 -4.249,-8.616 -7.404,-9.487c-2.169,-0.599 -13.548,-0.041 -15.561,0.763c-0.625,0.25 -2.312,1.143 -3.749,1.985c-4.179,2.45 -4.85,2.52 -7.481,0.778c-3.013,-1.994 -8.412,-2.671 -20.302,-2.547c-4.844,0.05 -10.66,-0.082 -12.925,-0.294c-3.519,-0.328 -4.119,-0.54 -4.119,-1.454c-0,-0.588 0.063,-1.081 0.142,-1.095c3.452,-0.609 46.426,-1.832 79.966,-2.274c24.53,-0.324 48.69,-0.668 53.69,-0.765c4.999,-0.096 22.446,-0.383 38.77,-0.637c28.257,-0.439 29.735,-0.411 30.822,0.572c0.628,0.568 1.142,1.473 1.142,2.012c-0,1.839 -1.715,2.531 -6.763,2.731c-7.294,0.288 -6.912,0.289 -26.758,-0.093c-23.282,-0.449 -94.229,-0.503 -94.926,-0.072c-0.969,0.599 -0.528,1.67 1.149,2.794c2.156,1.445 2.874,3.097 2.874,6.619c-0,1.57 0.377,4.945 0.837,7.501c0.461,2.556 0.991,5.641 1.177,6.854c0.406,2.647 4.215,6.926 9.88,11.101c6.33,4.664 9.283,5.891 14.865,6.175c4.571,0.233 5.121,0.135 8.514,-1.521c1.995,-0.973 3.992,-1.769 4.438,-1.769c0.445,-0 2.733,1.304 5.084,2.899c5.058,3.432 6.285,3.579 11.704,1.402l3.947,-1.586l3.155,0.979c1.736,0.538 4.365,1.101 5.842,1.252c3.327,0.34 10.412,-1.053 15.152,-2.979c3.937,-1.599 4.528,-1.451 6.067,1.525c1.834,3.547 3.438,3.331 8.652,-1.164c4.582,-3.951 6.399,-8.097 6.933,-15.815c0.232,-3.363 0.955,-8.032 1.606,-10.376c0.651,-2.343 1.329,-5.194 1.506,-6.334c0.809,-5.202 4.838,-3.279 4.838,2.308c-0,1.747 1.821,6.946 3.136,8.953c0.647,0.987 0.947,2.869 1.009,6.335c0.078,4.307 -0.106,5.339 -1.46,8.162c-2.825,5.894 -1.773,9.543 2.757,9.561c1.225,0.004 2.552,0.214 2.947,0.465c0.436,0.276 0.824,2.175 0.982,4.807c0.242,4.015 0.168,4.401 -0.964,5.007c-0.903,0.483 -6.071,0.547 -19.537,0.243c-10.071,-0.228 -18.845,-0.244 -19.498,-0.037c-1.612,0.512 -1.592,2.573 0.024,2.573c1.304,0 3.388,0.531 10.282,2.621c2.416,0.732 6.123,1.597 8.238,1.923c2.115,0.326 6.118,1.156 8.895,1.846c4.604,1.144 5.169,1.438 6.424,3.333c0.884,1.337 1.967,2.197 3.03,2.41c3.1,0.62 3.965,2.129 3.786,6.604c-0.163,4.112 -1.132,6.228 -2.086,4.557c-3.075,-5.39 -5.578,-7.195 -15.41,-11.112c-7.352,-2.929 -13.678,-4.672 -23.519,-6.481c-3.75,-0.69 -7.713,-1.487 -8.806,-1.771c-1.094,-0.284 -5.185,-0.776 -9.091,-1.093c-3.906,-0.317 -9.274,-0.841 -11.931,-1.164c-6.367,-0.775 -50.2,-0.764 -52.833,0.014c-3.178,0.938 -10.32,0.719 -13.142,-0.403c-2.668,-1.061 -16.599,-1.179 -95.946,-0.817c-16.717,0.076 -32.087,0.03 -34.154,-0.103c-3.663,-0.236 -6.039,-1.028 -6.885,-2.295c-0.726,-1.087 -0.469,-4.151 0.408,-4.879l0,0Zm-583.586,-49.731c1.657,-0.207 6.068,-0.257 9.8,-0.111c23.401,0.915 34.952,1.169 63.964,1.408c15.339,0.127 16.349,0.2 17.613,1.271l1.341,1.136l-1.215,1.034c-0.897,0.764 -2.948,1.204 -7.833,1.683c-7.144,0.7 -6.637,0.512 -19.243,7.13c-7.336,3.851 -7.152,3.834 -18.488,1.718c-2.107,-0.394 -4.069,-2.732 -4.078,-4.863c-0.013,-2.614 -0.498,-3.156 -4.01,-4.476c-3.676,-1.382 -10.232,-2.06 -26.662,-2.757c-6.718,-0.285 -12.662,-0.693 -13.209,-0.907c-2.016,-0.787 -1.039,-1.883 2.02,-2.266l-0,0Z" style="fill:#30553c;fill-rule:nonzero;stroke:#30553c;stroke-width:2.08px;"/></svg>