<?xml version="1.0" encoding="UTF-8" standalone="no"?><!DOCTYPE svg PUBLIC "-//W3C//DTD SVG 1.1//EN" "http://www.w3.org/Graphics/SVG/1.1/DTD/svg11.dtd"><svg width="100%" height="100%" viewBox="0 0 1016 172" version="1.1" xmlns="http://www.w3.org/2000/svg" xmlns:xlink="http://www.w3.org/1999/xlink" xml:space="preserve" xmlns:serif="http://www.serif.com/" style="fill-rule:evenodd;clip-rule:evenodd;stroke-linejoin:round;stroke-miterlimit:2;"><path id="path39" d="M674.453,168.073c0.762,-0.599 1.597,-1.303 2.378,-2.017c1.851,-1.691 4.205,-3.501 5.23,-4.023c2.474,-1.26 2.17,-2.967 -0.898,-5.041c-3.095,-2.092 -3.69,-3.382 -2.314,-5.022c0.581,-0.692 1.811,-3.308 2.733,-5.812c0.922,-2.505 2.301,-5.718 3.063,-7.141c0.763,-1.422 1.756,-3.847 2.207,-5.387c1.204,-4.112 4.199,-8.049 5.9,-7.754c1.046,0.181 1.575,0.998 2.132,3.291c1.821,7.502 5.055,9.305 13.06,7.282c8.22,-2.077 9.532,-2.639 11.447,-4.908l1.748,-2.071l-0.379,-6.118c-0.331,-5.342 -0.257,-6.184 0.584,-6.639c1.15,-0.621 5.497,5.504 8.562,12.065c1.091,2.337 3.18,5.996 4.642,8.132c2.376,3.471 2.917,3.884 5.088,3.884c1.688,0 3.367,-0.755 5.503,-2.476c3.732,-3.006 6.465,-2.829 9.536,0.619c5.435,6.103 6.09,5.966 6.109,-1.275c0.01,-3.84 0.255,-5.038 1.378,-6.721c0.751,-1.126 1.54,-2.047 1.754,-2.047c1.067,-0 3.312,4.444 4.158,8.232c0.524,2.346 1.513,5.007 2.198,5.913c1.481,1.96 4.384,2.369 7.247,1.023c1.807,-0.849 2.352,-0.777 4.226,0.564c1.866,1.335 2.538,1.426 5.07,0.691c2.273,-0.66 3.441,-0.604 5.283,0.252c2.259,1.05 2.412,1.016 3.428,-0.75c0.895,-1.556 1.006,-2.64 0.701,-6.837c-0.448,-6.151 0.007,-9.088 1.406,-9.088c0.811,-0 1.179,0.983 1.68,4.496c0.352,2.472 0.641,5.82 0.641,7.439c-0,6.22 2.83,5.883 4.859,-0.579c0.737,-2.347 1.725,-4.474 2.194,-4.728c1.131,-0.611 3.772,0.983 6.282,3.792c2.483,2.778 2.759,2.788 6.266,0.226l2.802,-2.047l2.423,1.74c2.37,1.703 2.879,1.739 23.686,1.698c20.327,-0.04 21.365,-0.114 23.54,-1.676c1.268,-0.911 3.363,-1.634 4.734,-1.634c3.163,-0 4.516,-1.965 5.783,-8.397c0.882,-4.482 0.885,-5.231 0.039,-10.47c-0.502,-3.104 -0.912,-6.899 -0.912,-8.432c-0,-3.904 -2.052,-11.197 -4.054,-14.407c-2.718,-4.36 -4.305,-4.648 -17.099,-3.107c-6.184,0.745 -14.389,1.731 -18.234,2.191c-5.194,0.622 -7.621,0.599 -9.445,-0.088c-3.658,-1.377 -8.052,-1.123 -11.778,0.682c-2.707,1.312 -3.602,1.441 -4.866,0.704c-0.852,-0.497 -2.226,-0.665 -3.052,-0.373c-0.989,0.35 -2.546,-0.065 -4.552,-1.211c-2.669,-1.526 -3.327,-1.625 -5.28,-0.802c-1.607,0.678 -4.863,0.767 -11.657,0.318c-5.185,-0.342 -9.79,-0.566 -10.233,-0.497c-0.443,0.069 -5.007,0.342 -10.142,0.605c-8.775,0.451 -13.076,1.298 -21.167,4.169c-3.525,1.25 -4.385,1.668 -11.884,5.762c-2.508,1.37 -5.931,3.031 -7.607,3.692c-4.24,1.673 -13.651,2.623 -17.695,1.785c-4.636,-0.959 -9.904,-2.194 -14.931,-3.498c-6.921,-1.796 -18.731,-4.152 -20.846,-4.159c-1.085,-0.003 -12.616,-0.032 -25.624,-0.062l-23.652,-0.056l-2.889,1.862c-3.165,2.04 -5.188,5.242 -7.041,11.141c-1.156,3.679 -1.714,7.998 -2.721,21.061c-0.48,6.225 -2.033,11.326 -3.576,11.748c-1.102,0.302 -3.477,-5.198 -5.303,-12.284c-1.657,-6.425 -1.643,-7.926 0.125,-13.84c1.419,-4.747 1.425,-4.858 0.492,-8.901c-1.135,-4.921 -2.611,-7.407 -5.498,-9.257c-1.957,-1.255 -4.034,-1.355 -22.2,-1.062c-19.738,0.317 -20.093,0.351 -23.52,2.282c-1.914,1.078 -4.314,1.96 -5.334,1.96c-1.046,0 -4.152,-1.563 -7.125,-3.586c-2.899,-1.972 -6.038,-3.802 -6.976,-4.066c-1.112,-0.313 -1.704,-0.959 -1.704,-1.858c-0,-1.289 1.877,-1.384 29.157,-1.483c16.036,-0.058 38.284,-0.458 49.44,-0.888c11.156,-0.431 27.002,-0.972 35.214,-1.203c8.212,-0.231 16.325,-0.739 18.03,-1.129c1.858,-0.426 4.248,-0.415 5.971,0.027c1.768,0.453 9.895,0.451 21.129,-0.006c20.177,-0.82 23.772,-1.624 27.989,-6.262c2.02,-2.221 5.413,-5.158 9.824,-8.503c3.467,-2.628 8.377,-7.706 11.316,-11.702c2.747,-3.734 4.34,-4.735 4.34,-2.727c-0,1.281 -2.908,5.305 -3.834,5.305c-1.146,0 -0.742,3.017 0.579,4.319c1.567,1.546 3.355,1.551 9.115,0.027c2.51,-0.664 5.831,-1.536 7.38,-1.937c1.55,-0.402 4.339,-1.156 6.198,-1.677c4.109,-1.151 18.837,-4.499 24.128,-5.485c2.115,-0.394 4.651,-1.068 5.635,-1.497c0.984,-0.429 3.183,-1.003 4.888,-1.275c1.704,-0.271 5.253,-1.344 7.887,-2.384c2.634,-1.039 6.525,-2.442 8.645,-3.117c5.657,-1.802 10.255,-5.392 14.574,-11.38c3.07,-4.255 3.85,-4.987 4.148,-3.894c0.202,0.74 0.09,1.817 -0.25,2.393c-0.453,0.768 -0.412,1.44 0.152,2.527c0.712,1.37 1.118,1.414 5.484,0.589c5.886,-1.112 13.683,-5.033 17.85,-8.977c4.042,-3.826 15.668,-17.901 20.095,-24.328c4.896,-7.107 15.61,-14.273 15.471,-10.347c-0.019,0.545 -1.984,2.774 -4.366,4.953c-2.383,2.179 -5.6,5.604 -7.149,7.612c-1.55,2.007 -3.796,4.568 -4.992,5.69c-2.655,2.492 -8.455,10.189 -9.709,12.884c-0.504,1.084 -0.757,2.557 -0.562,3.274c0.471,1.727 5.808,1.179 11.326,-1.162c2.165,-0.919 6.988,-2.926 10.716,-4.461c3.729,-1.535 8.369,-3.668 10.313,-4.741c1.944,-1.072 4.347,-2.132 5.34,-2.354c1.861,-0.416 9.847,-4.404 15.979,-7.98c1.913,-1.115 5.462,-2.54 7.888,-3.166c2.425,-0.626 6.31,-1.672 8.635,-2.325c2.324,-0.652 7.521,-1.927 11.55,-2.834c4.028,-0.906 7.92,-1.872 8.649,-2.145c1.061,-0.398 1.285,-0.219 1.127,0.904c-0.23,1.626 -4.473,4.27 -6.958,4.335c-1.545,0.04 -7.193,2.384 -18.312,7.598c-2.324,1.09 -4.733,1.976 -5.353,1.969c-1.78,-0.021 -21.922,7.993 -23.971,9.537c-0.643,0.485 -1.086,1.482 -0.983,2.216c0.231,1.665 3.031,1.714 14.531,0.25c8.464,-1.077 11.268,-0.635 11.268,1.774c0,1.415 -1.219,2.087 -3.784,2.087c-1.101,0 -3.552,0.35 -5.447,0.777c-1.895,0.427 -7.376,1.372 -12.179,2.099c-9.055,1.373 -11.476,1.815 -18.593,3.398c-11.641,2.589 -16.936,4.493 -21.627,7.778c-3.208,2.247 -4.864,2.846 -9.578,3.465c-10.302,1.354 -16.232,3.425 -28.362,9.905c-3.542,1.892 -7.625,3.684 -9.073,3.982c-1.448,0.298 -4.089,1.569 -5.868,2.825c-1.78,1.256 -4.612,2.787 -6.293,3.404c-3.631,1.332 -9.758,4.424 -13.29,6.708c-2.646,1.71 -5.635,2.206 -5.635,0.934c0,-2.155 10.829,-9.467 16.458,-11.113c2.985,-0.872 7.77,-4.754 7.77,-6.302c-0,-0.38 -0.367,-1.12 -0.815,-1.644c-0.804,-0.939 -4.485,0.277 -19.187,6.339c-2.169,0.895 -4.704,1.476 -5.634,1.291c-0.93,-0.184 -2.147,0.001 -2.704,0.412c-0.558,0.411 -2.079,0.906 -3.381,1.099c-1.301,0.194 -3.888,0.714 -5.747,1.155c-3.154,0.749 -13.457,3.159 -20.565,4.812c-7.19,1.671 -10.645,2.35 -14.367,2.823c-2.169,0.275 -4.649,1.001 -5.51,1.613c-0.862,0.612 -3.777,2.011 -6.48,3.109c-5.74,2.332 -7.04,3.614 -5.648,5.574c0.832,1.171 2.076,1.198 13.783,0.3c7.078,-0.544 15.405,-0.922 18.504,-0.84c7.129,0.186 15.992,-1.26 20.001,-3.264c1.705,-0.852 4.293,-2.072 5.751,-2.711c1.459,-0.639 2.805,-1.509 2.991,-1.934c0.624,-1.42 3.09,-0.896 3.09,0.657c0,0.993 -0.843,1.857 -2.755,2.825c-2.243,1.136 -2.702,1.682 -2.47,2.934c0.341,1.837 0.744,1.855 6.915,0.308c8.148,-2.042 45.5,-4.276 98.881,-5.913c15.494,-0.475 31.594,-1.054 35.777,-1.287c11.17,-0.621 66.706,-2.072 75.151,-1.963c7.42,0.095 9.536,0.775 10.712,3.44c0.474,1.077 0.363,1.718 -0.512,2.935c-1.268,1.765 -9.403,3.564 -12.46,2.757c-2.14,-0.566 -3.295,0.236 -6.978,4.841c-3.119,3.9 -3.618,3.912 -6.712,0.154c-3.548,-4.309 -4.471,-4.527 -19.153,-4.527c-14.003,-0 -15.432,0.281 -17.72,3.479c-0.896,1.253 -1.066,2.637 -1.04,8.501c0.017,3.852 0.224,7.443 0.46,7.981c0.236,0.537 0.603,4.225 0.817,8.195c0.412,7.673 1.453,11.666 3.429,13.155c1.48,1.115 3.476,-0.724 5.512,-5.078c1.866,-3.99 3.427,-3.924 3.427,0.145c-0,2.146 0.412,3.684 1.381,5.157c1.225,1.86 1.804,2.099 5.087,2.099c2.997,0 4.345,0.455 7.054,2.38c1.841,1.309 3.945,2.38 4.675,2.38c1.561,0 3.25,-2.397 4.618,-6.553c1.284,-3.901 3.183,-4.661 5.18,-2.072c3.192,4.138 4.676,13.345 2.57,15.942c-0.819,1.009 -4.658,1.371 -22.677,2.135c-11.931,0.506 -26.509,1.26 -32.397,1.675c-10.93,0.771 -30.33,1.265 -78.316,1.994c-21.571,0.328 -27.728,0.655 -30.425,1.615c-2.654,0.945 -5.08,1.088 -11.294,0.664c-6.598,-0.45 -8.564,-0.308 -11.832,0.857c-3.279,1.17 -5.113,1.3 -11.243,0.798c-4.028,-0.329 -7.958,-0.584 -8.733,-0.566c-0.774,0.018 -10.916,0.296 -22.536,0.617c-11.621,0.321 -26.58,0.668 -33.242,0.772c-6.663,0.103 -13.863,0.592 -16.001,1.085c-2.923,0.675 -4.74,0.669 -7.324,-0.027c-4.158,-1.118 -7.82,-1.042 -9.51,0.197c-0.689,0.505 -1.949,2.087 -2.801,3.515c-0.852,1.429 -2.754,3.378 -4.226,4.332c-1.472,0.954 -3.887,2.619 -5.366,3.7c-1.544,1.129 -3.463,1.894 -4.507,1.797c-1,-0.093 -2.25,0.091 -2.778,0.408c-0.269,0.162 -0.584,0.249 -0.87,0.257l0,-2.689Zm-107.193,-22.519c2.185,-3.076 5.071,-0.965 5.071,3.708c0,2.687 1.485,5.019 3.197,5.019c0.625,-0 1.574,0.681 2.109,1.514c0.878,1.367 0.892,1.736 0.141,3.769c-1.136,3.076 -3.164,5.597 -5.023,6.247c-2.295,0.802 -4.532,-2.918 -5.703,-9.485c-1.2,-6.724 -1.159,-8.847 0.208,-10.772l0,-0Zm-565.395,-38.364c1.91,-2.689 20.786,-3.868 65.076,-4.065c31.911,-0.142 39.082,0.024 41.412,0.955c1.549,0.619 3.197,1.068 3.662,0.996c3.152,-0.484 34.114,-1.116 37.467,-0.764c1.24,0.13 4.409,-0.162 7.043,-0.649c2.634,-0.487 8.592,-1.256 13.241,-1.708c4.648,-0.453 9.212,-0.997 10.141,-1.21c7.695,-1.762 35.979,-3.63 42.257,-2.79c0.93,0.124 4.352,0.166 7.606,0.094c3.254,-0.073 15.044,0.012 26.199,0.188c51.02,0.808 72.313,0.391 97.472,-1.91c4.959,-0.453 13.579,-1.231 19.157,-1.728c5.578,-0.497 16.353,-0.928 23.945,-0.958c14.179,-0.056 20.225,-0.847 27.268,-3.568c2.138,-0.825 4.205,-1.328 4.594,-1.118c0.389,0.21 1.683,-0.317 2.875,-1.171c2.483,-1.779 9.653,-4.904 11.251,-4.904c1.703,-0 7.919,-7.6 9.585,-11.719c0.834,-2.064 2.49,-5.57 3.679,-7.792c1.189,-2.222 2.161,-4.302 2.161,-4.622c0,-0.94 5.164,-10.115 5.459,-9.699c0.463,0.651 -1.844,7.109 -3.692,10.336c-1.896,3.313 -3.12,8.253 -2.557,10.32c0.665,2.441 4.563,1.61 8.357,-1.78c1.881,-1.681 6.59,-5.759 10.465,-9.063c3.875,-3.304 7.59,-6.838 8.257,-7.853c0.667,-1.015 2.01,-4.239 2.984,-7.164c0.975,-2.925 2.479,-6.156 3.343,-7.179c0.864,-1.023 1.857,-2.557 2.208,-3.409c0.484,-1.174 0.642,-1.251 0.655,-0.318c0.008,0.677 -0.214,1.569 -0.497,1.984c-0.283,0.414 -0.6,2.181 -0.704,3.927c-0.162,2.702 -0.02,3.208 0.967,3.406c1.181,0.238 8.149,-5.711 12.46,-10.639c1.907,-2.18 6.829,-5.858 7.839,-5.858c0.129,0 0.235,0.648 0.235,1.439c0,1.838 -2.33,4.881 -5.916,7.727c-3.514,2.788 -18.797,17.009 -22.396,20.839c-4.539,4.831 -3.735,5.683 5.399,5.724c4.39,0.021 6.718,0.371 7.701,1.162c1.004,0.808 3.391,1.142 8.31,1.162c6.52,0.027 6.902,0.116 6.902,1.615c0,0.919 -0.415,1.656 -0.986,1.753c-0.542,0.091 -8.846,0.194 -18.452,0.228l-17.466,0.062l-6.479,2.5c-11.003,4.244 -15.51,6.928 -21.2,12.627c-1.899,1.902 -3.829,3.457 -4.288,3.457c-0.46,0 -1.733,0.857 -2.829,1.904c-1.095,1.047 -2.54,2.149 -3.209,2.448c-0.73,0.326 -1.146,1.072 -1.039,1.864c0.133,0.99 0.882,1.368 2.99,1.51c7.102,0.477 9.974,1.169 11.032,2.658c1.399,1.971 1.366,4.282 -0.091,6.333c-1.029,1.449 -1.586,1.581 -4.693,1.113c-3.236,-0.488 -3.662,-0.368 -5.171,1.46c-1.832,2.217 -1.918,3.483 -1.352,19.85c0.26,7.528 0.222,7.857 -1.103,9.37c-0.915,1.046 -1.824,1.409 -2.724,1.091c-2.268,-0.801 -3.348,0.245 -5.729,5.555c-2.559,5.705 -4.977,8.095 -6.8,6.722c-1.043,-0.786 -1.406,-2.465 -1.227,-5.674c0.041,-0.723 1.419,-3.222 3.065,-5.554c1.645,-2.331 3.704,-6.305 4.574,-8.829c1.462,-4.237 1.534,-4.878 0.946,-8.33c-0.556,-3.265 -0.466,-4.572 0.711,-10.293c1.754,-8.524 1.417,-9.393 -2.993,-7.727c-3.614,1.365 -17.551,1.616 -22.782,0.409c-2.183,-0.503 -8.831,-0.488 -19.156,0.044c-8.697,0.449 -18.475,0.945 -21.729,1.103c-3.254,0.158 -11.24,0.673 -17.748,1.144c-6.507,0.471 -17.663,0.872 -24.79,0.891c-7.128,0.018 -14.1,0.04 -15.495,0.046c-1.394,0.006 -8.366,-0.084 -15.494,-0.201c-22.861,-0.373 -63.794,1.669 -67.726,3.379c-2.09,0.909 -2.495,0.872 -3.425,-0.314c-0.581,-0.74 -1.435,-1.345 -1.899,-1.345c-1.216,0 -8.982,3.878 -10.473,5.23c-0.695,0.63 -2.384,1.362 -3.754,1.627c-2.168,0.418 -2.809,0.166 -4.934,-1.941c-2.231,-2.21 -2.974,-2.469 -8.521,-2.972c-5.373,-0.487 -6.206,-0.387 -7.184,0.859c-1.324,1.688 -1.431,4.917 -0.242,7.309c0.476,0.956 2.427,3.43 4.336,5.499c3.179,3.444 3.709,3.747 6.288,3.589c1.549,-0.095 3.891,0.405 5.203,1.111c2.232,1.2 2.561,1.19 5.065,-0.157c1.508,-0.811 4.172,-3.397 6.096,-5.919c5.115,-6.702 7.111,-7.871 7.037,-4.119c-0.051,2.627 -0.895,5.811 -2.737,10.324c-1.141,2.797 -1.661,3.362 -3.099,3.368c-2.426,0.012 -7.43,4.253 -8.522,7.225c-0.496,1.352 -0.758,3.273 -0.58,4.269c0.45,2.528 4.031,6.746 5.726,6.746c1.196,-0 1.709,-0.875 3.361,-5.729c1.073,-3.152 1.95,-6.722 1.95,-7.934c0,-3.312 1.648,-2.761 3.803,1.27c1.008,1.884 1.832,3.854 1.832,4.378c-0,2.043 1.788,5.665 3.362,6.812c2.582,1.88 4.705,1.448 9.174,-1.866c5.944,-4.408 6.249,-4.483 8.705,-2.133c3.147,3.011 6.39,2.781 10.552,-0.748c3.906,-3.312 4.955,-3.438 6.208,-0.745c2.184,4.694 4.72,0.435 4.787,-8.039c0.043,-5.475 1.494,-11.238 3,-11.911c1.628,-0.727 3.226,2.185 3.242,5.907c0.012,3.005 1.671,9.041 2.739,9.971c1.479,1.287 7.172,2.833 10.432,2.833c2.789,0 4.144,0.457 6.311,2.126c1.518,1.169 4.155,2.393 5.859,2.72c1.705,0.327 4.24,0.831 5.635,1.119c2.23,0.462 2.808,0.245 4.807,-1.806c2.129,-2.185 3.766,-2.715 5.062,-1.642c1.469,1.217 6.938,1.394 9.77,0.317c3.317,-1.262 2.93,-1.529 6.623,4.576c0.854,1.411 0.927,1.402 2.187,-0.264c0.885,-1.172 2.178,-1.802 4.034,-1.967c1.502,-0.133 3.809,-0.506 5.128,-0.829c1.487,-0.364 3.355,-0.209 4.921,0.408c2.114,0.834 2.73,0.808 3.8,-0.156c1.36,-1.226 4.342,-2.421 9.571,-3.834c2.611,-0.705 3.878,-0.635 6.666,0.371c5.196,1.874 10.079,1.65 12.419,-0.571c2.444,-2.319 2.641,-3.965 0.835,-6.987c-1.719,-2.877 -1.803,-3.994 -0.429,-5.745c2.334,-2.973 9.694,-2.597 12.36,0.632c1.318,1.597 1.508,2.401 1.468,6.232c-0.043,4.225 -0.514,5.945 -3.224,11.768c-0.755,1.623 -0.79,2.21 -0.197,3.351c1.091,2.102 16.924,3.694 35.898,3.611c18.327,-0.081 39.216,0.639 48.959,1.686c3.841,0.414 7.471,0.752 8.068,0.752c0.802,-0 1.037,0.464 0.904,1.785c-0.165,1.635 -0.463,1.778 -3.561,1.701c-5.027,-0.123 -57.876,-1.846 -71.836,-2.341c-6.663,-0.236 -13.692,-0.778 -15.622,-1.204c-1.929,-0.426 -4.158,-0.545 -4.953,-0.264c-0.794,0.281 -2.512,0.125 -3.816,-0.347c-3.444,-1.245 -14.58,-1.633 -24.627,-0.859c-18.945,1.46 -38.686,2.339 -52.117,2.321c-13.866,-0.018 -24.032,0.036 -29.016,0.158c-1.394,0.034 -9.261,-0.027 -17.481,-0.134c-9.589,-0.126 -16.454,0.145 -19.156,0.756c-2.788,0.631 -7.639,0.798 -14.353,0.495c-16.372,-0.738 -18.777,-0.7 -26.48,0.428c-4.216,0.617 -10.434,0.914 -14.649,0.701c-10.035,-0.509 -14.762,-0.431 -25.918,0.429c-5.268,0.406 -13.418,0.738 -18.112,0.738c-7.601,-0 -8.663,-0.165 -9.719,-1.511c-1.515,-1.932 -1.549,-5.953 -0.074,-8.595c2.582,-4.621 8.313,-5.884 13.538,-2.984c4.022,2.232 5.142,2.016 8.237,-1.585c3.574,-4.158 5.735,-4.708 9.45,-2.402c5.398,3.35 7.364,3.688 10.13,1.742c1.347,-0.947 3.468,-1.722 4.713,-1.722c3.359,-0 3.74,-1.113 2.794,-8.168c-0.525,-3.91 -1.3,-6.854 -2.283,-8.67c-1.853,-3.421 -1.864,-5.092 -0.067,-9.854l1.423,-3.768l-1.157,-1.629c-1.04,-1.464 -1.825,-1.624 -7.761,-1.58c-3.633,0.027 -7.668,0.482 -8.969,1.011c-2.632,1.071 -4.678,4.124 -4.678,6.981c-0,1.347 -0.318,1.876 -1.127,1.876c-0.62,0 -1.127,-0.468 -1.127,-1.041c0,-1.183 -2.534,-4.718 -4.226,-5.896c-1.231,-0.857 -9.458,-2.683 -11.268,-2.5c-0.62,0.062 -2.199,-0.154 -3.509,-0.48c-2.201,-0.548 -2.422,-0.443 -2.919,1.395c-0.533,1.975 -2.756,4.603 -4.757,5.623c-0.771,0.393 -1.652,-0.377 -3.38,-2.956c-2.202,-3.285 -2.551,-3.511 -6,-3.889c-2.014,-0.22 -6.906,-0.14 -10.87,0.18c-6.919,0.557 -7.312,0.683 -9.804,3.156l-2.596,2.577l-2.104,-3.241c-2.008,-3.094 -2.255,-3.241 -5.436,-3.241c-3.865,-0 -4.692,0.837 -4.668,4.72c0.022,3.214 0.427,4.069 3.887,8.18c2.645,3.144 4.521,3.731 5.674,1.777c1.063,-1.805 2.559,-1.427 3.29,0.83c0.945,2.921 0.773,6.642 -0.473,10.277c-1.471,4.286 -1.489,9.588 -0.038,10.682c2.041,1.537 4.016,0.93 5.982,-1.837c1.918,-2.701 2.507,-2.463 2.507,1.013c-0,2.323 1.869,4.025 4.419,4.025c1.592,0 3.356,0.792 5.423,2.435c3.054,2.427 3.07,2.43 5.124,1.058c1.29,-0.862 2.27,-2.223 2.621,-3.641c0.622,-2.511 2.18,-4.047 3.424,-3.375c1.106,0.597 1.975,3.514 2.4,8.053c0.311,3.326 0.19,4.01 -0.964,5.485c-1.214,1.551 -2.259,1.74 -13.151,2.38c-12.107,0.712 -30.631,0.848 -48.172,0.355c-5.423,-0.152 -20.889,-0.099 -34.369,0.118c-15.609,0.251 -24.765,0.112 -25.213,-0.384c-1.07,-1.182 -0.842,-4.923 0.397,-6.501c0.982,-1.252 2.6,-1.421 15.071,-1.566c13.246,-0.154 14.165,-0.263 17.716,-2.093c2.06,-1.062 4.249,-2.573 4.865,-3.357c1.972,-2.514 2.579,-7.647 2.157,-18.253c-0.665,-16.733 -1.535,-18.721 -8.261,-18.869c-4.04,-0.088 -11.509,0.914 -18.001,2.415c-6.704,1.551 -13.058,0.748 -14.206,-1.795c-0.679,-1.504 -0.511,-3.51 0.402,-4.795l0,-0.001Zm504.368,45.482c2.843,-3.514 7.313,-6.308 10.11,-6.317c1.279,-0.003 3.236,-0.543 4.348,-1.198c4.143,-2.437 9.389,-0.442 10.535,4.007c0.643,2.497 -0.757,6.154 -3.011,7.864c-2.019,1.531 -2.039,1.53 -5.858,-0.22c-4.764,-2.184 -9.089,-2.289 -10.94,-0.266c-2.82,3.081 -3.744,3.431 -5.565,2.106c-2.218,-1.615 -2.138,-2.862 0.381,-5.976l-0,-0Zm116.855,-9.219c0.956,-2.553 1.963,-6.566 2.237,-8.917c0.933,-8.013 3.735,-9.71 5.235,-3.171c0.512,2.232 0.933,4.463 0.936,4.958c0.01,1.911 4.478,10.708 6.137,12.088c1.826,1.519 2.383,4.283 0.863,4.283c-0.486,0 -1.714,0.893 -2.73,1.984c-2.211,2.375 -2.289,2.384 -4.189,0.5c-0.868,-0.861 -2.85,-1.637 -4.726,-1.849c-3.21,-0.364 -5.502,-2.133 -5.502,-4.247c-0,-0.543 0.782,-3.076 1.739,-5.629Zm-80.618,-7.419c0.248,-1.091 0.476,-3.851 0.507,-6.133c0.045,-3.32 1.228,-9.663 2.091,-11.215c0.31,-0.556 3.585,4.993 4.365,7.395c0.797,2.452 1.692,13.214 1.742,20.932c0.023,3.52 -0.197,4.491 -1.302,5.751c-1.799,2.051 -2.524,1.919 -4.466,-0.816c-1.128,-1.589 -1.951,-3.981 -2.579,-7.501c-1.01,-5.664 -1.006,-5.566 -0.358,-8.413Zm-492.701,11.936c1.956,5.328 3.549,5.806 8.862,2.657c2.577,-1.527 4.116,-1.967 5.896,-1.684c1.695,0.269 2.993,-0.059 4.381,-1.107c1.085,-0.819 2.315,-1.489 2.733,-1.489c1.738,0 2.488,-2.781 2.889,-10.71c0.744,-14.713 0.73,-15.044 -0.639,-15.318c-1.386,-0.278 -1.651,0.533 -2.456,7.506c-0.61,5.293 -1.91,7.428 -3.315,5.448c-0.751,-1.056 -0.696,-1.875 0.491,-7.346c2.015,-9.293 2.073,-11.352 0.38,-13.59c-1.137,-1.505 -2.357,-2.014 -6.102,-2.55c-7.988,-1.143 -10.692,1.112 -11.704,9.762c-0.27,2.303 -0.789,5.259 -1.154,6.568c-1.845,6.615 -1.972,17.193 -0.262,21.853Zm411.362,-30.919c1.77,-1.96 6.111,-2.241 7.868,-0.509c0.633,0.625 1.476,2.678 1.873,4.562c0.398,1.884 0.999,3.903 1.336,4.485c0.941,1.622 7.671,6.125 10.742,7.186c3.225,1.114 8.398,6.552 9.435,9.919c0.655,2.124 0.587,2.444 -0.888,4.231c-1.824,2.209 -3.997,2.027 -7.715,-0.644c-1.569,-1.126 -3.327,-1.528 -6.788,-1.548c-6.949,-0.042 -11.342,-2.356 -14.025,-7.387c-2.455,-4.604 -3.322,-8.322 -3.322,-14.239c-0,-3.821 0.198,-4.632 1.484,-6.056Zm535.615,18.983c1.534,-5.351 3.636,-7.137 8.403,-7.139c3.8,-0.002 5.253,1.449 7.47,7.455c1.821,4.931 1.803,6.302 -0.11,8.42c-1.278,1.416 -2.034,1.636 -4.367,1.274c-1.551,-0.241 -4.565,-0.675 -6.697,-0.964c-2.66,-0.361 -4.208,-0.992 -4.93,-2.01c-1.294,-1.821 -1.298,-1.699 0.231,-7.036Zm-104.446,-5.221c0.572,1.781 1.944,4.446 3.048,5.924c2.622,3.507 4.96,3.532 10.493,0.112c3.763,-2.325 4.497,-2.521 7.594,-2.026c6.411,1.025 7.514,0.879 9.1,-1.207c2.19,-2.882 3.151,-6.015 3.113,-10.154c-0.159,-17.461 -0.806,-22.381 -3.024,-22.982c-1.362,-0.369 -2.836,4.613 -2.97,10.04c-0.078,3.132 -0.419,4.677 -1.307,5.928c-1.198,1.687 -1.205,1.687 -2.319,0.118c-1.114,-1.569 -1.113,-1.59 0.38,-7.515c1.899,-7.54 2.085,-14.316 0.456,-16.589c-1.317,-1.837 -6.293,-3.122 -12.963,-3.347c-4.018,-0.136 -4.77,0.078 -6.89,1.962c-2.761,2.454 -4.645,7.044 -4.681,11.406c-0.014,1.654 -0.392,4.078 -0.841,5.387c-1.159,3.388 -0.627,18.468 0.811,22.943l-0,-0Zm-468.312,-14.811c0.176,-2.268 0.483,-2.975 1.291,-2.975c1.543,-0 1.835,1.177 1.398,5.646c-0.334,3.424 -1.432,5.679 -2.223,4.565c-0.445,-0.626 -0.687,-4.384 -0.466,-7.236Zm507.41,-17.119c2.2,4.069 5.954,6.892 9.251,6.957c2.836,0.056 3.47,-1.141 3.612,-6.81c0.109,-4.363 -1.312,-9.013 -3.724,-12.184c-1.192,-1.567 -2.099,-1.983 -4.324,-1.983c-2.531,-0 -3.009,0.299 -4.743,2.963c-2.497,3.836 -2.514,6.541 -0.072,11.057l-0,0Zm-419.008,-1.199c1.874,-2.639 3.977,-3.172 9.86,-2.5c2.599,0.297 5.704,0.495 6.901,0.439c4.49,-0.209 5.583,1.665 2.469,4.235c-3.748,3.093 -4.847,3.661 -9.479,4.9c-5.474,1.464 -8.027,1.113 -9.895,-1.358c-1.693,-2.239 -1.67,-3.163 0.144,-5.716l-0,-0Zm-54.789,-0.991c0.808,-0.437 13.426,0.795 17.993,1.756c1.595,0.336 2.099,0.787 1.968,1.763c-0.393,2.934 -14.891,4.429 -18.479,1.905c-2.127,-1.497 -2.979,-4.615 -1.482,-5.424Zm33.175,1.67c2.556,-0.289 6.549,-0.411 8.874,-0.27c3.888,0.236 4.24,0.399 4.405,2.042c0.204,2.018 0.157,2.026 -10.321,1.817c-6.329,-0.127 -7.607,-0.462 -7.607,-1.998c0,-0.763 1.32,-1.214 4.649,-1.591l-0,-0Zm445.278,-67.722c3.267,-2.096 10.451,-2.835 27.856,-2.867c11.643,-0.021 18.813,0.291 20.846,0.908c1.705,0.517 4.422,1.311 6.038,1.765c4.476,1.256 11.992,5.563 11.992,6.872c-0,1.507 -3.755,1.504 -7.557,-0.006c-6.392,-2.537 -9.885,-3.558 -15.091,-4.412c-7.14,-1.172 -24.863,-1.092 -33.413,0.15c-9.422,1.369 -11.767,1.328 -11.983,-0.21c-0.101,-0.724 0.449,-1.647 1.312,-2.201l0,0.001Z" style="fill:#30553c;fill-rule:nonzero;stroke:#30553c;stroke-width:2.08px;"/></svg>