<?xml version="1.0" encoding="UTF-8" standalone="no"?><!DOCTYPE svg PUBLIC "-//W3C//DTD SVG 1.1//EN" "http://www.w3.org/Graphics/SVG/1.1/DTD/svg11.dtd"><svg width="100%" height="100%" viewBox="0 0 1025 107" version="1.1" xmlns="http://www.w3.org/2000/svg" xmlns:xlink="http://www.w3.org/1999/xlink" xml:space="preserve" xmlns:serif="http://www.serif.com/" style="fill-rule:evenodd;clip-rule:evenodd;stroke-linejoin:round;stroke-miterlimit:2;"><path id="Birch-3" serif:id="Birch 3" d="M611.488,6.364c2.32,1.371 5.339,1.464 13.068,1.464c5.729,0 10.658,0.269 10.955,0.598c0.468,0.518 94.218,1.805 98.829,1.356c2.929,-0.284 6.985,-0.258 43.463,0.281c19.53,0.289 45.812,0.638 58.404,0.775c13.993,0.152 23.16,0.51 23.578,0.919c0.594,0.582 13.509,1.081 48.123,1.86c35.118,0.791 44.674,1.147 45.139,1.681c0.723,0.83 3.565,0.792 4.006,-0.054c0.458,-0.881 10.904,-0.881 11.362,-0c0.208,0.399 3.688,0.674 8.523,0.674c4.834,-0 8.314,-0.275 8.522,-0.674c0.193,-0.371 1.216,-0.674 2.272,-0.674c1.057,-0 2.08,0.303 2.273,0.674c0.498,0.955 30.204,0.913 30.703,-0.044c0.575,-1.104 2.533,1.336 2.533,3.156c0,1.518 -1.956,4.303 -3.022,4.303c-0.748,0 -5.966,6.686 -6.972,8.933c-0.961,2.148 -2.836,2.455 -3.346,0.547c-0.974,-3.64 -8.395,-8.766 -13.485,-9.313c-1.825,-0.197 -3.454,-0.618 -3.62,-0.936c-0.421,-0.809 -5.772,-0.727 -6.2,0.095c-0.193,0.371 -0.89,0.674 -1.549,0.674c-0.659,0 -2.825,0.337 -4.813,0.747c-3.156,0.652 -3.727,1.005 -4.5,2.778c-0.581,1.334 -0.819,3.305 -0.693,5.745c0.153,2.953 -0.01,3.867 -0.791,4.458c-1.277,0.965 -2.332,-0.261 -4.698,-5.452c-2.384,-5.232 -3.691,-5.286 -4.515,-0.186c-0.523,3.24 -0.78,3.733 -2.036,3.907c-1.681,0.233 -5.063,-2.627 -6.421,-5.43c-0.495,-1.023 -1.613,-2.181 -2.484,-2.574c-0.871,-0.393 -2.37,-1.427 -3.332,-2.297c-1.451,-1.313 -2.324,-1.554 -5.119,-1.414c-1.853,0.092 -3.941,0.531 -4.639,0.974c-2.721,1.728 -3.597,6.456 -2.391,12.901c1.316,7.028 2.732,8.545 4.168,4.465c1.072,-3.044 1.641,-3.337 3.18,-1.635c1.192,1.317 1.27,1.828 0.956,6.237c-0.286,4.016 -0.164,5.15 0.746,6.926c1.348,2.63 3.28,3.996 4.165,2.946c0.341,-0.405 0.994,-0.737 1.45,-0.737c0.456,0 2.13,-1.164 3.721,-2.586c3.67,-3.282 4.668,-3.877 7.313,-4.36c1.841,-0.335 2.434,-0.094 4.148,1.692c1.1,1.146 2.373,2.94 2.829,3.986c1.487,3.411 2.761,3.64 5.274,0.945c1.218,-1.305 2.357,-2.373 2.53,-2.373c0.643,-0 2.104,4.316 2.104,6.215c-0,2.605 0.94,4.571 2.186,4.571c1.082,-0 4.063,-3.305 4.063,-4.505c0,-0.398 0.365,-1.082 0.811,-1.521c0.445,-0.439 1.223,-2.524 1.728,-4.633c1.858,-7.757 2.311,-9.118 3.269,-9.825c1.488,-1.097 2.015,-0.028 3.502,7.094c2.016,9.661 2.931,11.059 7.863,12.012c3.907,0.754 6.927,-0.018 8.914,-2.276c0.842,-0.957 1.9,-1.746 2.352,-1.754c0.451,-0.008 1.46,-0.608 2.241,-1.333c1.784,-1.657 2.973,-1.689 4.173,-0.116c0.75,0.983 0.94,2.672 0.94,8.322c0,9.217 -0.21,9.494 -6.483,8.57c-2.468,-0.363 -4.831,-0.505 -5.251,-0.314c-0.419,0.191 -6.781,0.384 -14.138,0.429c-9.53,0.058 -13.608,-0.147 -14.183,-0.713c-0.548,-0.54 -1.955,-0.65 -4.38,-0.343c-4.576,0.579 -19.954,0.687 -25.301,0.178c-2.271,-0.216 -4.26,-0.115 -4.437,0.224c-0.426,0.818 -3.471,0.783 -5.939,-0.069c-1.132,-0.39 -11.871,-0.804 -24.994,-0.963c-24.169,-0.292 -59.315,-0.944 -74.736,-1.387c-5.013,-0.144 -11.788,-0.577 -15.055,-0.964c-5.431,-0.642 -16.683,-1.035 -49.689,-1.735c-6.562,-0.14 -13.912,-0.567 -16.334,-0.951c-2.849,-0.451 -4.909,-0.469 -5.838,-0.05c-1.394,0.629 -9.348,0.268 -11.064,-0.502c-1.63,-0.732 -14.995,-0.799 -15.725,-0.079c-0.751,0.739 -3.96,0.513 -10.694,-0.751c-2.187,-0.41 -12.03,-0.865 -21.873,-1.011c-9.844,-0.145 -18.536,-0.276 -19.317,-0.291c-0.782,-0.015 -3.85,-0.008 -6.818,0.018c-13.358,0.111 -40.677,-0.356 -41.191,-0.705c-0.312,-0.212 -3.449,-0.279 -6.97,-0.149c-4.214,0.156 -6.667,-0.023 -7.177,-0.527c-0.542,-0.533 -8.213,-0.848 -25.415,-1.042c-36.646,-0.414 -50.597,-0.849 -52.315,-1.63c-0.95,-0.432 -1.669,-0.459 -1.872,-0.068c-0.203,0.389 -9.346,0.475 -23.74,0.223c-12.876,-0.225 -27.885,-0.346 -33.353,-0.269c-8.17,0.116 -10.337,-0.057 -12.157,-0.974c-1.844,-0.928 -3.89,-1.078 -12.215,-0.896c-5.501,0.121 -30.198,0.177 -54.884,0.125c-24.686,-0.052 -46.162,-0.082 -47.724,-0.066c-1.563,0.015 -6.548,-0.001 -11.079,-0.037c-4.531,-0.037 -11.562,-0.047 -15.624,-0.023c-9.979,0.059 -10.948,-0.026 -14.058,-1.214c-2.436,-0.932 -2.781,-0.928 -3.59,0.032c-1.439,1.707 -3.387,1.964 -10.694,1.409c-8.85,-0.671 -18.008,-0.8 -18.291,-0.257c-0.249,0.478 -13.16,0.142 -17.709,-0.462c-1.705,-0.226 -2.991,-0.736 -3.001,-1.19c-0.009,-0.437 -0.404,-0.188 -0.876,0.554c-0.77,1.208 -1.625,1.367 -8.25,1.53c-4.066,0.101 -7.765,-0.065 -8.221,-0.368c-1.08,-0.717 -10.244,0.374 -12.261,1.459c-1.406,0.756 -10.948,-0.697 -13.051,-1.987c-1.586,-0.974 -1.924,-0.996 -2.449,-0.163c-1.507,2.39 -4.355,3.237 -10.89,3.237c-3.662,-0 -6.564,-0.289 -6.764,-0.674c-0.525,-1.008 -2.148,-0.818 -4.316,0.505c-1.667,1.017 -3.735,1.188 -15.001,1.238c-8.622,0.039 -13.618,0.328 -14.687,0.852c-2.554,1.251 -14.901,1.85 -15.992,0.776c-0.67,-0.66 -1.205,-0.696 -2.151,-0.148c-1.609,0.934 -17.859,1.52 -19.674,0.709c-0.878,-0.392 -1.582,-0.361 -1.96,0.087c-0.324,0.385 -2.856,0.7 -5.626,0.7c-5.13,-0 -7.235,0.672 -7.235,2.311c-0,1.059 1.221,1.733 3.139,1.733c0.737,0 2.187,0.575 3.22,1.277c1.033,0.702 3.157,1.488 4.72,1.748c1.562,0.26 3.096,0.716 3.409,1.013c0.312,0.297 2.74,1.062 5.395,1.7c2.655,0.639 5.333,1.58 5.95,2.093c0.617,0.514 1.88,0.933 2.805,0.933c0.926,0 2.722,0.566 3.993,1.257c4.559,2.481 9.765,3.368 16.229,2.764c3.281,-0.307 6.541,-0.766 7.244,-1.02c0.927,-0.334 1.278,-0.186 1.278,0.54c0,0.629 -0.766,1.149 -2.058,1.398c-1.133,0.218 -2.475,0.839 -2.983,1.38c-0.508,0.541 -1.691,1.085 -2.628,1.209c-1.451,0.191 -1.731,0.544 -1.88,2.365c-0.155,1.902 0.176,2.454 2.983,4.968c1.866,1.672 3.158,3.347 3.158,4.096c-0,0.697 -0.119,1.268 -0.265,1.268c-0.145,-0 -1.871,-1.076 -3.835,-2.39c-7.678,-5.138 -10.106,-6.378 -12.486,-6.376c-1.421,0.001 -2.344,0.418 -2.86,1.291c-0.418,0.709 -1.494,1.392 -2.389,1.517c-2.475,0.346 -3.149,2.167 -1.431,3.864c0.766,0.756 1.903,1.388 2.528,1.405c0.625,0.018 2.249,0.785 3.609,1.708c1.36,0.922 2.946,1.677 3.524,1.677c2.031,0 8.476,3.457 8.485,4.551c0.008,1.211 -5.713,1.09 -7.741,-0.165c-0.895,-0.554 -2.011,-1.018 -2.479,-1.032c-0.469,-0.016 -1.349,-0.471 -1.955,-1.016c-0.607,-0.544 -1.659,-0.99 -2.338,-0.99c-0.68,0 -1.886,-0.606 -2.68,-1.348c-0.795,-0.741 -1.897,-1.348 -2.451,-1.348c-1.383,-0 -4.663,-1.242 -7.052,-2.669c-1.094,-0.654 -3.012,-1.41 -4.262,-1.68c-1.249,-0.27 -2.588,-0.801 -2.974,-1.179c-0.387,-0.379 -1.665,-0.552 -2.841,-0.384c-1.309,0.187 -2.633,-0.075 -3.413,-0.674c-0.745,-0.572 -1.85,-0.807 -2.662,-0.565c-3.505,1.044 -13.053,-3.908 -17.337,-8.99c-0.642,-0.763 -1.449,-1.387 -1.791,-1.387c-0.343,0 -1.797,-1.226 -3.232,-2.725c-1.435,-1.499 -4.159,-3.821 -6.053,-5.161c-1.894,-1.339 -3.955,-2.966 -4.58,-3.614c-2.528,-2.621 -9.023,-3.316 -28.407,-3.04c-10,0.143 -18.66,0.486 -19.247,0.763c-0.586,0.277 -1.864,0.176 -2.84,-0.224c-1.21,-0.496 -4.942,-0.556 -11.718,-0.19c-5.468,0.296 -10.354,0.285 -10.857,-0.023c-0.503,-0.309 -1.851,-0.381 -2.995,-0.161c-3.348,0.645 -4.328,-0.914 -4.328,-6.881c-0,-5.575 0.269,-6.015 4.089,-6.67c2.295,-0.394 3.069,-0.976 5.506,-4.141c3.201,-4.156 3.875,-6.993 3.275,-13.799c-0.275,-3.124 -0.107,-4.557 0.831,-7.071c1.722,-4.62 1.154,-7.329 -1.903,-9.082c-2.798,-1.604 -4.372,-1.7 -5.866,-0.359c-2.264,2.032 -5.932,0.378 -5.932,-2.674c-0,-2.759 -4.271,-2.408 40.906,-3.358c11.093,-0.233 20.68,-0.69 21.305,-1.016c1.142,-0.595 43.167,-1.996 73.803,-2.46c9.031,-0.137 16.701,-0.526 17.044,-0.863c0.344,-0.338 6.249,-0.813 13.124,-1.055c6.874,-0.242 15.439,-0.555 19.033,-0.695c3.593,-0.141 34.349,-0.354 68.346,-0.474c44.14,-0.155 61.927,-0.43 62.212,-0.959c0.417,-0.775 21.99,-2.091 44.998,-2.745c6.719,-0.191 12.512,-0.631 12.875,-0.978c0.417,-0.399 0.795,-0.371 1.028,0.075c0.468,0.9 2.962,0.923 3.426,0.033c0.554,-1.064 26.254,-0.901 26.584,0.168c0.208,0.675 0.411,0.675 1.013,0c0.871,-0.974 17.302,-1.228 17.799,-0.274c0.162,0.312 12.258,0.762 26.878,1c14.621,0.238 27.35,0.567 28.287,0.732c0.938,0.165 14.353,0.488 29.812,0.719c15.459,0.23 28.248,0.689 28.419,1.018c0.172,0.33 12.962,0.789 28.423,1.021c15.461,0.231 29.984,0.705 32.273,1.052c4.034,0.612 6.917,0.328 6.917,-0.682c0,-0.042 -0.01,-0.093 -0.031,-0.152l5.864,-0Zm-589.025,43.697c2.429,1.106 9.275,-13.051 8.545,-17.67c-0.515,-3.255 -1.547,-3.96 -3.344,-2.283c-1.898,1.772 -4.922,9.25 -4.934,12.2c-0.006,1.245 -0.256,2.718 -0.559,3.274c-0.837,1.537 -0.674,4.039 0.292,4.479Zm9.661,10.276c1.795,2.227 3.125,-1.315 3.97,-10.569c0.179,-1.961 0.615,-4.32 0.97,-5.242c0.463,-1.208 0.471,-1.882 0.025,-2.41c-0.445,-0.529 -1.033,-0.005 -2.103,1.872c-0.817,1.433 -2.135,3.667 -2.928,4.965c-1.302,2.128 -1.406,2.757 -1.065,6.404c0.207,2.225 0.717,4.466 1.131,4.98l0,0Zm8.294,-20.419c1.885,-0.358 2.297,-0.192 3.092,1.249c0.505,0.914 0.974,2.812 1.043,4.218c0.068,1.406 0.409,3.315 0.756,4.242c0.347,0.927 0.772,2.216 0.944,2.865c0.364,1.373 1.673,1.553 2.458,0.337c0.986,-1.525 2.563,-8.624 2.291,-10.312c-0.152,-0.947 0.007,-1.663 0.365,-1.675c0.884,-0.03 2.179,-2.379 3.705,-6.72c1.86,-5.291 5.49,-9.531 6.495,-7.584c0.454,0.881 -1.705,11.175 -2.963,14.124c-0.664,1.558 -1.208,3.087 -1.208,3.397c-0,0.31 -0.511,1.754 -1.136,3.209c-0.625,1.454 -1.137,3.923 -1.137,5.486c0,2.464 0.284,3.12 2.131,4.928c3.432,3.359 8.011,4.311 11.773,2.446c1.749,-0.867 3.722,-3.631 5.857,-8.203c0.999,-2.138 3.445,-4.32 4.843,-4.32c1.917,-0 3.235,1.965 3.235,4.823c0,3.519 1.546,5.289 4.621,5.289c1.427,-0 3.14,0.581 4.369,1.483c2.578,1.89 4.417,1.845 7.621,-0.184c0.543,-0.344 3.66,-0.625 6.927,-0.625c4.876,0 6.279,0.236 7.825,1.319c2.823,1.976 8.527,2.036 11.816,0.125c2.143,-1.245 10.027,-2.615 16.007,-2.782c0.21,-0.005 1.145,0.751 2.078,1.682c2.065,2.062 3.858,1.537 5.881,-1.724c2.291,-3.693 3.873,-4.232 12.085,-4.124c4.049,0.054 8.14,0.376 9.091,0.718c0.952,0.341 4.024,0.806 6.828,1.033c2.804,0.227 5.348,0.71 5.653,1.072c0.963,1.142 2.949,0.718 4.469,-0.954c1.371,-1.507 1.877,-3.336 2.243,-8.095c0.284,-3.697 3.281,-4.035 6.58,-0.742c2.45,2.447 5.252,2.295 7.155,-0.388c0.809,-1.141 1.471,-2.449 1.471,-2.906c-0,-0.457 -0.867,-2.937 -1.926,-5.51c-1.06,-2.573 -2.099,-5.642 -2.309,-6.82c-0.476,-2.666 0.864,-6.006 2.666,-6.646c0.706,-0.252 1.697,-1.075 2.201,-1.83c1.044,-1.566 2.208,-1.079 2.208,0.924c0,1.755 1.724,8.008 2.208,8.008c0.205,0 0.992,1.345 1.749,2.989c0.757,1.644 1.902,3.157 2.545,3.362c2.242,0.714 4.088,0.381 5.298,-0.958c0.671,-0.741 1.449,-1.348 1.729,-1.348c0.28,-0 1.181,-0.739 2.001,-1.641c2.856,-3.14 5.322,-5.1 6.398,-5.085c0.595,0.007 1.721,0.608 2.503,1.333c1.052,0.977 2.323,1.322 4.906,1.333c1.963,0.008 4.197,0.455 5.113,1.022c0.895,0.554 2.067,1.009 2.604,1.011c0.538,0.002 2.533,1.856 4.434,4.119c3.276,3.899 3.566,4.092 5.557,3.691c5.78,-1.164 9.217,-1.203 11.476,-0.131c1.262,0.599 3.732,1.089 5.491,1.089c2.833,0 3.482,-0.277 5.711,-2.445c1.383,-1.344 2.729,-3.089 2.99,-3.876c0.262,-0.787 1.911,-3.479 3.664,-5.982c2.817,-4.02 3.419,-4.55 5.165,-4.55c1.705,-0 1.976,0.221 1.976,1.614c-0,1.7 -2.434,5.239 -4.119,5.99c-1.321,0.588 -1.259,2.194 0.147,3.863c0.93,1.104 1.589,1.276 3.551,0.928c1.325,-0.235 3.176,-0.841 4.113,-1.346c3.06,-1.649 7.814,-2.35 12.839,-1.896c4.924,0.446 6.482,0.039 8.354,-2.181c0.419,-0.498 1.329,-0.905 2.022,-0.905c1.478,0 4.953,-4.624 6.256,-8.325c1.083,-3.074 1.889,-3.114 2.934,-0.147c0.449,1.273 1.367,2.773 2.04,3.333c1.125,0.934 1.374,0.883 3.045,-0.63c1.001,-0.905 2.483,-1.647 3.295,-1.647c0.811,0 1.612,-0.262 1.779,-0.583c0.399,-0.767 2.981,-0.164 3.7,0.863c0.916,1.31 -0.127,10.524 -1.278,11.288c-1.128,0.75 -1.264,1.915 -0.223,1.915c0.403,0 1.617,0.898 2.699,1.995c3.275,3.322 6.406,2.289 8.136,-2.684c0.513,-1.475 1.371,-3.936 1.906,-5.47c0.536,-1.534 1.487,-3.562 2.114,-4.508c0.689,-1.04 1.072,-2.483 0.969,-3.651c-0.192,-2.164 1.236,-5.232 2.435,-5.232c1.288,0 1.817,3.337 1.577,9.944c-0.175,4.81 -0.412,6.236 -1.034,6.236c-0.594,-0 -0.705,0.489 -0.424,1.854c0.525,2.545 1.256,2.995 3.9,2.4c1.25,-0.282 4.808,-0.52 7.906,-0.529l5.634,-0.018l0.843,-3.034c0.464,-1.668 1.054,-3.198 1.311,-3.399c0.699,-0.546 1.18,-4.977 1.27,-11.69c0.079,-5.824 0.037,-6.027 -1.515,-7.408l-1.595,-1.42l-2.21,1.51c-2.754,1.88 -6.266,1.997 -7.597,0.252c-0.613,-0.804 -2.51,-1.572 -5.264,-2.131c-5.336,-1.083 -7.013,-0.488 -11.717,4.158c-3.512,3.468 -5.044,3.941 -7.135,2.203c-0.709,-0.589 -1.623,-0.919 -2.032,-0.733c-0.409,0.186 -1.855,-0.411 -3.214,-1.327c-1.577,-1.063 -2.943,-1.524 -3.778,-1.275c-0.761,0.226 -1.896,-0.069 -2.715,-0.706c-1.143,-0.888 -1.747,-0.954 -3.207,-0.351c-0.99,0.41 -2.994,0.745 -4.454,0.745c-1.46,-0 -3.822,0.471 -5.249,1.048c-2.065,0.835 -4.197,0.972 -10.47,0.672c-17.262,-0.826 -17.421,-0.823 -19.958,0.408c-2.044,0.992 -4.335,1.177 -14.635,1.184c-12.539,0.007 -15.165,0.441 -19.777,3.262c-1.515,0.927 -1.754,0.869 -3.977,-0.962c-1.301,-1.072 -3.005,-2.294 -3.786,-2.716c-2.467,-1.333 -8.807,-1.527 -15.742,-0.481c-3.685,0.556 -8.618,0.954 -10.961,0.884c-2.344,-0.069 -4.9,0.066 -5.682,0.301c-1.791,0.538 -8.858,0.926 -27.555,1.513c-8.949,0.281 -15.071,0.745 -15.532,1.178c-0.452,0.424 -6.167,0.91 -14.031,1.194c-7.298,0.264 -13.526,0.667 -13.839,0.897c-0.314,0.23 -18.599,0.422 -40.635,0.428c-24.944,0.005 -40.191,0.253 -40.401,0.655c-0.459,0.883 -2.36,0.812 -4.655,-0.173c-1.499,-0.643 -2.148,-0.643 -3.015,0c-0.609,0.451 -2.782,0.82 -4.829,0.82c-6.741,-0 -9.333,2.86 -10.385,11.46c-0.68,5.553 -0.395,6.294 2.227,5.796l0.001,0.001Zm60.025,36.382c2.788,2.717 9.676,7.958 12.117,9.22c2.889,1.493 7.762,2.714 8.544,2.141c0.377,-0.277 3.391,-0.601 6.697,-0.72c3.306,-0.119 6.522,-0.497 7.147,-0.84c0.625,-0.342 1.583,-0.792 2.13,-0.999c0.547,-0.208 0.994,-0.972 0.994,-1.699c0,-1.052 -0.61,-1.472 -2.991,-2.058c-1.646,-0.406 -3.632,-1.131 -4.413,-1.612c-0.782,-0.481 -3.526,-1.442 -6.099,-2.135c-2.572,-0.693 -4.677,-1.47 -4.677,-1.728c-0,-0.258 -1.726,-0.674 -3.835,-0.925c-5.435,-0.647 -11.122,-1.801 -11.789,-2.392c-0.846,-0.749 -4.764,-1.481 -5.407,-1.009c-1.124,0.824 -0.487,2.739 1.582,4.756Zm216.403,-39.987c0.158,-0.464 0.158,-1.222 0,-1.686c-0.158,-0.463 -0.287,-0.084 -0.287,0.843c0,0.927 0.13,1.306 0.287,0.843Zm67.937,-3.606c0.706,0.947 1.732,2.125 2.279,2.618c0.547,0.493 0.994,1.334 0.994,1.869c-0,0.535 0.256,0.973 0.568,0.973c0.313,-0 0.568,-0.455 0.568,-1.012c0,-1.095 1.098,-1.323 5.15,-1.071c2.459,0.154 5.15,-1.09 7.918,-3.659c0.468,-0.435 1.936,-1.289 3.261,-1.898c2.236,-1.029 2.563,-1.028 4.545,0.002c5.063,2.633 8.368,4.686 9.364,5.818c0.588,0.668 1.503,1.069 2.034,0.892c3.77,-1.259 12.754,-1.838 15.918,-1.026c1.037,0.266 2.59,0.245 3.45,-0.048c1.888,-0.643 8.954,0.833 11.881,2.481c1.134,0.638 2.772,1.072 3.641,0.964c0.869,-0.108 2.336,0.252 3.261,0.799c1.637,0.969 1.721,0.935 3.127,-1.253c0.795,-1.236 1.445,-2.591 1.445,-3.01c0,-0.419 0.639,-2.421 1.421,-4.447c0.781,-2.027 1.42,-4.245 1.42,-4.93c0,-1.438 1.409,-3.056 2.173,-2.496c0.285,0.209 0.693,1.948 0.907,3.864c0.215,1.916 0.861,4.58 1.438,5.921c1.18,2.746 4.877,5.457 7.441,5.457c1.617,-0 2.134,-0.627 6.457,-7.835l1.088,-1.814l1.043,1.528c0.573,0.841 1.043,2.213 1.043,3.048c-0,1.774 2.017,5.073 3.101,5.073c0.41,-0 1.478,-0.453 2.373,-1.007c0.895,-0.554 2.954,-1.009 4.577,-1.012c1.622,-0.002 3.107,-0.307 3.3,-0.678c0.193,-0.371 0.728,-0.674 1.189,-0.674c1.329,0 4.533,-4.223 5.936,-7.824c0.992,-2.545 1.298,-4.601 1.341,-8.993l0.056,-5.693l-2.557,-0.956c-2.987,-1.116 -19.801,-2.268 -32.1,-2.2c-6.127,0.035 -8.896,-0.205 -9.854,-0.852c-0.981,-0.663 -2.104,-0.747 -4.261,-0.319c-1.611,0.32 -7.914,0.542 -14.008,0.494c-6.093,-0.048 -11.86,0.121 -12.815,0.377c-1.238,0.332 -1.943,0.169 -2.459,-0.568c-0.523,-0.748 -1.081,-0.87 -2.025,-0.445c-1.206,0.544 -8.229,-0.044 -12.629,-1.058c-1.666,-0.384 -1.964,-0.155 -3.849,2.958c-2.261,3.735 -2.924,4.214 -6.371,4.612c-2.212,0.254 -2.493,0.085 -4.315,-2.608c-1.072,-1.584 -2.109,-3.413 -2.305,-4.065c-0.655,-2.182 -2.894,-2.833 -6.353,-1.848c-1.719,0.489 -3.125,1.087 -3.125,1.328c-0,0.39 -1.607,2.782 -6.69,9.958c-2.514,3.549 -2.882,5.201 -2.028,9.109c0.413,1.888 1.329,4.208 2.036,5.156l-0,-0Zm22.59,-18.472c0.445,-0.327 0.478,-0.714 0.099,-1.164c-0.313,-0.371 -0.869,-0.454 -1.235,-0.185c-0.445,0.326 -0.478,0.714 -0.099,1.164c0.312,0.37 0.868,0.454 1.235,0.185Zm114.921,11.569c1.509,2.537 1.631,3.134 1.272,6.233c-0.477,4.111 0.496,5.061 2.893,2.823c0.833,-0.777 1.823,-1.412 2.201,-1.412c0.378,-0 1.161,-0.62 1.739,-1.378c1.272,-1.668 3.146,-1.482 3.94,0.392c0.921,2.174 2.963,5.031 3.596,5.031c0.318,-0 1.265,-0.969 2.104,-2.152c1.305,-1.84 1.473,-2.549 1.161,-4.888c-0.272,-2.045 -3.453,-11.039 -4.618,-13.058c-0.066,-0.115 -1.407,-0.323 -2.979,-0.462c-1.572,-0.139 -3.58,-0.67 -4.463,-1.18c-0.883,-0.51 -3.282,-1.009 -5.332,-1.109c-3.426,-0.167 -3.776,-0.055 -4.33,1.39c-0.735,1.915 0.319,5.572 2.816,9.77Zm22.868,12.396c0.477,1.094 1.299,1.989 1.827,1.989c0.529,0 2.186,1.433 3.685,3.184l2.724,3.184l2.124,-2.521c1.907,-2.262 2.114,-2.848 2.019,-5.712c-0.122,-3.709 1.324,-9.546 2.498,-10.08c2.372,-1.08 9.074,6.706 11.904,13.829c2.405,6.052 3.671,6.981 7.049,5.173c2.216,-1.185 2.49,-1.19 5.923,-0.105c1.979,0.626 4.23,1.138 5.003,1.138c0.772,-0 2.136,0.453 3.031,1.007c2.319,1.435 6.614,1.279 9.149,-0.333c3.37,-2.143 7.095,-1.808 11.511,1.036c6.789,4.371 8.582,5.138 10.922,4.669c2.137,-0.429 2.178,-0.395 3.332,2.7c0.643,1.724 1.441,3.027 1.774,2.896c0.333,-0.132 1.018,-1.448 1.521,-2.925c1.35,-3.959 2.547,-5.652 4.457,-6.302c2.683,-0.913 6.991,-0.029 10.166,2.087l2.912,1.94l47.013,-0.281l1.705,-2.102c0.937,-1.155 2.358,-2.586 3.158,-3.178c1.351,-1 1.553,-0.987 2.841,0.187c0.762,0.695 2.607,1.463 4.098,1.706c1.491,0.242 2.849,0.705 3.016,1.027c0.168,0.321 1.071,0.585 2.008,0.585c0.936,-0 3.286,0.95 5.222,2.111c4.951,2.971 11.141,3.484 14.556,1.206c1.533,-1.022 2.453,-2.164 2.646,-3.285c0.163,-0.945 0.901,-3.267 1.641,-5.162c1.11,-2.842 1.663,-3.519 3.166,-3.876c4.414,-1.048 5.984,-0.209 8.97,4.792c1.516,2.539 3.158,2.811 4.944,0.821c1.131,-1.261 1.292,-1.282 2.003,-0.266c0.425,0.608 1.043,1.747 1.372,2.531c0.329,0.783 1.274,1.874 2.099,2.423c1.402,0.935 1.726,0.859 4.957,-1.15c3.129,-1.946 4.195,-2.216 11.263,-2.853c4.294,-0.387 8.054,-0.997 8.358,-1.357c0.303,-0.36 1.134,-0.654 1.846,-0.654c1.59,-0 3.445,-3.941 3.962,-8.417c0.433,-3.746 1.328,-4.793 3.143,-3.678c2.441,1.499 3.304,2.83 3.304,5.095c-0,5.893 3.984,13.274 8.327,15.427c2.316,1.149 9.923,1.375 11.547,0.344c1.396,-0.887 2.283,-6.024 2.283,-13.225c0,-6.243 0.819,-11.248 2.036,-12.446c1.012,-0.997 4.078,1.201 7.786,5.583c4.391,5.188 6.627,5.075 6.646,-0.336c0.013,-3.899 1.379,-5.875 4.062,-5.875c2.125,0 2.203,-0.077 1.868,-1.854c-0.308,-1.631 -1.151,-2.758 -4.825,-6.446c-2.024,-2.031 -6.4,-2.824 -14.964,-2.713c-8.088,0.106 -12.751,0.918 -14.485,2.522c-1.256,1.162 -8.056,0.898 -9.713,-0.378c-0.781,-0.601 -2.443,-1.469 -3.693,-1.93c-1.25,-0.46 -2.535,-1.081 -2.855,-1.38c-0.32,-0.299 -4.155,-0.997 -8.522,-1.553c-6.383,-0.811 -17.795,-1.024 -58.19,-1.081c-33.344,-0.048 -50.486,-0.304 -50.951,-0.762c-0.819,-0.807 -10.675,-0.466 -17.732,0.614c-5.267,0.806 -7.28,1.987 -7.832,4.597c-0.504,2.384 0.162,11.063 1.243,16.173c1.045,4.945 0.913,10.033 -0.261,10.033c-0.435,0 -1.289,-0.791 -1.897,-1.758c-1.199,-1.906 -3.234,-9.933 -3.261,-12.864c-0.008,-0.998 -0.272,-2.002 -0.584,-2.231c-0.313,-0.229 -0.569,-1.191 -0.569,-2.137c0,-0.945 -0.788,-3.475 -1.752,-5.62c-2.911,-6.482 -0.438,-6.143 -44.654,-6.114c-23.287,0.015 -38.707,0.282 -39.887,0.691c-2.037,0.706 -2.247,0.888 -6.407,5.541c-2.006,2.244 -2.735,3.613 -3.001,5.638c-0.193,1.471 -0.572,3.433 -0.841,4.36c-0.747,2.574 -0.69,3.928 0.256,6.101Zm307.69,-3.298c0.578,1.356 1.393,3.631 1.81,5.056c0.417,1.425 2.137,4.638 3.823,7.141c2.78,4.126 3.259,4.55 5.145,4.55c1.455,0 2.723,-0.607 4.224,-2.022c1.18,-1.112 2.356,-2.022 2.614,-2.022c0.258,-0 1.454,1.252 2.658,2.783c1.887,2.401 2.588,2.829 5.097,3.115l2.91,0.332l0.888,-2.523c0.489,-1.388 0.889,-3.986 0.889,-5.772c-0,-1.787 0.279,-3.454 0.621,-3.705c1.385,-1.015 -1.029,-13.221 -3.102,-15.683c-1.383,-1.643 -2.041,-1.846 -7.331,-2.255c-3.197,-0.247 -8.411,-0.669 -11.587,-0.938c-5.435,-0.459 -5.868,-0.399 -7.385,1.012c-3.216,2.993 -3.526,5.651 -1.274,10.931Zm35.987,8.527c0.938,4.18 3.327,8.22 4.861,8.22c0.59,0 1.245,0.33 1.455,0.733c0.275,0.528 0.555,0.528 1,0c0.34,-0.403 1.921,-0.733 3.515,-0.733c3.478,0 7.219,-2.528 8.446,-5.707c0.435,-1.125 1.231,-5.382 1.769,-9.461c1.362,-10.309 2.752,-12.465 5.647,-8.758c1.12,1.433 1.381,2.697 1.716,8.304c0.716,11.983 2.165,16.443 4.722,14.538c0.592,-0.442 1.173,-2.075 1.437,-4.042c1.968,-14.643 2.242,-15.929 4.101,-19.261c1.75,-3.139 1.412,-5.109 -0.811,-4.72c-0.684,0.12 -1.577,-0.11 -1.984,-0.511c-0.485,-0.477 -6.111,-0.76 -16.337,-0.82c-17.096,-0.102 -17.642,0.012 -19.503,4.075c-1.07,2.337 -1.091,13.431 -0.034,18.143l0,0Z" style="fill:#30553c;fill-rule:nonzero;stroke:#30553c;stroke-width:2.08px;"/></svg>