<?xml version="1.0" encoding="UTF-8" standalone="no"?><!DOCTYPE svg PUBLIC "-//W3C//DTD SVG 1.1//EN" "http://www.w3.org/Graphics/SVG/1.1/DTD/svg11.dtd"><svg width="100%" height="100%" viewBox="0 0 175 108" version="1.1" xmlns="http://www.w3.org/2000/svg" xmlns:xlink="http://www.w3.org/1999/xlink" xml:space="preserve" xmlns:serif="http://www.serif.com/" style="fill-rule:evenodd;clip-rule:evenodd;stroke-linejoin:round;stroke-miterlimit:2;"><path id="Cabin2" d="M102.408,105.458c-0.542,-1.013 -0.986,-2.493 -0.986,-3.288c0,-0.816 -0.781,-1.446 -1.792,-1.446c-0.986,-0 -2.02,-0.368 -2.298,-0.818c-0.278,-0.449 -1.653,-1.033 -3.056,-1.298c-3.656,-0.689 -25.518,-9.072 -31.01,-11.891c-0.921,-0.472 -2.425,-0.621 -3.342,-0.33c-0.917,0.291 -2.865,0.053 -4.329,-0.529c-1.464,-0.582 -3.493,-1.187 -4.509,-1.344c-7.805,-1.207 -20.653,-4.714 -22.167,-6.052c-1.016,-0.898 -6.003,-2.731 -11.083,-4.073c-5.08,-1.343 -9.605,-2.798 -10.055,-3.234c-0.45,-0.437 -1.359,-3.833 -2.019,-7.548c-0.661,-3.715 -1.471,-7.832 -1.801,-9.149c-0.409,-1.631 -0.112,-2.882 0.932,-3.927c2.199,-2.198 1.397,-4.559 -2.066,-6.083c-3.485,-1.534 -3.505,-1.604 -1.38,-4.789c7.608,-11.406 6.952,-9.307 6.511,-20.831c-0.346,-9.048 -0.205,-10.466 1.044,-10.469c0.795,-0.002 3.315,-1.247 5.601,-2.767c4.345,-2.888 9.585,-3.638 12.926,-1.85c1.371,0.734 2.091,0.452 3.536,-1.385c1.817,-2.309 6.173,-3.203 6.782,-1.392c0.17,0.503 3.01,1.181 6.312,1.508c3.302,0.326 8.121,1.577 10.71,2.78c5.012,2.327 11.122,2.705 21.941,1.357c4.335,-0.541 5.797,-0.374 7.389,0.844c3.691,2.826 15.795,8.195 23.778,10.548c4.367,1.287 9.004,3.178 10.305,4.201c1.301,1.024 3.071,1.861 3.934,1.861c3.892,0 13.765,3.328 23.193,7.818c5.651,2.691 11.886,5.422 13.854,6.068c1.969,0.647 5.076,2.117 6.906,3.268c1.83,1.151 4.532,2.23 6.004,2.398c1.945,0.222 2.676,0.804 2.676,2.127c0,1.403 -1.275,2.253 -5.542,3.695l-5.541,1.873l0.294,9.697c0.162,5.334 0.496,10.406 0.741,11.271c0.318,1.117 -0.597,2.106 -3.156,3.411c-5.707,2.912 -20.786,12.167 -22.817,14.004c-1.016,0.92 -5.446,3.325 -9.845,5.347c-4.399,2.021 -10.213,5.165 -12.918,6.987c-5.067,3.413 -6.752,3.949 -7.682,2.445c-0.78,-1.263 2.838,-4.353 9.433,-8.056c4.592,-2.578 5.773,-3.697 5.773,-5.471c-0,-2.951 -2.469,-2.926 -6.56,0.066c-1.726,1.262 -5.138,3.236 -7.582,4.387l-4.444,2.092l0.288,4.538c0.31,4.899 -1.16,6.648 -2.883,3.429l0,0Zm-1.909,-10.666c-0,-1.415 -9.913,-6.075 -12.922,-6.075c-2.133,-0 -9.329,-2.148 -14.478,-4.321c-2.221,-0.937 -3.554,-0.991 -5.542,-0.223c-2.462,0.951 -1.934,1.232 8.928,4.75c6.35,2.056 14.039,4.658 17.087,5.781c5.742,2.116 6.927,2.131 6.927,0.088l-0,-0Zm16.518,-8.05c1.212,-0.946 2.978,-1.72 3.926,-1.72c1.804,0 2.376,-2.257 0.816,-3.222c-0.498,-0.308 -3.512,0.532 -6.696,1.867c-3.185,1.335 -7.141,2.879 -8.792,3.432c-3.109,1.04 -3.36,1.57 -2.413,5.105l0.563,2.102l5.197,-2.922c2.858,-1.608 6.188,-3.696 7.399,-4.642Zm11.131,3.878c0.95,-0.601 1.264,-2.363 1.108,-6.22c-0.296,-7.322 -0.738,-8.522 -2.928,-7.95c-2.003,0.524 -2.082,1.129 -1.222,9.36c0.615,5.881 0.824,6.213 3.042,4.81Zm-29.119,-2.691c0.268,-0.433 -0.019,-1.402 -0.638,-2.152c-1.302,-1.579 -8.709,-4.1 -9.556,-3.253c-1.027,1.027 0.483,3.421 2.168,3.435c0.905,0.007 2.684,0.591 3.954,1.295c2.841,1.577 3.452,1.678 4.072,0.675Zm35.911,-5.129c-0.538,-1.755 -0.765,-5.09 -0.503,-7.411c0.395,-3.509 0.217,-4.221 -1.059,-4.221c-2.464,0 -2.68,2.251 -0.929,9.678c1.084,4.598 1.955,6.661 2.557,6.059c0.603,-0.602 0.58,-2.001 -0.066,-4.105l0,0Zm-24.363,-0.915c3.855,-2.233 7.962,-4.345 9.128,-4.693c1.166,-0.348 3.867,-2.257 6.004,-4.242c2.136,-1.984 5.295,-4.285 7.019,-5.111c2.875,-1.378 3.205,-1.38 3.966,-0.021c0.718,1.284 1.656,0.972 7.023,-2.336c3.407,-2.1 7.761,-4.858 9.675,-6.13c1.914,-1.272 3.74,-2.053 4.057,-1.735c0.712,0.712 -1.429,3.389 -3.349,4.188c-3.661,1.522 -16.641,10.893 -16.649,12.019c-0.014,2.166 5.315,0.443 12.527,-4.052c3.657,-2.28 7.34,-4.145 8.183,-4.145c1.303,-0 1.492,-0.93 1.26,-6.193l-0.273,-6.193l-3.295,-0.318c-2.751,-0.266 -3.463,0.051 -4.316,1.925c-0.823,1.806 -2.094,2.433 -6.514,3.211c-3.544,0.625 -9.217,2.924 -16.002,6.485c-5.782,3.035 -11.551,5.779 -12.821,6.1c-1.27,0.32 -5.108,1.919 -8.528,3.555c-6.506,3.11 -7.943,5.497 -4.853,8.062c1.063,0.882 1.146,1.462 0.349,2.422c-1.778,2.143 0.119,1.426 7.409,-2.797l0,-0.001Zm-24.384,-1.543c0.349,-2.066 0.49,-3.879 0.312,-4.028c-0.177,-0.149 -2.089,-0.541 -4.247,-0.872l-3.926,-0.601l0,3.571c0,3.217 0.299,3.668 3.002,4.535c1.651,0.53 3.277,1.005 3.613,1.057c0.336,0.052 0.897,-1.596 1.246,-3.662l0,-0Zm-24.486,1.811c0,-0.563 -0.617,-0.786 -1.371,-0.497c-0.797,0.306 -1.762,-0.204 -2.305,-1.217c-1.258,-2.352 -12.725,-7.698 -15.151,-7.063c-1.102,0.288 -5.107,-0.877 -9.497,-2.762c-4.175,-1.794 -8.912,-3.298 -10.527,-3.344c-1.614,-0.046 -5.146,-1.214 -7.848,-2.596c-5.266,-2.693 -5.946,-2.424 -5.946,2.351c-0,2.64 2.372,3.556 8.642,3.336c3.131,-0.11 5.972,0.546 9.409,2.172c2.709,1.281 5.914,2.33 7.123,2.33c1.209,-0 4.361,0.642 7.005,1.427c2.643,0.785 5.137,1.223 5.541,0.973c0.921,-0.57 9.858,3.514 10.71,4.893c0.82,1.327 4.215,1.323 4.215,-0.003l0,-0Zm86.604,-3.49c4.436,-2.481 9.001,-4.795 10.144,-5.142c2.091,-0.634 3.013,-4.2 1.086,-4.2c-0.546,-0 -4.131,1.653 -7.967,3.674c-3.836,2.021 -8.377,3.938 -10.091,4.259c-2.429,0.456 -3.116,1.038 -3.116,2.637c-0,1.846 0.681,3.284 1.555,3.284c0.178,-0 3.953,-2.03 8.389,-4.512Zm-73.673,1.355c-0,-0.721 0.225,-1.896 0.5,-2.613c0.344,-0.897 -0.625,-1.641 -3.109,-2.385c-5.176,-1.551 -5.704,-1.397 -5.704,1.663c0,2.303 0.483,2.884 3.002,3.611c4.326,1.25 5.311,1.198 5.311,-0.276l-0,-0Zm23.847,-1.301c0.205,-1.394 -0.358,-2.266 -1.848,-2.863c-1.178,-0.472 -4.739,-1.897 -7.914,-3.165c-3.175,-1.269 -5.773,-1.968 -5.773,-1.552c0,0.415 1.141,1.041 2.535,1.391c3.49,0.876 4.989,2.303 4.392,4.182c-0.596,1.88 0.964,3.357 4.156,3.935c3.392,0.614 4.124,0.297 4.452,-1.928Zm-35.978,-9.858c-0.192,-9.335 -1.501,-10.469 -1.6,-1.385c-0.065,5.971 0.191,8.331 0.8,7.389c0.493,-0.762 0.853,-3.464 0.8,-6.004Zm70.593,-10.49c3.961,-2.104 8.325,-3.855 9.698,-3.891c3.13,-0.081 6.352,-1.298 5.205,-1.965c-0.474,-0.276 -4.376,-1.629 -8.671,-3.005c-6.93,-2.222 -7.925,-2.343 -8.848,-1.08c-0.573,0.782 -3.293,1.834 -6.046,2.337c-2.753,0.502 -6.252,1.174 -7.776,1.493l-2.771,0.579l2.309,-1.937c1.27,-1.065 4.283,-2.811 6.696,-3.879c2.413,-1.068 4.387,-2.294 4.387,-2.725c0,-0.431 -1.35,-1.163 -3.001,-1.626c-3.077,-0.864 -4.767,0.178 -7.126,4.393c-0.45,0.804 -1.1,1.178 -1.446,0.832c-0.818,-0.817 2.263,-9.209 3.871,-10.54c0.68,-0.564 1.237,-1.499 1.237,-2.078c0,-0.579 0.652,-1.053 1.448,-1.053c0.978,-0 1.275,0.543 0.915,1.676c-0.442,1.395 0.826,2.208 7.558,4.849c7.752,3.04 14.434,4.183 28.166,4.818c4.877,0.225 6.051,-1.326 1.68,-2.22c-1.546,-0.316 -3.333,-1.007 -3.971,-1.536c-0.639,-0.528 -4.486,-2.279 -8.55,-3.891c-4.063,-1.612 -8.096,-3.688 -8.96,-4.613c-1.689,-1.807 -5.967,-3.461 -10.435,-4.034c-1.524,-0.196 -4.292,-1.022 -6.15,-1.836c-1.859,-0.814 -5.352,-1.922 -7.763,-2.462c-2.411,-0.541 -10.658,-4.014 -18.326,-7.718l-13.942,-6.735l-15.701,1.073l5.542,2.45c3.048,1.347 6.873,2.727 8.5,3.066c1.627,0.338 3.997,1.433 5.267,2.432c2.315,1.821 6.838,3.587 20.174,7.877c7.309,2.351 13.476,6.398 12,7.874c-0.468,0.468 -2.745,0.065 -5.367,-0.951c-11.918,-4.616 -25.988,-9.369 -27.715,-9.362c-2.62,0.01 -12.131,-3.939 -17.6,-7.306c-7.926,-4.88 -17.233,-9.095 -24.539,-11.113c-5.948,-1.643 -7.423,-1.771 -9.005,-0.784c-1.041,0.65 -1.892,1.44 -1.892,1.756c-0,0.316 -1.431,2.398 -3.179,4.627c-1.748,2.229 -5.957,7.793 -9.353,12.365c-3.395,4.572 -7.868,10.077 -9.94,12.234c-2.262,2.355 -3.414,4.23 -2.885,4.695c0.485,0.426 6.492,1.921 13.35,3.324c6.858,1.402 14.845,3.341 17.75,4.31c2.905,0.968 5.935,1.76 6.733,1.76c0.798,-0 2.994,0.772 4.878,1.716c1.885,0.944 4.469,1.965 5.742,2.27l2.316,0.554l-0.478,-6.195c-0.263,-3.408 -0.83,-6.749 -1.261,-7.424c-0.537,-0.842 0.282,-2.204 2.601,-4.328c1.962,-1.797 3.513,-2.64 3.689,-2.005c1.958,7.041 2.365,9.538 2.376,14.595c0.007,3.243 0.255,6.8 0.551,7.904c0.699,2.606 8.329,5.716 15.137,6.17c5.406,0.361 7.621,1.299 13.244,5.612c2.9,2.223 3.678,2.47 4.365,1.385c0.459,-0.726 0.842,-1.84 0.849,-2.475c0.008,-0.635 0.413,-1.154 0.899,-1.154c0.487,-0 1.981,-1.871 3.321,-4.157c1.339,-2.285 2.811,-4.156 3.271,-4.156c0.46,0 0.842,-0.519 0.85,-1.154c0.024,-1.923 1.564,-3.739 2.618,-3.088c0.958,0.592 -4.078,11.095 -6.939,14.475c-0.679,0.802 -1.235,2.34 -1.235,3.418c0,1.78 1.124,1.383 12.238,-4.329c6.731,-3.459 15.479,-8.01 19.44,-10.114Zm-25.047,7.223c0.223,-0.67 1.005,-1.54 1.737,-1.933c0.732,-0.392 5.279,-2.969 10.104,-5.727c10.711,-6.12 13.235,-7.037 12.774,-4.643c-0.179,0.932 -1.153,1.847 -2.163,2.033c-1.01,0.186 -5.369,2.557 -9.687,5.267c-8.213,5.156 -13.508,7.231 -12.765,5.003Zm-50.04,6.038c-0,-1.418 -0.525,-2.309 -1.361,-2.309c-0.748,-0 -3.264,-0.925 -5.59,-2.055c-3.641,-1.769 -4.35,-1.865 -5.103,-0.693c-1.644,2.561 -0.405,4.052 4.67,5.618c6.901,2.131 7.384,2.094 7.384,-0.561Zm22.628,-1.386c-0.314,-0.507 -0.962,-0.923 -1.44,-0.923c-0.478,-0 -0.869,0.416 -0.869,0.923c0,0.508 0.648,0.924 1.44,0.924c0.792,0 1.183,-0.416 0.869,-0.924Zm-5.724,-1.259c-0.1,-0.438 -2.282,-1.77 -4.849,-2.959l-4.666,-2.162l-0,6.477l4.849,-0.279c2.667,-0.154 4.766,-0.638 4.666,-1.077l0,0Zm-32.675,-4.359c1.199,-5.591 0.844,-6.388 -2.844,-6.388c-1.543,-0 -3.908,-0.768 -5.256,-1.706c-2.589,-1.802 -7.881,-3.836 -9.979,-3.836c-0.892,-0 -1.247,1.406 -1.247,4.934c-0,4.896 0.026,4.941 3.463,5.999c1.905,0.586 5.542,2.073 8.082,3.306c2.54,1.232 5.103,2.273 5.696,2.313c0.593,0.04 1.531,-2.04 2.085,-4.622Zm15.762,-2.001c-0.008,-2.93 -0.18,-3.057 -7.158,-5.284c-7.878,-2.513 -11.059,-3.285 -7.82,-1.895c2.138,0.917 3.965,4.301 3.286,6.087c-0.21,0.552 2.178,1.623 5.432,2.436c3.194,0.798 5.911,1.497 6.038,1.554c0.127,0.057 0.227,-1.247 0.222,-2.898Zm-39.53,-3.322c0.34,-2.316 0.104,-2.622 -1.973,-2.57c-1.298,0.032 -3.295,-0.266 -4.438,-0.665c-1.781,-0.622 -2.078,-0.407 -2.078,1.504c0,2.363 2.6,4.186 6.13,4.298c1.483,0.047 2.069,-0.592 2.359,-2.567Zm0.747,-5.499c0,-0.406 -0.519,-1.289 -1.154,-1.962c-0.924,-0.979 -0.924,-1.309 -0,-1.647c1.979,-0.726 1.27,-1.863 -1.509,-2.419c-1.464,-0.293 -3.705,-0.794 -4.978,-1.114c-2.204,-0.553 -2.286,-0.433 -1.691,2.496c0.517,2.551 1.091,3.128 3.362,3.378c1.506,0.166 3.133,0.686 3.615,1.155c1.079,1.048 2.355,1.11 2.355,0.113l0,0Zm41.788,-8.266c-0.496,-4.623 -0.813,-5.493 -1.68,-4.626c-0.743,0.743 0.584,9.013 1.446,9.013c0.388,0 0.493,-1.974 0.234,-4.387l0,-0Zm-49.469,-21.647c-0.295,-0.737 -0.514,-0.518 -0.558,0.558c-0.04,0.974 0.178,1.519 0.485,1.212c0.307,-0.307 0.34,-1.103 0.073,-1.77l-0,-0Zm9.529,-11.273c-0,-1.602 -0.429,-1.431 -3.233,1.286c-1.778,1.724 -3.233,3.965 -3.233,4.981c0,1.602 0.429,1.432 3.233,-1.286c1.778,-1.723 3.233,-3.965 3.233,-4.981Zm-9.52,2.459c-0.234,-0.899 -0.441,-0.387 -0.46,1.136c-0.019,1.524 0.173,2.26 0.426,1.634c0.253,-0.625 0.268,-1.872 0.034,-2.77l-0,-0Z" style="fill:#30553c;fill-rule:nonzero;"/></svg>