<?xml version="1.0" encoding="UTF-8" standalone="no"?><!DOCTYPE svg PUBLIC "-//W3C//DTD SVG 1.1//EN" "http://www.w3.org/Graphics/SVG/1.1/DTD/svg11.dtd"><svg width="100%" height="100%" viewBox="0 0 174 241" version="1.1" xmlns="http://www.w3.org/2000/svg" xmlns:xlink="http://www.w3.org/1999/xlink" xml:space="preserve" xmlns:serif="http://www.serif.com/" style="fill-rule:evenodd;clip-rule:evenodd;stroke-linejoin:round;stroke-miterlimit:2;"><path id="Cabin1" d="M73.015,239.326c-0.727,-0.876 -2.111,-1.592 -3.077,-1.592c-0.966,0 -5.401,-1.864 -9.857,-4.143c-4.456,-2.278 -9.216,-4.48 -10.579,-4.893c-1.363,-0.412 -7.176,-3.083 -12.917,-5.935c-10.355,-5.143 -14.182,-6.13 -16.148,-4.164c-0.985,0.985 -19.146,-1.315 -20.417,-2.585c-0.306,-0.306 2.864,-0.557 7.046,-0.557c6.895,-0 7.603,-0.198 7.603,-2.122c-0,-1.167 0.399,-2.122 0.887,-2.122c0.488,0 0.954,-4.244 1.034,-9.431l0.147,-9.431l-4.563,-0.684c-2.51,-0.377 -5.368,-0.376 -6.352,0.002c-0.984,0.377 -2.488,0.106 -3.342,-0.603c-1.306,-1.084 0.298,-3.12 10.092,-12.811c6.404,-6.337 11.644,-12.169 11.644,-12.96c0,-0.791 1.595,-3.314 3.545,-5.607c6.267,-7.371 13.564,-18.49 12.145,-18.507c-1.049,-0.012 -1.027,-0.232 0.093,-0.942c2.097,-1.328 8.188,-0.385 24.988,3.867c17.225,4.36 18.109,4.35 50.461,-0.552c3.209,-0.487 7.368,-1.696 9.241,-2.687c3.394,-1.797 3.408,-1.837 3.713,-11.08l0.307,-9.276l6.519,-0.929c5.238,-0.745 7.193,-0.592 9.942,0.779c1.882,0.939 3.791,1.479 4.243,1.2c1.238,-0.765 2.104,2.295 2.104,7.437c-0,5.61 -0.816,7.956 -2.766,7.956c-0.813,0 -1.478,0.775 -1.478,1.721c0,1.41 0.288,1.482 1.592,0.401c1.383,-1.149 1.569,-0.577 1.421,4.378c-0.113,3.802 -0.312,4.551 -0.598,2.252c-0.446,-3.595 -2.365,-4.825 -2.482,-1.591c-0.051,1.422 -0.292,1.298 -1.027,-0.531c-1.098,-2.731 -4.21,-3.239 -4.21,-0.686c0,1.976 5.487,12.088 6.56,12.089c0.399,0.001 0.926,-1.311 1.173,-2.916c0.246,-1.604 0.417,-0.525 0.381,2.398c-0.07,5.625 1.143,7.971 8.86,17.123c2.042,2.422 5.536,6.599 7.765,9.282c2.228,2.684 4.734,4.879 5.569,4.879c0.834,-0 1.517,0.879 1.517,1.954c0,2.178 -5.835,4.411 -11.527,4.411l-3.324,-0l-0,14.914c-0,9.673 -0.373,14.684 -1.061,14.259c-0.619,-0.382 -1.061,-6.376 -1.061,-14.384l-0,-13.728l-3.978,0.08c-2.188,0.045 -5.649,0.752 -7.691,1.572l-3.713,1.491l5.834,-0.245c5.723,-0.241 5.842,-0.187 6.187,2.845c0.229,2.001 -0.24,3.423 -1.326,4.031c-1.295,0.725 -1.678,2.734 -1.678,8.795l-0,7.856l-3.978,0.623c-2.188,0.342 -5.273,0.826 -6.855,1.074c-1.582,0.248 -3.161,-0.012 -3.51,-0.575c-0.349,-0.564 -2.277,-1.026 -4.284,-1.026c-3.212,-0 -3.651,0.327 -3.651,2.723c0,2.087 0.435,2.601 1.857,2.2c1.021,-0.289 4.004,-0.823 6.63,-1.188c2.625,-0.365 7.012,-1.199 9.748,-1.853c3.949,-0.944 5.324,-0.898 6.675,0.223c2.843,2.359 0.436,3.161 -11.699,3.899c-8.179,0.497 -11.95,1.155 -12.736,2.221c-2.417,3.277 -3.587,-1.097 -3.353,-12.531l0.226,-11.077l-6.365,0.371c-3.501,0.204 -6.467,0.466 -6.592,0.581c-0.125,0.116 0.234,5.875 0.798,12.798c0.565,6.924 0.906,12.701 0.758,12.839c-0.147,0.138 -3.111,-0.243 -6.586,-0.847c-4.507,-0.783 -8.193,-0.753 -12.853,0.106c-3.594,0.662 -8.627,1.175 -11.185,1.139l-4.652,-0.065l5.712,-1.792l5.712,-1.793l-3.781,-1.803c-2.634,-1.256 -4.688,-1.547 -6.773,-0.958c-1.645,0.465 -3.54,0.656 -4.211,0.425c-1.682,-0.579 -2.37,10.137 -0.738,11.491c0.673,0.559 2.463,0.705 3.978,0.325c3.947,-0.991 3.453,1.209 -0.587,2.618c-4.092,1.426 -3.573,1.469 -5.146,-0.427l-0,0.001Zm-2.728,-6.1c-0.637,-1.566 -11.188,-9.321 -16.05,-11.797c-1.867,-0.951 -4.581,-1.729 -6.03,-1.729c-1.45,-0 -3.741,-0.408 -5.092,-0.907c-1.351,-0.499 -4.471,-1.218 -6.934,-1.599c-3.728,-0.576 -4.376,-0.424 -3.865,0.908c0.721,1.877 6.841,4.717 18.514,8.589c5.023,1.666 8.394,3.365 8.394,4.231c-0,1.468 4.951,3.359 9.249,3.534c1.487,0.061 2.155,-0.392 1.814,-1.23Zm0.531,-16.026c0.06,-4.966 -0.229,-6.097 -1.439,-5.633c-0.832,0.32 -4.054,-0.378 -7.16,-1.55c-8.81,-3.324 -15.35,-5.223 -27.375,-7.951c-14.048,-3.186 -14.028,-3.187 -13.616,0.395c0.325,2.823 0.597,2.941 8.434,3.652c15.931,1.445 39.551,9.255 36.678,12.128c-0.287,0.287 -2.364,-0.266 -4.615,-1.229c-10.067,-4.307 -36.149,-10.791 -39.002,-9.696c-0.929,0.356 -1.689,1.325 -1.689,2.152c-0,1.589 9.011,3.721 18.034,4.267c5.206,0.315 19.487,6.114 26.067,10.585c3.77,2.562 4.202,2.646 4.873,0.952c0.405,-1.023 0.769,-4.655 0.81,-8.073l0,0.001Zm24.187,9.285c-0.353,-0.353 -1.268,-0.39 -2.033,-0.084c-0.847,0.339 -0.595,0.59 0.641,0.641c1.118,0.046 1.744,-0.205 1.392,-0.557l-0,-0Zm15.139,-9.968l-0,-9.547l-5.965,-0c-5.181,-0 -5.791,0.209 -4.643,1.591c0.726,0.875 3.052,1.608 5.168,1.629l3.849,0.036l-2.652,1.516c-1.459,0.834 -3.727,1.533 -5.039,1.554c-2.586,0.041 -2.966,1.217 -1.362,4.215c0.631,1.179 0.66,3.194 0.074,5.234l-0.951,3.319l11.521,-0l-0,-9.547Zm-8.228,2.918c0.239,-0.73 2.069,-1.454 4.066,-1.61c3.427,-0.268 3.516,-0.193 1.572,1.326c-2.493,1.949 -6.247,2.138 -5.638,0.284l-0,-0Zm-5.563,-2.528c0,-4.343 -0.182,-4.634 -2.917,-4.647c-1.605,-0.008 -3.943,-0.29 -5.196,-0.626c-2.086,-0.56 -2.315,-0.135 -2.725,5.053c-0.247,3.116 -0.308,5.957 -0.137,6.314c0.17,0.356 2.71,0.174 5.643,-0.406l5.332,-1.055l0,-4.633Zm-15.826,4.915c2.418,-0 3.096,-0.479 3.096,-2.183c0,-1.912 -0.56,-2.142 -4.509,-1.857c-3.833,0.278 -4.562,0.706 -4.867,2.863c-0.283,2.001 0.015,2.393 1.413,1.856c0.974,-0.374 3.165,-0.679 4.867,-0.679Zm65.259,-5.29c2.028,-0.012 2.246,-0.68 2.444,-7.475l0.218,-7.46l-2.974,0.711c-1.636,0.392 -3.8,1.135 -4.809,1.652c-1.009,0.517 -3.038,0.637 -4.509,0.268c-3.884,-0.974 -8.039,0.286 -7.299,2.215c0.635,1.654 5.864,1.094 6.572,-0.705c0.93,-2.361 2.297,0.829 2.297,5.361c-0,5.772 0.653,6.84 3.686,6.025c1.181,-0.318 3.15,-0.584 4.374,-0.592l0,-0Zm-120.509,-1.005c-1.595,-0.928 -7.026,-1.587 -9.017,-1.093c-1.007,0.25 5.632,1.649 9.017,1.901c1.414,0.105 1.414,0.016 -0,-0.808Zm108.649,0.347c2.102,-0.807 2.251,-5.722 0.174,-5.722c-3.119,0 -4.861,1.371 -4.861,3.827c0,2.556 1.444,3.139 4.687,1.895Zm-54.281,-1.94c1.604,-0.352 2.917,-1.323 2.917,-2.158c0,-0.835 0.836,-2.005 1.857,-2.599c1.602,-0.934 1.475,-1.086 -0.929,-1.114c-1.531,-0.016 -4.276,0.266 -6.099,0.631c-2.781,0.556 -3.316,1.15 -3.316,3.679c0,1.924 0.481,2.869 1.327,2.609c0.729,-0.225 2.638,-0.697 4.243,-1.048Zm-8.538,-5.638c0.421,-2.111 -8.776,-11.934 -11.173,-11.934c-0.831,-0 -3.226,-0.717 -5.32,-1.592c-4.912,-2.052 -4.592,-2.178 -5.398,2.122c-0.467,2.489 -1.293,3.728 -2.505,3.758c-0.995,0.024 2.735,1.61 8.288,3.522c5.553,1.913 11.043,4.026 12.199,4.697c2.88,1.669 3.48,1.581 3.909,-0.573Zm6.151,-2.122c-0,-0.437 1.313,-0.876 2.917,-0.974c1.605,-0.099 6.737,-0.404 11.404,-0.678c4.668,-0.274 14.227,-1.221 21.243,-2.106c7.015,-0.885 14.056,-1.36 15.647,-1.056c1.814,0.347 2.892,0.091 2.892,-0.687c-0,-0.681 1.456,-1.747 3.236,-2.368c4.821,-1.68 3.089,-2.186 -2.83,-0.826c-7.79,1.789 -31.102,4.293 -45.757,4.915c-11.86,0.503 -12.995,0.727 -12.995,2.563c-0,1.306 0.745,2.013 2.121,2.013c1.167,-0 2.122,-0.358 2.122,-0.796Zm60.998,-5.569c1.895,-0.814 1.816,-0.92 -0.733,-0.986c-1.57,-0.041 -3.15,0.402 -3.51,0.986c-0.783,1.266 1.296,1.266 4.243,-0Zm-53.042,-2.216c4.668,-0.534 14.932,-1.44 22.808,-2.014c14.364,-1.048 27.302,-3.032 38.19,-5.855c3.209,-0.832 9.535,-1.809 14.057,-2.17c4.521,-0.361 8.221,-0.895 8.221,-1.186c0,-0.292 -2.781,-3.712 -6.179,-7.601c-9.574,-10.955 -15.148,-18.968 -20.315,-29.208c-2.611,-5.174 -5.309,-9.623 -5.997,-9.887c-1.508,-0.578 -12.159,3.727 -13.666,5.525c-1.416,1.689 -6.395,2.461 -25.191,3.903c-11.376,0.873 -16.304,0.883 -18.034,0.036c-1.309,-0.64 -6.438,-1.475 -11.398,-1.857c-4.959,-0.381 -11.623,-1.369 -14.809,-2.195c-7.955,-2.062 -10.017,-1.981 -9.042,0.355c0.935,2.242 1.861,5.143 4.317,13.526c2.696,9.199 12.319,27.648 18.153,34.8c4.351,5.334 5.382,6.066 7.71,5.477c1.479,-0.375 6.508,-1.118 11.175,-1.651l0,0.002Zm17.962,-13.078c-0.412,-1.64 -0.451,-6.509 -0.086,-10.818l0.662,-7.835l-8.46,-0l0,9.485c0,5.217 -0.444,9.759 -0.987,10.095c-1.734,1.072 -1.95,-0.774 -1.393,-11.91l0.544,-10.895l4.579,-3.09c4.09,-2.761 4.991,-2.977 8.44,-2.024c2.124,0.586 4.54,0.806 5.369,0.487c1.717,-0.658 6.787,1.371 6.787,2.718c-0,0.49 -0.716,0.89 -1.592,0.89c-1.308,0 -1.591,1.886 -1.591,10.609c0,5.835 -0.422,10.608 -0.937,10.608c-1.426,0 -2.215,-4.058 -2.231,-11.475c-0.014,-6.454 -0.103,-6.675 -2.401,-5.981c-3.699,1.118 -3.849,1.511 -4.123,10.824c-0.283,9.605 -1.374,13.119 -2.58,8.312Zm42.749,13.592c-0.352,-0.352 -1.267,-0.39 -2.033,-0.084c-0.846,0.339 -0.595,0.59 0.641,0.641c1.118,0.046 1.745,-0.204 1.392,-0.557l0,0Zm5.592,-0.42c-0,-0.583 -0.478,-1.061 -1.061,-1.061c-0.584,0 -1.061,0.478 -1.061,1.061c-0,0.584 0.477,1.061 1.061,1.061c0.583,0 1.061,-0.477 1.061,-1.061Zm-118.814,-3.216c-0,-3.473 -0.369,-3.713 -7.161,-4.664c-4.417,-0.619 -4.508,-0.569 -4.508,2.458c-0,2.675 0.533,3.231 3.978,4.146c6.87,1.825 7.691,1.618 7.691,-1.94Zm12.998,-5.005c0.6,-6.903 -0.116,-8.317 -4.717,-9.328c-4.244,-0.932 -5.062,0.485 -5.082,8.797l-0.017,6.631l9.285,-0l0.531,-6.1Zm11.86,-0.796c-3.726,-4.885 -7.885,-5.198 -7.885,-0.594c0,2.822 0.378,3.158 3.978,3.534c2.188,0.229 4.6,0.497 5.359,0.595c0.786,0.101 0.161,-1.419 -1.452,-3.535Zm-24.858,-2.008c-0,-2.871 -6.589,-3.737 -9.813,-1.289c-2.968,2.253 -2.23,2.767 3.978,2.767c4.28,-0 5.835,-0.394 5.835,-1.478Zm-9.515,-6.585c3.988,-3.85 7.985,-8.505 8.881,-10.343c0.895,-1.838 2.595,-4.774 3.776,-6.524c1.181,-1.751 2.162,-3.899 2.179,-4.774c0.016,-0.875 0.964,-2.785 2.105,-4.243c2.206,-2.822 2.848,-7.426 1.034,-7.426c-0.598,-0 -1.551,1.074 -2.119,2.387c-1.127,2.606 -2.044,4.101 -6.965,11.351c-7.893,11.629 -10.479,14.904 -11.768,14.904c-2.016,0 -5.642,3.397 -5.642,5.285c-0,0.897 -1.067,2.297 -2.371,3.111c-2.31,1.443 -2.317,1.501 -0.265,2.303c3.442,1.344 3.611,1.252 11.155,-6.031l-0,0Zm28.706,0.504c-0.239,-0.802 -0.513,-2.502 -0.608,-3.776c-0.337,-4.482 -2.432,-5.639 -10.211,-5.639l-7.281,0l-2.768,4.182c-2.907,4.393 -2.714,6.427 0.608,6.427c1.377,-0 2.092,-0.892 2.324,-2.898c0.47,-4.053 4.663,-5.436 9.367,-3.089c1.922,0.959 4.137,1.743 4.923,1.743c0.828,0 1.428,1.151 1.428,2.741c0,1.744 0.482,2.563 1.326,2.254c0.73,-0.267 1.131,-1.143 0.892,-1.945Zm-4.331,-14.189c-1.145,-3.106 -8.198,-2.978 -10.3,0.188c-1.521,2.29 -1.482,2.308 4.774,2.122c5.827,-0.174 6.248,-0.35 5.526,-2.31Zm-2.603,-6.988c0.392,-0.634 0.161,-1.704 -0.512,-2.378c-0.926,-0.925 -1.469,-0.838 -2.226,0.358c-0.55,0.87 -1.007,1.94 -1.016,2.378c-0.025,1.225 2.95,0.942 3.754,-0.358Zm101.009,-21.986c0.231,-0.693 -0.336,-1.26 -1.259,-1.26c-0.924,0 -1.68,0.756 -1.68,1.68c-0,1.873 2.284,1.547 2.939,-0.42Zm-12.957,-1.283c2.062,-0.784 3.277,-0.729 4.393,0.197c1.22,1.013 1.739,0.965 2.475,-0.227c1.166,-1.886 -0.386,-2.822 -6.234,-3.757c-4.229,-0.676 -4.407,-0.592 -4.407,2.083c0,3.179 -0.049,3.157 3.773,1.704l-0,0Zm16.383,-2.542c-0,-0.244 0.29,-1.199 0.644,-2.122c0.514,-1.339 -0.129,-1.678 -3.183,-1.678c-3.119,0 -3.826,0.392 -3.826,2.122c-0,1.65 0.707,2.122 3.182,2.122c1.751,-0 3.183,-0.2 3.183,-0.444Zm-8.681,-4.485c-0.277,-2.309 -1.184,-3.059 -5.11,-4.227c-2.625,-0.782 -4.893,-1.428 -5.039,-1.437c-0.146,-0.008 -0.265,1.347 -0.265,3.013c-0,2.483 0.621,3.228 3.448,4.135c6.026,1.933 7.341,1.653 6.966,-1.484l-0,-0Zm9.594,-1.996c0.295,-0.295 0.091,-0.969 -0.453,-1.498c-1.494,-1.451 -6.825,-0.058 -6.825,1.783c-0,1.232 0.775,1.445 3.37,0.926c1.854,-0.37 3.612,-0.915 3.908,-1.211Zm-14.439,-5.447c-0.729,-0.295 -1.922,-0.295 -2.652,-0c-0.729,0.294 -0.132,0.535 1.326,0.535c1.459,-0 2.056,-0.241 1.326,-0.535Zm-5.569,112.691c-0,-1.311 9.025,-4.976 19.297,-7.838c6.088,-1.696 12.083,-3.625 13.32,-4.288c2.702,-1.446 10.877,-1.611 10.877,-0.22c0,0.542 -2.632,1.313 -5.848,1.715c-3.217,0.402 -6.134,1.192 -6.482,1.756c-0.938,1.518 -9.75,5.092 -12.554,5.092c-1.337,0 -4.281,0.647 -6.542,1.437c-4.969,1.736 -12.068,3.116 -12.068,2.346l-0,-0Zm5.32,-135.648c-0.009,-1.051 0.893,-3.677 2.003,-5.834c5.687,-11.051 7.177,-20.804 3.849,-25.203c-1.634,-2.161 -2.229,-11.638 -0.785,-12.53c0.461,-0.286 0.649,1.102 0.418,3.084c-0.262,2.245 0.421,5.341 1.813,8.217c3.929,8.115 2.204,17.539 -5.771,31.526c-1.188,2.085 -1.515,2.243 -1.527,0.74Zm-0.66,-38.475c-1.05,-4.184 0.385,-11.991 2.757,-15.007c2.671,-3.395 2.666,-6.973 -0.014,-12.881c-1.155,-2.544 -2.099,-5.083 -2.099,-5.644c0,-0.56 -1.464,-3.147 -3.254,-5.749c-4.785,-6.955 -5.105,-10.804 -1.232,-14.857c7.058,-7.385 12.792,-8.843 17.031,-4.331c3.127,3.328 2.901,6.291 -0.876,11.505c-1.75,2.416 -3.182,5.43 -3.182,6.697c-0,2.712 3.058,12.314 4.384,13.768c2.398,2.627 0.889,7.838 -3.749,12.945c-2.569,2.828 -4.953,4.866 -5.298,4.529c-0.346,-0.336 1.269,-3.155 3.588,-6.263c4.401,-5.899 4.674,-8.289 1.52,-13.28c-1.995,-3.157 -2.881,-11.253 -1.6,-14.614c0.618,-1.62 2.106,-4 3.307,-5.289c2.959,-3.176 2.359,-7.282 -1.32,-9.038c-2.494,-1.19 -3.418,-1.096 -6.895,0.702c-8.002,4.137 -9.586,8.629 -5.111,14.496c3.06,4.013 5.628,10.486 7.189,18.127c0.99,4.848 0.846,5.995 -1.316,10.461c-1.609,3.324 -2.428,6.943 -2.428,10.733c-0,6.314 -0.37,7.102 -1.402,2.99l-0,-0Z" style="fill:#30553c;fill-rule:nonzero;"/></svg>