<?xml version="1.0" encoding="UTF-8" standalone="no"?><!DOCTYPE svg PUBLIC "-//W3C//DTD SVG 1.1//EN" "http://www.w3.org/Graphics/SVG/1.1/DTD/svg11.dtd"><svg width="100%" height="100%" viewBox="0 0 64 112" version="1.1" xmlns="http://www.w3.org/2000/svg" xmlns:xlink="http://www.w3.org/1999/xlink" xml:space="preserve" xmlns:serif="http://www.serif.com/" style="fill-rule:evenodd;clip-rule:evenodd;stroke-linejoin:round;stroke-miterlimit:2;"><path id="Campfire-Orange" serif:id="Campfire Orange" d="M26.278,110.98c0.024,1.964 -12.171,-7.619 -15.528,-11.539c-3.357,-3.921 -6.354,-7.129 -6.66,-7.129c-0.305,0 -1.343,-2.161 -2.306,-4.802c-1.986,-5.447 -2.373,-15.873 -0.862,-23.261c1.46,-7.144 6.785,-16.845 12.673,-23.09c6.126,-6.497 12.339,-17.976 13.186,-24.36c0.296,-2.229 0.998,-4.434 1.561,-4.901c1.161,-0.964 3.918,-0.208 3.24,0.889c-0.244,0.394 0.683,3.283 2.06,6.419c1.376,3.137 3.437,9.214 4.58,13.506c1.913,7.191 2.009,8.351 1.211,14.771c-1.023,8.234 -1.763,10.478 -7.204,21.854c-8.566,17.91 -8.403,17.433 -8.371,24.36c0.016,3.526 0.564,8.626 1.218,11.334c0.654,2.708 1.195,5.385 1.202,5.949Zm8.218,-1.847c-0,-0.677 0.554,-1.23 1.231,-1.23c0.677,-0 1.231,-0.623 1.231,-1.383c-0,-0.761 0.806,-2.242 1.792,-3.292c2.765,-2.943 4.73,-11.857 3.649,-16.553c-0.481,-2.09 -0.881,-7.676 -0.888,-12.415c-0.013,-8.112 0.152,-8.975 2.828,-14.77c2.041,-4.418 4.584,-8.006 9.013,-12.719c3.394,-3.61 6.446,-6.686 6.783,-6.836c0.336,-0.15 0.392,3.542 0.124,8.205c-0.397,6.919 -0.17,9.872 1.235,16.06c3.197,14.079 1.917,27.49 -3.178,33.293c-2.781,3.167 -12.031,8.858 -18.227,11.213c-5.222,1.984 -5.593,2.013 -5.593,0.427l-0,0Zm10.697,-72.506c-1.769,-6.57 -1.263,-11.706 1.838,-18.649c2.934,-6.573 4.333,-12.191 3.964,-15.927l-0.203,-2.051l1.394,1.931c1.763,2.441 3.647,8.632 3.635,11.944c-0.006,1.395 -1.477,5.675 -3.273,9.511c-2.154,4.603 -3.267,8.137 -3.273,10.395c-0.019,6.593 -2.589,8.387 -4.082,2.846Z" style="fill:#e5913d;fill-rule:nonzero;"/></svg>