<?xml version="1.0" encoding="UTF-8" standalone="no"?><!DOCTYPE svg PUBLIC "-//W3C//DTD SVG 1.1//EN" "http://www.w3.org/Graphics/SVG/1.1/DTD/svg11.dtd"><svg width="100%" height="100%" viewBox="0 0 144 85" version="1.1" xmlns="http://www.w3.org/2000/svg" xmlns:xlink="http://www.w3.org/1999/xlink" xml:space="preserve" xmlns:serif="http://www.serif.com/" style="fill-rule:evenodd;clip-rule:evenodd;stroke-linejoin:round;stroke-miterlimit:2;"><path id="Campfire-Green" serif:id="Campfire Green" d="M18.268,83.066c-4.081,-2.205 -6.279,-4.607 -8.259,-9.026c-2.459,-5.484 -3.189,-9.573 -2.08,-11.645c0.666,-1.244 0.634,-1.751 -0.129,-2.018c-0.561,-0.196 1.011,-0.625 3.493,-0.955c2.483,-0.329 5.903,-0.997 7.601,-1.484c3.618,-1.037 6.922,0.263 8.022,3.159c0.455,1.195 1.678,1.947 3.806,2.34c1.725,0.319 3.907,1.295 4.848,2.171c1.705,1.584 1.728,1.577 5.439,-1.69c3.415,-3.006 13.186,-7.42 16.425,-7.42c0.672,0 2.516,-1.22 4.098,-2.712c2.64,-2.49 14.535,-7.955 17.315,-7.955c0.645,0 1.632,-0.554 2.193,-1.231c0.562,-0.677 1.409,-1.231 1.882,-1.231c0.474,0 1.527,-0.602 2.34,-1.338c0.813,-0.736 2.873,-1.418 4.577,-1.516c1.705,-0.098 6.274,-1.695 10.154,-3.549c6.794,-3.246 10.07,-6.149 12.661,-11.221c0.463,-0.908 1.88,-1.837 3.148,-2.065l2.306,-0.414l-1.918,-1.738c-6.46,-5.854 -10.918,-5.834 -22.296,0.097c-4.136,2.155 -8.591,4.814 -9.899,5.907c-4.185,3.497 -11.347,6.545 -19.625,8.35c-9.218,2.011 -11.527,3.032 -17.793,7.864c-5.563,4.29 -11.656,6.443 -16.186,5.718c-3.71,-0.593 -9.791,1.637 -13.354,4.896c-2.14,1.958 -7.158,4.279 -7.82,3.618c-0.211,-0.211 1.278,-1.576 3.309,-3.034c2.03,-1.458 3.691,-3.014 3.691,-3.458c-0,-1.543 8.505,-4.818 12.535,-4.826c2.91,-0.006 5.395,-0.781 9.642,-3.006c3.147,-1.648 5.722,-3.31 5.722,-3.692c-0,-0.924 -3.062,-0.896 -3.637,0.034c-0.617,0.999 -19.502,2.064 -21.912,1.236c-1.821,-0.625 -1.763,-0.7 0.932,-1.208c2.836,-0.535 2.826,-0.543 -0.821,-0.662c-6.043,-0.197 -6.712,-1.49 -1.157,-2.238l4.85,-0.653l-6.154,-0.958l-6.154,-0.957l4.718,-0.106c4.556,-0.103 6.105,-1.04 3.42,-2.07c-0.714,-0.274 -3.461,-0.498 -6.106,-0.498c-5.154,-0 -7.268,-1.267 -3.502,-2.099c1.26,-0.279 2.649,-0.594 3.088,-0.701c0.439,-0.106 -0.99,-0.72 -3.176,-1.364c-5.197,-1.53 -7.605,-4.439 -8.304,-10.028c-1.046,-8.376 1.985,-13.928 9.086,-16.64c3.772,-1.44 3.85,-1.437 5.175,0.246c0.739,0.939 3.929,2.969 7.088,4.51c3.159,1.541 7.221,3.613 9.026,4.604c1.806,0.991 5.406,2.7 8.001,3.797c3.983,1.683 4.718,2.319 4.718,4.079c-0,1.608 0.658,2.361 2.872,3.286c1.579,0.66 2.872,1.773 2.872,2.473c-0,1.812 -0.797,1.611 -5.378,-1.355c-2.232,-1.445 -6.089,-3.873 -8.572,-5.395c-2.482,-1.522 -6.359,-4.176 -8.615,-5.898c-2.257,-1.722 -6.446,-4.302 -9.31,-5.734l-5.207,-2.603l-3.203,3.368c-2.59,2.722 -3.204,3.975 -3.204,6.535l-0,3.167l5.128,0.592c2.821,0.326 6.052,0.968 7.18,1.426c1.128,0.458 5.005,1.462 8.616,2.232c4.392,0.936 6.564,1.777 6.564,2.542c0,1.613 -2.731,1.945 -4.369,0.532c-0.756,-0.653 -2.553,-1.581 -3.993,-2.064c-2.488,-0.833 -2.586,-0.788 -1.966,0.91c0.821,2.247 3.789,3.81 7.266,3.826c1.476,0.006 4.759,1.12 7.296,2.473c2.862,1.528 5.829,2.462 7.817,2.462c2.315,0 3.767,0.564 5.234,2.031l2.031,2.03l4.933,-2.507c3.621,-1.84 7.099,-2.788 13.077,-3.565c7.612,-0.99 8.402,-1.274 12.077,-4.335c4.851,-4.041 20.098,-12.216 24.162,-12.955c3.688,-0.67 7.392,0.945 12.522,5.461c3.969,3.493 6.25,9.084 6.199,15.197c-0.034,4.178 -4.065,8.324 -9.41,9.681l-3.795,0.964l8.583,2.687c8.755,2.742 12.03,4.935 13.209,8.844c0.458,1.52 0.966,1.72 3.374,1.329c2.262,-0.367 2.835,-0.19 2.835,0.878c0,0.983 -0.764,1.338 -2.872,1.338c-2.006,0 -2.872,0.372 -2.872,1.231c0,1.459 0.291,1.483 4.319,0.364c3.582,-0.995 5.276,-0.397 3.826,1.35c-0.604,0.729 -2.562,1.158 -5.278,1.158c-3.531,0 -4.39,0.28 -4.719,1.539c-0.37,1.414 -0.228,1.448 1.751,0.415c1.184,-0.618 3.117,-1.125 4.295,-1.128c1.819,-0.004 2.086,0.292 1.768,1.959c-0.403,2.106 -2.715,2.936 -8.321,2.985c-1.636,0.014 -3.691,0.568 -4.567,1.231c-1.964,1.485 -4.808,1.483 -8.985,-0.005c-2.781,-0.991 -3.44,-0.976 -5.104,0.114c-1.235,0.809 -5.331,1.5 -11.577,1.951c-5.316,0.384 -11.143,1.061 -12.948,1.504c-5.319,1.307 -24.952,3.589 -26.328,3.061c-0.695,-0.267 -1.035,-0.857 -0.754,-1.312c0.317,-0.513 -1.056,-0.826 -3.62,-0.826c-4.107,-0 -4.128,0.013 -3.662,2.345c0.393,1.963 0.155,2.429 -1.456,2.861c-1.059,0.283 -2.849,0.526 -3.977,0.539c-1.439,0.017 -1.725,0.231 -0.957,0.718c1.693,1.073 -0.894,1.864 -8.89,2.719c-14.334,1.532 -18.319,1.561 -20.924,0.154l0,-0Zm22.507,-2.242l3.633,-1.086l-2.71,-0.543c-3.989,-0.797 -4.472,-0.703 -5.598,1.099c-1.255,2.011 -0.547,2.091 4.675,0.53Zm-8.258,-1.643c2.2,-2.342 3.017,-6.691 1.835,-9.769c-0.86,-2.239 -2.637,-3.362 -6.661,-4.209c-1.361,-0.286 -2.397,-1.317 -3.042,-3.026c-0.9,-2.382 -1.198,-2.548 -3.68,-2.038c-1.486,0.305 -4.11,0.76 -5.833,1.01c-3.758,0.546 -5.03,2.969 -4.218,8.031c0.725,4.512 2.261,6.682 6.743,9.525c5.085,3.225 12.064,3.448 14.856,0.476Zm-14.498,-3.234c-1.97,-2.032 -2.607,-3.411 -2.558,-5.538c0.067,-2.951 0.267,-2.753 1.123,1.118c0.928,4.195 11.224,6.676 12.2,2.941c0.532,-2.035 2.203,-1.335 2.203,0.923c-0,2.097 -2.414,3.262 -6.76,3.262c-2.979,0 -4.03,-0.458 -6.208,-2.706Zm4.124,-2.674c-1.003,-0.702 -1.824,-1.671 -1.824,-2.152c0,-0.557 0.443,-0.507 1.221,0.138c0.699,0.581 2.099,0.792 3.282,0.496c2.342,-0.588 3.014,1.434 0.764,2.297c-1.645,0.632 -1.326,0.704 -3.443,-0.779l0,0Zm5.265,-4.056c-0.328,-0.854 -1.674,-1.235 -4.396,-1.244c-2.836,-0.009 -3.582,-0.233 -2.693,-0.808c1.731,-1.118 6.864,-1.013 8.042,0.165c1.152,1.152 1.311,3.118 0.252,3.118c-0.403,-0 -0.946,-0.554 -1.205,-1.231l-0,-0Zm21.631,5.247c1.498,-0.076 1.648,-0.208 0.555,-0.491c-0.947,-0.245 -1.318,-0.851 -1.011,-1.651c0.397,-1.034 0.012,-1.17 -2.102,-0.747c-3.222,0.644 -8.27,3.693 -7.684,4.641c0.24,0.388 2.181,0.176 4.313,-0.471c2.133,-0.647 4.8,-1.224 5.929,-1.281Zm36.925,-4.577c9.525,-1.851 11.192,-2.362 8.356,-2.566c-1.947,-0.14 -7.117,0.354 -11.487,1.099c-5.829,0.993 -10.048,1.204 -15.833,0.79c-6.421,-0.459 -8.357,-0.32 -10.421,0.747c-1.394,0.721 -3.354,1.311 -4.354,1.311c-1,0 -1.629,0.19 -1.397,0.422c0.232,0.232 4.448,0.061 9.368,-0.381c7.657,-0.687 9.065,-0.626 9.767,0.429c0.459,0.69 1.543,1.062 2.461,0.846c0.903,-0.213 6.996,-1.427 13.54,-2.697Zm22.812,-2.603c0.657,-0.417 -0.369,-0.7 -2.667,-0.734c-2.054,-0.031 -3.734,0.279 -3.734,0.69c-0,0.929 4.952,0.963 6.401,0.044l0,-0Zm-37.426,-2.012c1.18,-1.91 -2.595,-2.255 -5.949,-0.543c-1.779,0.907 -3.233,1.874 -3.233,2.149c-0,0.889 8.565,-0.609 9.182,-1.606Zm14.203,0.751l4.103,-0.985l-4.687,-0.515c-2.577,-0.283 -5.716,-0.205 -6.974,0.173c-1.296,0.389 -1.666,0.718 -0.852,0.758c0.789,0.039 1.436,0.44 1.436,0.891c-0,1.02 1.714,0.941 6.974,-0.322Zm38.351,-2.058c2.37,-0.901 4.963,-6.323 4.59,-9.595c-0.23,-2.02 -0.679,-2.424 -2.927,-2.641c-3.026,-0.292 -6.963,2.29 -10.438,6.846l-2.126,2.788l3.097,1.634c3.492,1.843 5.008,2.031 7.804,0.968Zm-1.836,-3.263c-0,-0.397 0.569,-1.193 1.265,-1.771c2.028,-1.683 0.052,-2.976 -2.478,-1.622c-2.36,1.263 -3.596,0.619 -2.153,-1.121c1.667,-2.008 5.211,-2.463 6.411,-0.823c1.397,1.911 1.334,3.201 -0.232,4.767c-1.415,1.415 -2.813,1.698 -2.813,0.57l-0,-0Zm-42.784,0.319c4.451,-0.406 5.02,-0.935 2.732,-2.537c-2.432,-1.704 -2.324,-2.966 0.173,-2.017c1.616,0.614 2.044,0.463 2.385,-0.841c0.305,-1.166 1.146,-1.595 3.159,-1.611c1.509,-0.011 5.328,-0.954 8.488,-2.095c8.883,-3.207 9.436,-3.281 9.436,-1.261c-0,1.204 0.516,1.737 1.682,1.737c0.925,-0 2.717,0.535 3.982,1.189c2.201,1.139 2.413,1.072 4.961,-1.557l2.662,-2.746l-5.174,-2.483c-3.995,-1.918 -5.528,-2.294 -6.729,-1.651c-0.856,0.458 -4.01,1.763 -7.009,2.9c-2.999,1.138 -7.853,2.981 -10.786,4.096c-2.934,1.116 -6.802,2.433 -8.596,2.928c-2.597,0.716 -8.713,4.543 -11.097,6.944c-0.226,0.228 1.066,0.17 2.872,-0.127c1.805,-0.298 4.892,-0.688 6.859,-0.868l0,0Zm29.245,-12.077c-1.805,-0.954 -2.882,-1.87 -2.392,-2.036c1.366,-0.465 7.311,1.69 7.161,2.595c-0.228,1.37 -1.371,1.236 -4.769,-0.559Zm-70.161,-10.703c0.002,-0.338 -0.458,-0.62 -1.022,-0.627c-0.564,-0.006 -1.857,-0.233 -2.872,-0.506c-1.332,-0.356 -1.846,-0.141 -1.846,0.774c-0,0.93 0.765,1.229 2.868,1.121c1.577,-0.081 2.87,-0.424 2.872,-0.762Zm79.597,34.825c1.705,-1.059 12.264,-2.937 12.906,-2.294c1.262,1.262 -1.673,2.277 -7.668,2.653c-4.174,0.262 -6.032,0.135 -5.238,-0.359Zm-80.824,-18.544c2.256,-1.036 7.152,-4.334 10.879,-7.33c7.212,-5.797 11.255,-7.925 15.059,-7.925c3.789,-0 17.164,-4.632 22.292,-7.72c2.6,-1.566 6.187,-4.097 7.971,-5.624c7.05,-6.034 17.648,-9.621 17.648,-5.973c0,1.141 -0.743,1.759 -2.558,2.131c-4.008,0.819 -9.379,3.706 -13.853,7.445c-6.662,5.568 -13.978,8.524 -33.212,13.421c-3.982,1.014 -6.786,2.481 -11.192,5.855c-5.633,4.315 -12.687,7.749 -15.71,7.649c-0.785,-0.026 0.419,-0.894 2.676,-1.929Zm13.539,0.435c-0,-0.493 2.215,-2.015 4.923,-3.382c2.708,-1.367 4.923,-2.841 4.923,-3.275c0,-1.051 4.017,-3.649 4.655,-3.011c0.275,0.275 -0.813,2.104 -2.419,4.063c-2,2.441 -4.002,3.888 -6.355,4.593c-1.89,0.566 -3.952,1.227 -4.582,1.469c-0.63,0.242 -1.145,0.036 -1.145,-0.457Zm41.027,-17.618c0,-0.563 9.886,-7.098 10.737,-7.098c0.386,-0 1.521,-1.108 2.522,-2.462c1.001,-1.354 2.304,-2.462 2.897,-2.462c1.714,0 1.247,2.84 -0.77,4.686c-2.952,2.702 -15.386,8.63 -15.386,7.336Zm-37.728,-5.447c-0.624,-0.385 -3.455,-1.139 -6.292,-1.674c-2.837,-0.535 -5.584,-1.488 -6.106,-2.116c-0.747,-0.9 -0.656,-1.144 0.426,-1.144c2.986,0 12.715,2.632 13.579,3.673c1.113,1.341 -0.028,2.237 -1.607,1.261Zm-22.806,-12.738c-4.666,-2.238 -6.993,-2.864 -10.667,-2.867c-4.876,-0.005 -10.484,-1.195 -11.216,-2.38c-0.232,-0.375 3.355,-0.519 7.971,-0.32c7.581,0.327 9.004,0.654 14.723,3.379c3.483,1.66 6.344,3.479 6.36,4.043c0.04,1.475 -0.539,1.326 -7.171,-1.855Zm-12.905,-7.331c-3.917,-1.18 -7.269,-2.896 -6.723,-3.442c0.482,-0.482 9.74,2.102 10.692,2.985c1.306,1.211 -0.699,1.442 -3.969,0.457Z" style="fill:#30553c;fill-rule:nonzero;"/></svg>