<?xml version="1.0" encoding="UTF-8" standalone="no"?><!DOCTYPE svg PUBLIC "-//W3C//DTD SVG 1.1//EN" "http://www.w3.org/Graphics/SVG/1.1/DTD/svg11.dtd"><svg width="100%" height="100%" viewBox="0 0 180 149" version="1.1" xmlns="http://www.w3.org/2000/svg" xmlns:xlink="http://www.w3.org/1999/xlink" xml:space="preserve" xmlns:serif="http://www.serif.com/" style="fill-rule:evenodd;clip-rule:evenodd;stroke-linejoin:round;stroke-miterlimit:2;"><path id="Floating-Goose-Outlines" serif:id="Floating Goose Outlines" d="M76.65,147.842c-1.236,-0.306 -4.85,-0.872 -8.029,-1.258c-6.724,-0.815 -8.03,-1.133 -8.03,-1.952c0,-0.927 2.015,-0.733 11.104,1.067c4.625,0.917 12.041,1.885 16.478,2.153l8.069,0.487l-8.672,0.029c-4.769,0.017 -9.683,-0.22 -10.92,-0.526l0,0Zm21.371,-0.4c0.625,-0.163 1.492,-0.152 1.927,0.024c0.435,0.176 -0.076,0.309 -1.136,0.296c-1.06,-0.013 -1.416,-0.157 -0.791,-0.32l-0,0Zm4.203,-0.636c0.464,-0.186 1.018,-0.163 1.231,0.051c0.214,0.213 -0.166,0.365 -0.843,0.337c-0.748,-0.031 -0.9,-0.183 -0.388,-0.388l0,0Zm48.82,-3.854c0.464,-0.186 1.018,-0.163 1.231,0.051c0.213,0.213 -0.166,0.365 -0.843,0.337c-0.748,-0.031 -0.901,-0.183 -0.388,-0.388l-0,-0Zm3.171,-0.629c0.442,-0.178 1.165,-0.178 1.606,-0c0.442,0.178 0.081,0.324 -0.803,0.324c-0.883,-0 -1.244,-0.146 -0.803,-0.324Zm3.212,-0.643c0.442,-0.178 1.165,-0.178 1.606,0c0.442,0.179 0.081,0.324 -0.803,0.324c-0.883,0 -1.244,-0.145 -0.803,-0.324Zm7.055,-2.519c3.272,-1.58 5.361,-3.121 7.066,-5.211c1.331,-1.633 3.23,-3.862 4.221,-4.954l1.8,-1.986l-1.364,2.794c-2.891,5.92 -10.219,11.69 -14.763,11.624c-1.158,-0.017 -0.31,-0.65 3.04,-2.267Zm-119.95,-4.386c-8.357,-1.628 -14.572,-3.385 -15.121,-4.274c-0.64,-1.034 2.544,-0.661 9.109,1.069c3.483,0.917 9.079,2.191 12.436,2.83c3.356,0.639 5.331,1.189 4.388,1.222c-0.942,0.033 -2.099,0.18 -2.569,0.326c-0.471,0.147 -4.18,-0.381 -8.243,-1.173Zm55.291,-1.517c-11.448,-0.169 -14.112,-0.623 -13.117,-2.234c0.269,-0.435 3.585,-0.501 9.789,-0.195c5.161,0.254 16.609,0.464 25.442,0.465c15.521,0.002 15.876,0.03 10.599,0.832c-6.63,1.009 -16.962,1.366 -32.713,1.133l0,-0.001Zm39.618,-2.498c0.442,-0.178 1.164,-0.178 1.606,0c0.442,0.179 0.08,0.324 -0.803,0.324c-0.883,0 -1.244,-0.145 -0.803,-0.324Zm3.854,-0.642c0.442,-0.178 1.165,-0.178 1.606,-0c0.442,0.178 0.081,0.324 -0.803,0.324c-0.883,-0 -1.244,-0.146 -0.803,-0.324Zm3.252,-0.656c0.464,-0.185 1.018,-0.162 1.231,0.051c0.214,0.213 -0.166,0.365 -0.843,0.337c-0.748,-0.031 -0.9,-0.183 -0.388,-0.388l0,0Zm-54.526,-4.928c-0.152,-0.134 -6.057,-0.419 -13.123,-0.633c-18.278,-0.555 -34.176,-3.087 -53.476,-8.517c-2.076,-0.584 -1.838,-2.188 0.321,-2.169c0.972,0.009 4.223,0.728 7.227,1.598c5.787,1.678 11.471,2.52 34.687,5.138c16.561,1.868 21.824,2.165 39.131,2.21c6.86,0.017 12.352,0.15 12.205,0.294c-0.148,0.144 -5.327,0.587 -11.509,0.984c-6.183,0.397 -12.13,0.861 -13.215,1.03c-1.085,0.17 -2.097,0.199 -2.248,0.065l-0,-0Zm-76.258,-3.693c-5.148,-1.63 -9.867,-4.413 -12.513,-7.379c-3.997,-4.48 -4.284,-7.453 -0.988,-10.226c1.604,-1.35 2.517,-1.588 5.865,-1.529c3.961,0.071 3.963,0.071 1.217,0.613c-3.897,0.767 -6.566,2.822 -6.566,5.054c0,3.82 6.177,9.534 13.623,12.601c5.896,2.428 5.592,2.84 -0.638,0.866Zm120.955,0.721c-0.229,-0.371 0.239,-0.659 1.079,-0.665c4.38,-0.033 13.672,-1.398 15.322,-2.251c2.258,-1.168 2.53,-3.392 0.626,-5.115c-0.701,-0.634 -3.519,-1.977 -6.263,-2.985c-3.716,-1.364 -4.334,-1.735 -2.42,-1.453c7.534,1.11 12.526,3.95 12.526,7.127c-0,1.833 -2.847,3.704 -7.012,4.608c-4.676,1.015 -13.399,1.477 -13.858,0.734Zm30.274,-3.669c-0.226,-0.226 -0.411,-1.077 -0.411,-1.89c-0,-1.087 -0.895,-2.042 -3.372,-3.601c-1.855,-1.167 -4.205,-2.488 -5.222,-2.935c-1.018,-0.446 -1.675,-0.987 -1.462,-1.2c0.214,-0.214 2.307,0.592 4.652,1.79c4.222,2.157 7.331,4.994 7.331,6.687c0,1.032 -0.929,1.736 -1.516,1.149Zm-77.816,-1.474c-6.58,-0.584 -11.757,-1.219 -13.168,-1.615c-0.53,-0.149 -2.409,-0.458 -4.176,-0.688c-1.766,-0.229 -3.789,-0.528 -4.496,-0.664c-0.707,-0.136 -2.297,-0.419 -3.533,-0.63c-13.72,-2.332 -28.643,-6.429 -30.184,-8.286c-1.014,-1.221 -0.153,-1.236 2.696,-0.045c1.22,0.51 3.496,1.087 5.057,1.283c1.561,0.197 4.429,0.794 6.372,1.327c1.943,0.534 6.857,1.402 10.92,1.929c4.063,0.528 10.422,1.522 14.132,2.209c9.714,1.8 13.983,2.403 17.986,2.542c1.943,0.067 5.99,0.356 8.993,0.643c14.806,1.413 34.617,-0.271 33.625,-2.858c-0.205,-0.534 0.412,-2.102 1.371,-3.486c2.519,-3.635 6.119,-18.078 6.149,-24.669c0.012,-2.781 -0.138,-5.218 -0.335,-5.414c-0.196,-0.197 -1.375,0.128 -2.619,0.721c-1.333,0.636 -3.832,1.079 -6.084,1.079c-3.289,-0 -4.107,-0.254 -5.859,-1.82l-2.036,-1.819l1.474,-1.994c1.13,-1.527 1.48,-2.867 1.499,-5.728c0.039,-5.962 -1.372,-18.191 -3.1,-26.86c-0.493,-2.473 -1.074,-6.073 -1.292,-8c-0.218,-1.927 -0.539,-3.734 -0.712,-4.014c-0.349,-0.565 -0.322,-11.464 0.034,-14.002c0.724,-5.158 3.125,-10.729 5.48,-12.72c2.186,-1.849 5.45,-2.755 10.19,-2.831c4.136,-0.066 5.457,0.19 8.185,1.584c3.022,1.545 6.068,4.458 8.802,8.419c0.625,0.904 3.007,2.69 5.294,3.969c2.288,1.279 4.312,2.573 4.499,2.876c0.469,0.759 4.169,2.558 5.262,2.558c0.493,-0 1.822,0.485 2.953,1.078c1.13,0.593 3.064,1.248 4.297,1.455c1.491,0.251 2.318,0.777 2.471,1.572c0.215,1.115 -0.134,1.168 -5.132,0.789c-2.949,-0.223 -9.698,-0.157 -14.997,0.148c-8.273,0.476 -10.519,0.851 -15.877,2.648c-9.001,3.019 -8.704,2.645 -6.978,8.754c1.92,6.794 3.675,16.344 5.832,31.733c0.421,3.003 1.061,6.616 1.422,8.029c1.145,4.475 0.578,11.086 -1.707,19.914c-3.81,14.721 -5.001,17.015 -10.261,19.759c-2.461,1.283 -3.672,1.376 -19.645,1.503c-9.362,0.075 -19.624,-0.095 -22.804,-0.378l0,0Zm50.872,-90.532l5.263,-2.199l-1.15,-1.655c-0.632,-0.91 -2.071,-3.405 -3.198,-5.545c-3.043,-5.776 -6.501,-7.333 -9.334,-4.202c-1.671,1.846 -1.807,4.298 -0.423,7.619c0.697,1.674 1.587,4.29 1.977,5.814c0.39,1.525 0.91,2.681 1.155,2.57c0.245,-0.111 2.815,-1.192 5.71,-2.402Zm6.649,-15.222c0.449,-1.181 0.421,-1.949 -0.094,-2.57c-0.909,-1.095 -1.317,-1.104 -2.744,-0.061c-1.065,0.779 -1.052,0.922 0.245,2.57c1.69,2.148 1.799,2.151 2.593,0.061l0,-0Zm-41.164,101.034c-0.164,-0.151 -2.343,-0.44 -4.842,-0.641c-9.821,-0.79 -23.985,-4.567 -38.065,-10.151c-4.709,-1.868 -18.56,-9.468 -20.985,-11.515c-1.019,-0.861 -3.18,-1.163 -10.468,-1.466c-5.051,-0.211 -9.504,-0.58 -9.895,-0.822c-0.465,-0.287 -0.534,-0.127 -0.2,0.462c1.114,1.963 6.573,9.25 9.001,12.015l2.569,2.926l-2.144,-1.238c-2.515,-1.452 -8.344,-7.829 -11.036,-12.074c-1.185,-1.868 -2.351,-2.975 -3.134,-2.975c-3.842,0 -15.127,-3.927 -15.719,-5.47c-0.448,-1.166 2.842,-2.236 6.916,-2.248c3.621,-0.011 3.217,-0.758 -1.048,-1.939c-2.345,-0.649 -4.268,-2.766 -3.144,-3.46c0.31,-0.192 3.418,-0.676 6.907,-1.076c7.042,-0.808 34.42,-0.32 41.143,0.734c3.131,0.49 4.753,0.406 7.708,-0.403c12.182,-3.333 32.563,-4.037 44.169,-1.527c16.261,3.517 21.821,6.466 25.384,13.462c3.109,6.106 3.666,10.609 1.948,15.77c-1.955,5.875 -5.597,9.085 -12.237,10.784c-3.304,0.846 -12.197,1.437 -12.828,0.852l0,0Zm-16.172,-5.979c-2.308,-0.957 -3.559,-2.78 -2.778,-4.045c0.489,-0.79 -1.278,-1.729 -4.33,-2.302c-2.813,-0.527 -5.603,-2.525 -5.603,-4.01c0,-0.574 0.743,-1.818 1.651,-2.766l1.651,-1.723l-2.091,-0.729c-4.628,-1.613 -5.649,-4.264 -2.53,-6.57l1.893,-1.399l-1.493,-1.174c-1.952,-1.536 -2.36,-3.289 -1.258,-5.413c1.222,-2.356 1.207,-2.375 -1.516,-1.974c-1.325,0.195 -3.855,0.517 -5.621,0.715c-3.769,0.422 -6.745,1.495 -6.745,2.432c0,0.364 1.195,1.766 2.655,3.114l2.656,2.451l-2.009,1.144c-1.104,0.629 -1.916,1.433 -1.804,1.786c0.112,0.353 1.555,1.29 3.207,2.081c3.452,1.654 4.108,3.72 1.398,4.4c-0.884,0.222 -1.606,0.61 -1.606,0.864c-0,0.853 3.234,3.508 6.286,5.16c2.299,1.245 3.028,2.007 3.028,3.165c-0,1.247 0.529,1.69 2.891,2.426c9.273,2.888 16.955,4.395 12.068,2.367Zm36.643,-2.25c2.3,-0.854 1.315,-2.166 -1.558,-2.073c-13.978,0.453 -16.175,0.383 -19.488,-0.625c-3.793,-1.155 -6.46,-1.404 -5.472,-0.511c0.559,0.504 10.479,2.816 16.669,3.885c2.866,0.495 7.565,0.172 9.849,-0.676Zm0.014,-9.107c1.309,-1.577 -0.564,-2.361 -5.655,-2.366c-2.667,-0.003 -8.897,-0.584 -13.843,-1.291c-4.946,-0.708 -10.005,-1.428 -11.241,-1.6c-1.237,-0.173 -1.815,-0.144 -1.285,0.064c0.53,0.209 3.01,1.208 5.512,2.221c7.359,2.98 24.876,4.944 26.512,2.972l0,0Zm-4.274,-12.712c-1.152,-1.029 -4.62,-2.662 -8.282,-3.899c-6.001,-2.028 -6.748,-2.13 -15.743,-2.13c-6.108,-0 -9.697,0.253 -10.161,0.718c-0.53,0.53 1.107,0.809 6.231,1.061c6.654,0.328 15.893,2.565 26.863,6.504c3.301,1.186 3.797,0.163 1.092,-2.254Zm-82.342,-0.571c3.807,-0.722 5.539,-1.773 4.551,-2.761c-0.416,-0.417 -2.196,-0.131 -5.192,0.832c-4.708,1.514 -7.537,1.553 -18.96,0.262c-5.797,-0.656 -3.891,0.283 2.636,1.298c7.038,1.094 12.513,1.213 16.965,0.369Z" style="fill:#30553c;fill-rule:nonzero;"/></svg>