<?xml version="1.0" encoding="UTF-8" standalone="no"?><!DOCTYPE svg PUBLIC "-//W3C//DTD SVG 1.1//EN" "http://www.w3.org/Graphics/SVG/1.1/DTD/svg11.dtd"><svg width="100%" height="100%" viewBox="0 0 207 198" version="1.1" xmlns="http://www.w3.org/2000/svg" xmlns:xlink="http://www.w3.org/1999/xlink" xml:space="preserve" xmlns:serif="http://www.serif.com/" style="fill-rule:evenodd;clip-rule:evenodd;stroke-linejoin:round;stroke-miterlimit:2;"><path id="Landing-Goose-Outlines" serif:id="Landing Goose Outlines" d="M112.977,197.026c-0.741,-0.238 -4.501,-0.715 -8.354,-1.059c-11.618,-1.037 -12.667,-1.202 -12.667,-2c0,-0.548 0.992,-0.746 3.908,-0.78l3.908,-0.046l-2.965,-0.739c-1.63,-0.407 -4.513,-0.908 -6.405,-1.114c-2.619,-0.285 -3.499,-0.599 -3.686,-1.315c-0.199,-0.758 -0.99,-0.977 -4.106,-1.134c-3.304,-0.167 -4.146,-0.424 -5.853,-1.787c-2.758,-2.201 -1.974,-2.981 3.003,-2.985c2.113,-0.002 5.903,-0.165 8.423,-0.363c3.754,-0.294 4.289,-0.44 2.965,-0.808c-0.89,-0.247 -3.8,-0.574 -6.468,-0.726c-2.668,-0.153 -7.216,-0.555 -10.106,-0.893c-4.333,-0.508 -5.256,-0.775 -5.256,-1.527c0,-0.829 0.841,-0.891 9.298,-0.693c6.561,0.154 9.038,0.053 8.415,-0.342c-0.698,-0.443 -20.181,-1.412 -24.989,-1.244c-0.593,0.021 -2.009,-0.087 -3.148,-0.241c-1.673,-0.225 -2.02,-0.466 -1.812,-1.26c0.226,-0.867 -0.229,-1.024 -3.86,-1.332c-5.352,-0.455 -6.774,-0.915 -6.973,-2.258c-0.139,-0.935 -0.692,-1.145 -3.773,-1.436c-1.986,-0.188 -4.991,-0.343 -6.678,-0.345c-2.89,-0.004 -4.591,-0.766 -3.031,-1.358c0.39,-0.148 3.255,-0.476 6.368,-0.73c5.287,-0.431 4.95,-0.462 -5.121,-0.472c-5.987,-0.007 -10.061,0.172 -9.163,0.4c0.89,0.226 2.648,0.44 3.908,0.475c2.825,0.079 3.065,1.129 0.27,1.176c-1.754,0.03 -1.861,0.099 -0.809,0.522c2.704,1.086 1.015,2.139 -3.432,2.139c-1.738,-0 -3.456,0.339 -4.205,0.83c-0.959,0.628 -2.46,0.791 -6.182,0.673c-4.804,-0.152 -6.978,-1.062 -3.364,-1.407c1.785,-0.171 1.796,-0.188 0.652,-0.989c-0.771,-0.54 -1.057,-1.154 -0.847,-1.817c0.276,-0.868 -0.028,-1.024 -2.269,-1.167c-1.569,-0.1 -2.541,-0.407 -2.471,-0.78c0.068,-0.364 -1.081,-0.763 -2.822,-0.981c-4.577,-0.571 -4.279,-1.487 0.364,-1.119c5.96,0.472 51.843,1.318 52.412,0.966c0.272,-0.168 3.384,-0.395 6.915,-0.504c5.338,-0.166 6.603,-0.369 7.498,-1.203c0.813,-0.757 2.319,-1.096 6.141,-1.383c4.24,-0.318 5.115,-0.54 5.377,-1.368c0.446,-1.403 5.333,-1.827 17.246,-1.494c5.469,0.152 8.761,0.082 7.546,-0.161c-1.186,-0.237 -4.625,-0.445 -7.642,-0.462c-4.963,-0.028 -11.836,-0.67 -15.209,-1.42c-0.969,-0.216 -1.137,-0.441 -0.674,-0.904c0.938,-0.938 20.67,-0.665 27.028,0.374c2.816,0.46 8.759,0.866 13.205,0.902c6.904,0.056 7.652,0.139 5.121,0.569c-1.631,0.277 -3.692,0.382 -4.582,0.234c-1.608,-0.268 -1.607,-0.264 0.27,0.645c1.037,0.503 2.008,1.064 2.156,1.246c0.148,0.182 2.65,0.452 5.559,0.601c4.677,0.239 7.062,0.912 6.219,1.754c-0.153,0.153 -1.834,0.436 -3.737,0.629c-2.002,0.203 -3.641,0.658 -3.891,1.079c-0.255,0.432 -1.374,0.728 -2.747,0.728c-1.543,0 -2.731,0.36 -3.559,1.078c-1.147,0.994 -2.017,1.078 -11.222,1.078c-5.488,0 -9.817,0.161 -9.62,0.359c0.198,0.197 4.543,0.381 9.657,0.408c9.451,0.051 12.019,0.531 11.405,2.133c-0.604,1.573 -3.233,2.022 -13.349,2.279c-8.414,0.214 -10.343,0.408 -10.845,1.096c-0.406,0.554 -2.323,1.054 -5.701,1.485l-5.09,0.65l2.65,0.511c1.458,0.281 2.752,0.814 2.875,1.185c0.231,0.694 -0.077,0.858 -2.83,1.5c-1.432,0.334 -1.062,0.527 3.227,1.682c5.291,1.426 6.931,2.343 4.189,2.343c-0.931,-0 -1.828,0.218 -1.993,0.485c-0.167,0.27 2.742,0.658 6.571,0.877c7.711,0.441 9.296,0.84 9.296,2.345c-0,0.873 0.535,1.099 3.369,1.422c3.761,0.429 5.425,1.097 5.108,2.049c-0.116,0.35 -0.919,0.797 -1.784,0.993c-0.865,0.196 1.217,0.364 4.626,0.374c3.409,0.01 6.623,0.031 7.141,0.048c0.519,0.017 0.944,0.361 0.944,0.765c-0,0.727 -4.658,1.961 -7.405,1.961c-0.713,-0 -1.66,0.364 -2.105,0.808c-0.889,0.89 -7.958,1.086 -10.433,0.29l-0,0Zm6.737,-1.637c0.195,-0.316 -0.364,-0.539 -1.347,-0.539c-0.983,-0 -1.542,0.223 -1.348,0.539c0.184,0.296 0.79,0.539 1.348,0.539c0.558,-0 1.164,-0.243 1.347,-0.539Zm-22.637,-20.482c-0.203,-0.327 -3.655,-0.511 -8.791,-0.468c-9.968,0.084 -8.2,0.829 2.22,0.936c4.482,0.046 6.787,-0.118 6.571,-0.468Zm-19.532,-0.918c-0.662,-0.128 -1.875,-0.132 -2.694,-0.008c-0.82,0.124 -0.277,0.229 1.205,0.233c1.482,0.004 2.152,-0.098 1.489,-0.225l0,-0Zm23.439,-2.149c-0.518,-0.135 -1.367,-0.135 -1.886,0c-0.519,0.136 -0.094,0.247 0.943,0.247c1.038,-0 1.462,-0.111 0.943,-0.247Zm4.851,0c-0.519,-0.135 -1.367,-0.135 -1.886,0c-0.519,0.136 -0.095,0.247 0.943,0.247c1.038,-0 1.462,-0.111 0.943,-0.247Zm10.259,-0.023c-1.398,-0.111 -3.823,-0.112 -5.39,-0.003c-1.566,0.109 -0.422,0.2 2.542,0.201c2.965,0.002 4.246,-0.088 2.848,-0.199l0,0.001Zm-99.866,-0.683c-0.184,-0.296 -1.108,-0.522 -2.053,-0.501c-1.45,0.032 -1.551,0.11 -0.642,0.501c1.504,0.646 3.094,0.646 2.695,-0Zm85.969,-1.617c0,-0.624 -1.825,-0.624 -3.773,-0c-1.098,0.352 -0.874,0.441 1.213,0.485c1.408,0.03 2.56,-0.189 2.56,-0.485Zm-35.968,-0.893c-0.364,-0.147 -1.092,-0.156 -1.617,-0.02c-0.524,0.137 -0.225,0.258 0.664,0.269c0.889,0.011 1.318,-0.101 0.953,-0.249l0,0Zm8.345,-0.042c-1.408,-0.111 -3.713,-0.111 -5.121,-0c-1.408,0.111 -0.256,0.202 2.56,0.202c2.817,-0 3.969,-0.091 2.561,-0.202Zm6.737,0.039c-0.371,-0.149 -0.977,-0.149 -1.347,0c-0.371,0.15 -0.068,0.272 0.673,0.272c0.741,-0 1.045,-0.122 0.674,-0.272Zm31.066,-2.097c0.132,-0.133 -1.922,-0.273 -4.565,-0.312c-2.644,-0.039 -6.807,-0.107 -9.253,-0.15c-4.263,-0.075 -4.933,0.089 -4.043,0.988c0.412,0.416 17.42,-0.086 17.861,-0.526l-0,0Zm-25.137,-0.909c-2.843,-0.331 -6.05,-0.331 -8.893,-0c-4.207,0.49 -3.967,0.518 4.446,0.518c8.413,-0 8.653,-0.028 4.447,-0.518Zm33.222,-1.684c0.51,-0.614 -0.214,-0.712 -4.38,-0.589c-7.109,0.208 -8.094,0.372 -4.722,0.785c5.32,0.652 8.454,0.584 9.102,-0.196Zm-21.879,-0.743c-2.135,-0.102 -5.773,-0.102 -8.084,-0.001c-2.311,0.101 -0.564,0.185 3.883,0.185c4.446,0.001 6.337,-0.082 4.201,-0.184l0,0Zm-61.05,29.223c-1.198,-0.854 -2.604,-1.334 -3.908,-1.334c-2.243,-0 -2.742,-0.784 -0.807,-1.27c1.612,-0.404 3.574,0.118 5.221,1.39c1.61,1.244 5.274,0.934 9.332,-0.79c3.014,-1.28 7.705,-1.111 10.591,0.381c2.341,1.21 1.76,1.65 -0.778,0.59c-2.726,-1.139 -6.864,-1.066 -9.312,0.165c-1.1,0.553 -2.97,1.176 -4.156,1.384c-1.186,0.209 -2.641,0.478 -3.234,0.599c-0.593,0.121 -1.92,-0.381 -2.949,-1.115l-0,0Zm122.907,-10.588c-1.021,-0.293 -2.413,-0.971 -3.095,-1.507c-2.223,-1.749 -4.733,-1.847 -8.074,-0.317c-3.027,1.385 -5.834,1.648 -9.075,0.85c-1.127,-0.278 -0.473,-0.381 2.156,-0.341c3.1,0.048 4.311,-0.206 6.79,-1.424c1.659,-0.815 3.478,-1.481 4.042,-1.48c0.564,0.001 2.71,0.849 4.768,1.886c2.551,1.285 4.524,1.898 6.198,1.925c1.351,0.022 3.548,0.234 4.882,0.471c2.111,0.376 1.832,0.434 -2.156,0.451c-2.519,0.01 -5.416,-0.221 -6.436,-0.514Zm19.103,-19.35c-2.278,-1.46 -4.597,-1.788 -6.319,-0.895c-1.132,0.588 -2.155,0.642 -4.577,0.243c-2.948,-0.486 -4.777,-0.577 -6.622,-0.328c-2.095,0.282 -5.816,-0.129 -6.644,-0.735c-0.775,-0.566 -0.319,-0.699 2.861,-0.833c4.053,-0.171 8.125,-0.226 11.599,-0.155c1.185,0.024 3.732,-0.001 5.659,-0.056c3.897,-0.11 7.663,1.273 7.983,2.932c0.246,1.279 -1.815,1.189 -3.94,-0.173l-0,0Zm-163.717,-4.516c-2.901,-0.938 -2.002,-1.627 2.557,-1.961c2.678,-0.196 5.845,-0.878 8.355,-1.799c3.138,-1.152 4.996,-1.484 8.303,-1.485c3.824,-0.002 4.652,0.196 8.085,1.936c3.398,1.722 4.282,1.938 7.933,1.936c2.269,-0.002 5.136,-0.365 6.401,-0.811c1.261,-0.445 3.469,-0.809 4.908,-0.809c2.64,0 6.95,1.354 6.95,2.183c0,0.246 -0.667,0.1 -1.482,-0.325c-2.135,-1.114 -4.48,-0.964 -8.863,0.568c-5.889,2.057 -10.67,1.897 -16.065,-0.539c-3.43,-1.549 -4.821,-1.887 -7.766,-1.887c-2.02,0 -4.461,0.365 -5.585,0.835c-4.729,1.976 -11.165,2.987 -13.731,2.158Zm93.917,-6.266c-4.318,-2.534 -6.378,-7.831 -6.852,-17.622c-0.314,-6.505 0.487,-13.179 2.099,-17.474c0.299,-0.797 0.592,-2.139 0.65,-2.983c0.058,-0.844 0.501,-2.099 0.985,-2.789c0.877,-1.252 0.879,-1.25 1.239,1.154c0.258,1.718 0.038,3.562 -0.766,6.428c-1.361,4.849 -1.48,11.08 -0.279,14.604c0.997,2.926 4.025,6.536 7.817,9.32c1.659,1.218 2.642,2.324 2.539,2.858c-0.283,1.471 -1.845,1.293 -3.813,-0.434c-2.914,-2.56 -3.266,-2.098 -1.409,1.851c1.394,2.965 1.624,5.835 0.485,6.045c-0.445,0.082 -1.657,-0.349 -2.695,-0.958Zm85.842,-1.713c0.741,-0.963 2.831,-3.304 4.645,-5.202c1.814,-1.898 3.298,-3.746 3.298,-4.107c-0,-0.839 -3.49,-1.307 -7.433,-0.996c-3.776,0.298 -10.276,1.793 -10.687,2.458c-0.174,0.282 -0.587,0.252 -0.978,-0.073c-0.475,-0.394 -1.514,-0.312 -3.494,0.276c-4.31,1.28 -4.491,0.615 -0.286,-1.049c3.917,-1.549 5.091,-2.536 5.091,-4.28c0,-0.946 -0.262,-1.01 -2.783,-0.675c-4.83,0.64 -17.367,4.079 -18.89,5.181c-0.803,0.581 -1.971,1.056 -2.595,1.056c-0.625,0 -1.625,0.262 -2.224,0.583c-0.599,0.32 -1.213,0.459 -1.364,0.307c-0.152,-0.152 0.689,-0.768 1.868,-1.369c1.645,-0.84 2.2,-1.475 2.384,-2.733c0.225,-1.535 0.131,-1.639 -1.487,-1.639c-1.948,0 -3.703,0.662 -11.021,4.151c-2.817,1.343 -5.606,2.656 -6.199,2.917c-0.593,0.262 -1.442,0.689 -1.886,0.951c-1.756,1.031 -4.851,2.183 -4.851,1.805c-0,-1.675 19.525,-11.855 23.442,-12.222c3.071,-0.288 4.813,1.035 4.26,3.237l-0.342,1.362l2.894,-1.162c5.637,-2.262 11.567,-3.851 15.42,-4.13c4.444,-0.323 5.53,0.191 5.53,2.618c0,0.853 0.061,1.551 0.135,1.551c0.074,-0.001 1.954,-0.352 4.177,-0.78c4.54,-0.875 11.02,-0.784 12.823,0.181c0.704,0.377 1.191,1.149 1.191,1.89c0,1.882 -5.889,8.313 -9.801,10.702c-2.2,1.344 -2.368,1.182 -0.837,-0.809l-0,0Zm-102.926,-1.62c-0.651,-0.962 -1.979,-3.446 -2.951,-5.521c-1.624,-3.466 -1.769,-4.213 -1.781,-9.163c-0.02,-7.853 2.593,-16.978 4.86,-16.978c0.937,-0 0.777,0.921 -1.175,6.737c-0.696,2.075 -1.267,4.569 -1.269,5.543c-0.006,2.707 2.351,6.767 6.215,10.708c2.763,2.818 3.368,3.72 2.885,4.302c-0.881,1.062 -2.501,0.907 -3.569,-0.341c-1.139,-1.329 -2.018,-1.409 -1.477,-0.134c1.569,3.702 1.882,5.131 1.284,5.852c-0.96,1.157 -1.732,0.9 -3.022,-1.005l0,-0Zm29.702,-3.652c-2.706,-4.184 -4.77,-8.535 -6,-12.649c-1.211,-4.048 -2.133,-5.532 -4.343,-6.983c-1.103,-0.725 -2.612,-1.815 -3.353,-2.424l-1.347,-1.105l2.423,0.832c3.607,1.239 5.653,3.544 7.345,8.279c0.805,2.253 2.061,5.187 2.79,6.521c2.447,4.474 6.225,9.73 6.672,9.283c0.682,-0.682 0.637,-7.912 -0.057,-9.21c-0.346,-0.647 -0.393,-1.151 -0.107,-1.151c0.28,0 1.483,1.774 2.673,3.943c2.308,4.204 3.473,5.525 4.378,4.965c1.033,-0.638 0.581,-2.866 -1.324,-6.52c-1.037,-1.99 -1.886,-3.968 -1.886,-4.396c-0,-1.534 1.38,-0.271 3.126,2.861c1.913,3.432 3.006,4.537 4.486,4.537c2.352,0 1.01,-4.902 -2.476,-9.045c-0.767,-0.912 -1.158,-1.798 -0.87,-1.975c0.286,-0.177 1.202,0.556 2.035,1.63c0.833,1.074 1.898,2.45 2.367,3.058c0.616,0.8 1.511,1.12 3.234,1.159c2.1,0.046 2.402,-0.095 2.559,-1.199c0.24,-1.695 -1.817,-4.577 -4.759,-6.668c-5.143,-3.656 -15.671,-13.028 -15.407,-13.716c0.283,-0.736 -3.535,-12.179 -4.436,-13.297c-0.284,-0.352 -1.276,-2.476 -2.204,-4.718c-1.979,-4.785 -6.713,-12.708 -10.957,-18.34c-5.198,-6.899 -21.939,-23.36 -25.693,-25.264c-1.787,-0.906 -2.186,-1.321 -1.617,-1.681c0.589,-0.373 0.518,-0.489 -0.323,-0.528c-0.593,-0.028 1.226,-0.658 4.042,-1.401c6.148,-1.623 11.579,-3.596 13.633,-4.953c2.316,-1.531 7.025,-6.226 8.55,-8.526c0.753,-1.136 2.503,-3.925 3.887,-6.198c3.357,-5.509 7.228,-8.989 11.977,-10.768c5.578,-2.089 10.8,-3.941 15.314,-5.432c10.703,-3.536 28.26,-9.742 32.57,-11.512c5.302,-2.179 10.11,-2.781 10.407,-1.303c0.089,0.445 -0.427,1.172 -1.148,1.617c-0.72,0.445 -3.193,2.108 -5.496,3.696c-2.302,1.588 -6.628,4.064 -9.614,5.504c-5.855,2.822 -5.53,2.969 2.656,1.195c6.462,-1.401 7.228,-1.446 7.61,-0.45c0.222,0.578 -0.182,1.449 -1.131,2.44c-0.812,0.848 -1.317,1.8 -1.121,2.116c0.562,0.909 8.692,0.267 13.237,-1.045c2.224,-0.642 6.347,-1.379 9.163,-1.638c2.816,-0.258 6.603,-0.628 8.415,-0.822c4.548,-0.487 4.932,0.454 0.911,2.237c-9.368,4.153 -19.196,7.563 -23.903,8.294c-2.185,0.339 -4.054,0.698 -4.154,0.798c-0.641,0.64 10.762,0.857 14.956,0.284c2.682,-0.367 5.05,-0.494 5.261,-0.282c1.116,1.116 -7.692,5.051 -14.06,6.282c-2.552,0.493 -3.368,0.826 -2.663,1.087c1.024,0.379 8.197,1.184 11.195,1.257c2.36,0.057 2.042,1.46 -0.539,2.378c-3.806,1.354 -9.116,3.375 -10.78,4.103c-0.89,0.388 -2.916,1.008 -4.504,1.377c-3.28,0.762 -2.867,1.592 0.798,1.605c3.206,0.012 5.665,0.596 5.438,1.293c-0.276,0.847 -4.308,2.059 -12.916,3.883c-4.076,0.863 -7.411,1.725 -7.411,1.916c-0.001,0.63 4.303,2.079 6.174,2.079c2.465,0 4.605,0.866 4.605,1.863c0,0.447 -0.545,0.915 -1.212,1.042c-0.667,0.126 -2.547,0.516 -4.178,0.865c-1.63,0.35 -5.571,0.771 -8.758,0.935c-3.187,0.165 -5.794,0.493 -5.794,0.731c-0,0.238 0.996,1.234 2.213,2.215c5.183,4.172 5.657,4.693 4.794,5.269c-0.445,0.296 -2.689,0.542 -4.986,0.547c-2.298,0.004 -4.177,0.099 -4.177,0.211c-0,0.111 0.622,1.609 1.382,3.328c2.266,5.124 1.161,6.588 -3.673,4.863c-1.112,-0.396 -2.021,-0.637 -2.021,-0.535c-0,0.102 0.455,1.347 1.011,2.766c1.914,4.886 -0.817,6.741 -4.931,3.35c-2.166,-1.785 -2.396,-1.447 -1.233,1.812c1.471,4.123 -0.33,5.667 -3.57,3.063l-2.074,-1.666l0.342,2.914c0.43,3.658 -0.142,3.966 -4.263,2.291l-3.026,-1.23l0.867,1.952c1.24,2.793 1.543,5.44 0.631,5.52c-1.546,0.135 -2.396,-0.199 -3.734,-1.464c-1.629,-1.541 -2.187,-1.257 -1.594,0.812c0.437,1.523 -0.079,3.082 -1.365,4.125c-0.573,0.464 -0.46,1.275 0.603,4.312c0.72,2.056 1.823,5.789 2.452,8.294c1.047,4.173 1.36,4.75 3.737,6.887c1.427,1.283 4.098,3.44 5.936,4.793c6.387,4.702 10.788,9.013 11.872,11.632c0.574,1.384 0.555,1.887 -0.118,3.065c-0.702,1.228 -1.127,1.397 -3.33,1.321c-1.389,-0.049 -2.525,0.001 -2.525,0.109c-0,0.108 0.277,0.804 0.615,1.547c0.498,1.092 0.444,1.614 -0.282,2.721c-1.099,1.678 -2.297,1.738 -3.937,0.197l-1.247,-1.172l-0,1.897c-0,2.09 -1.489,3.904 -2.793,3.403c-0.436,-0.167 -1.286,-1.166 -1.888,-2.22l-1.094,-1.915l-0.37,2.315c-0.451,2.819 -1.132,3.715 -2.825,3.715c-1.009,0 -1.831,-0.831 -3.745,-3.79l0,-0Zm-6.15,-76.24c1.334,-1.376 3.216,-2.993 4.182,-3.594c1.114,-0.692 2.175,-2.063 2.897,-3.74c0.626,-1.456 1.322,-2.648 1.546,-2.648c0.224,0 0.708,-0.727 1.077,-1.617c0.368,-0.889 0.859,-1.617 1.09,-1.617c1.185,0 6.456,-13 6.456,-15.923c-0,-0.346 7.692,-3.741 12.258,-5.41c8.211,-3.002 12.832,-5.728 18.857,-11.122l2.278,-2.04l-3.895,0.023c-2.143,0.012 -4.988,0.249 -6.322,0.525c-1.334,0.275 -4.729,0.753 -7.545,1.061c-7.758,0.848 -9.649,1.117 -13.645,1.943c-2.021,0.418 -4.47,0.76 -5.444,0.76c-2.306,-0 -4.921,1.951 -10.017,7.475c-9.871,10.699 -11.614,12.328 -15.029,14.053c-4.189,2.114 -15.096,5.808 -18.351,6.215c-1.313,0.164 -2.488,0.399 -2.61,0.521c-0.123,0.123 0.571,0.633 1.541,1.135c1.74,0.9 3.361,0.893 8.577,-0.035c1.757,-0.313 1.817,-0.279 0.871,0.489c-0.559,0.454 -2.075,0.984 -3.369,1.178c-2.421,0.363 -2.853,0.797 -1.679,1.688c1.287,0.976 9.219,-0.027 13.61,-1.722c1.778,-0.686 4.163,-1.539 5.298,-1.896c3.215,-1.008 8.06,-6.083 9.258,-9.698c0.541,-1.63 1.084,-2.662 1.207,-2.293c0.693,2.069 -3.213,8.814 -6.868,11.863c-4.944,4.123 -9.693,6.225 -15.837,7.01l-3.126,0.399l1.644,1.213c1.51,1.115 1.932,1.173 5.165,0.715c1.937,-0.274 4.288,-0.881 5.225,-1.348c2.012,-1.004 2.258,-1.042 1.782,-0.272c-0.196,0.318 -2.196,1.416 -4.444,2.441c-3.731,1.7 -4.012,1.937 -3.232,2.717c0.78,0.78 1.095,0.775 3.619,-0.063c2.979,-0.99 7.475,-3.467 11.358,-6.257c2.817,-2.025 6.234,-6.147 8.664,-10.453c2.277,-4.035 2.717,-3.347 0.589,0.92c-2.353,4.719 -11.399,14.27 -15.871,16.758c-1.844,1.027 -3.83,1.955 -4.414,2.063c-0.948,0.177 -0.851,0.428 0.925,2.394l1.985,2.197l3.657,-1.754c2.099,-1.007 4.69,-2.819 6.082,-4.254l-0,-0Zm-50.666,77.028c-4.1,-1.499 -6.434,-1.602 -11.588,-0.511c-4.355,0.923 -5.12,0.981 -5.12,0.388c-0,-0.417 8.992,-2.285 10.931,-2.272c0.528,0.004 2.469,0.527 4.312,1.163c1.844,0.635 4.686,1.459 6.316,1.831c2.872,0.655 2.898,0.676 0.809,0.679c-1.186,0.001 -3.733,-0.574 -5.66,-1.278Zm32.791,-27.598c-1.383,-0.809 -3.93,-2.55 -5.66,-3.871c-3.342,-2.55 -10.961,-10.009 -10.961,-10.73c0,-0.236 -1.078,-2.321 -2.395,-4.633c-2.429,-4.261 -3.054,-6.286 -4.332,-14.037c-2.291,-13.891 -3.461,-22.423 -3.402,-24.811c0.133,-5.387 -3.275,-7.965 -11.812,-8.936c-6.486,-0.738 -8.352,-0.458 -11.681,1.746c-4.05,2.683 -10.265,4.788 -15.696,5.315c-2.728,0.265 -8.24,1.443 -12.598,2.693c-4.261,1.222 -8.225,2.148 -8.809,2.058c-1.168,-0.18 -1.09,-0.244 7.473,-6.211c4.287,-2.986 4.4,-3.122 4.741,-5.693c0.884,-6.669 3.888,-10.971 9.463,-13.555c5.351,-2.48 9.416,-1.744 13.819,2.5l2.231,2.151l5.045,0.091c4.267,0.076 5.966,0.402 11.01,2.114c11.713,3.973 15.915,8.473 10.16,10.878l-1.98,0.827l0.357,3.098c0.196,1.704 0.495,4.068 0.665,5.254c0.169,1.185 0.323,2.469 0.341,2.852c0.035,0.718 0.985,0.63 5.439,-0.508c2.109,-0.539 4.656,-2.732 4.656,-4.008c0,-0.878 0.907,-1.475 1.292,-0.852c0.357,0.578 -4.09,5.852 -6.324,7.5c-0.905,0.668 -2.326,1.214 -3.157,1.214c-1.705,0 -1.719,0.043 -0.945,2.83c0.521,1.875 0.705,2.02 2.557,2.004c1.098,-0.01 3.198,-0.606 4.668,-1.325c1.47,-0.72 2.755,-1.226 2.855,-1.126c0.101,0.101 -0.837,1.058 -2.086,2.126c-2.282,1.954 -5.102,2.907 -6.742,2.277c-0.759,-0.291 -0.844,-0.012 -0.604,1.962c0.499,4.105 1.218,5.266 3.263,5.266c2.299,-0 9.666,-3.794 12.355,-6.363c3.748,-3.581 2.546,-1.438 -1.632,2.908c-4.283,4.457 -6.399,5.611 -10.289,5.611c-1.581,-0 -1.674,0.103 -1.34,1.482c0.947,3.915 1.109,4.077 3.727,3.719c1.331,-0.183 3.205,-0.711 4.163,-1.174c1.715,-0.829 1.709,-0.812 -0.413,1.086c-1.186,1.06 -2.823,2.072 -3.638,2.248c-1.776,0.383 -1.807,0.67 -0.372,3.482c1.092,2.141 1.147,2.171 3.368,1.811c3.612,-0.586 9.488,-3.977 12.904,-7.45c1.704,-1.733 3.099,-3.37 3.099,-3.638c0,-0.269 0.259,-0.488 0.576,-0.488c0.81,-0 -1.236,2.796 -5.661,7.735c-3.868,4.317 -7.63,6.818 -10.258,6.818c-1.615,-0 -1.736,0.576 -0.38,1.803c1.303,1.179 2.37,1.125 5.099,-0.258l2.27,-1.149l-1.077,1.204c-0.592,0.663 -1.752,1.554 -2.578,1.981c-0.825,0.427 -1.373,0.984 -1.217,1.236c0.783,1.266 8.108,-2.004 11.36,-5.071c3.394,-3.201 2.714,-1.692 -0.785,1.742c-1.797,1.764 -4.361,3.788 -5.698,4.497c-1.337,0.709 -2.423,1.411 -2.414,1.56c0.01,0.148 0.614,0.705 1.344,1.236c1.243,0.904 1.491,0.911 3.891,0.106c4.482,-1.503 7.101,-2.998 10.244,-5.846c2.164,-1.96 2.723,-2.299 1.909,-1.155c-2.267,3.188 -6.937,7.775 -9.224,9.061l-2.329,1.31l2.734,1.682c1.503,0.925 2.733,2.048 2.733,2.495c0,1.106 -0.407,1.023 -3.322,-0.681l-0,-0Zm-54.254,-64.312c2.458,-1.254 2.694,-2.821 0.875,-5.816c-1.575,-2.594 -1.99,-2.837 -4.205,-2.46c-2.367,0.402 -5.434,3.296 -7.682,7.247c-0.928,1.631 -1.885,3.046 -2.126,3.146c-0.242,0.099 -0.325,0.366 -0.184,0.594c0.392,0.634 10.993,-1.523 13.322,-2.711Zm-13.591,-6.126c0.808,-0.973 0.289,-1.91 -1.058,-1.91c-0.558,0 -1.171,0.254 -1.362,0.563c-0.358,0.578 0.635,2.132 1.362,2.132c0.224,0 0.7,-0.353 1.058,-0.785Z" style="fill:#30553c;fill-rule:nonzero;"/></svg>