<?xml version="1.0" encoding="UTF-8" standalone="no"?><!DOCTYPE svg PUBLIC "-//W3C//DTD SVG 1.1//EN" "http://www.w3.org/Graphics/SVG/1.1/DTD/svg11.dtd"><svg width="100%" height="100%" viewBox="0 0 160 225" version="1.1" xmlns="http://www.w3.org/2000/svg" xmlns:xlink="http://www.w3.org/1999/xlink" xml:space="preserve" xmlns:serif="http://www.serif.com/" style="fill-rule:evenodd;clip-rule:evenodd;stroke-linejoin:round;stroke-miterlimit:2;"><path id="Backpacker-2" serif:id="Backpacker 2" d="M13.223,223.692c-1.292,-0.698 -2.769,-1.274 -3.282,-1.279c-0.512,-0.009 -2.889,-1.759 -5.281,-3.897c-4.881,-4.364 -5.988,-7.833 -3.036,-9.517c0.903,-0.515 1.826,-1.176 2.052,-1.47c0.507,-0.66 2.189,-0.921 5.108,-0.794c1.432,0.062 3.178,1.131 4.85,2.969c3.892,4.276 8.914,3.867 8.914,-0.726c0,-5.097 3.326,-26.108 4.489,-28.356c0.651,-1.259 1.358,-3.255 1.573,-4.437c1.697,-9.361 3.417,-16.23 5.476,-21.872c1.326,-3.634 2.412,-7.158 2.412,-7.829c-0,-0.672 1.89,-4.574 4.199,-8.671l4.2,-7.45l3.801,0.694c5.109,0.933 21.113,0.679 25.012,-0.398c4.902,-1.353 6.665,-0.228 8.373,5.344c2.604,8.501 11.986,24.267 25.057,42.11c1.818,2.482 4.861,7.651 6.761,11.487c4.779,9.652 7.583,14.185 9.501,15.367c2.009,1.239 3.018,5.996 1.766,8.334c-1.03,1.925 -4.931,4.198 -7.204,4.198c-0.82,0 -2.78,0.876 -4.355,1.946c-5.856,3.979 -13.318,3.531 -14.155,-0.85c-0.759,-3.971 2.343,-7.756 7.611,-9.287c1.58,-0.459 3.415,-1.184 4.079,-1.611c1.678,-1.078 0.75,-2.072 -18.347,-19.641c-4.112,-3.784 -8.584,-7.584 -9.938,-8.447c-1.354,-0.862 -3.754,-3.19 -5.334,-5.174c-1.579,-1.984 -3.501,-3.63 -4.27,-3.657c-1.604,-0.058 -6.084,-8.918 -8.872,-17.547c-0.973,-3.014 -1.899,-5.479 -2.057,-5.479c-0.716,0 -9.733,14.639 -10.693,17.358c-0.59,1.673 -3.166,7.406 -5.724,12.741c-6.328,13.195 -9.149,20.797 -13.174,35.498c-1.417,5.177 -2.111,6.155 -6.2,8.736c-4.012,2.533 -10.211,3.281 -13.312,1.607Zm36.883,-96.066c-2.219,-0.609 -4.928,-2.002 -6.022,-3.095c-1.797,-1.798 -1.965,-2.567 -1.756,-8.051c0.56,-14.703 0.08,-22.271 -1.554,-24.467c-0.863,-1.161 -2.455,-2.217 -3.538,-2.349c-5.341,-0.649 -8.663,-4.83 -7.742,-9.742c0.424,-2.258 0.132,-3.276 -1.491,-5.205c-2.466,-2.93 -3.498,-8.157 -2.134,-10.805c1.388,-2.694 4.999,-6.421 6.223,-6.421c0.703,0 1.001,-1.31 0.937,-4.122c-0.085,-3.719 -0.301,-4.172 -2.21,-4.629c-3.745,-0.898 -8.007,-3.418 -10.212,-6.037c-4.611,-5.481 -6.59,-20.055 -3.384,-24.92c1.944,-2.949 8.784,-6.224 13.024,-6.234c3.558,-0.01 7.883,2.296 9.802,5.225c1.955,2.983 3.777,10.303 3.804,15.28c0.034,6.116 -0.126,7.385 -0.928,7.385c-0.376,0 -0.683,1.016 -0.682,2.257c0,2.03 0.46,2.391 4.566,3.6c4.227,1.245 4.521,1.245 3.984,0c-1.312,-3.044 -3.628,-10.293 -3.628,-11.355c0,-0.627 0.94,-2.081 2.089,-3.23c1.644,-1.644 1.887,-2.334 1.14,-3.234c-1.621,-1.953 -0.122,-5.138 3.492,-7.419c1.874,-1.183 4.062,-2.753 4.862,-3.488c2.487,-2.285 13.107,-7.195 20.705,-9.572c5.851,-1.831 7.843,-2.127 10.257,-1.526c2.816,0.701 2.979,0.918 2.715,3.612c-0.155,1.577 -0.715,3.114 -1.245,3.416c-0.53,0.302 -1.925,1.41 -3.1,2.462c-1.175,1.051 -2.837,2.466 -3.694,3.143c-2.574,2.035 -15.228,8.047 -18.964,9.01c-1.918,0.495 -3.487,1.1 -3.487,1.344c-0,0.902 10.284,-1.819 11.857,-3.137c0.429,-0.359 1.791,-0.653 3.027,-0.653c1.395,0 3.646,-1.167 5.933,-3.077c2.027,-1.692 5.373,-4.32 7.435,-5.839c3.578,-2.637 4.123,-3.626 3.792,-6.879c-0.241,-2.37 1.689,-1.637 8.145,3.093c5.776,4.231 6.174,4.394 6.769,2.786c1.11,-3.002 2.682,-1.278 2.745,3.011c0.044,3.009 0.679,4.998 2.5,7.83c1.343,2.088 3.475,6.334 4.739,9.436c3.912,9.606 3.854,9.519 5.419,8.103c1.537,-1.391 3.928,-1.577 5.719,-0.445c0.942,0.596 1.21,2.811 1.231,10.161c0.024,8.976 0.096,9.363 1.585,8.568c1.692,-0.904 8.384,-0.278 9.846,0.92c0.496,0.408 1.807,0.869 2.913,1.025c4.275,0.603 7.048,9.511 5.667,18.202c-0.827,5.204 -4.118,12.278 -6.481,13.933c-0.914,0.64 -3.432,0.948 -6.569,0.803c-4.221,-0.195 -5.719,-0.689 -8.798,-2.905c-4.834,-3.479 -6.584,-5.973 -7.259,-10.344c-0.495,-3.209 -0.394,-3.541 1.003,-3.275c1.05,0.199 1.822,1.404 2.381,3.713c1.223,5.056 1.67,4.84 1.355,-0.657c-0.154,-2.689 0.081,-5.337 0.521,-5.884c0.44,-0.547 1.035,-2.981 1.323,-5.409c0.288,-2.428 0.721,-4.736 0.964,-5.129c0.242,-0.392 0.09,-0.713 -0.339,-0.713c-0.429,-0 -1.012,0.923 -1.295,2.051c-0.283,1.129 -0.877,2.052 -1.32,2.052c-0.443,-0 -0.805,0.922 -0.805,2.049c0,3.004 -8.368,11.973 -15.905,17.046c-5.18,3.487 -13.238,5.228 -25.398,5.489c-1.296,0.028 -1.475,0.636 -1.282,4.34c0.123,2.37 0.153,8.185 0.066,12.924l-0.16,8.616l-2.661,1.584c-5.086,3.028 -11.25,5.187 -17.434,6.106c-7.417,1.104 -7.883,1.092 -13.058,-0.328l-0,-0Zm13.004,-8.927c3.143,-1.314 3.228,-1.837 1.943,-11.974c-1.257,-9.916 -1.165,-9.73 -4.621,-9.29c-1.656,0.21 -5.595,0.064 -8.754,-0.325l-5.744,-0.707l0,21.647l4.103,0.794c6.122,1.185 9.993,1.142 13.073,-0.145l0,-0Zm74.49,-31.463c1.118,-1.692 2.289,-4.451 2.603,-6.131c0.453,-2.422 1.159,-3.333 3.415,-4.404c2.36,-1.12 3.065,-1.167 4.136,-0.277c1.151,0.954 1.233,0.718 0.752,-2.161c-0.297,-1.778 -1.129,-4.394 -1.849,-5.815c-1.356,-2.676 -3.752,-3.542 -9.863,-3.562l-2.684,-0.01l1.737,3.405c2.179,4.272 2.401,12.784 0.453,17.414c-2.29,5.446 -1.724,6.118 1.3,1.541l-0,0Zm-76.029,-3.347c1.121,-1.121 2.268,-2.953 2.549,-4.071c1.618,-6.45 -14.98,-25.374 -17.195,-19.604c-0.842,2.196 0.913,8.028 3.614,12.01c2.597,3.828 3.01,4.099 6.267,4.119c3.714,0.022 4.511,1.057 1.893,2.458c-1.843,0.986 -7.582,1.356 -8.854,0.57c-0.48,-0.297 -1.083,0.341 -1.358,1.436c-0.272,1.083 -0.709,2.528 -0.971,3.211c-0.574,1.496 1.493,2.023 7.679,1.956c3.488,-0.037 4.737,-0.446 6.376,-2.085Zm-20.442,-0.444c1.696,-1.458 2.261,-2.69 2.261,-4.923c0,-3.892 -1.072,-4.862 -4.635,-4.194c-3.138,0.589 -4.719,2.879 -4.719,6.834c0,4.433 3.343,5.509 7.093,2.283Zm49.115,-3.793c7.8,-1.176 12.244,-2.83 11.561,-4.302c-0.266,-0.57 -0.719,-1.717 -1.008,-2.547c-0.36,-1.032 -1.074,-1.381 -2.257,-1.102c-0.953,0.224 -3.947,0.841 -6.655,1.371c-11.208,2.193 -13.539,2.761 -13.539,3.301c0,0.312 0.398,1.709 0.885,3.104c0.753,2.161 1.149,2.436 2.666,1.851c0.981,-0.377 4.737,-1.132 8.347,-1.676Zm15.866,-7.143c-0.784,-0.944 -0.777,-1.554 0.031,-2.848c0.94,-1.505 0.866,-1.596 -0.87,-1.062c-2.499,0.769 -2.413,0.546 -1.325,3.429c0.593,1.569 1.374,2.369 2.058,2.106c0.874,-0.335 0.896,-0.674 0.106,-1.625l-0,0Zm-69.996,-3.924c-0.262,-0.911 -0.698,-2.673 -0.969,-3.914c-0.595,-2.722 -1.614,-2.838 -4.133,-0.472c-2.196,2.063 -2.451,5.268 -0.626,7.873l1.272,1.818l2.467,-1.824c1.799,-1.33 2.337,-2.271 1.989,-3.481Zm8.93,-0.623c-0.675,-1.913 -1.12,-4.297 -0.989,-5.298c0.137,-1.047 -0.413,-2.296 -1.294,-2.94c-1.47,-1.075 -1.475,-1.235 -0.106,-3.933c0.784,-1.547 2,-3.467 2.702,-4.268c1.853,-2.112 0.205,-3.352 -4.54,-3.416c-3.747,-0.05 -3.921,0.05 -4.192,2.41c-0.321,2.797 1.261,13.696 2.452,16.892c0.545,1.461 1.737,2.388 3.824,2.974c1.668,0.468 3.109,0.897 3.202,0.954c0.093,0.057 -0.384,-1.462 -1.059,-3.375l0,0Zm38.636,-1.457c9.32,-1.127 10.49,-1.417 16,-3.97c7.359,-3.409 18.873,-12.342 18.873,-14.641c0,-1.55 -1.377,-1.312 -2.62,0.453c-0.59,0.838 -2.574,2.288 -4.41,3.223c-1.835,0.934 -3.843,2.308 -4.461,3.054c-0.618,0.745 -2.942,2.275 -5.163,3.401l-4.038,2.046l-2.061,-1.905c-1.877,-1.735 -5.146,-7.94 -5.146,-9.769c0,-1.657 2.194,-0.607 3.559,1.704c1.822,3.084 4.647,4.803 4.647,2.828c-0,-0.736 -0.606,-2.365 -1.347,-3.619c-1.265,-2.141 -1.253,-2.409 0.205,-4.413c0.854,-1.174 2.143,-2.335 2.865,-2.581c1.896,-0.646 9.61,-8.928 10.503,-11.277c1.405,-3.696 -0.305,-4.224 -2.83,-0.874c-5.977,7.928 -17.115,16.155 -26.411,19.509c-5.36,1.933 -6.576,2.071 -14.119,1.598c-4.674,-0.293 -8.253,-0.2 -8.253,0.214c0,0.403 1.846,2.11 4.103,3.795c2.256,1.685 4.103,3.64 4.103,4.345c-0,2.121 5.803,8.622 7.294,8.171c0.727,-0.219 4.645,-0.801 8.706,-1.292l0.001,0Zm44.172,-6.104c-1.104,-10.575 -1.167,-10.817 -2.274,-8.748c-0.739,1.382 -0.817,3.057 -0.279,6.018c0.41,2.256 0.558,4.591 0.329,5.189c-0.26,0.676 0.148,1.044 1.077,0.974c1.243,-0.093 1.435,-0.67 1.147,-3.433l0,0Zm-68.215,-16.335c0.345,-0.539 3.782,-0.927 8.616,-0.974c7.246,-0.07 8.606,-0.339 13.738,-2.722c9.12,-4.234 17.543,-10.791 21.821,-16.986c1.549,-2.243 2.071,-3.715 1.593,-4.49c-0.392,-0.633 -0.824,-0.978 -0.962,-0.765c-0.137,0.212 -0.963,1.679 -1.835,3.258c-2.767,5.015 -6.05,8.563 -9.836,10.631c-3.654,1.996 -3.685,1.999 -5.461,0.407l-1.785,-1.602l0.599,2.765c0.829,3.821 -1.031,3.106 -3.512,-1.352c-1.661,-2.983 -2.105,-3.297 -3.693,-2.608c-3.029,1.313 -21.294,3.855 -24.686,3.436l-3.187,-0.395l0.574,3.064c0.316,1.685 1.364,4.687 2.327,6.67c1.442,2.967 2.05,3.514 3.434,3.083c0.924,-0.288 1.939,-0.927 2.255,-1.42Zm-23.107,-2.609l1.958,-2.085l-1.962,-5.915c-2.841,-8.566 -4.474,-11.511 -7.782,-14.034c-5.407,-4.124 -9.247,-0.557 -8.311,7.719c0.75,6.628 2.222,9.82 6.174,13.391c4.039,3.648 7.096,3.933 9.923,0.924Zm118.127,63.548c0,-0.495 0.525,-1.879 1.167,-3.077c0.641,-1.198 1.368,-2.824 1.615,-3.614c0.247,-0.79 0.83,-1.436 1.295,-1.436c1.309,-0 1,5.16 -0.431,7.202c-1.33,1.899 -3.646,2.486 -3.646,0.925Zm-8.939,-2.689c-1.374,-1.656 -0.26,-3.664 2.192,-3.954c1.676,-0.198 2.297,-0.875 2.867,-3.125c1.554,-6.139 4.467,-5.131 3.515,1.216c-0.463,3.09 -1.058,4.098 -3.179,5.392c-3.098,1.889 -4.143,1.98 -5.395,0.471Zm-37.665,-94.161c-0.769,-1.411 -2.261,-3.625 -3.316,-4.922c-1.713,-2.105 -1.771,-2.413 -0.54,-2.885c1.909,-0.732 6.788,4.303 7.466,7.705c0.429,2.157 0.269,2.667 -0.841,2.667c-0.754,0 -2,-1.154 -2.769,-2.565Zm-9.508,-3.649c-2.204,-2.028 -3.79,-3.904 -3.525,-4.169c1.809,-1.809 10.267,4.136 9.336,6.562c-0.751,1.959 -1.349,1.713 -5.811,-2.393Z" style="fill:#30553c;fill-rule:nonzero;"/></svg>