<?xml version="1.0" encoding="UTF-8" standalone="no"?><!DOCTYPE svg PUBLIC "-//W3C//DTD SVG 1.1//EN" "http://www.w3.org/Graphics/SVG/1.1/DTD/svg11.dtd"><svg width="100%" height="100%" viewBox="0 0 101 227" version="1.1" xmlns="http://www.w3.org/2000/svg" xmlns:xlink="http://www.w3.org/1999/xlink" xml:space="preserve" xmlns:serif="http://www.serif.com/" style="fill-rule:evenodd;clip-rule:evenodd;stroke-linejoin:round;stroke-miterlimit:2;"><path d="M19.519,57.726c-2.313,0.151 -6.141,1.261 -8.528,-0.285c-2.984,-1.933 -9.534,-10.182 -9.373,-11.311c0.162,-1.13 7.048,3.67 10.34,4.534c3.042,0.799 7.127,0.436 9.412,0.652c1.444,0.135 2.997,1.269 4.302,0.638c1.46,-0.705 4.407,-3.486 4.458,-4.872c0.051,-1.385 -2.365,-3.251 -4.153,-3.442c-1.823,-0.194 -4.407,2.456 -6.787,2.276c-2.411,-0.182 -6.237,-2.194 -7.678,-3.37c-0.984,-0.802 -1.715,-3.075 -0.971,-3.683c0.744,-0.609 4.189,0.666 5.432,0.034c1.244,-0.633 1.209,-3.632 2.031,-3.83c0.821,-0.197 1.726,2.063 2.898,2.644c1.518,0.755 5.794,2.254 6.214,1.882c0.421,-0.372 -3.706,-3.453 -3.693,-4.114c0.013,-0.661 3.031,0.955 3.771,0.148c0.741,-0.808 -0.079,-4.635 0.675,-4.992c0.753,-0.358 2.725,1.926 3.846,2.849c1.015,0.834 1.713,2.617 2.884,2.685c1.171,0.068 3.581,-2.68 4.142,-2.277c0.561,0.402 -1.897,3.912 -0.776,4.691c1.12,0.778 6.496,0.453 7.501,-0.019c0.957,-0.448 -1.81,-2.333 -1.467,-2.809c0.344,-0.475 3.563,0.733 3.528,-0.042c-0.035,-0.775 -2.282,-3.353 -3.738,-4.609c-1.456,-1.255 -3.111,-2.511 -4.996,-2.925c-1.896,-0.417 -4.315,0.745 -6.379,0.424c-2.064,-0.32 -5.763,-0.694 -6.005,-2.348c-0.241,-1.653 2.776,-6.642 4.558,-7.573c1.781,-0.931 5.573,2.678 6.131,1.986c0.558,-0.691 -3.141,-4.997 -2.784,-6.134c0.356,-1.137 3.346,-1.197 4.922,-0.686c1.68,0.545 3.92,3.946 5.16,3.955c1.24,0.01 2.917,-2.566 2.28,-3.898c-0.636,-1.332 -6.118,-3.401 -6.099,-4.095c0.018,-0.693 5.686,0.789 6.211,-0.066c0.524,-0.856 -4.009,-3.465 -3.063,-5.066c0.947,-1.601 6.916,-4.388 8.741,-4.54c1.411,-0.117 1.225,3.624 2.21,3.629c0.984,0.005 2.614,-3.826 3.698,-3.596c1.083,0.23 1.493,5.003 2.803,4.975c1.31,-0.029 3.598,-5.161 5.056,-5.146c1.458,0.015 3.821,3.821 3.691,5.238c-0.13,1.417 -3.374,1.78 -4.47,3.263c-1.211,1.639 -3.513,5.852 -2.796,6.567c0.717,0.715 4.831,-2.033 7.095,-2.276c2.168,-0.232 4.619,1.135 6.488,0.819c1.791,-0.303 4.247,-3.351 4.726,-2.715c0.478,0.637 -0.218,5.216 -1.856,6.534c-1.638,1.319 -6.211,0.587 -7.971,1.379c-1.292,0.581 -1.169,3.359 -2.586,3.373c-1.429,0.014 -4.237,-3.171 -5.993,-3.29c-1.736,-0.118 -4.627,1.996 -4.54,2.577c0.087,0.582 3.444,0.345 5.063,0.91c2.672,0.932 8.75,3.365 10.969,4.681c1.14,0.676 2.968,2.769 2.342,3.213c-0.625,0.445 -4.969,-0.908 -6.095,-0.547c-0.886,0.285 0.244,2.48 -0.657,2.715c-1.773,0.463 -7.803,-0.371 -9.982,0.063c-1.308,0.26 -3.614,1.802 -3.092,2.54c0.523,0.738 5.318,0.699 6.225,1.888c0.908,1.189 -0.591,3.488 -0.781,5.246c-0.241,2.244 -1.28,7.389 -0.669,8.219c0.611,0.83 3.971,-3.977 4.336,-3.239c0.364,0.738 -2.335,5.997 -2.149,7.669c0.149,1.334 1.923,2.362 3.265,2.359c1.807,-0.003 7.217,-2.775 7.577,-2.38c0.36,0.395 -3.304,3.995 -5.418,4.749c-2.114,0.754 -5.792,-0.947 -7.266,-0.224c-1.443,0.707 -2.193,3.742 -1.573,4.558c0.62,0.815 4.421,-0.358 5.293,0.337c0.873,0.694 1.142,3.39 -0.057,3.83c-1.601,0.588 -7.399,-0.114 -9.546,-0.304c-1.144,-0.101 -2.773,-1.438 -3.341,-0.837c-0.568,0.6 -0.65,3.473 -0.068,4.44c0.581,0.968 2.305,1.149 3.556,1.367c1.878,0.327 5.545,0.918 7.716,0.596c1.939,-0.288 4.208,-2.968 5.308,-2.532c1.099,0.437 -0.301,4.375 1.29,5.153c1.973,0.966 9.385,-0.006 10.55,0.641c1.166,0.647 -3.097,2.235 -3.558,3.242c-0.403,0.882 -0.043,2.31 0.795,2.798c0.979,0.571 3.427,1.046 5.082,0.627c1.919,-0.485 4.112,-2.757 6.43,-3.539c2.626,-0.884 9.06,-2.891 9.323,-1.77c0.263,1.121 -5.823,6.714 -7.743,8.494c-1.067,0.99 -3.381,1.362 -3.777,2.189c-0.397,0.826 1.746,2.175 1.398,2.772c-0.347,0.597 -3.106,0.017 -3.485,0.812c-0.38,0.794 -0.035,3.358 1.208,3.955c1.357,0.652 5.284,0.369 6.937,-0.041c1.241,-0.307 1.871,-2.431 2.979,-2.415c1.107,0.015 3.729,1.169 3.666,2.508c-0.063,1.339 -2.202,4.674 -4.045,5.524c-1.842,0.85 -5.82,-0.987 -7.007,-0.425c-1.144,0.541 0.504,3.792 -0.115,3.794c-0.619,0.002 -2.167,-3.06 -3.598,-3.783c-1.431,-0.724 -3.49,-0.958 -4.987,-0.559c-1.497,0.399 -3.637,3.238 -3.996,2.955c-0.358,-0.282 2.161,-3.745 1.845,-4.649c-0.316,-0.904 -2.478,-0.937 -3.741,-0.774c-1.659,0.215 -4.248,1.615 -6.213,2.061c-1.823,0.414 -3.78,0.093 -5.575,0.615c-2.058,0.599 -5.269,2.749 -6.769,2.978c-0.905,0.138 -1.585,-1.884 -2.23,-1.602c-0.645,0.282 -1.378,2.096 -1.641,3.295c-0.742,3.376 -2.746,11.232 -2.807,16.963c-0.079,7.393 1.065,23.098 2.332,27.393c0.072,0.244 0.233,0.38 0.456,0.436c-1.399,0.67 -2.678,1.451 -3.155,2.279c-1.205,2.091 0.408,5.484 0.745,8.211c0.359,2.907 1.297,6.119 1.408,9.228c0.142,3.959 -0.465,9.682 -0.556,14.527c-0.169,8.922 0.637,32.095 -0.454,39.006c-0.342,2.164 -4.517,2.502 -6.096,2.46c-1.443,-0.039 -3.242,-1.276 -3.377,-2.714c-0.366,-3.904 0.334,-13.85 1.182,-20.713c0.993,-8.036 4.161,-19.188 4.778,-27.497c0.552,-7.44 -0.726,-14.903 -1.077,-22.355c-0.366,-7.789 -1.085,-17.578 -1.121,-24.376c-0.029,-5.479 1.954,-14.115 0.905,-16.414c-1.05,-2.3 -4.847,1.629 -7.203,2.617c-3.178,1.333 -9.294,4.918 -11.864,5.381c-1.445,0.261 -2.12,-2.908 -3.555,-2.599c-1.73,0.371 -4.437,5.072 -6.823,4.829c-2.385,-0.243 -7.668,-5.281 -7.49,-6.286c0.179,-1.004 6.518,1.048 8.559,0.257c1.931,-0.749 1.79,-4.223 3.683,-5.003c1.894,-0.78 8.46,1.097 7.679,0.323c-0.78,-0.775 -11.478,-3.484 -12.361,-4.969c-0.883,-1.484 4.446,-3.288 7.062,-3.937c3.206,-0.796 11.661,0.67 12.177,-0.836c0.516,-1.506 -8.937,-6.486 -9.082,-8.199c-0.144,-1.713 5.461,-1.455 8.217,-2.08c3.393,-0.769 10.007,-1.07 12.146,-2.533c1.728,-1.182 1.199,-5.061 0.686,-6.246c-0.512,-1.181 -3.665,-0.243 -3.765,-0.864c-0.1,-0.621 3.527,-2.167 3.164,-2.861c-0.363,-0.695 -3.555,-0.896 -5.341,-1.307c-2.156,-0.496 -5.056,-2.202 -7.592,-1.672c-3.572,0.747 -10.029,5.22 -13.842,6.154c-2.932,0.717 -6.306,-0.862 -9.038,-0.554c-2.561,0.289 -5.595,2.646 -7.352,2.401c-1.656,-0.231 -3.515,-2.641 -3.191,-3.871c0.324,-1.231 3.967,-3.319 5.134,-3.513c0.986,-0.163 0.899,2.611 1.865,2.35c1.128,-0.305 3.562,-3.987 4.907,-4.182c1.345,-0.196 1.71,3.076 3.164,3.009c1.802,-0.085 7.789,-2.408 7.651,-3.514c-0.138,-1.106 -6.93,-1.59 -8.478,-3.122c-1.451,-1.437 -1.808,-5.269 -0.809,-6.073c0.999,-0.803 5.068,0.601 6.804,1.251c1.399,0.523 2.138,2.424 3.614,2.648c2.073,0.315 6.644,-1.058 8.825,-0.759c1.64,0.225 2.652,2.156 4.259,2.553c1.736,0.43 6.113,0.835 6.158,0.025c0.045,-0.809 -6.042,-3.912 -5.889,-4.881c0.154,-0.969 5.676,-0.114 6.808,-0.93c1.073,-0.774 1.17,-3.381 -0.014,-3.969c-1.739,-0.864 -7.491,-1.193 -10.42,-1.213c-2.412,-0.017 -4.805,1.454 -7.154,1.092c-2.35,-0.363 -6.677,-2.524 -6.943,-3.267l0.087,-0.006c1.846,-0.146 5.264,-1.185 5.264,-1.185c0,-0 -5.529,0.441 -5.356,1.174l0.005,0.017Zm36.822,90.897c-0.851,0.372 -2.691,1.012 -4.36,1.811c1.023,0.257 3.349,-1.182 4.36,-1.811c0.236,-0.103 0.396,-0.185 0.456,-0.245c0.103,-0.103 -0.091,0.018 -0.456,0.245Zm-25.995,-39.895c0.464,-0.388 0.954,-0.7 1.385,-0.747c1.215,-0.135 4.09,1.095 4.155,1.674c0.065,0.579 -2.83,1.958 -3.765,1.799c-0.896,-0.154 -1.23,-2.396 -1.775,-2.726Zm0,-0c-0.841,0.703 -1.594,1.657 -1.751,1.734c-0.242,0.119 1.093,-1.931 1.68,-1.766c0.024,0.007 0.048,0.018 0.071,0.032Zm21.548,-21.326c0.705,-0.217 3.058,3.283 3.428,4.461c0.287,0.915 -0.503,2.394 -1.209,2.61c-0.705,0.217 -2.696,-0.26 -3.025,-1.308c-0.37,-1.179 0.1,-5.546 0.806,-5.763Zm5.724,-3.518c0.698,-0.688 4.846,-2.825 6.053,-2.828c1.017,-0.003 0.222,2.502 1.191,2.808c1.197,0.377 4.961,-0.866 5.989,-0.545c0.788,0.246 0.722,2.101 0.181,2.469c-0.541,0.368 -2.866,-0.5 -3.428,-0.262c-0.519,0.221 0.621,1.69 0.057,1.693c-0.806,0.002 -3.527,-1.336 -4.89,-1.675c-1.07,-0.265 -2.431,-0.08 -3.29,-0.356c-0.721,-0.233 -2.402,-0.771 -1.863,-1.304Zm-15.172,-28.821c0.356,-0.515 2.759,-1.106 3.792,-1.023c0.947,0.076 2.766,1.009 2.41,1.523c-0.355,0.515 -3.509,1.648 -4.543,1.565c-0.88,-0.071 -2.014,-1.551 -1.659,-2.065Zm-12.132,-2.252c-0.19,-0.715 2.367,-1.594 3.73,-1.881c1.517,-0.319 4.214,-0.444 5.37,-0.033c0.926,0.33 2.254,1.799 1.565,2.501c-0.705,0.72 -4.021,1.915 -5.799,1.817c-1.777,-0.098 -4.677,-1.69 -4.866,-2.404Zm31.502,-29.339c1.677,-0.187 8.966,3.556 8.746,4.492c-0.219,0.936 -8.604,1.873 -10.062,1.124c-1.458,-0.748 -0.361,-5.428 1.316,-5.616Z" style="fill:#30553c;"/></svg>