<?xml version="1.0" encoding="UTF-8" standalone="no"?><!DOCTYPE svg PUBLIC "-//W3C//DTD SVG 1.1//EN" "http://www.w3.org/Graphics/SVG/1.1/DTD/svg11.dtd"><svg width="100%" height="100%" viewBox="0 0 125 146" version="1.1" xmlns="http://www.w3.org/2000/svg" xmlns:xlink="http://www.w3.org/1999/xlink" xml:space="preserve" xmlns:serif="http://www.serif.com/" style="fill-rule:evenodd;clip-rule:evenodd;stroke-linejoin:round;stroke-miterlimit:2;"><path id="path131" d="M72.422,144.203c0,-0.548 0.885,-1.99 1.966,-3.205c4.32,-4.859 6.406,-11.793 5.608,-18.645c-0.671,-5.761 -4.19,-17.341 -5.412,-17.81c-0.297,-0.114 -3.843,1.262 -7.88,3.059c-13.8,6.14 -22.592,9.329 -27.224,9.872c-2.058,0.241 -2.567,0.138 -3.3,-0.673c-1.834,-2.029 -1.79,-8.602 0.113,-16.776c0.634,-2.723 0.732,-3.856 0.345,-3.984c-0.298,-0.099 -3.96,-1.037 -8.139,-2.084c-9.987,-2.505 -14.719,-3.95 -17.979,-5.492c-2.313,-1.094 -2.676,-1.447 -2.676,-2.596c-0,-1.42 2.616,-4.216 5.587,-5.972c0.845,-0.498 1.535,-1.059 1.535,-1.247c0,-0.187 -1.963,-1.369 -4.363,-2.627c-5.017,-2.631 -9.575,-6.567 -10.36,-8.947c-0.684,-2.071 0.071,-3.794 2.329,-5.313c1.939,-1.306 5.687,-1.454 9.268,-0.368c2.461,0.746 3.107,0.648 2.294,-0.351c-2.378,-2.919 -4.18,-8.158 -3.459,-10.055c0.938,-2.466 4.856,-1.46 16.321,4.192c3.961,1.952 9.753,4.945 12.871,6.649c3.117,1.705 5.717,3.051 5.776,2.991c0.059,-0.06 -1.906,-3.314 -4.367,-7.231c-7.867,-12.523 -11.315,-20.772 -10.408,-24.903c0.807,-3.676 9.344,-4.551 12.091,-1.241c0.338,0.407 0.765,0.74 0.95,0.74c0.185,-0 0.243,-3.366 0.13,-7.479c-0.493,-17.908 2.604,-26.753 8.51,-24.307c3.273,1.356 9.425,9.063 14.008,17.546c0.985,1.825 2.03,3.319 2.321,3.319c0.292,-0 1.048,-0.552 1.681,-1.227c1.761,-1.876 6.59,-4.946 7.78,-4.946c2.693,-0 3.64,3.258 5.666,19.503c0.372,2.984 0.94,8.15 1.26,11.48c0.321,3.33 0.72,6.054 0.886,6.054c0.166,0 1.335,-2.083 2.596,-4.629c2.73,-5.51 6.012,-10.565 7.415,-11.419c0.556,-0.339 1.442,-0.48 1.967,-0.313c1.167,0.37 2.784,3.966 2.784,6.192c0,0.892 0.128,1.622 0.285,1.622c0.157,0 1.813,-1.358 3.68,-3.017c6.983,-6.207 12.18,-9.328 15.533,-9.328c6.001,-0 4.801,7.471 -3.459,21.525c-1.509,2.567 -2.743,4.74 -2.743,4.828c-0,0.088 1.369,0.616 3.043,1.173c3.412,1.135 5.504,2.78 5.504,4.328c-0,2.137 -2.875,5.898 -11.033,14.437l-4.985,5.218l2.776,1.539c8.061,4.468 11.545,9.181 8.34,11.281c-3.125,2.047 -15.447,4.899 -29.762,6.888c-10.414,1.447 -10.099,1.372 -9.724,2.293c6.7,16.446 6.418,27.767 -0.932,37.484c-1.852,2.448 -2.487,2.968 -3.629,2.968c-1.089,-0 -1.385,-0.213 -1.385,-0.996l0,-0Z" style="fill:#30553c;fill-rule:nonzero;"/></svg>