<?xml version="1.0" encoding="UTF-8" standalone="no"?><!DOCTYPE svg PUBLIC "-//W3C//DTD SVG 1.1//EN" "http://www.w3.org/Graphics/SVG/1.1/DTD/svg11.dtd"><svg width="100%" height="100%" viewBox="0 0 125 148" version="1.1" xmlns="http://www.w3.org/2000/svg" xmlns:xlink="http://www.w3.org/1999/xlink" xml:space="preserve" xmlns:serif="http://www.serif.com/" style="fill-rule:evenodd;clip-rule:evenodd;stroke-linejoin:round;stroke-miterlimit:2;"><path id="path131" d="M70.11,146.989c-1.19,-1.19 -0.774,-2.118 1.894,-4.231c4.852,-3.842 7.244,-13.08 6.05,-23.36c-0.293,-2.515 -3.209,-12.144 -3.882,-12.817c-0.265,-0.265 -7.319,3.095 -10.18,4.849c-0.907,0.556 -2.498,1.288 -3.536,1.627c-1.037,0.339 -3.346,1.577 -5.132,2.751c-4.729,3.109 -12.82,4.8 -16.416,3.431c-2.046,-0.779 -3.828,-3.913 -3.867,-6.798c-0.061,-4.59 0.705,-9.901 1.823,-12.642c0.238,-0.581 0.04,-0.766 -0.82,-0.766c-1.188,-0 -9.794,-1.281 -13.692,-2.039c-2.496,-0.485 -7.904,-2.853 -11.029,-4.83c-2.771,-1.753 -3.569,-3.105 -3.149,-5.341c0.364,-1.941 2.94,-4.879 4.278,-4.879c0.424,0 -1.427,-1.114 -4.112,-2.475c-5.379,-2.726 -7.02,-4.435 -8.037,-8.367c-0.491,-1.901 -0.435,-2.361 0.536,-4.418c1.408,-2.983 2.926,-3.633 8.51,-3.641l4.223,-0.007l-1.426,-1.987c-1.71,-2.38 -2.423,-4.632 -2.054,-6.48c0.377,-1.885 1.017,-2.282 4.214,-2.61c3.782,-0.388 7.381,0.833 17.099,5.805c4.246,2.172 7.796,3.872 7.89,3.778c0.093,-0.093 -0.804,-1.746 -1.994,-3.673c-7.828,-12.669 -9.957,-21.266 -6.342,-25.607c2.478,-2.975 9.661,-2.75 12.262,0.384c0.339,0.408 0.754,0.742 0.923,0.742c0.169,0 0.284,-4.084 0.256,-9.075c-0.032,-5.525 0.175,-10.181 0.527,-11.903c0.318,-1.556 0.492,-2.972 0.387,-3.147c-0.105,-0.175 0.141,-1.342 0.546,-2.593c2.196,-6.776 3.778,-7.83 8.468,-5.645c4.005,1.866 8.692,8.777 12.998,19.163c0.591,1.426 1.114,2.652 1.161,2.724c0.048,0.072 1.655,-1.434 3.571,-3.347c5.235,-5.224 7.969,-5.383 10.091,-0.584c1.89,4.274 2.394,8.368 3.745,30.435c0.103,1.685 0.209,3.17 0.236,3.3c0.092,0.45 2.429,-3.551 3.773,-6.46c1.413,-3.056 5.029,-7.334 7.073,-8.369c2.572,-1.301 4.284,-0.012 4.619,3.48c0.127,1.316 0.39,2.392 0.584,2.392c0.195,0 1.326,-1.137 2.513,-2.526c2.315,-2.71 7.198,-5.942 10.861,-7.191c2.949,-1.005 6.308,-0.663 7.459,0.758c1.767,2.182 1.899,4.248 0.565,8.781c-0.678,2.302 -1.419,4.828 -1.646,5.614c-0.228,0.787 -1.579,3.286 -3.004,5.555l-2.59,4.125l1.288,0.466c2.374,0.859 3.479,1.581 4.903,3.203c1.212,1.381 1.37,1.856 1.104,3.317c-0.722,3.946 -7.677,13.164 -12.927,17.131l-1.606,1.214l1.955,0.997c1.076,0.549 3.214,2.228 4.751,3.733c2.264,2.215 2.944,3.249 3.583,5.447c0.878,3.02 0.516,4.776 -1.208,5.852c-1.049,0.655 -7.675,3.104 -14.825,5.479c-5.047,1.676 -14.246,3.1 -20.024,3.1c-1.821,0 -3.311,0.205 -3.311,0.454c0,0.25 0.426,1.536 0.947,2.858c1.353,3.432 1.843,5.942 2.327,11.926c0.754,9.306 -1.06,15.206 -6.438,20.943c-2.278,2.431 -3.027,2.947 -4.277,2.947c-0.893,-0 -1.908,-0.392 -2.469,-0.954l-0,0.001Zm6.33,-3.966c5.25,-5.98 6.732,-12.093 5.437,-22.435c-0.643,-5.142 -2.53,-10.771 -4.037,-12.041c-0.712,-0.601 -1.047,-1.259 -0.872,-1.716c0.234,-0.609 1.48,-0.786 6.972,-0.989c9.584,-0.355 13.087,-0.974 20.493,-3.621c10.944,-3.912 12.132,-4.374 12.415,-4.822c0.509,-0.809 -0.529,-4.306 -1.85,-6.228c-0.699,-1.018 -2.529,-2.665 -4.065,-3.659c-2.265,-1.467 -3.076,-1.755 -4.294,-1.527c-1.087,0.204 -1.577,0.088 -1.771,-0.419c-0.368,-0.957 0.331,-1.73 3.908,-4.323c4.112,-2.981 9.348,-8.86 11.28,-12.666c1.528,-3.011 1.551,-3.141 0.775,-4.326c-1.261,-1.925 -4.853,-3.994 -6.396,-3.686c-1.994,0.399 -2.014,-0.398 -0.077,-2.976c2.278,-3.032 5.074,-8.717 5.721,-11.633c0.278,-1.255 0.819,-3.031 1.202,-3.947c0.923,-2.209 0.877,-3.578 -0.164,-4.863c-0.751,-0.927 -1.132,-1.02 -3.016,-0.738c-4.409,0.661 -12.353,5.513 -16.041,9.796c-1.077,1.251 -2.188,0.793 -2.145,-0.886c0.062,-2.407 -0.631,-5.33 -1.264,-5.33c-1.105,0 -5.168,4.091 -6.374,6.417c-0.648,1.25 -2.043,3.659 -3.1,5.353c-1.057,1.694 -2.196,3.769 -2.532,4.612c-0.386,0.968 -0.937,1.532 -1.496,1.532c-0.733,0 -0.899,-0.388 -0.958,-2.239c-0.237,-7.396 -0.46,-11.365 -1.153,-20.613c-0.343,-4.567 -1.481,-11.355 -2.348,-14c-1.091,-3.33 -1.609,-3.561 -4.651,-2.073c-2.65,1.297 -6.861,5.126 -6.861,6.239c-0,1.539 -1.336,0.402 -2.321,-1.976c-1.481,-3.572 -8.746,-15.659 -10.57,-17.586c-1.649,-1.741 -2.612,-2.351 -4.625,-2.929c-1.276,-0.365 -1.439,-0.245 -2.728,2.012c-2.207,3.864 -3.978,15.729 -3.718,24.9l0.155,5.441l-2.357,-1.14c-2.972,-1.437 -5.134,-1.733 -7.671,-1.05c-3.467,0.934 -4.139,4.5 -2.029,10.765c1.458,4.326 6.715,13.669 10.672,18.963c2.72,3.64 3.035,4.305 2.507,5.291c-0.639,1.195 -1.838,1.038 -3.725,-0.49c-0.902,-0.729 -2.7,-1.924 -3.997,-2.654c-17.366,-9.784 -23.045,-12.214 -25.643,-10.975c-1.87,0.892 -1.815,2.685 0.205,6.774c0.956,1.935 1.612,3.646 1.457,3.801c-0.155,0.155 -2.46,0.378 -5.121,0.496c-2.964,0.131 -5.242,0.467 -5.878,0.868c-2.443,1.537 -1.475,6.589 1.792,9.358c0.882,0.748 3.566,2.292 5.964,3.432c2.399,1.14 4.361,2.264 4.361,2.498c-0,0.233 -0.459,0.67 -1.02,0.97c-1.413,0.757 -5.109,4.737 -5.109,5.502c0,1.135 2.132,2.79 4.98,3.868c4.229,1.599 10.131,3.317 11.398,3.317c0.62,0 1.506,0.203 1.969,0.451c1.027,0.55 7.388,1.906 8.943,1.906c1.113,0 1.122,0.037 0.794,3.418c-0.182,1.88 -0.417,4.054 -0.522,4.832c-0.105,0.778 0.013,3.093 0.263,5.145c0.725,5.97 2.14,6.889 8.689,5.644c3.022,-0.574 5.362,-1.391 8.035,-2.806c2.074,-1.098 4.302,-2.142 4.95,-2.32c0.648,-0.179 4.042,-1.708 7.543,-3.398c3.5,-1.69 6.845,-3.301 7.434,-3.579c1.489,-0.703 2.529,0.274 1.445,1.358c-0.679,0.679 -0.524,1.185 1.742,5.706c1.368,2.729 2.615,5.839 2.772,6.913c0.349,2.389 0.401,11.899 0.074,13.448c-1.209,5.71 -2.861,9.237 -5.797,12.376c-1.326,1.417 -1.87,2.291 -1.428,2.291c0.392,-0 1.912,-1.366 3.377,-3.034l-0,-0Z" style="fill:#30553c;fill-rule:nonzero;"/></svg>