<?xml version="1.0" encoding="UTF-8" standalone="no"?><!DOCTYPE svg PUBLIC "-//W3C//DTD SVG 1.1//EN" "http://www.w3.org/Graphics/SVG/1.1/DTD/svg11.dtd"><svg width="100%" height="100%" viewBox="0 0 93 94" version="1.1" xmlns="http://www.w3.org/2000/svg" xmlns:xlink="http://www.w3.org/1999/xlink" xml:space="preserve" xmlns:serif="http://www.serif.com/" style="fill-rule:evenodd;clip-rule:evenodd;stroke-linejoin:round;stroke-miterlimit:2;"><path id="path131" d="M11.991,92.433c-1.291,-0.33 -2.112,-0.845 -2.303,-1.445c-0.53,-1.669 0.393,-1.947 4.474,-1.351c7.521,1.1 12.466,-0.769 16.495,-6.233c2.251,-3.054 5.896,-9.825 5.896,-10.953c-0,-0.345 -0.802,-0.911 -1.781,-1.258c-7.738,-2.738 -20.161,-8.415 -23.677,-10.82c-0.754,-0.516 -2.265,-1.524 -3.357,-2.242c-3.196,-2.098 -7.16,-6.54 -7.512,-8.42c-0.541,-2.883 -0.116,-4.726 1.341,-5.81c1.105,-0.822 2.171,-1.025 6.097,-1.161c4.613,-0.159 4.749,-0.196 4.462,-1.187c-2.677,-9.218 -3.547,-14.789 -2.522,-16.156c0.593,-0.791 0.924,-0.833 3.038,-0.379c1.305,0.28 4.015,1.267 6.021,2.194c2.007,0.927 3.754,1.685 3.884,1.685c0.129,-0 0.235,-1.396 0.235,-3.102c0,-3.08 0.82,-5.965 1.882,-6.622c1.058,-0.654 3.673,0.251 5.672,1.962c1.723,1.474 5.464,5.997 6.219,7.517c0.131,0.265 1.08,1.764 2.109,3.331c1.028,1.567 2.671,4.345 3.65,6.173c0.979,1.828 1.953,3.248 2.164,3.156c0.212,-0.093 0.838,-2.016 1.393,-4.274c3.961,-16.13 7.856,-27.419 11.037,-31.981c1.535,-2.201 1.979,-2.533 3.574,-2.665c3.352,-0.277 4.614,1.806 5.96,9.84l0.749,4.465l2.685,-3.278c3.813,-4.655 8.672,-9.233 12.249,-11.544c2.722,-1.758 3.347,-1.97 5.457,-1.846c2.093,0.123 2.462,0.305 3.034,1.504c1.302,2.727 -1.237,9.736 -6.98,19.267c-1.33,2.207 -2.352,4.077 -2.273,4.157c0.08,0.08 1.819,0.357 3.865,0.616c3.97,0.504 5.445,1.19 6.711,3.122c0.726,1.108 0.73,1.338 0.049,2.724c-1.133,2.306 -2.628,3.945 -6.526,7.155c-4.465,3.677 -8.951,6.899 -14.655,10.526c-2.445,1.555 -4.999,3.28 -5.675,3.834l-1.23,1.008l3.063,0.726c8.733,2.069 14.528,4.213 16.991,6.285c1.287,1.084 1.517,1.548 1.265,2.559c-0.17,0.68 -0.627,1.59 -1.017,2.023c-0.881,0.977 -4.561,2.582 -6.933,3.023c-2.17,0.404 -2.223,0.865 -0.29,2.491c2.951,2.484 5.157,5.76 5.157,7.662c-0,1.556 -0.219,1.892 -1.815,2.789c-1.927,1.083 -8.813,2.479 -12.227,2.479c-2.394,-0 -2.933,0.573 -1.951,2.073c0.39,0.595 0.976,1.974 1.303,3.064c0.823,2.748 -0.175,3.885 -3.411,3.885c-4.103,-0 -8.945,-3.31 -18.209,-12.447c-3.387,-3.34 -6.284,-6.072 -6.438,-6.072c-0.154,-0 -0.68,0.908 -1.17,2.018c-1.49,3.381 -3.973,7.347 -6.506,10.391c-3.469,4.169 -6.955,5.738 -13.152,5.92c-2.51,0.074 -5.467,-0.096 -6.571,-0.378Z" style="fill:#30553c;fill-rule:nonzero;"/></svg>