<?xml version="1.0" encoding="UTF-8" standalone="no"?><!DOCTYPE svg PUBLIC "-//W3C//DTD SVG 1.1//EN" "http://www.w3.org/Graphics/SVG/1.1/DTD/svg11.dtd"><svg width="100%" height="100%" viewBox="0 0 108 120" version="1.1" xmlns="http://www.w3.org/2000/svg" xmlns:xlink="http://www.w3.org/1999/xlink" xml:space="preserve" xmlns:serif="http://www.serif.com/" style="fill-rule:evenodd;clip-rule:evenodd;stroke-linejoin:round;stroke-miterlimit:2;"><path id="path131" d="M13.735,119.049c-0.719,-0.268 -1.069,-0.789 -1.069,-1.593c0,-0.953 0.47,-1.433 2.327,-2.373c3.972,-2.013 6.312,-3.829 10.536,-8.175c4.248,-4.37 6.446,-7.468 8.682,-12.242c2.908,-6.205 5.085,-11.688 4.815,-12.124c-0.159,-0.257 -1.194,-0.337 -2.34,-0.18c-1.131,0.155 -4.7,0.029 -7.933,-0.28c-4.85,-0.464 -6.403,-0.814 -8.881,-2.003c-3.061,-1.468 -4.834,-3.447 -4.822,-5.382c0.013,-1.872 2.179,-4.776 5.31,-7.114c1.741,-1.301 3.102,-2.43 3.023,-2.508c-0.078,-0.079 -1.569,-0.551 -3.312,-1.05c-5.017,-1.434 -9.737,-4.076 -12.034,-6.734c-4.172,-4.827 -1.871,-6.633 6.258,-4.91c1.811,0.383 3.357,0.632 3.436,0.552c0.08,-0.079 -0.744,-0.771 -1.831,-1.536c-4.32,-3.043 -10.411,-9.988 -12.464,-14.213c-2.108,-4.337 -2.824,-6.655 -3.321,-10.751c-0.605,-4.986 1.177,-7.118 5.313,-6.359c1.921,0.353 7.469,3.017 9.667,4.642c1.687,1.247 2.063,0.944 1.136,-0.915c-0.99,-1.986 -1.698,-6.042 -1.354,-7.763c0.343,-1.712 2.201,-3.308 3.851,-3.308c1.729,-0 4.234,1.652 7.489,4.939c2.996,3.027 9.717,11.699 9.717,12.539c-0,0.268 0.175,0.558 0.39,0.645c0.215,0.087 1.815,2.348 3.557,5.025c1.742,2.677 3.266,4.868 3.388,4.868c0.122,-0 0.206,-5.182 0.188,-11.515c-0.035,-11.736 0.483,-18.174 1.752,-21.768c0.965,-2.738 1.508,-3.28 3.283,-3.28c2.656,-0 4.641,3.05 5.747,8.832c0.373,1.949 0.655,3.697 0.627,3.885c-0.257,1.715 0.843,0.924 5.878,-4.221c6.279,-6.417 13.292,-12.036 15.674,-12.56c1.199,-0.263 1.649,-0.122 2.343,0.735c0.472,0.583 0.858,1.624 0.858,2.313c-0,1.657 -1.265,8.297 -2.093,10.987c-2.257,7.334 -3.845,11.964 -4.175,12.168c-0.209,0.129 -0.38,0.714 -0.38,1.301c0,0.921 0.275,1.08 2.018,1.173c5.335,0.283 8.673,2.662 7.878,5.614c-0.414,1.538 -8.703,10.297 -15.356,16.227l-3.324,2.962l1.899,-0.246c1.045,-0.135 6.208,-0.387 11.473,-0.558c10.355,-0.338 13.288,0.016 15.237,1.838c1.646,1.539 1.481,4.564 -0.356,6.531c-0.784,0.838 -1.425,1.692 -1.425,1.895c0,0.204 0.97,0.517 2.156,0.694c7.729,1.159 13.59,5.03 14.307,9.449c0.444,2.733 -0.146,4.018 -2.542,5.538c-3.617,2.294 -9.8,3.608 -18.358,3.901c-2.049,0.071 -3.827,0.292 -3.951,0.493c-0.124,0.2 0.426,1.187 1.222,2.192c3.076,3.883 4.329,9.004 2.449,10.01c-2.388,1.278 -12.482,0.064 -21.771,-2.619c-1.38,-0.398 -2.691,-0.612 -2.913,-0.475c-0.222,0.137 -0.556,1.261 -0.741,2.496c-0.425,2.836 -2.21,6.395 -3.857,7.69c-0.847,0.666 -1.954,0.997 -3.339,0.997c-4.386,-0 -7.828,-5.209 -10.904,-16.501c-0.219,-0.804 -1.141,-0.756 -1.141,0.059c-0,0.568 -1.417,3.888 -4.177,9.794c-2.845,6.085 -9.3,14.226 -13.685,17.258c-7.152,4.946 -8.463,5.601 -10.035,5.014l-0,0Z" style="fill:#30553c;fill-rule:nonzero;"/></svg>