<?xml version="1.0" encoding="UTF-8" standalone="no"?><!DOCTYPE svg PUBLIC "-//W3C//DTD SVG 1.1//EN" "http://www.w3.org/Graphics/SVG/1.1/DTD/svg11.dtd"><svg width="100%" height="100%" viewBox="0 0 107 123" version="1.1" xmlns="http://www.w3.org/2000/svg" xmlns:xlink="http://www.w3.org/1999/xlink" xml:space="preserve" xmlns:serif="http://www.serif.com/" style="fill-rule:evenodd;clip-rule:evenodd;stroke-linejoin:round;stroke-miterlimit:2;"><path id="path131" d="M12.659,121.459c-1.488,-1.489 -1.626,-2.21 -0.903,-4.751c0.392,-1.381 0.988,-1.93 3.65,-3.369c6.85,-3.701 14.194,-11.206 17.944,-18.335c2.147,-4.084 5.109,-12.559 4.576,-13.093c-0.12,-0.12 -1.232,0.071 -2.471,0.424c-1.265,0.36 -4.527,0.647 -7.438,0.654c-4.413,0.011 -5.537,-0.147 -7.543,-1.062c-2.564,-1.17 -4.805,-3.369 -5.254,-5.157c-0.478,-1.904 0.122,-5.151 1.241,-6.723c0.584,-0.821 2.04,-2.101 3.236,-2.845c2.342,-1.458 2.231,-1.633 -1.295,-2.039c-3.107,-0.358 -7.864,-2.972 -9.875,-5.426c-1.553,-1.896 -1.721,-2.375 -1.722,-4.916c-0,-2.327 0.162,-2.908 0.941,-3.346c0.518,-0.291 1.031,-0.582 1.14,-0.648c0.108,-0.065 -0.447,-1.02 -1.234,-2.121c-2.39,-3.346 -5.806,-10.295 -6.772,-13.779c-1.48,-5.335 -1.071,-10.565 1.059,-13.562c0.791,-1.114 1.248,-1.297 3.237,-1.297c2.7,0 5.584,1.021 8.202,2.905c2.135,1.536 2.862,1.692 2.384,0.513c-0.184,-0.454 -0.43,-1.992 -0.547,-3.418c-0.168,-2.042 -0.011,-2.915 0.741,-4.112c1.124,-1.792 2.536,-2.243 5.585,-1.787c1.994,0.298 2.604,0.719 5.711,3.942c3.401,3.526 9.788,11.852 13.433,17.509c1.004,1.558 1.925,2.833 2.047,2.833c0.122,0 0.085,-1.962 -0.083,-4.36c-0.448,-6.421 -0.486,-15.212 -0.081,-18.975c0.844,-7.833 3.489,-12.969 6.32,-12.273c3.766,0.926 6.038,4.604 6.27,10.152c0.14,3.336 0.033,3.771 -0.927,3.771c-0.963,0 -1.23,-0.693 -1.721,-4.478c-0.552,-4.251 -2.819,-7.529 -4.336,-6.27c-2.27,1.884 -4.259,14.891 -4.404,28.806l-0.078,7.507l-1.82,-2.058c-1.001,-1.131 -2.604,-3.224 -3.563,-4.65c-4.894,-7.279 -11.893,-15.264 -15.56,-17.751c-1.272,-0.863 -3.662,-0.968 -4.587,-0.2c-0.894,0.742 -0.681,4.497 0.372,6.532c1.944,3.76 0.421,4.122 -4.815,1.144c-8.599,-4.888 -11.392,-4.144 -11.394,3.036c0,3.978 1.422,8.237 4.662,13.953c2.28,4.024 3.326,5.33 6.228,7.783c1.918,1.621 3.859,3.265 4.313,3.654c2.351,2.012 -0.841,2.066 -3.882,0.066c-2.055,-1.352 -4.629,-1.91 -5.496,-1.19c-0.782,0.649 -0.833,2.939 -0.097,4.335c1.64,3.11 5.287,4.948 12.804,6.453c2.678,0.536 4.16,1.807 2.648,2.27c-1.376,0.422 -5.148,4.919 -5.632,6.716c-0.923,3.426 0.386,5.211 4.994,6.81c2.603,0.904 10.069,1.049 12.205,0.237c1.571,-0.598 3.88,-0.62 4.237,-0.04c0.149,0.24 -0.241,2.851 -0.866,5.803c-0.883,4.168 -1.718,6.525 -3.744,10.565c-2.439,4.863 -3.015,5.611 -8.888,11.539c-5.99,6.045 -7.664,7.284 -12.979,9.602c-0.366,0.16 0.554,2.123 0.996,2.123c0.303,0 2.799,-1.567 5.548,-3.482c6.183,-4.307 10.054,-8.319 15.298,-15.852c1.436,-2.063 4.283,-9.062 5.318,-13.075c0.284,-1.102 0.744,-2.873 1.021,-3.936c0.277,-1.062 0.593,-1.843 0.701,-1.734c0.108,0.108 0.601,1.773 1.096,3.699c1.071,4.173 3.796,10.975 5.439,13.577c3.662,5.802 8.717,4.024 11.556,-4.064c0.751,-2.139 1.252,-3.889 1.113,-3.889c-0.14,0 0.01,-0.318 0.333,-0.707c1.705,-2.054 2.836,0.456 1.893,4.2c-1.277,5.071 -4.301,9.108 -7.831,10.456c-3.735,1.427 -6.618,-0.055 -8.938,-4.593c-1.256,-2.457 -2.657,-6.465 -3.559,-10.185c-0.675,-2.78 -1.204,-2.711 -1.571,0.206c-0.914,7.277 -5.811,15.164 -15.385,24.78c-5.976,6.004 -9.086,8.325 -11.197,8.36c-0.344,0.006 -1.246,-0.609 -2.004,-1.367l0,-0Zm62.755,-24.116c-4.593,-0.812 -10.863,-4.492 -10.863,-6.376c0,-0.991 0.707,-0.805 2.953,0.778c3.368,2.374 12.633,4.142 15.647,2.985c1.32,-0.506 2.162,-2.709 1.679,-4.393c-0.479,-1.672 -3.525,-7.36 -4.614,-8.619c-0.637,-0.736 -0.59,-0.856 0.495,-1.269c0.66,-0.251 4.348,-0.562 8.195,-0.69c9.751,-0.327 14.072,-1.338 14.594,-3.416c0.829,-3.305 -2.57,-7.02 -9.848,-10.764c-2.792,-1.437 -5.365,-2.612 -5.717,-2.612c-0.352,-0 -0.872,-0.28 -1.156,-0.621c-0.698,-0.841 0.391,-2.365 2.233,-3.129c1.699,-0.703 2.19,-1.742 1.096,-2.318c-3.676,-1.938 -7.173,-2.419 -18.957,-2.61c-4.537,-0.073 -8.573,-0.276 -8.967,-0.451c-0.394,-0.175 -0.982,-0.742 -1.306,-1.261c-0.524,-0.839 -0.367,-1.15 1.424,-2.813c1.107,-1.029 2.166,-1.873 2.353,-1.876c0.187,-0.006 1.248,-0.617 2.357,-1.363c1.11,-0.746 3.397,-2.257 5.082,-3.358c6.857,-4.48 9.699,-8.637 8.032,-11.751c-0.516,-0.964 -2.29,-1.732 -4.801,-2.078c-1.277,-0.177 -1.97,-0.006 -2.691,0.667c-0.535,0.498 -1.087,0.906 -1.228,0.906c-0.628,-0 -0.165,-3.276 0.703,-4.968c0.986,-1.921 3.607,-10.005 4.907,-15.135c0.863,-3.404 0.985,-8.182 0.209,-8.182c-0.289,-0 -2.097,0.736 -4.017,1.635c-3.789,1.774 -9.444,6.251 -14.244,11.276c-1.647,1.724 -3.383,3.343 -3.858,3.597c-1.502,0.805 -2.004,0.502 -0.992,-0.598c0.536,-0.583 1.918,-2.336 3.069,-3.895c3.509,-4.749 10.487,-11.132 13.968,-12.777c3.904,-1.844 5.304,-2.178 6.779,-1.617c2.398,0.912 2.725,6.289 0.781,12.829c-0.488,1.642 -1.396,4.688 -2.016,6.77c-0.62,2.082 -1.486,4.503 -1.924,5.38c-0.437,0.877 -0.742,1.649 -0.676,1.714c0.066,0.066 1.068,0.261 2.226,0.433c3.568,0.532 5.388,2.023 5.954,4.88c0.874,4.418 -2.651,8.573 -13.126,15.47c-4.131,2.72 -7.42,5.036 -7.309,5.147c0.111,0.111 1.296,-0.005 2.633,-0.259c1.337,-0.254 6.621,-0.402 11.743,-0.329c10.328,0.147 13.643,0.801 16.213,3.202c1.781,1.664 1.703,2.896 -0.3,4.719c-0.907,0.826 -1.65,1.656 -1.65,1.844c0,0.189 0.698,0.475 1.551,0.635c2.952,0.553 8.057,3.418 10.283,5.771c3.174,3.352 3.723,4.359 3.723,6.826c-0,1.765 -0.264,2.485 -1.33,3.625c-2.115,2.265 -4.388,2.675 -14.396,2.596l-8.89,-0.07l1.186,1.257c2.185,2.318 4.178,6.283 4.441,8.837c0.235,2.276 0.145,2.555 -1.34,4.162c-1.46,1.579 -1.845,1.738 -4.656,1.917c-1.686,0.108 -4.222,-0.009 -5.637,-0.259l-0,-0.001Z" style="fill:#30553c;fill-rule:nonzero;"/></svg>