<?xml version="1.0" encoding="UTF-8" standalone="no"?><!DOCTYPE svg PUBLIC "-//W3C//DTD SVG 1.1//EN" "http://www.w3.org/Graphics/SVG/1.1/DTD/svg11.dtd"><svg width="100%" height="100%" viewBox="0 0 93 97" version="1.1" xmlns="http://www.w3.org/2000/svg" xmlns:xlink="http://www.w3.org/1999/xlink" xml:space="preserve" xmlns:serif="http://www.serif.com/" style="fill-rule:evenodd;clip-rule:evenodd;stroke-linejoin:round;stroke-miterlimit:2;"><path id="path131" d="M12.271,95.641c-1.034,-0.368 -2.148,-1.036 -2.475,-1.483c-0.754,-1.032 -0.772,-3.57 -0.03,-4.312c1.049,-1.049 1.444,-0.588 1.138,1.327c-0.272,1.701 -0.183,1.947 0.871,2.428c1.275,0.581 10.192,-0.102 13.552,-1.038c3.875,-1.08 10.008,-8.362 11.598,-13.77c0.438,-1.491 0.936,-2.711 1.108,-2.711c0.512,-0 -0.978,5.714 -2.152,8.249c-1.35,2.915 -6.383,8.448 -8.814,9.688c-4.207,2.146 -11.178,2.91 -14.796,1.622l-0,0Zm47.278,-1.41c-2.686,-0.987 -6.268,-3.854 -11.842,-9.477c-4.618,-4.658 -9.363,-11.103 -8.679,-11.787c0.14,-0.14 1.405,1.299 2.811,3.197c3.869,5.225 14.675,14.62 18.249,15.866c2.05,0.714 5.338,0.706 6.059,-0.015c0.822,-0.821 0.708,-1.607 -0.614,-4.24c-0.649,-1.292 -1.061,-2.543 -0.915,-2.779c0.146,-0.236 1.627,-0.429 3.292,-0.429c5.552,-0 13.335,-1.982 13.471,-3.43c0.212,-2.256 -1.28,-5.16 -4.886,-9.508c-2.61,-3.148 -2.602,-3.167 1.718,-3.814c2.216,-0.333 5.002,-1.852 5.352,-2.919c0.556,-1.692 -5.941,-5.274 -13.518,-7.452c-8.121,-2.334 -9.455,-4.34 -1.52,-2.285c11.079,2.87 18.247,7.42 16.584,10.527c-0.894,1.671 -3.315,3.267 -5.436,3.585c-1.166,0.175 -2.12,0.506 -2.12,0.735c0,0.23 1.167,1.637 2.593,3.129c2.857,2.987 4.3,6.358 3.557,8.312c-1.129,2.969 -6.71,5.039 -13.648,5.061c-1.839,0.005 -3.337,0.155 -3.327,0.331c0.009,0.176 0.32,0.851 0.69,1.499c1.063,1.86 0.876,4.117 -0.45,5.443c-0.92,0.921 -1.619,1.15 -3.418,1.124c-1.243,-0.018 -3.045,-0.322 -4.003,-0.674l-0,-0Zm-46.722,-3.838c-0.655,-0.655 0.248,-1.036 1.843,-0.778c2.27,0.369 7.947,-0.717 10.588,-2.025c3.253,-1.61 7.203,-6.368 9.65,-11.623c1.434,-3.08 1.481,-4.129 0.185,-4.129c-1.405,0 -20.349,-6.404 -23.232,-7.854c-5.643,-2.837 -9.382,-6.796 -11.357,-12.024c-1.758,-4.656 1.162,-7.896 7.481,-8.301l3.471,-0.223l-0.924,-1.567c-0.509,-0.862 -1.112,-2.798 -1.34,-4.302c-0.229,-1.504 -0.637,-4.008 -0.908,-5.563c-0.66,-3.793 -0.628,-7.171 0.074,-7.605c1.221,-0.755 4.09,-0.038 8.359,2.088c2.449,1.219 4.624,2.288 4.832,2.374c0.209,0.086 0.38,-1.246 0.38,-2.962c-0,-4.98 1.433,-7.331 4.471,-7.331c1.984,0 3.59,1.101 7.334,5.028c4.235,4.442 7.476,9.247 8.932,13.24c0.591,1.62 1.212,2.946 1.38,2.946c0.168,0 0.59,-1.538 0.936,-3.418c0.347,-1.879 1.217,-5.857 1.934,-8.839c0.718,-2.981 1.449,-6.482 1.626,-7.778c1.101,-8.054 5.55,-16.029 10.024,-17.965c2.106,-0.911 2.676,-0.835 4.36,0.582c2.61,2.196 3.257,4.086 3.978,11.609c0.119,1.242 0.752,2.449 0.752,1.434c-0,-0.721 4.992,-6.686 7.246,-8.659c2.858,-2.501 8.015,-5.625 10.537,-6.384c2.677,-0.806 4.866,-0.253 5.783,1.46c1.593,2.977 -2.403,14.133 -7.389,20.623l-2.073,2.7l2.745,-0.039c6.435,-0.09 9.796,3.985 7.272,8.818c-2.267,4.34 -5.127,7.159 -11.745,11.575c-6.262,4.178 -13.228,7.952 -14.679,7.952c-1.333,0 1.848,-2.707 4.668,-3.973c3.481,-1.562 13.519,-8.211 15.09,-9.995c1.757,-1.995 4,-4.979 4.625,-6.154c1.704,-3.203 -0.444,-5.41 -6.161,-6.331c-1.588,-0.256 -3.052,-0.567 -3.255,-0.693c-0.202,-0.125 0.555,-1.654 1.682,-3.397c3.727,-5.761 7.991,-16.331 7.718,-19.134c-0.124,-1.273 -0.346,-1.491 -1.645,-1.617c-3.104,-0.301 -8.834,3.427 -15.428,10.037c-5.966,5.98 -6.606,6.086 -7.019,1.164c-0.454,-5.422 -2.765,-9.405 -5.455,-9.405c-0.996,-0 -1.859,0.548 -3.266,2.074c-3.626,3.934 -5.001,7.516 -8.597,22.396c-3.242,13.412 -3.837,15.6 -4.248,15.6c-0.164,-0 -1.101,-1.799 -2.08,-3.998c-2.258,-5.067 -4.951,-9.166 -8.972,-13.659c-3.564,-3.982 -5.893,-5.656 -7.265,-5.221c-1.206,0.383 -2.402,3.961 -2.402,7.184c-0,1.714 -0.209,2.604 -0.652,2.774c-0.359,0.138 -1.791,-0.473 -3.182,-1.358c-2.481,-1.576 -8.265,-4.107 -9.388,-4.107c-0.399,-0 -0.496,0.669 -0.323,2.239c0.504,4.596 1.38,9.402 2.249,12.344c1.037,3.511 0.733,4.273 -1.703,4.273c-5.424,0 -9.039,2.357 -8.52,5.554c0.59,3.64 5.111,8.915 9.765,11.396c2.751,1.466 20.728,8.021 23.921,8.723c0.821,0.18 1.583,0.474 1.694,0.652c0.246,0.399 -0.807,4.51 -1.649,6.439c-0.34,0.777 -1.827,3.111 -3.304,5.185c-3.034,4.259 -5.964,6.366 -10.489,7.545c-2.724,0.709 -8.373,0.964 -8.935,0.403l0,0Z" style="fill:#30553c;fill-rule:nonzero;"/></svg>