<?xml version="1.0" encoding="UTF-8" standalone="no"?><!DOCTYPE svg PUBLIC "-//W3C//DTD SVG 1.1//EN" "http://www.w3.org/Graphics/SVG/1.1/DTD/svg11.dtd"><svg width="100%" height="100%" viewBox="0 0 167 139" version="1.1" xmlns="http://www.w3.org/2000/svg" xmlns:xlink="http://www.w3.org/1999/xlink" xml:space="preserve" xmlns:serif="http://www.serif.com/" style="fill-rule:evenodd;clip-rule:evenodd;stroke-linejoin:round;stroke-miterlimit:2;"><path id="Moose-Sign" serif:id="Moose Sign" d="M70.97,137.579c-0.901,-1.458 5.269,-6.972 8.804,-7.867c2.162,-0.547 2.367,-1.211 2.346,-7.594c-0.016,-4.764 -0.711,-8.505 -2.18,-11.733c-1.187,-2.607 -2.392,-7.109 -2.677,-10.005c-0.836,-8.46 -1.263,-9.648 -4.155,-11.543c-3.937,-2.579 -7.158,-0.911 -16.149,8.362l-7.462,7.696l-0,8.111c-0,6.555 0.425,8.708 2.214,11.221c2.256,3.168 2.222,7.786 -0.086,11.433c-0.877,1.386 -1.216,1.363 -2.773,-0.194c-2.617,-2.617 -3.944,-10.45 -3.979,-23.502c-0.032,-11.805 1.337,-17.029 5.023,-19.167c1.914,-1.11 5.91,-7.77 5.915,-9.859c0,-0.904 -1.441,-2.713 -3.209,-4.02c-1.767,-1.306 -4.629,-4.678 -6.362,-7.493c-2.694,-4.38 -3.56,-5.064 -6.001,-4.741c-1.57,0.208 -3.156,0.41 -3.526,0.45c-0.37,0.04 -0.975,1.684 -1.344,3.653c-0.37,1.969 -1.41,4.193 -2.312,4.941c-2.557,2.122 -4.817,-0.053 -6.558,-6.31c-2.136,-7.679 -5.547,-10.075 -14.495,-10.183c-3.733,-0.045 -7.238,-0.532 -7.789,-1.082c-0.55,-0.551 -0.714,-2.766 -0.364,-4.924c0.768,-4.735 5.469,-8.138 11.242,-8.138c3.194,0 4.206,-0.615 6.458,-3.93c1.469,-2.162 2.671,-5.057 2.671,-6.433c-0,-2.172 -0.363,-2.411 -2.752,-1.812c-5,1.255 -21.47,-2.798 -21.47,-5.283c0,-1.768 0.483,-1.816 5.062,-0.503c3.672,1.053 3.72,0.895 1.526,-4.944c-0.917,-2.44 1.4,-1.341 4.996,2.37c4.179,4.311 8.19,4.73 15.789,1.65c4.073,-1.651 4.908,-2.526 5.997,-6.288c1.023,-3.534 0.98,-5.317 -0.225,-9.322c-0.939,-3.118 -1.121,-5.322 -0.493,-5.95c1.546,-1.546 5.126,2.325 5.883,6.364c0.555,2.958 1.122,3.54 3.444,3.537c1.528,-0.002 4.311,-0.938 6.184,-2.081c3.237,-1.973 3.374,-2.313 2.753,-6.841c-0.549,-4.008 -0.373,-4.765 1.104,-4.765c1.892,0 3.837,3.903 3.018,6.056c-0.276,0.724 0.023,1.316 0.664,1.316c0.642,0 1.174,-1.303 1.182,-2.896c0.012,-1.593 0.43,-3.549 0.936,-4.347c1.476,-2.331 3.261,-0.315 3.261,3.682c-0,2.189 0.427,3.421 1.053,3.035c0.579,-0.358 1.053,-2.017 1.053,-3.686c0,-3.783 1.639,-4.947 3.106,-2.205c4.166,7.783 -2.21,17.126 -16.007,23.458c-4.331,1.988 -4.927,3.595 -2.106,5.675c1.731,1.276 1.699,1.494 -0.527,3.579c-2.741,2.57 -3.129,6.888 -0.703,7.819c3.28,1.259 9.828,0.603 14.657,-1.467c8.328,-3.57 14.541,-2.574 24.44,3.92c5.266,3.454 5.873,3.595 15.27,3.556c5.383,-0.022 12.915,-0.346 16.738,-0.719c8.215,-0.803 16.886,1.312 20.957,5.111c1.448,1.352 3.392,2.747 4.321,3.101c2.106,0.802 6.484,9.009 5.584,10.467c-0.366,0.591 -1.441,0.873 -2.389,0.625c-1.409,-0.369 -1.77,0.531 -1.971,4.91c-0.405,8.776 2.043,15.158 8.1,21.119c4.672,4.597 5.311,5.747 5.311,9.559c-0,4.021 4.494,17.193 6.273,18.388c0.891,0.598 2.211,5.584 2.491,9.407c0.265,3.628 -7.09,8.788 -11.848,8.312l-3.426,-0.343l3.781,-4.939c2.08,-2.716 3.782,-5.628 3.782,-6.471c-0,-4.998 -4.651,-15.735 -9.223,-21.292c-4.508,-5.479 -12.108,-10.558 -14.025,-9.373c-0.385,0.237 -0.345,2.372 0.089,4.744c0.611,3.339 0.419,4.593 -0.848,5.552c-5.231,3.959 -11.676,11.777 -14.378,17.438c-2.105,4.411 -3.861,6.698 -5.451,7.097c-1.291,0.324 -3.165,1.494 -4.167,2.6c-1.001,1.106 -2.221,2.012 -2.71,2.012c-1.412,-0 -0.971,-3.491 0.723,-5.731c0.851,-1.124 1.546,-2.878 1.546,-3.899c0,-1.02 2.3,-4.154 5.11,-6.964c2.811,-2.811 6.577,-7.134 8.369,-9.608c3.727,-5.146 3.388,-7.74 -1.652,-12.656c-1.581,-1.543 -3.349,-3.645 -3.928,-4.672c-0.758,-1.344 -2.822,-2.022 -7.372,-2.422c-3.475,-0.306 -7.503,-0.952 -8.951,-1.437c-1.449,-0.484 -4.896,-1.149 -7.661,-1.478c-4.733,-0.562 -5.141,-0.411 -6.95,2.563c-1.687,2.774 -1.876,5.116 -1.55,19.203c0.205,8.823 0.612,17.431 0.906,19.129c0.452,2.609 -0.152,3.706 -3.911,7.108c-4.574,4.139 -10.352,5.477 -12.017,2.783l0,-0Z" style="fill:#30553c;fill-rule:nonzero;"/></svg>