<?xml version="1.0" encoding="UTF-8" standalone="no"?><!DOCTYPE svg PUBLIC "-//W3C//DTD SVG 1.1//EN" "http://www.w3.org/Graphics/SVG/1.1/DTD/svg11.dtd"><svg width="100%" height="100%" viewBox="0 0 223 308" version="1.1" xmlns="http://www.w3.org/2000/svg" xmlns:xlink="http://www.w3.org/1999/xlink" xml:space="preserve" xmlns:serif="http://www.serif.com/" style="fill-rule:evenodd;clip-rule:evenodd;stroke-linejoin:round;stroke-miterlimit:2;"><path id="Green" d="M105.934,87.357c-0.023,-1.042 -0.048,-2.072 -0.074,-3.088c-0.474,-18.284 -1.306,-32.074 -1.674,-34.125c-0.405,-2.252 -2.315,-3.373 -4.074,-4.32c-2.127,-1.144 -4.262,-2 -5.444,-2.963c-1.191,-0.971 -1.752,-2.123 -1.858,-3.306c-0.3,-3.371 1.464,-5.766 4.366,-7.329c4.601,-2.477 12.733,-2.376 14.205,-2.334c1.11,-0.058 9.62,-0.318 14.403,2.182c2.998,1.567 4.783,4.036 4.523,7.502c-0.093,1.249 -0.702,2.448 -1.935,3.501c-1.168,0.997 -3.289,1.929 -5.394,3.152c-1.563,0.908 -3.266,1.977 -3.564,4.027c-0.277,1.882 -0.317,13.678 -0.568,29.722c-0.183,11.724 -0.487,25.681 -0.736,39.734c0.221,0.368 0.446,0.735 0.676,1.098c1.346,2.118 2.929,4.295 4.604,6.164c0.61,0.679 1.639,1.829 2.669,1.762c1.073,-0.069 0.66,-2.119 0.615,-2.787c-0.189,-2.761 -2.244,-5.4 -1.192,-8.187c1.368,-3.624 1.008,-7.336 1.132,-11.128c0.103,-3.168 0.894,-6.279 0.858,-9.456c-0.044,-3.877 -0.975,-7.686 -1.24,-11.547c-0.331,-4.822 -1.453,-11.408 2.405,-15.186c7.017,-6.869 18.654,-7.563 27.513,-4.676c2.767,0.902 6.052,2.024 8.137,4.149c2.042,2.081 -0.851,5.209 0.934,7.337c2.282,2.721 7.481,1.584 8.384,5.715c0.659,3.013 -0.427,6.162 -0.896,9.122c-0.59,3.726 -0.232,7.494 -0.418,11.243c-0.11,2.234 -0.695,4.797 -0.067,6.995c0.348,1.219 1.661,0.831 2.626,0.867c1.942,0.071 7.428,1.01 7.11,3.823c-0.238,2.11 -2.626,3.291 -3.996,4.606c-2.01,1.928 -3.611,4.237 -5.597,6.189c-1.576,1.55 -3.573,2.89 -4.553,4.935c-0.116,0.243 -0.216,0.492 -0.302,0.747c2.661,-0.522 5.325,-1.067 7.995,-1.614c11.263,-2.305 22.589,-4.9 33.908,-8.235c1.236,-0.396 2.589,-0.028 3.453,0.94c0,-0 7.498,8.911 8.948,18.969c0.688,4.772 0.134,9.796 -3.06,14.406c-4.376,6.58 -10.576,10.739 -31.326,12.766c-5.562,0.543 -12.236,0.92 -20.294,1.179c-0.054,1.033 -0.107,2.066 -0.158,3.099c-0.142,2.906 -0.662,5.9 -0.178,8.799c0.337,2.023 2.13,3.229 3.275,4.786c3.182,4.329 7.465,8.321 9.279,13.49c1.189,3.385 -0.701,6.018 -2.089,8.975c-2.591,5.521 -7.389,9.37 -11.61,13.595c-2.444,2.446 -4.711,5.295 -7.892,6.824c-5.824,2.8 -10.239,-3.437 -14.4,-6.479c-1.728,-1.264 -3.884,-1.787 -5.552,-3.141c-2.601,-2.113 -3.73,-5.463 -5.614,-8.164c1.312,5.762 2.244,13.618 2.466,24.458c-0.04,6.093 -0.078,11.657 -0.248,16.735c-0.637,19.07 -2.111,31.367 -4.233,39.271c-2.037,7.587 -4.869,11.44 -8.378,13.44c-2.881,1.643 -6.301,2.09 -10.43,2.013c-4.109,0.079 -7.536,-0.389 -10.421,-2.136c-3.396,-2.057 -6.147,-5.969 -8.109,-13.491c-2.067,-7.926 -3.478,-20.201 -3.994,-39.145c-0.139,-5.065 -0.145,-10.614 -0.145,-16.687c0.171,-14.174 1.534,-23.212 3.381,-29.112c2.456,-7.846 5.773,-10.656 8.486,-12.32c0.917,-0.563 1.767,-0.967 2.482,-1.406c0.333,-0.204 0.67,-0.349 0.809,-0.722c0.381,-1.02 0.768,-6.874 1.113,-15.674c-1.021,-0.162 -2.036,-0.253 -3.001,-0.292c-1.656,-0.067 -3.376,0.278 -4.997,-0.195c-2.11,-0.616 -3.534,-2.516 -5.126,-3.9c-0.615,-0.535 -1.668,-1.27 -2.365,-0.425c-1.282,1.551 -0.919,4.43 -0.833,6.274c0.195,4.188 -0.331,8.367 -0.564,12.545c-0.35,6.272 0.468,12.455 0.341,18.674c-0.111,5.476 -1.864,11.387 -5.478,15.602c-2.471,2.882 -7.028,2.997 -10.498,3.901c-5.232,1.363 -13.55,6.273 -17.766,-0.17c-1.185,-1.81 0.399,-4.728 -0.92,-6.252c-1.051,-1.214 -3.211,-1.335 -4.491,-2.251c-2.566,-1.836 -3.449,-5.055 -4.142,-7.974c-1.496,-6.293 -1.213,-14.208 -0.186,-20.537c0.296,-1.826 1.146,-3.511 1.491,-5.344c0.486,-2.579 0.548,-5.313 0.66,-7.934c0.126,-2.951 -0.213,-5.888 -0.511,-8.831c-6.843,-0.287 -12.472,-0.701 -17.143,-1.276c-16.421,-2.023 -21.962,-6.049 -26.079,-12.064c-3.257,-4.842 -3.868,-10.075 -3.028,-15.022c1.718,-10.117 9.646,-18.861 9.646,-18.861c0.866,-0.969 2.221,-1.338 3.459,-0.941c11.529,3.833 23.042,7.166 34.586,9.739c-0.137,-6.656 -0.251,-13.311 -0.035,-19.968c0.136,-4.2 0.839,-10.183 -0.866,-14.153c-0.829,-1.929 -3.375,-2.055 -4.767,-3.477c-2.615,-2.672 -1.133,-8.469 -0.306,-11.877c0.847,-3.492 24.809,-19.888 26.468,-18.227c1.386,1.389 3.868,0.093 5.743,0.502c1.638,0.357 3.394,0.593 4.618,1.858c2.268,2.344 2.059,7.375 5.274,8.817c0.887,0.398 1.987,-0.458 2.778,-0.776c2.506,-1.01 4.544,-2.209 6.85,-0.105c2.045,1.867 3.651,4.581 4.6,7.167c0.39,1.064 0.281,3.387 1.476,3.961c1.53,0.735 3.463,0.179 5.11,1.22c0.319,0.202 0.634,0.596 0.96,1.033Zm3.636,90.886c1.368,0.627 2.602,1.472 3.564,2.596c0.073,0.085 0.143,0.17 0.212,0.257c0.127,7.638 0.303,12.6 0.647,13.448c0.652,1.646 1.98,2.679 3.806,3.853c2.132,1.372 5.042,3.405 7.045,10.504c1.588,5.627 2.569,14.113 2.3,27.249c0.08,8.334 0.02,15.668 -0.05,22.125c-0.166,15.354 -0.748,25.665 -2.233,32.596c-1.249,5.831 -2.882,9.065 -5.473,10.705c-2.161,1.367 -4.83,1.637 -8.014,1.696c-3.131,-0.06 -5.763,-0.359 -7.909,-1.773c-2.545,-1.678 -4.221,-4.925 -5.523,-10.751c-1.731,-7.745 -2.392,-19.675 -2.596,-38.035c-0.055,-5.03 -0.142,-10.535 -0.142,-16.563c-0.16,-13.329 0.864,-21.858 2.451,-27.45c2.093,-7.372 5.151,-9.042 7.33,-10.317c1.847,-1.081 3.179,-2.136 3.823,-4.026c0.354,-1.036 0.664,-6.649 0.753,-15.164c0.003,-0.312 0.006,-0.629 0.009,-0.95Zm-8.488,113.735c0,-0 1.214,-0.61 2.962,-1.727c0.388,-0.249 0.806,-0.48 1.183,-0.827c1.561,-1.437 2.774,-3.656 4.251,-5.126c0.737,-0.734 1.449,-1.342 2.032,-1.803c0.297,0.332 0.67,0.721 1.116,1.131c0.941,0.865 2.334,1.573 3.482,2.648c0.775,0.726 1.311,1.679 2.037,2.342c1.876,1.714 3.631,2.624 3.631,2.624c0.247,0.246 0.648,0.246 0.895,-0c0.247,-0.247 0.247,-0.648 -0,-0.895c-0,-0 -0.91,-1.755 -2.624,-3.631c-0.663,-0.726 -1.616,-1.262 -2.342,-2.037c-1.075,-1.148 -1.782,-2.541 -2.648,-3.482c-1.154,-1.257 -2.147,-1.94 -2.147,-1.94c-0.614,-0.614 -1.61,-0.614 -2.224,0c0,0 -1.038,1.643 -2.819,3.433c-1.469,1.476 -3.689,2.689 -5.126,4.25c-0.347,0.378 -0.578,0.795 -0.826,1.184c-1.118,1.747 -1.728,2.961 -1.728,2.961c-0.247,0.247 -0.247,0.648 0,0.895c0.247,0.247 0.648,0.247 0.895,-0Zm-2.304,-8.136c0,0 1.436,-0.824 3.462,-2.228c0.455,-0.315 0.947,-0.62 1.397,-1.04c1.877,-1.753 3.466,-4.348 5.252,-6.128c1.023,-1.019 1.995,-1.854 2.736,-2.45c0.387,0.433 0.897,0.97 1.516,1.548c1.128,1.052 2.759,1.997 4.136,3.302c0.935,0.884 1.632,1.999 2.504,2.809c2.243,2.081 4.299,3.291 4.299,3.291c0.247,0.247 0.648,0.247 0.895,0c0.247,-0.247 0.247,-0.648 -0,-0.895c-0,0 -1.211,-2.056 -3.292,-4.298c-0.81,-0.873 -1.924,-1.57 -2.809,-2.504c-1.304,-1.378 -2.25,-3.009 -3.302,-4.137c-1.41,-1.513 -2.583,-2.376 -2.583,-2.376c-0.614,-0.614 -1.61,-0.614 -2.224,0c0,0 -1.331,1.936 -3.486,4.1c-1.779,1.786 -4.375,3.375 -6.127,5.252c-0.421,0.45 -0.726,0.942 -1.041,1.397c-1.404,2.026 -2.228,3.462 -2.228,3.462c-0.247,0.247 -0.247,0.648 0,0.895c0.247,0.247 0.648,0.247 0.895,0Zm-7.945,-135.885c-2.742,-3.098 -4.581,-6.616 -6.383,-10.464c-0.761,-1.625 -1.092,-3.545 -2.095,-5.038c-1.594,-2.373 -3.691,-4.386 -5.602,-6.496c-1.559,-1.723 -2.916,-3.641 -4.544,-5.303c-1.254,-1.28 -2.72,-2.356 -3.893,-3.717c-0.829,-0.963 -0.672,-2.683 -1.377,-3.802c-1.526,-2.418 -3.657,-4.38 -5.461,-6.579c-2.669,-3.254 -5.289,-6.566 -7.88,-9.882c-0.341,-0.437 -2.638,-2.516 -2.312,-3.104c0.359,-0.65 1.307,-0.719 1.92,-1.033c1.501,-0.768 2.953,-1.739 4.41,-2.594c2.156,-1.266 3.296,-3.835 5.393,-5.309c0.688,-0.484 1.748,-1.289 2.663,-1.018c2.082,0.618 3.529,4.581 4.336,6.335c1.685,3.661 4.961,6.644 7.595,9.585c1.004,1.121 1.942,2.363 3.067,3.367c0.354,0.315 1.003,0.89 1.532,0.744c0.834,-0.229 0.503,-1.426 0.169,-1.877c-0.811,-1.096 -1.987,-1.772 -2.54,-3.056c-0.11,-0.257 -0.451,-0.96 -0.199,-1.236c0.623,-0.686 2.205,1.178 2.591,1.528c0.703,0.636 1.395,1.514 2.312,1.842c1.041,0.372 2.295,0.114 3.285,0.628c0.508,0.264 1.461,1.518 2.123,1.223c1.652,-0.736 -0.212,-2.682 -0.694,-3.455c-1.017,-1.509 -1.97,-3.063 -3.187,-4.454c-1.573,-1.798 -3.535,-3.03 -4.91,-5.059c-0.507,-0.748 -0.249,-1.524 -0.402,-2.362c-0.192,-1.055 -0.737,-2.099 -1.248,-3.034c-1.442,-2.635 -3.771,-4.182 -5.708,-6.298c-0.238,-0.26 0.312,-0.915 0.439,-1.093c0.624,-0.873 1.275,-1.888 1.736,-2.859c0.436,-0.918 0.373,-1.767 0.396,-2.752c0.001,-0.055 -0.02,-0.86 0.042,-0.876c0.737,-0.191 1.607,0.956 1.995,1.413c1.52,1.796 2.732,3.664 3.751,5.784c2.454,5.108 4.224,11.122 7.759,15.617c1.268,1.612 3.013,2.221 4.396,3.626c0.668,0.677 0.687,2.008 1.44,2.591c0.529,0.41 1.102,-1.114 1.156,-1.429c0.345,-2.011 0.323,-4.552 1.102,-6.447c1.217,-2.959 4.256,-3.277 6.268,-0.801c1.18,1.452 -0.322,3.993 -0.904,5.435c-1.071,2.653 -1.268,5.026 -1.536,7.868c-0.135,1.427 -0.495,2.812 -0.155,4.249c1.068,4.508 4.371,8.154 6.907,11.855c4.206,6.14 8.266,12.407 12.523,18.492c1.819,2.601 4.046,4.894 5.766,7.571c2.743,4.267 3.897,9.412 7.132,13.385c2.153,2.646 5.104,4.461 7.803,6.485c1.279,0.959 2.323,2.191 3.62,3.123c1.481,1.064 3.236,1.793 4.534,3.101c1.117,1.124 0.816,2.709 0.989,4.141c0.246,2.02 0.901,4.039 2.125,5.683c2.109,2.83 5.46,4.172 8.281,6.127c2.259,1.565 4.094,3.922 5.775,6.069c0.879,1.123 1.77,2.354 1.859,3.822c0.07,1.152 0.06,4.654 -1.673,4.701c-1.304,0.035 -2.304,-1.513 -3.091,-2.343c-2.273,-2.398 -4.761,-4.585 -6.82,-7.181c-4.883,-6.155 -9.088,-12.838 -14.393,-18.657c-1.724,-1.891 -4.092,-2.924 -5.979,-4.619c-5.334,-4.788 -5.867,-12.067 -9.735,-17.777c-2.313,-3.415 -5.773,-5.786 -8.446,-8.885c-3.08,-3.572 -4.599,-8.097 -7.243,-11.951c-1.46,-2.127 -3.931,-3.244 -5.355,-5.409c-2.414,-3.668 -5.815,-7.238 -7.174,-11.475c-0.282,-0.878 -0.683,-4.293 -1.954,-4.261c-0.477,0.012 -0.572,0.767 -0.539,1.122c0.112,1.171 0.683,2.316 1.1,3.4c1.341,3.48 2.289,6.538 4.256,9.746c0.845,1.379 2.628,2.677 2.397,4.479c-0.212,1.655 -1.743,1.872 -2.618,3.028c-0.415,0.549 -0.118,2.579 0.828,2.375c1.671,-0.361 2.845,-5.176 5.025,-3.03c0.666,0.655 1.72,2.016 1.261,3.008c-0.181,0.395 -2.451,2.126 -1.81,2.59c0.922,0.667 2.005,-1.357 2.917,-1.455c1.554,-0.166 4.052,2.843 4.341,4.246c0.382,1.855 -3.107,1.763 -3.897,2.783c-0.605,0.782 0.149,1.573 1.029,1.34c1.294,-0.343 1.98,-1.78 3.483,-1.054c3.997,1.93 5.661,6.745 8.611,9.786c1.411,1.454 3.636,2.497 4.332,4.522c1.079,3.134 -0.479,6.667 1.654,9.51c0.778,1.038 1.821,1.839 2.683,2.802c1.425,1.591 2.684,3.355 4.363,4.699c1.162,0.931 2.527,1.566 3.688,2.497c1.36,1.09 3.723,2.314 3.548,4.363c-0.055,0.647 -0.561,1.247 -0.993,1.691c-2.578,2.651 -4.14,0.51 -6.156,-1.417c-0.448,-0.427 -1.759,-1.218 -2.141,-0.33c-0.528,1.23 1.305,2.745 1.91,3.622c4.638,6.718 9.877,13.541 15.479,19.483c1.691,1.792 3.524,3.443 5.31,5.139c0.584,0.555 1.903,1.283 2.102,2.082c0.381,1.525 -2.036,2.655 -2.888,3.524c-2.642,2.695 -5.801,4.984 -9.604,5.616c-1.221,0.203 -2.621,0.442 -3.78,-0.133c-1.129,-0.56 -1.893,-1.657 -2.708,-2.576c-1.363,-1.539 -2.751,-3.091 -3.73,-4.914c-0.856,-1.594 -1.276,-3.384 -2.211,-4.94c-2.807,-4.668 -6.154,-9.031 -9.609,-13.232c-1.552,-1.888 -3.42,-3.536 -4.776,-5.58c-1.802,-2.718 -1.68,-6.29 -3.724,-8.879c-3.347,-4.24 -7.415,-5.028 -12.44,-6.125c-1.6,-0.349 -4.29,0.496 -5.314,-1.008c-0.62,-0.912 2.588,-1.196 2.844,-2.928c0.13,-0.886 0.382,-2.237 0.464,-3.137c0.037,-0.395 -0.967,-1.522 -0.651,-1.839c0.601,-0.603 3.571,0.525 3.29,-1.012c-0.294,-1.613 -2.633,-2.62 -3.616,-3.797c-2.391,-2.861 -4.13,-6.191 -6.426,-9.123c-0.511,-0.653 -1.259,-1.137 -1.95,-1.664c-0.579,-0.546 -1.12,-1.109 -1.631,-1.685Zm-41.608,21.952c8.534,0.305 18.842,0.437 31.359,0.454c-0.286,0.623 -0.532,1.257 -0.735,1.89c-0.739,2.302 -0.726,4.994 -0.788,7.383c-0.13,4.984 0.212,9.875 0.253,14.85c0.012,1.495 -0.094,3.036 -0.54,4.476c-0.338,1.089 -1.024,2.013 -1.197,3.156c-0.658,4.358 0.921,10.518 -2.491,14.056c-1.368,1.419 -3.667,1.601 -5.459,2.159c-2.236,0.696 -4.518,1.584 -6.894,1.575c-2.846,-0.012 -5.715,-1.309 -8.292,-2.401c-1.413,-0.599 -3.911,-1.216 -4.913,-2.406c-0.659,-0.783 -1.016,-1.983 -1.349,-2.937c-2.45,-7.029 -1.022,-13.737 0.103,-20.809c0.489,-3.07 0.716,-6.225 0.998,-9.32c0.252,-2.756 0.453,-5.55 0.296,-8.318c-0.072,-1.27 -0.223,-2.538 -0.351,-3.808Zm115.775,36.244c-0.468,1.138 -1.313,2.116 -2.153,2.992c-0.237,0.247 -0.689,0.824 -1.044,0.864c-1.425,-1.727 -3.275,-3.177 -4.893,-4.721c-2.703,-2.581 -5.319,-5.365 -7.37,-8.506c-0.638,-0.978 -1.363,-1.916 -2.223,-2.707c-0.249,-0.229 -0.943,-0.662 -0.893,-1.062c0.065,-0.514 0.573,-1.108 0.904,-1.475c1.022,-1.136 1.794,-2.089 3.233,-0.827c0.299,0.263 0.576,0.55 0.862,0.826c0.444,0.428 0.865,0.88 1.308,1.308c4.319,4.177 8.006,8.906 12.364,13.061c-0.03,0.083 -0.061,0.165 -0.095,0.247Zm-96.389,-15.265c-0.228,-0.058 -0.485,-0.075 -0.742,-0.212c-0.438,-0.235 -0.591,-0.653 -0.783,-1.085c-0.649,-0.131 -1.354,-0.225 -1.815,-0c-0.362,0.177 -0.371,0.828 -0.408,1.16c-0.1,0.89 -0.457,2.84 -0.044,3.714c0.344,0.725 1.335,0.031 1.53,0.934c0.034,0.157 0.046,0.322 0.043,0.482c-0.004,0.208 0.029,0.946 -0.177,1.102c-0.381,0.289 -1.035,0.13 -1.25,0.607c-0.429,0.954 -0.199,2.342 -0.21,3.368c-0.019,1.82 -0.234,3.626 -0.257,5.441c-0.004,0.241 0.166,1.808 -0.49,1.522c-0.4,-0.174 -0.578,-0.783 -0.668,-1.164c-0.266,-1.121 -0.312,-2.253 -0.159,-3.397c0.359,-2.674 0.92,-5.367 0.902,-8.075c-0.005,-0.75 -0.325,-1.368 -0.418,-2.093c-0.141,-1.101 -0.107,-2.189 -0.187,-3.294c-0.223,-3.096 -1.582,-5.971 -1.335,-9.145c0.052,-0.663 0.097,-1.334 0.121,-1.999c0.002,-0.045 0.043,-1.011 0.064,-1.005c0.29,0.082 0.401,0.686 0.457,0.922c0.198,0.829 0.367,1.818 0.836,2.55c0.335,0.524 1.584,-0.293 2.077,-0.337c0.563,-0.05 2.433,0.262 2.835,-0.202c0.448,-0.518 0.397,-1.538 0.416,-2.17c0.053,-1.835 -0.116,-3.658 -0.03,-5.495c0.056,-1.21 -0.16,-2.595 1.504,-2.454c0.681,0.058 0.814,0.629 0.851,1.259c0.061,1.061 0.04,2.128 -0.024,3.188c-0.286,4.75 -0.168,9.486 -0.071,14.243c0.101,4.972 0.534,9.953 0.583,14.937c0.013,1.272 -0.095,2.223 -0.373,3.43c-0.046,0.201 -0.16,0.973 -0.46,1.012c-0.394,0.051 -0.654,-0.659 -0.768,-0.904c-0.541,-1.156 -0.836,-2.318 -0.897,-3.596c-0.198,-4.139 0.825,-8.625 -0.055,-12.703c-0.138,-0.367 -0.35,-0.478 -0.598,-0.541Zm-14.043,-14.776c0.141,-0.061 0.294,-0.105 0.447,-0.141c-0.015,0.455 -0.027,0.885 -0.027,1.06c-0.007,1.819 0.088,3.611 0.182,5.425c0.119,2.299 0.553,4.89 0.012,7.161c-0.551,2.311 -2.043,4.038 -2.182,6.524c-0.116,2.073 0.32,4.004 0.63,6.037c0.097,0.634 0.308,1.935 -0.761,1.886c-0.628,-0.028 -0.924,-1.212 -1.036,-1.663c-0.449,-1.808 -0.736,-3.764 -0.762,-5.626c-0.02,-1.423 -0.098,-2.86 0.281,-4.249c0.587,-2.152 1.856,-4.172 2.261,-6.37c0.575,-3.115 0.168,-6.361 0.401,-9.538c0.115,-0.253 0.318,-0.404 0.554,-0.506Zm20.462,4.196c0.28,3.112 -0.24,6.267 0.037,9.127c0.053,0.55 -0.021,1.675 0.36,2.127c0.275,0.324 0.941,0.137 1.097,0.57c0.426,1.182 -0.565,1.832 -1.054,2.62c-0.394,0.633 0.335,3.786 -1.1,3.528c-0.407,-0.073 -0.483,-0.698 -0.517,-1.015c-0.114,-1.062 -0.056,-2.153 -0.023,-3.217c0.117,-3.814 0.072,-7.628 0.057,-11.442c-0.003,-0.804 -0.16,-1.804 0.057,-2.587c0.059,-0.212 0.293,-0.71 0.597,-0.62c0.404,0.119 0.498,0.544 0.489,0.909Zm70.641,5.441c-0.486,-0.272 -0.961,-0.561 -1.487,-0.775c-0.474,0.38 -0.971,0.711 -1.488,1.071c-0.221,0.155 -0.784,0.423 -0.856,0.72c-0.266,1.087 1.766,2.585 2.463,3.245c0.222,0.209 0.582,0.82 0.914,0.829c0.333,0.009 0.615,-0.247 0.833,-0.468c0.438,-0.443 1.804,-1.826 1.675,-2.557c-0.124,-0.698 -0.621,-1.135 -1.091,-1.589c-0.336,-0.135 -0.652,-0.302 -0.963,-0.476Zm-22.314,-4.299c-0.25,0.683 -0.82,1.166 -0.814,1.938c1.401,1.426 2.135,3.356 3.023,5.142c0.305,0.614 0.977,1.543 1.758,0.883c0.6,-0.507 0.25,-1.638 0.013,-2.241c-0.735,-1.874 -2.095,-3.453 -3.33,-5.013c-0.161,-0.202 -0.383,-0.486 -0.642,-0.731c-0.002,0.007 -0.005,0.014 -0.008,0.022Zm-56.168,2.406c-0.248,0.786 -1.667,0.583 -2.306,0.648c0.008,0.715 0.004,1.43 0.004,2.144c-0,0.307 -0.101,0.769 0.09,1.04c0.187,0.266 0.562,0.22 0.836,0.167c0.726,-0.143 2.331,0.033 2.994,-0.326c0.306,-0.165 0.193,-1.269 0.184,-1.554c-0.034,-1.096 0.194,-2.269 -1.267,-2.362c-0.165,-0.011 -0.331,0.002 -0.498,0.018c-0.003,0.083 -0.016,0.158 -0.037,0.225Zm89.546,-15.108c0.002,0.757 0.002,1.517 -0.005,2.278c-0.005,0.606 0.21,3.051 -0.53,2.917c-0.663,-0.12 -1.248,-0.812 -1.721,-1.247c-0.966,-0.888 -1.85,-1.856 -2.825,-2.732c-0.539,-0.485 -1.194,-1.025 -1.436,-1.734c2.454,-0.012 5.117,-0.089 6.517,0.518Zm-62.351,0.403c0.056,0.11 0.117,0.216 0.184,0.317c0.485,0.731 1.57,2.322 2.65,1.629c0.49,-0.315 0.731,-1.056 0.887,-1.586c0.394,-1.335 1.674,-3.46 1.181,-4.869c-0.323,-0.921 -1.509,-1.664 -2.545,-1.561c-0.279,0.168 -0.627,0.381 -0.957,0.617c-0.348,0.248 -0.676,0.521 -0.879,0.791c-0.223,0.267 -0.406,0.574 -0.55,0.905c0.418,0.528 0.665,1.195 0.66,1.92c-0.005,0.691 -0.239,1.327 -0.631,1.837Zm-10.08,-26.252c0.068,0.548 0.171,1.075 0.354,1.517c0.551,1.33 1.783,2.265 2.597,3.453c0.3,0.437 0.587,0.907 0.874,1.389c-1.308,-0.104 -2.614,-0.227 -3.92,-0.367c-10.63,-1.142 -21.178,-3.178 -31.745,-5.571c-2.612,-0.592 -5.217,-1.237 -7.842,-1.83c-2.802,-0.633 -5.62,-1.208 -8.439,-1.848c-6.524,-1.482 -13.049,-3.091 -19.589,-4.981c-0.397,-0.136 -0.829,0.075 -0.965,0.471c-0.137,0.396 0.074,0.829 0.471,0.965c6.37,2.554 12.724,4.913 19.149,6.969c2.789,0.892 5.572,1.758 8.389,2.487c2.642,0.684 5.309,1.24 7.971,1.774c10.753,2.155 21.548,3.434 32.329,4.365c1.806,0.156 3.61,0.308 5.414,0.465l0.673,0.059c1.056,1.373 2.599,2.956 3.541,4.259c0.869,1.202 2.477,2.757 2.286,3.816c-0.192,1.059 -2.553,1.604 -3.435,2.539c-0.377,0.401 -0.707,0.89 -0.996,1.391c-30.093,-0.544 -48.864,-1.449 -61.035,-3.052c-13.003,-1.714 -17.708,-4.09 -20.991,-8.845c-2.812,-4.001 -2.64,-8.503 -1.506,-12.5c1.374,-4.844 4.126,-9.051 5.742,-11.241c15.76,4.735 31.533,8.172 47.23,10.884c7.824,1.352 15.634,2.519 23.443,3.432Zm60.238,21.031c-0.15,-0.177 -0.278,-0.327 -0.375,-0.423c-0.768,-0.769 -1.669,-1.393 -2.409,-2.191c-1.845,-1.993 -3.354,-4.289 -5.133,-6.343c-0.67,-0.773 -1.333,-1.555 -1.976,-2.353l0.213,-0.021c7.852,-0.754 15.636,-2.294 23.509,-3.696c6.635,-1.182 13.361,-2.176 20.009,-3.841c9.274,-2.321 18.433,-5.506 27.659,-8.964c0.397,-0.135 0.609,-0.567 0.474,-0.963c-0.135,-0.397 -0.566,-0.61 -0.963,-0.475c-9.349,2.868 -18.699,5.062 -27.941,7.209c-6.607,1.535 -13.113,3.262 -19.698,4.332c-7.8,1.267 -15.628,1.726 -23.4,2.316c-0.898,0.069 -1.796,0.136 -2.694,0.201c-0.097,-0.153 -0.192,-0.306 -0.287,-0.46c-0.76,-1.242 -1.301,-2.601 -2.015,-3.866c10.9,-0.631 21.805,-1.816 32.707,-3.599c5.011,-0.819 10.029,-1.728 15.022,-2.861c10.762,-2.442 21.444,-5.668 32.144,-9.324c2.085,2.571 5.838,7.875 6.868,13.83c0.591,3.417 0.214,7.058 -2.059,10.391c-2.974,4.187 -7.009,6.633 -16.871,8.229c-4.419,0.714 -9.925,1.179 -16.883,1.603c-9.192,0.561 -20.881,0.981 -35.901,1.269Zm-51.86,-26.522c0.026,-0.048 0.056,-0.095 0.086,-0.14c0.537,-0.816 0.926,0.171 1.49,-0.082c2.043,2.36 4.454,4.488 6.751,6.554c1.277,1.149 3.088,2.382 3.833,3.985c0.313,0.674 0.293,1.527 0.51,2.244c0.698,2.308 2.721,3.713 3.636,5.882c0.205,0.485 0.38,1.144 0.385,1.673c0.002,0.177 0.008,0.474 -0.217,0.53c-0.249,0.062 -0.582,-0.178 -0.784,-0.303c-0.719,-0.447 -1.304,-1.216 -1.735,-1.929c-1.803,-2.975 -2.773,-6.302 -5.123,-8.934c-2.321,-2.6 -5.288,-4.54 -7.525,-7.214c-0.155,-0.185 -0.304,-0.375 -0.454,-0.564c-0.106,-0.135 -0.214,-0.264 -0.345,-0.376c-0.05,-0.043 -0.13,-0.111 -0.226,-0.196c-0.126,-0.143 -0.22,-0.304 -0.285,-0.483c-0.052,-0.146 -0.114,-0.3 -0.075,-0.457c0.017,-0.066 0.045,-0.129 0.078,-0.19Zm31.913,1.163c0.115,0.168 0.227,0.341 0.337,0.517c-0.401,-0.291 -0.604,-0.492 -0.337,-0.517Zm-45.672,-1.386c-0.469,-0.057 -0.938,-0.113 -1.404,-0.169c0.075,-0.063 0.164,-0.102 0.269,-0.109c0.481,-0.032 0.852,0.074 1.135,0.278Zm80.041,-4.114c-2.273,0.388 -4.546,0.754 -6.818,1.097c-0.004,-0.43 -0.005,-0.861 -0.003,-1.292c0.004,-0.544 0.274,-2.753 -0.692,-2.555c-0.714,0.146 -0.741,1.312 -0.807,1.864c-0.088,0.744 -0.168,1.492 -0.231,2.241c-5.286,0.771 -10.571,1.419 -15.857,1.936c0.043,-0.744 0.12,-1.479 0.317,-2.145c0.321,-1.089 1.238,-2.063 1.451,-3.158c0.326,-1.686 0.134,-3.665 0.138,-5.377c0.001,-0.269 0.006,-0.54 0.012,-0.813c-1.051,-0.692 -1.193,-2.126 -0.872,-3.235c-0.324,-0.008 -0.635,0.139 -0.818,0.516c-0.345,0.713 -0.198,1.965 -0.199,2.726c-0.002,1.95 0.199,4.082 0.012,6.012c-0.073,0.755 -0.646,1.186 -0.786,1.907c-0.239,1.223 -0.34,2.45 -0.432,3.68c-1.976,0.186 -3.953,0.354 -5.93,0.503c0.569,-1.135 1.277,-2.225 1.764,-3.26c0.85,-1.808 0.935,-3.671 0.84,-5.638c-0.111,-2.285 -0.886,-4.331 -1.27,-6.563c-0.447,-2.601 -0.398,-5.167 0.145,-7.745c0.045,-0.216 0.053,-0.436 0.052,-0.658c-0.062,-0.427 -0.11,-0.862 -0.146,-1.303c-0.212,-2.57 -0.012,-5.328 0.308,-7.821c0.136,-1.054 0.529,-2.066 0.614,-3.126c0.279,-3.442 -0.189,-6.791 -0.507,-10.209c-0.161,-1.74 -0.75,-3.336 -1.012,-5.042c-0.242,-1.57 -0.11,-3.243 -0.11,-4.826c0,-0.676 -0.441,-3.109 0.564,-3.122c0.864,-0.01 1.713,0.528 2.502,0.826c0.92,0.349 1.874,0.491 2.848,0.582c0.488,0.046 1.475,-0.113 1.832,0.313c0.405,0.483 0.405,1.38 0.438,1.973c0.076,1.351 0.173,2.7 0.29,4.049c0.506,5.855 0.571,11.724 0.571,17.6c-0,2.781 -0.161,5.548 -0.162,8.327c-0.001,0.812 0.177,2.6 1.43,2.468c0.788,-0.083 0.569,-2.18 0.565,-2.633c-0.025,-2.971 -0.12,-5.913 -0.055,-8.882c0.123,-5.546 0.865,-11.071 0.656,-16.614c-0.058,-1.531 -0.147,-3.06 -0.214,-4.59c-0.012,-0.278 -0.24,-1.337 -0.046,-1.563c0.191,-0.222 0.691,-0.097 0.939,-0.068c0.864,0.101 1.741,0.17 2.61,0.214c2.198,0.111 4.362,0.081 6.565,0.059c1.323,-0.014 2.983,-0.183 4.267,0.236c0.793,0.259 0.354,2.39 0.342,2.967c-0.042,2.054 0.04,4.096 0.072,6.147c0.021,1.297 0.416,2.219 -1.01,2.741c-0.487,0.179 -1.908,0.74 -2.442,0.486c-1.181,-0.56 -0.495,-3.327 -0.488,-4.354c0.009,-1.378 -1.404,-2.218 -2.716,-1.539c-1.065,0.551 0.063,2.706 -0.371,3.48c-0.704,1.256 -3.233,-0.17 -3.903,1.13c-0.239,0.464 0.213,0.72 0.586,0.929c0.694,0.388 1.978,0.311 2.546,0.853c0.876,0.835 0.318,3.296 0.24,4.318c-0.179,2.346 -0.147,4.705 -0.422,7.043c-0.061,0.513 -0.393,2.082 0.156,2.431c0.684,0.435 1.659,0.085 2.389,0.006c1.668,-0.181 2.799,0.435 2.757,-1.794c-0.004,-0.199 0.103,-1.206 -0.041,-1.347c-0.332,-0.324 -2.289,0.056 -2.776,0.062c-0.033,0 -0.835,0.059 -0.857,0.005c-0.396,-0.976 0.135,-2.949 0.259,-4.003c0.035,-0.303 0.027,-0.977 0.37,-1.14c0.588,-0.279 2.484,0.276 2.769,-0.367c0.572,-1.291 -0.981,-0.785 -1.465,-1.394c-0.234,-0.294 -0.268,-0.702 -0.279,-1.063c-0.043,-1.513 0.466,-1.692 1.995,-1.726c0.405,-0.009 0.936,-0.218 1.338,-0.125c1.098,0.253 0.674,2.853 0.625,3.601c-0.257,3.987 -0.006,7.777 0.214,11.739c0.072,1.303 0.323,2.611 0.499,3.904c0.06,0.44 0.093,0.877 0.104,1.321c0.005,0.231 -0.108,0.888 0.01,0.691c1.21,-2.03 0.592,-5.278 0.75,-7.546c0.401,-5.723 1.565,-11.441 1.483,-17.181c-0.034,-2.333 0.052,-4.655 0.039,-6.984c-0.005,-0.933 -0.248,-2.379 0.318,-3.206c0.638,-0.932 1.313,-0.888 2.268,-1.218c1.283,-0.444 2.412,-0.831 3.776,-0.996c0.043,1.126 0.238,2.24 0.189,3.38c-0.353,8.197 -0.859,16.393 -0.797,24.602c0.018,2.337 -0.385,4.652 -0.387,7c-0,0.283 -0.271,1.955 -0.074,2.113c0.452,0.362 1.733,-0.975 1.983,-1.214c1.333,-1.275 2.379,-2.749 3.849,-3.903c0.252,-0.197 1.258,-0.936 1.589,-0.729c0.55,0.344 0.396,1.583 0.403,2.122c0.01,0.742 0.027,1.479 0.061,2.221c0.048,1.031 0.552,2.109 0.535,3.114c-0.02,1.205 -2.446,2.243 -3.203,2.969c-1.022,0.981 -1.784,2.182 -2.75,3.208c-1.61,1.709 -3.458,3.371 -4.629,5.447c-0.726,1.286 -0.71,3.223 -0.667,4.908Zm-83.045,3.756c-1.229,-0.146 -2.429,-0.286 -3.569,-0.421c0.005,-1.796 0.063,-3.592 0.063,-5.389c-0,-0.142 -0.134,-1.748 0.11,-1.763c0.899,-0.057 1.754,1.176 2.347,1.725c1.222,1.13 1.072,2.503 1.058,4.124c-0.005,0.575 -0.007,1.149 -0.009,1.724Zm-10.359,-5.772c-0.328,0.053 -0.642,0.151 -0.957,0.352c-0.002,0.736 -0.062,1.474 -0.073,2.209c-0.006,0.363 -0.139,0.713 0.142,0.992c0.284,0.282 0.725,0.276 1.092,0.352c0.284,0.058 0.568,0.111 0.86,0.113c0.51,0.003 1.035,-0.104 1.552,-0.108c0.347,-0.002 0.73,0.003 1.05,0.162c0.067,0.033 0.503,0.363 0.541,0.332c0.415,-0.348 0.352,-1.143 0.396,-1.645c0.054,-0.628 0.21,-1.563 -0.195,-2.12c-0.281,-0.386 -0.877,-0.371 -1.297,-0.453c-0.719,-0.139 -1.427,-0.224 -2.146,-0.265c-0.343,0.018 -0.66,0.029 -0.965,0.079Zm-3.578,3.889c-3.098,-0.393 -9.021,-0.952 -11.366,-1.995c-0.003,-0.063 -0.006,-0.126 -0.008,-0.19c-0.216,-5.997 0.685,-11.894 0.324,-17.914c-0.2,-3.327 -1.019,-8.739 2.212,-10.787c0.43,-0.272 0.899,-0.489 1.374,-0.189c0.585,0.369 0.93,1.073 1.378,1.583c1.026,1.169 2.056,2.336 3.017,3.56c1.921,2.446 3.698,4.993 5.74,7.344c1.356,1.563 3.238,2.706 4.362,4.462c1.085,1.696 1.001,5.069 0.446,6.968c-0.407,1.392 -2.184,1.25 -3.336,1.212c-0.367,-0.012 -1.061,0.176 -1.352,-0.1c-0.808,-0.764 0.139,-2.603 -0.185,-3.547c-0.147,-0.427 -0.938,-0.817 -1.363,-0.534c-1.238,0.826 0.283,2.977 -0.352,4.081c-0.49,0.852 -3.846,1.364 -2.87,2.916c0.677,1.078 2.913,-2.492 3.067,0.199c0.013,0.228 0.009,0.462 0.004,0.69c-0.014,0.619 -0.034,1.475 -0.544,1.916c-0.145,0.125 -0.335,0.23 -0.548,0.325Zm-7.786,-1.105c-0.018,-0.876 -0.028,-1.752 -0.033,-2.628c-0.012,-2.057 -0.592,-4.249 -0.323,-6.307c0.096,-0.738 0.643,-1.052 1.17,-0.944c0.03,0.21 0.07,0.409 0.116,0.601c0.236,0.97 0.657,1.741 0.988,2.733c-0.23,2.045 -0.488,4.078 -0.415,6.162c0.008,0.225 0.018,0.45 0.029,0.674c-0.51,-0.095 -1.021,-0.193 -1.532,-0.291Zm3.912,-38.923c-0.68,0.161 -1.094,0.561 -0.279,1.537c2.305,2.816 4.525,5.826 7.008,8.401c1.586,1.645 3.63,2.768 5.182,4.465c1.706,1.865 2.218,4.107 3.818,5.977c0.793,0.927 2.197,1.176 3.113,1.989c1.657,1.471 2.022,3.903 3.587,5.519c0.166,0.171 1.271,1.516 1.629,1.271c0.778,-0.533 0.172,-1.837 -0.155,-2.421c-1.109,-1.984 -2.648,-3.594 -4.062,-5.351c-1.029,-1.28 -2.464,-1.889 -3.542,-3.055c-1.783,-1.927 -2.98,-4.534 -4.701,-6.567c-1.712,-2.023 -3.902,-3.495 -5.568,-5.601c-1.19,-1.505 -2.472,-2.984 -3.588,-4.543c-0.38,-0.531 -0.75,-1.168 -1.196,-1.722c-0.383,-0.003 -0.858,0.01 -1.246,0.101Zm53.987,5.379c0.026,3.56 0.066,7.196 0.117,10.869c-1.203,-1.809 -1.942,-3.723 -1.526,-6.531c0.22,-1.485 0.745,-2.93 1.409,-4.338Zm-41.605,-19.124c-0.363,-0.105 -0.721,-0.233 -1.091,-0.381c-0.105,0.112 -0.209,0.225 -0.31,0.341c-0.197,0.226 -0.367,0.467 -0.546,0.706c-1.432,1.912 1.189,1.466 1.787,2.317c0.597,0.852 0.497,2.059 1.397,2.73c0.663,0.494 1.583,0.23 2.227,0.957c0.419,0.473 -0.038,1.004 0.021,1.522c0.106,0.919 0.517,1.304 1.172,1.892c1.251,1.121 2.117,2.679 3.392,3.777c0.316,0.271 1.13,0.946 1.581,0.505c0.491,-0.481 -0.066,-1.59 -0.304,-2.091c-0.917,-1.929 -2.978,-2.607 -4.187,-4.227c-0.753,-1.009 -0.535,-2.559 -1.377,-3.552c-0.341,-0.403 -1.159,-0.447 -1.595,-0.753c-0.997,-0.698 -0.61,-2.209 -0.774,-3.476c-0.492,-0.047 -0.946,-0.139 -1.393,-0.267Zm-20.14,-2.76c-0.655,0.537 -1.282,1.106 -1.798,1.799c-1.146,1.068 -1.885,2.556 -2.841,3.8c-0.511,0.664 -1.308,1.446 -1.508,2.281c-0.531,2.22 1.312,4.076 3.476,3.893c3.91,-0.33 7.22,-3.691 10.214,-5.895c1.265,-0.931 2.831,-1.42 4.163,-2.243c3.036,-1.876 6.075,-4.119 8.506,-6.744c1.042,-1.125 2.464,-2.529 2.639,-4.122c0.229,-2.085 -2.262,-5.439 -4.589,-4.877c-3.984,0.963 -7.465,4.467 -10.697,6.806c-1.536,1.112 -3.415,2.094 -5.104,3.224c-0.754,0.768 -1.63,1.398 -2.461,2.078Zm61.733,6.778c-0.665,0.16 -1.312,0.543 -1.881,1.197c-0.376,0.432 -0.727,1.627 -1.23,2.347c0.009,-0.932 0.018,-1.854 0.028,-2.766c0.207,-19.509 0.477,-34.406 0.21,-36.581c-0.283,-2.323 -1.36,-4.136 -2.777,-5.634c-1.75,-1.851 -4.147,-3.123 -6.135,-4.214c-0.46,-0.252 -1.18,-0.481 -1.607,-0.713c0.06,-0.453 0.391,-0.764 0.777,-1.028c0.878,-0.599 2.061,-0.953 3.293,-1.218c3.961,-0.854 8.484,-0.539 8.484,-0.539c0.061,0.003 0.123,0.005 0.184,0.005l0.209,-0.006c0.467,-0.022 4.721,-0.192 8.451,0.671c0.986,0.229 1.932,0.531 2.722,0.958c0.467,0.252 0.912,0.525 1.057,0.962c-0.427,0.187 -1.062,0.367 -1.478,0.578c-2.063,1.048 -4.535,2.296 -6.384,4.125c-1.563,1.546 -2.715,3.475 -3.1,5.942c-0.321,2.136 -0.737,16.731 -0.823,35.914Zm34.313,-17.985c-1.416,0.096 -2.804,0.059 -4.073,-0.463c-0.407,0.08 -0.821,0.177 -1.257,0.255c-3.319,0.587 -6.22,1.807 -9,3.704c-1.319,0.9 -3.675,2.932 -2.042,4.722c0.494,0.541 1.277,0.85 1.929,1.15c1.311,0.602 3.019,0.627 4.439,0.658c2.598,0.058 5.188,-0.085 7.786,-0.028c3.646,0.08 7.581,1.288 11.221,0.495c0.556,-0.121 1.058,-0.397 1.55,-0.671c1.558,-0.865 4.869,-2.914 3.814,-5.168c-0.349,-0.745 -1.159,-1.347 -1.768,-1.879c-1.848,-1.615 -4.213,-2.425 -6.607,-2.97c-1.868,-0.358 -3.958,0.056 -5.992,0.195Zm-47.735,-28.396c-0.14,-0.077 -0.245,-0.155 -0.294,-0.234c-0.049,-0.08 -0.043,-0.161 0.039,-0.244c0.162,-0.164 0.225,0.184 0.255,0.478Zm25.301,-0.221c0.022,-0.164 0.053,-0.324 0.1,-0.42c0.047,-0.097 0.111,-0.129 0.197,-0.038c0.161,0.17 0.001,0.317 -0.297,0.458Zm-12.648,-8.692l-0.013,-0c-3.543,0.22 -0.299,5.417 0.13,6.078l-0.002,0.072l0.013,-0.054l-0.011,-0.018l0.023,-0.757l-0.14,-5.321Zm0.298,0.065l-0.158,5.256l0.017,0.656l-0.029,0.119l0.034,0.052l-0.005,-0.171c0.225,-0.931 1.217,-5.325 0.141,-5.912Zm-15.634,-3.297c-0,0 2.898,-2.252 5.988,-5.735c1.624,-1.832 2.926,-4.239 4.657,-6.199c1.37,-1.552 2.969,-2.772 4.17,-4.035c0.344,-0.361 0.669,-0.71 0.973,-1.042c1.584,1.844 3.695,4.231 5.907,6.526c1.582,1.641 3.335,3.093 4.75,4.514c2.648,2.66 4.484,4.76 4.484,4.76c1.362,1.47 3.66,1.558 5.131,0.197c1.47,-1.361 1.558,-3.66 0.197,-5.13c-0,-0 -1.953,-1.992 -4.402,-4.837c-1.309,-1.52 -2.621,-3.378 -4.137,-5.082c-4.349,-4.889 -9.116,-9.384 -9.116,-9.384c-0.722,-0.781 -1.739,-1.222 -2.803,-1.216c-1.063,0.006 -2.075,0.458 -2.789,1.246c-0,0 -1.747,1.66 -3.96,4.226c-1.138,1.32 -2.194,3.032 -3.604,4.548c-1.78,1.915 -4.047,3.447 -5.709,5.244c-3.163,3.418 -5.118,6.525 -5.118,6.525c-1.346,1.485 -1.232,3.782 0.253,5.128c1.485,1.345 3.782,1.231 5.128,-0.254Z" style="fill:#30553c;"/></svg>