<?xml version="1.0" encoding="UTF-8" standalone="no"?><!DOCTYPE svg PUBLIC "-//W3C//DTD SVG 1.1//EN" "http://www.w3.org/Graphics/SVG/1.1/DTD/svg11.dtd"><svg width="100%" height="100%" viewBox="0 0 211 274" version="1.1" xmlns="http://www.w3.org/2000/svg" xmlns:xlink="http://www.w3.org/1999/xlink" xml:space="preserve" xmlns:serif="http://www.serif.com/" style="fill-rule:evenodd;clip-rule:evenodd;stroke-linejoin:round;stroke-miterlimit:2;"><path id="Orange" d="M101.184,143.807c1.484,0.43 3.054,0.972 4.119,1.469c1.474,0.686 2.948,1.807 3.933,2.885c0.092,0.101 0.18,0.204 0.265,0.311c0.192,7.094 0.447,11.688 0.775,12.484c2.026,4.92 14.039,-0.032 14.039,42.784c0,63.992 -4.801,69.467 -19.065,69.467c-13.93,-0 -18.959,-5.725 -18.959,-69.467c0,-44.269 12.095,-37.197 14.04,-42.784c0.378,-1.086 0.657,-7.534 0.853,-17.149Zm-10.485,-9.021c-1.46,-0.009 -2.895,-0.018 -4.303,-0.029l-0.044,-0c-65.607,-0.481 -76.957,-2.924 -83.602,-12.59c-8.665,-12.604 5.915,-28.914 5.915,-28.914c23.441,7.51 46.882,12.441 70.324,14.728c0.682,1.068 1.379,2.152 1.666,2.734c1.202,2.435 2.643,6.26 4.484,8.876c1.814,2.579 5.015,4.856 6.557,6.82c0.996,1.269 1.876,2.763 2.439,4.234l-7.783,-0l-0,4.112l8.806,0.04l0,0.012l-4.459,-0.023Zm4.459,-0.024l0.002,0.035l-0.002,0l0,-0.035Zm24.777,-25.86c27.344,-1.642 54.675,-6.893 82.006,-15.649c0,0 14.58,16.31 5.915,28.914c-6.142,8.935 -16.305,11.698 -69.64,12.445c-0.849,-0.897 -1.517,-2.111 -2.374,-2.981c-2.189,-2.222 -6.708,-6.139 -9.009,-9.234c-2.088,-2.806 -3.059,-6.297 -4.8,-9.332c-0.734,-1.28 -1.389,-2.755 -2.098,-4.163Zm-18.37,-23.746c-0.044,-33.032 -0.405,-65.032 -0.88,-68.274c-0.993,-6.765 -10.46,-7.575 -10.692,-10.477c-0.586,-7.341 15.31,-6.361 15.31,-6.361l0.046,-0.003c0.93,-0.051 15.832,-0.748 15.264,6.364c-0.231,2.902 -9.698,3.712 -10.691,10.477c-0.523,3.56 -0.924,41.979 -0.91,78.271c-1.901,-2.759 -3.903,-5.733 -5.245,-7.541c-0.651,-0.877 -1.435,-1.662 -2.202,-2.456Z" style="fill:#e5913d;"/></svg>