<?xml version="1.0" encoding="UTF-8" standalone="no"?><!DOCTYPE svg PUBLIC "-//W3C//DTD SVG 1.1//EN" "http://www.w3.org/Graphics/SVG/1.1/DTD/svg11.dtd"><svg width="100%" height="100%" viewBox="0 0 187 109" version="1.1" xmlns="http://www.w3.org/2000/svg" xmlns:xlink="http://www.w3.org/1999/xlink" xml:space="preserve" xmlns:serif="http://www.serif.com/" style="fill-rule:evenodd;clip-rule:evenodd;stroke-linejoin:round;stroke-miterlimit:2;"><path id="Paddler-Characters" serif:id="Paddler Characters" d="M60.413,107.754c-1.49,-2.41 3.581,-14.617 6.45,-15.527c1.979,-0.628 4.144,-5.201 7.764,-16.395c2.761,-8.537 4.781,-15.762 4.49,-16.053c-1.437,-1.437 -15.03,-1.713 -15.889,-0.323c-0.556,0.899 -5.865,1.559 -12.545,1.559c-8.968,-0 -11.771,-0.493 -12.42,-2.185c-1.194,-3.11 5.223,-21.145 8.947,-25.146c3.128,-3.361 3.128,-3.361 2.444,1.296c-0.444,3.025 -0.149,4.326 0.841,3.715c0.838,-0.518 2.846,1.198 4.463,3.813c1.616,2.615 4.45,6.144 6.298,7.842c3.828,3.519 12.802,5.983 12.802,3.516c-0,-0.862 -1.471,-1.578 -3.269,-1.59c-1.798,-0.011 -4.033,-0.509 -4.968,-1.103c-1.814,-1.154 -7.774,-15.23 -7.697,-18.177c0.071,-2.694 4.312,3.53 4.312,6.327c-0,1.348 0.981,3.264 2.179,4.259c1.824,1.514 2.179,1.29 2.179,-1.371c0,-1.748 -0.611,-4.321 -1.359,-5.717c-1.183,-2.212 -0.261,-2.765 7.169,-4.3c6.902,-1.426 9.786,-2.984 15.127,-8.176c3.63,-3.527 6.931,-5.877 7.337,-5.221c0.405,0.655 -0.834,6.337 -2.753,12.625c-17.717,58.055 -17.127,55.526 -14.544,62.289c3.334,8.731 1.181,12.704 -6.58,12.144c-3.058,-0.221 -6.548,0.418 -7.755,1.42c-1.254,1.041 -2.549,1.246 -3.023,0.479l-0,0Zm-2.335,-52.648c-0,-1.865 -8.986,-12.913 -10.533,-12.951c-1.398,-0.032 -1.381,7.468 0.022,9.541c2.592,3.829 10.51,6.399 10.51,3.41l0.001,0Zm21.064,-4.26c-0.493,-0.799 -0.265,-1.453 0.508,-1.453c0.773,-0 2.736,-3.941 4.362,-8.757c2.958,-8.758 2.958,-8.758 -0.956,-5.978c-2.152,1.53 -6.312,3.781 -9.244,5.003c-6.771,2.823 -8.098,8.161 -2.66,10.704c4.552,2.128 9.181,2.406 7.99,0.481l0,-0Zm39.18,56.584c-1.481,-2.396 2.592,-12.103 6.675,-15.908c2.641,-2.461 5.153,-7.765 7.796,-16.458c2.144,-7.054 3.662,-13.533 3.375,-14.396c-0.741,-2.222 -12.539,-3.063 -14.945,-1.065c-1.102,0.914 -2.686,1.24 -3.52,0.725c-0.834,-0.516 -1.516,-0.258 -1.516,0.573c0,1.416 2.526,2.309 9.443,3.339c4.204,0.626 4.744,11.785 0.873,18.049c-2.822,4.567 -2.822,4.567 -23.639,4.176c-20.816,-0.39 -20.816,-0.39 -20.422,-5.293c0.217,-2.697 1.297,-7.518 2.4,-10.714c2.005,-5.811 2.005,-5.811 11.954,-6.584c7.401,-0.575 8.68,-0.947 4.994,-1.453c-3.483,-0.478 -5.074,-1.509 -5.356,-3.472c-0.696,-4.839 5.518,-21.72 9.667,-26.262c3.212,-3.517 3.668,-4.837 2.361,-6.835c-2.61,-3.991 1.003,-18.566 5.6,-22.583c5.01,-4.379 11.557,-4.291 14.496,0.194c1.248,1.905 2.114,4.029 1.925,4.721c-0.189,0.693 0.166,2.761 0.79,4.597c0.624,1.836 0.517,4.125 -0.238,5.085c-0.755,0.96 -1.781,3.461 -2.281,5.557c-0.992,4.162 -5.781,6.715 -13.873,7.396c-6.525,0.549 -8.791,4.082 -5.086,7.929c1.518,1.577 5.094,5.52 7.947,8.762c5.039,5.728 14.425,9.865 14.425,6.357c0,-0.863 -1.471,-1.578 -3.269,-1.591c-6.109,-0.044 -10.202,-5.218 -12.092,-15.292c-1.162,-6.196 1.641,-6.913 2.991,-0.766c1.142,5.2 5.106,9.17 5.106,5.114c0,-1.433 -1.001,-3.712 -2.225,-5.065c-2.049,-2.263 -1.776,-2.519 3.426,-3.217c7.737,-1.038 15.748,-5.061 21.468,-10.781c2.635,-2.634 5.148,-4.211 5.585,-3.504c0.437,0.708 -0.53,5.764 -2.15,11.236c-1.621,5.472 -3.868,13.218 -4.995,17.213c-1.128,3.995 -4.371,14.856 -7.209,24.134c-4.991,16.323 -5.082,17.026 -2.783,21.633c1.737,3.482 2.013,5.78 1.029,8.552c-1.162,3.274 -2.181,3.79 -7.474,3.79c-3.37,0 -6.127,0.42 -6.126,0.935c0.003,1.65 -4.233,2.62 -5.127,1.173l-0,-0.001Zm7.495,-37.426c5.855,-3.276 -7.701,-4.898 -24.157,-2.89c-13.347,1.628 -14.993,2.142 -13.677,4.271c1.218,1.971 33.981,0.775 37.834,-1.381Zm-9.69,-15.163c-0.033,-0.999 -2.394,-4.431 -5.246,-7.627c-5.186,-5.811 -5.186,-5.811 -4.181,-0.727c1.308,6.625 9.614,13.986 9.427,8.354Zm21.201,-3.871c-0.451,-0.731 -0.3,-1.548 0.335,-1.816c0.636,-0.268 2.594,-4.286 4.352,-8.928c3.195,-8.441 3.195,-8.441 -1.063,-5.409c-2.342,1.668 -6.537,3.984 -9.323,5.148c-6.479,2.707 -7.666,7.922 -2.367,10.4c4.423,2.068 9.191,2.425 8.066,0.605l0,-0Zm-114.116,39.428c-15.913,-1.741 -23.264,-7.747 -23.212,-18.962c0.017,-3.734 1.274,-9.524 2.792,-12.867c4.324,-9.524 16.062,-14.035 16.062,-6.173c-0,1.702 1.873,4.845 4.162,6.983c4.148,3.874 4.239,3.887 26.241,3.776c12.144,-0.062 22.372,0.361 22.73,0.94c1.338,2.165 -6.179,21.966 -8.931,23.524c-2.695,1.525 -32.38,3.596 -39.844,2.779Zm42.115,-18.47c2.581,-3.11 0.738,-3.463 -20.611,-3.953c-18.446,-0.423 -20.292,-0.598 -25.453,-5.604c-2.97,-2.882 -3.315,-6.252 -3.315,-8.178c0,-3.824 -0.977,-3.199 -2.776,-0c-1.092,1.941 0.17,13.661 10.694,17.853c6.672,2.658 39.06,2.775 41.461,-0.119l0,0.001Zm86.212,15.616c-4.926,-0.281 -9.556,-1.3 -10.289,-2.262c-1.593,-2.092 3.611,-20.316 5.472,-19.166c0.674,0.417 1.635,0.093 2.137,-0.719c0.502,-0.812 3.115,-1.477 5.806,-1.477c5.877,0 10.915,-5.454 10.915,-11.818c0,-6.407 4.793,-5.318 13.084,2.973c9,8.999 9.833,12.228 5.659,21.93c-3.701,8.602 -8.895,11.813 -18.333,11.332c-3.022,-0.154 -9.525,-0.511 -14.451,-0.793Zm10.316,-16.986c11.386,-3.426 15.081,-9.161 10.916,-16.943c-2.037,-3.806 -4.285,-2.166 -4.285,3.127c-0,5.361 -4.578,10.078 -9.806,10.104c-6.221,0.033 -10.533,1.579 -10.533,3.781c0,2.589 4.959,2.564 13.708,-0.069l-0,0Zm-109.732,-43.1c-2.587,-2.587 -2.895,-4.069 -2.038,-9.786c1.817,-12.12 6.342,-17.672 14.401,-17.672c7.105,0 11.042,11.307 7.326,21.037c-3.573,9.355 -13.513,12.597 -19.689,6.421Z" style="fill:#30553c;fill-rule:nonzero;"/></svg>