<?xml version="1.0" encoding="UTF-8" standalone="no"?><!DOCTYPE svg PUBLIC "-//W3C//DTD SVG 1.1//EN" "http://www.w3.org/Graphics/SVG/1.1/DTD/svg11.dtd"><svg width="100%" height="100%" viewBox="0 0 149 142" version="1.1" xmlns="http://www.w3.org/2000/svg" xmlns:xlink="http://www.w3.org/1999/xlink" xml:space="preserve" xmlns:serif="http://www.serif.com/" style="fill-rule:evenodd;clip-rule:evenodd;stroke-linejoin:round;stroke-miterlimit:2;"><path id="Portage-Sign" serif:id="Portage Sign" d="M60.431,139.741c-1.507,-1.815 -0.79,-2.695 4.046,-4.968c3.821,-1.797 4.111,-2.178 4.066,-5.349c-0.053,-3.739 -1.936,-14.711 -3.643,-21.223c-1.07,-4.08 -1.018,-4.261 4.152,-14.589c2.879,-5.752 6.011,-11.556 6.959,-12.897c1.706,-2.412 1.7,-2.516 -0.568,-9.462c-1.494,-4.577 -2.292,-9.09 -2.292,-12.954l-0,-5.93l-3.32,0.539c-6.439,1.045 -7.506,-0.91 -7.878,-14.429l-0.2,-7.291l-8.206,-2.573c-4.514,-1.415 -12.62,-3.981 -18.014,-5.702c-12.707,-4.056 -19.153,-4.221 -24.304,-0.623c-1.974,1.379 -4.022,3.431 -4.552,4.559c-1.287,2.745 -3.175,2.588 -5.151,-0.428c-2.034,-3.104 -2.035,-8.432 -0,-14.524c3.212,-9.626 12.305,-13.366 27.673,-11.382c4.324,0.558 9.93,1.816 12.458,2.796c2.529,0.979 8.7,2.842 13.715,4.139c13.428,3.474 29.77,8.396 40.12,12.084c5.015,1.788 13.66,4.785 19.211,6.661c23.976,8.105 32.605,16.007 33.863,31.012c0.485,5.781 0.337,6.535 -1.835,9.383c-1.299,1.704 -4.309,4.013 -6.689,5.131c-4.182,1.966 -4.368,1.978 -5.583,0.351c-0.73,-0.979 -1.071,-2.872 -0.813,-4.522c0.524,-3.356 -2.902,-9.13 -7.732,-13.032c-4.935,-3.986 -31.709,-14.148 -33.241,-12.616c-0.187,0.187 0.365,4.005 1.225,8.486c1.804,9.399 1.948,27.269 0.246,30.45c-0.599,1.12 -1.292,6.818 -1.539,12.662c-0.248,5.844 -0.788,11.702 -1.201,13.018c-0.576,1.832 -0.228,3.271 1.485,6.143c1.23,2.062 3.246,7.124 4.481,11.248c1.234,4.124 2.65,7.905 3.146,8.401c1.506,1.506 1.018,3.272 -1.149,4.153c-1.128,0.46 -3.282,1.678 -4.787,2.707c-1.504,1.03 -3.248,1.875 -3.875,1.878c-2.052,0.011 -1.223,-4.562 1.241,-6.846c2.712,-2.514 2.786,-2.304 -4.424,-12.491c-3.388,-4.787 -6.163,-12.929 -6.163,-18.086c0,-3.478 -0.701,-3.311 -4.46,1.059l-3.092,3.595l1.135,7.953c0.85,5.958 0.884,9.297 0.139,13.307c-0.548,2.945 -0.755,6.312 -0.461,7.483c0.592,2.359 0.067,2.58 -8.41,3.536c-3.488,0.394 -4.944,0.188 -5.777,-0.817l-0.002,0Zm12.542,-101.494c-0.237,-3.696 -0.579,-4.374 -2.33,-4.623c-1.896,-0.269 -2.051,0.059 -2.051,4.332c-0,4.349 0.137,4.622 2.329,4.622c2.21,0 2.315,-0.222 2.052,-4.331Z" style="fill:#30553c;fill-rule:nonzero;"/></svg>