<?xml version="1.0" encoding="UTF-8" standalone="no"?><!DOCTYPE svg PUBLIC "-//W3C//DTD SVG 1.1//EN" "http://www.w3.org/Graphics/SVG/1.1/DTD/svg11.dtd"><svg width="100%" height="100%" viewBox="0 0 190 156" version="1.1" xmlns="http://www.w3.org/2000/svg" xmlns:xlink="http://www.w3.org/1999/xlink" xml:space="preserve" xmlns:serif="http://www.serif.com/" style="fill-rule:evenodd;clip-rule:evenodd;stroke-linejoin:round;stroke-miterlimit:2;"><path id="Portage-Character" serif:id="Portage Character" d="M140.597,153.295c6.558,-3.615 10.209,-8.099 5.08,-16.721c-3.295,-5.539 -13.057,-9.406 -20.752,-32.497l-5.517,-9.255l-15.441,0.17c-4.349,0.09 -8.411,-0.941 -11.891,-4.254l-6.629,12.358c-2.084,4.539 -3.793,9.369 -3.798,10.732c-0.002,1.364 -1.812,8.086 -4.018,14.939c-4.365,13.566 -3.819,10.844 -14.808,7.245c-2.752,-0.901 -3.094,1.693 -2.696,4.143c0.616,3.793 9.586,10.57 15.631,10.661c3.805,0.057 4.975,-0.751 6.225,-4.301c3.547,-10.078 16.333,-32.123 21.345,-36.801l3.598,-4.832l2.035,4.099c1.685,5.241 4.767,6.003 9.393,13.304c2.026,3.198 13.481,12.368 16.062,15.781l2.536,4.152l-3.884,4.428c-2.136,2.436 -3.462,5.21 -2.945,6.164c1.177,2.176 3.863,4.13 10.474,0.485Zm-18.824,-64.136c0.978,-2.751 1.933,-25.22 0.582,-30.517c-0.6,-2.354 -2.719,-4.544 0.442,-8.24c4.061,-4.75 4.454,-6.137 4.555,-16.075c0.095,-9.422 -2.374,-11.349 -5.595,-15.708c-2.691,-3.641 -4.724,-4.908 -7.357,-4.584c-4.306,0.53 -6.132,4.411 -2.094,4.452c4.129,0.041 7.079,4.781 8.082,12.988c1.001,8.179 -1.004,11.798 -7.502,13.546c-2.789,0.75 -3.435,1.73 -2.876,4.361c0.397,1.867 1.115,8.245 1.595,14.173l0.874,10.78l-4.373,-0.045c-2.405,-0.024 -5.299,0.341 -6.43,0.812c-1.518,0.631 -2.674,-1.786 -4.408,-9.219c-1.293,-5.541 -2.675,-12.373 -3.072,-15.183c-0.418,-2.96 -1.71,-5.354 -3.072,-5.693c-1.293,-0.323 -5.382,-9.127 0.274,-7.846c5.656,1.28 11.611,2.059 13.233,1.731c3.059,-0.62 6.782,-5.659 9.039,-12.236c1.847,-5.379 -2.363,-6.974 -29.115,-11.03c-37.415,-5.672 -65.36,-4.972 -74.912,1.876c-4.928,3.533 -4.813,0.849 0.221,-5.114c8.135,-9.641 21.217,-10.943 61.905,-6.16c5.882,0.692 13.011,0.858 15.843,0.371c2.887,-0.497 6.512,0.005 8.252,1.145c1.707,1.117 13.139,3.512 25.404,5.323c34.647,5.115 58.463,13.134 61.3,20.641c0.813,2.15 -0.068,2.134 -5.171,-0.094c-3.382,-1.477 -13.912,-4.154 -23.399,-5.948c-9.488,-1.793 -17.899,-3.771 -20.77,-3.8c-4.28,-0.043 -5.099,0.451 -4.555,2.747c0.364,1.539 -0.185,-0.564 0.281,3.61c1.034,9.261 -7.042,13.012 17.687,15.463c9.497,0.941 18.772,2.231 20.611,2.866c1.961,0.676 4.669,4.168 6.547,8.443l3.203,7.289l4.233,-2.595c3.521,-2.159 4.645,-3.956 6.685,-10.688c4.399,-14.512 -0.27,-24.331 -13.784,-28.99c-12.958,-4.466 -38.434,-10.279 -58.745,-13.401c-11.808,-1.816 -17.91,-3.348 -17.804,-4.469c0.279,-2.963 -7.32,-4.499 -10.462,-2.115c-2.204,1.673 -6.001,1.687 -15.005,0.057c-13.87,-2.512 -42.559,-2.817 -52.434,-0.558c-15.605,3.57 -23.823,21.376 -17.595,38.124c1.498,4.028 3.096,7.453 3.552,7.61c0.456,0.157 1.717,-1.918 2.804,-4.612c4.165,-10.327 13.217,-13.324 35.366,-11.861c38.468,2.539 36.567,-0.033 41.729,15.268c0.142,0.42 2.088,7.55 3.973,16.019c2.326,10.455 3.121,17.381 2.476,21.577c-0.918,5.967 1.195,6.016 5.646,7.056c8.977,2.097 23.175,1.155 24.136,-1.547l-0,0Z" style="fill:#30553c;fill-rule:nonzero;"/></svg>