<?xml version="1.0" encoding="UTF-8" standalone="no"?><!DOCTYPE svg PUBLIC "-//W3C//DTD SVG 1.1//EN" "http://www.w3.org/Graphics/SVG/1.1/DTD/svg11.dtd"><svg width="100%" height="100%" viewBox="0 0 184 145" version="1.1" xmlns="http://www.w3.org/2000/svg" xmlns:xlink="http://www.w3.org/1999/xlink" xml:space="preserve" xmlns:serif="http://www.serif.com/" style="fill-rule:evenodd;clip-rule:evenodd;stroke-linejoin:round;stroke-miterlimit:2;"><path id="Portage-Character" serif:id="Portage Character" d="M123.931,142.59c6.417,-3.305 9.988,-7.408 4.962,-15.303c-3.23,-5.073 -6.809,-13.78 -14.358,-34.923l-5.406,-8.475l-15.116,0.145c-4.257,0.08 -8.234,-0.866 -11.643,-3.901l-6.482,11.308c-2.037,4.154 -3.706,8.574 -3.71,9.822c-0.002,1.248 -1.769,7.401 -3.924,13.673c-4.265,12.416 -3.732,9.925 -14.492,6.623c-2.694,-0.827 -3.027,1.547 -2.636,3.79c0.605,3.473 9.391,9.683 15.309,9.77c3.724,0.054 4.869,-0.685 6.09,-3.934c3.466,-9.223 15.969,-29.395 20.873,-33.674l3.518,-4.421l1.995,3.754c1.653,4.798 5.562,14.662 10.095,21.349c1.986,2.928 6.335,7.327 8.864,10.453l2.485,3.801l-3.8,4.052c-2.089,2.229 -3.385,4.767 -2.879,5.641c1.154,1.992 3.785,3.783 10.255,0.45Zm-12.491,-63.884c0.956,-2.518 1.877,-23.085 0.551,-27.935c-0.589,-2.155 -2.665,-4.162 0.427,-7.543c3.973,-4.345 4.357,-5.615 4.449,-14.713c0.087,-8.624 -2.331,-10.39 -5.488,-14.382c-2.636,-3.335 -4.627,-4.496 -7.204,-4.202c-4.216,0.483 -6,4.035 -2.047,4.075c4.042,0.04 6.932,4.381 7.92,11.895c0.985,7.487 -0.976,10.799 -7.336,12.395c-2.729,0.685 -3.361,1.581 -2.812,3.991c0.389,1.709 1.096,7.547 1.571,12.975l0.862,9.868l-4.281,-0.043c-2.355,-0.024 -5.187,0.308 -6.295,0.738c-1.485,0.577 -2.618,-1.636 -4.32,-8.442c-1.269,-5.073 -2.627,-11.328 -3.017,-13.9c-0.412,-2.711 -1.677,-4.902 -3.011,-5.214c-1.266,-0.296 2.333,-0.963 7.998,-1.481c5.665,-0.519 11.424,-1.556 12.797,-2.304c2.59,-1.411 4.195,-6.821 3.896,-13.135c-0.244,-5.165 -4.692,-5.331 -30.765,-1.153c-36.466,5.844 -61.919,14.461 -68.231,23.1c-3.258,4.458 -4.12,2.113 -1.645,-4.469c4.002,-10.64 15.565,-15.513 54.72,-23.062c5.66,-1.091 12.278,-2.992 14.707,-4.224c2.477,-1.256 5.992,-1.863 8.005,-1.38c1.973,0.473 13.354,-0.742 25.29,-2.699c33.717,-5.53 58.521,-5.451 63.842,0.203c1.524,1.62 0.709,1.858 -4.79,1.402c-3.645,-0.303 -14.298,0.411 -23.673,1.587c-9.375,1.175 -19.345,2.114 -22.155,2.085c-4.19,-0.042 -4.992,0.41 -4.458,2.511c0.358,1.41 1.027,5.689 1.486,9.509c1.018,8.48 1.236,8.511 24.868,3.53c9.076,-1.912 18.074,-3.462 19.995,-3.442c2.048,0.021 5.799,2.252 9.071,5.397l5.579,5.362l2.956,-3.45c2.459,-2.87 2.844,-4.741 2.29,-11.126c-1.195,-13.765 -9.036,-20.887 -23.149,-21.025c-13.533,-0.132 -39.067,2.167 -58.878,5.302c-11.517,1.822 -17.684,2.252 -17.991,1.255c-0.813,-2.632 -8.358,-1.776 -10.387,1.179c-1.424,2.073 -4.911,3.175 -13.783,4.352c-13.665,1.814 -40.165,9.779 -48.433,14.557c-13.065,7.552 -14.193,25.251 -2.415,37.895c2.832,3.041 5.54,5.533 6.015,5.538c0.476,0.005 0.887,-2.145 0.914,-4.778c0.102,-10.092 7.334,-15.306 28.248,-20.363c15.579,-3.767 31.716,-6.672 32.612,-5.718c0.295,0.313 2.049,6.913 3.899,14.666c2.284,9.572 3.067,15.913 2.438,19.754c-0.894,5.461 1.174,5.508 5.532,6.463c8.789,1.925 22.687,1.072 23.626,-1.401l0,0Z" style="fill:#30553c;fill-rule:nonzero;"/></svg>