<?xml version="1.0" encoding="UTF-8" standalone="no"?><!DOCTYPE svg PUBLIC "-//W3C//DTD SVG 1.1//EN" "http://www.w3.org/Graphics/SVG/1.1/DTD/svg11.dtd"><svg width="100%" height="100%" viewBox="0 0 150 164" version="1.1" xmlns="http://www.w3.org/2000/svg" xmlns:xlink="http://www.w3.org/1999/xlink" xml:space="preserve" xmlns:serif="http://www.serif.com/" style="fill-rule:evenodd;clip-rule:evenodd;stroke-linejoin:round;stroke-miterlimit:2;"><path id="Hollow-Tree-Svgs" serif:id="Hollow Tree Svgs" d="M40.91,162.604c0,-0.579 -1.327,-1.054 -2.95,-1.054c-1.623,0 -3.402,-0.423 -3.952,-0.94c-1.251,-1.176 -7.852,-0.232 -7.852,1.122c0,0.548 -0.474,0.704 -1.054,0.346c-0.579,-0.358 -1.054,-1.759 -1.054,-3.112c0,-2.791 3.07,-4.507 4.395,-2.457c0.636,0.984 1.054,0.701 1.53,-1.04c0.519,-1.892 0.96,-2.141 2.108,-1.189c1.153,0.957 1.452,0.763 1.452,-0.944c0,-1.182 0.5,-2.315 1.112,-2.519c0.611,-0.204 1.216,-1.088 1.345,-1.966c0.129,-0.877 1.211,-3.003 2.406,-4.723c1.194,-1.72 2.471,-3.958 2.837,-4.972c0.366,-1.015 1.125,-1.845 1.686,-1.845c1.262,0 0.282,6.966 -1.465,10.411c-0.941,1.856 -0.972,3.153 -0.117,4.997c1.579,3.407 3.061,2.613 4.316,-2.312c1.686,-6.617 4.032,-8.898 5.07,-4.928c0.409,1.566 0.5,1.585 0.604,0.123c0.132,-1.858 4.65,-3.596 5.197,-2c0.182,0.533 1.012,0.707 1.844,0.388c1.011,-0.388 1.513,0.135 1.513,1.577c-0,1.188 0.474,2.452 1.053,2.81c0.58,0.358 1.054,0.164 1.054,-0.432c0,-0.595 0.665,-0.828 1.477,-0.516c1.206,0.463 1.159,-0.315 -0.256,-4.249c-0.952,-2.648 -2.317,-4.815 -3.032,-4.815c-1.327,0 -5.566,-7.739 -5.566,-10.16c-0,-0.733 -0.533,-2.503 -1.184,-3.932l-1.184,-2.598l-4.818,5.199l-1.677,-2.393c-0.922,-1.316 -1.676,-3.252 -1.676,-4.302c0,-1.421 -0.664,-1.821 -2.595,-1.562c-1.427,0.191 -2.929,0.681 -3.337,1.09c-1.376,1.375 -2.07,0.759 -3.453,-3.068c-1.26,-3.484 -1.188,-4.001 0.842,-6.031c2.187,-2.187 2.22,-2.189 2.22,-0.105c-0,1.945 0.615,2.096 7.657,1.878c7.585,-0.235 7.677,-0.205 9.67,3.125c1.593,2.661 2.1,2.978 2.432,1.518c0.486,-2.14 1.996,-2.441 2.64,-0.527c0.353,1.05 0.766,1.052 2.029,0.008c0.872,-0.719 1.898,-0.996 2.279,-0.615c1.414,1.414 0.63,-1.093 -1.337,-4.276c-3.264,-5.281 -5.738,-13.458 -4.334,-14.326c1.712,-1.058 -1.34,-3.399 -3.4,-2.609c-1.155,0.443 -2.087,-0.659 -3.348,-3.961c-1.663,-4.355 -1.939,-4.565 -5.715,-4.353c-2.774,0.154 -4.864,-0.493 -6.943,-2.151c-2.826,-2.252 -2.911,-2.567 -1.699,-6.24c1.52,-4.605 3.123,-5.857 4.713,-3.683c0.886,1.212 1.593,1.318 2.973,0.448c1.419,-0.895 2.123,-0.716 3.249,0.824c0.79,1.081 2.107,1.728 2.926,1.436c0.819,-0.291 2.391,-0.064 3.493,0.505c1.708,0.881 1.884,0.743 1.193,-0.933c-0.446,-1.082 -0.943,-4.338 -1.105,-7.237c-0.278,-4.993 -2.941,-13.581 -4.885,-15.755c-0.493,-0.551 -0.895,-2.27 -0.895,-3.82c-0,-1.55 -0.671,-4.717 -1.489,-7.039c-0.836,-2.368 -1.501,-8.256 -1.515,-13.415c-0.016,-5.057 -0.247,-9.417 -0.518,-9.687c-0.27,-0.27 -1.278,2.969 -2.24,7.198c-0.962,4.23 -2.44,8.413 -3.285,9.296c-0.845,0.883 -4.338,5.874 -7.763,11.091c-5.962,9.082 -6.745,12.379 -2.495,10.498c3.382,-1.496 7.712,-1.603 7.712,-0.191c-0,0.728 -1.186,3.068 -2.635,5.201c-1.449,2.132 -2.635,4.192 -2.635,4.577c0,0.384 -2.845,3.554 -6.323,7.042c-4.039,4.052 -6.323,7.215 -6.323,8.755c-0,1.327 -0.321,3.248 -0.713,4.269c-0.665,1.732 -0.551,1.744 1.702,0.166c2.65,-1.856 5.334,-1.405 5.334,0.897c0,1.931 0.988,1.854 3.32,-0.256c1.728,-1.564 1.965,-1.569 2.546,-0.055c0.638,1.662 -2.474,8.103 -3.914,8.103c-0.416,-0 -1.031,0.865 -1.366,1.922c-0.335,1.057 -1.449,2.835 -2.474,3.952c-1.025,1.116 -3.264,3.927 -4.974,6.245c-1.711,2.319 -4.842,5.995 -6.959,8.169c-3.3,3.389 -5.799,8.899 -4.593,10.123c0.204,0.206 3.147,-1.572 6.54,-3.952c7.444,-5.222 8.733,-5.439 5.367,-0.903c-1.397,1.884 -2.461,4.018 -2.364,4.743c0.097,0.724 0.236,1.865 0.308,2.534c0.083,0.765 0.849,0.569 2.059,-0.527c1.06,-0.959 2.231,-1.744 2.602,-1.744c1.808,0 -4.175,10.162 -9.153,15.545c-2.918,3.156 -2.995,3.425 -0.975,3.425c1.305,0 2.414,0.853 2.742,2.107c0.647,2.474 -1.096,4.018 -1.969,1.744c-0.76,-1.98 -5.54,-0.753 -9.646,2.476c-5.988,4.71 -3.275,-0.275 4.589,-8.434c8.098,-8.402 10.062,-11.593 7.135,-11.593c-1.107,-0 -1.32,-0.747 -0.803,-2.808c0.616,-2.457 0.454,-2.707 -1.297,-2c-5.785,2.334 -7.984,2.854 -9.544,2.256c-0.945,-0.363 -1.417,-0.96 -1.049,-1.328c0.367,-0.368 0.152,-1.291 -0.479,-2.051c-1.294,-1.559 1.13,-5.254 5.919,-9.02c4.266,-3.356 16.38,-19.94 15.543,-21.279c-0.407,-0.651 -0.837,-1.819 -0.954,-2.597c-0.339,-2.235 -1.357,-2.766 -2.709,-1.414c-1.738,1.738 -5.041,1.56 -5.041,-0.272c0,-0.835 0.482,-1.816 1.071,-2.18c1.575,-0.974 0.178,-2.633 -1.632,-1.939c-3.489,1.339 -1.018,-2.438 8.465,-12.941c5.507,-6.098 10.012,-11.526 10.012,-12.063c0,-1.315 -1.82,-1.239 -2.654,0.112c-0.382,0.617 -2.166,0.805 -4.131,0.437c-2.645,-0.496 -3.616,-0.24 -4.126,1.088c-0.366,0.956 -1.141,1.445 -1.72,1.086c-1.27,-0.784 1.867,-7.284 5.731,-11.877c1.476,-1.755 2.685,-3.523 2.685,-3.93c-0,-0.406 0.923,-2.035 2.052,-3.62c2.613,-3.671 12.073,-22.05 13.593,-26.412c1.122,-3.218 1.214,-3.259 3.147,-1.401c1.258,1.209 2.237,4.088 2.656,7.814c0.365,3.245 1.38,7.929 2.255,10.408c0.874,2.479 1.59,7.034 1.59,10.122c-0,6.264 0.859,8.658 6.423,17.894c4.712,7.823 5.843,11.005 3.913,11.005c-0.769,-0 -1.99,-0.949 -2.714,-2.108c-1.685,-2.698 -5.063,-2.93 -3.84,-0.263c0.465,1.014 0.961,3.978 1.101,6.587c0.141,2.608 0.953,6.876 1.807,9.485c3.701,11.316 5.031,16.904 4.455,18.718c-0.339,1.069 0.082,2.867 0.936,3.995c0.854,1.129 1.567,3.389 1.586,5.022c0.028,2.421 -0.328,2.854 -1.926,2.348c-1.097,-0.349 -2.505,0.035 -3.2,0.874c-0.683,0.822 -2.159,1.255 -3.28,0.962c-1.753,-0.458 -1.354,0.992 2.847,10.35c3.697,8.234 4.962,12.409 5.197,17.146c0.171,3.445 0.805,6.756 1.407,7.359c1.549,1.549 1.36,3.509 -0.405,4.186c-0.825,0.317 -2.792,-0.699 -4.37,-2.258c-2.436,-2.406 -2.687,-2.486 -1.661,-0.533c1.593,3.033 1.563,3.156 -0.917,3.805c-1.17,0.306 -2.8,-0.117 -3.623,-0.94c-1.292,-1.292 -1.714,-1.185 -3.096,0.788c-1.338,1.911 -1.867,2.064 -3.228,0.934c-1.354,-1.123 -1.628,-1.063 -1.628,0.36c0,1.292 -1.029,1.71 -4.215,1.71c-2.319,-0 -4.216,-0.475 -4.216,-1.054l0,0Zm47.56,-5.547c-8.178,-4.183 -9.628,-6.171 -9.559,-13.109c0.032,-3.36 0.415,-8.007 0.848,-10.325l0.786,-4.216l1.759,8.431l2.061,-7.377l1.412,5.269c0.776,2.898 1.432,6.953 1.458,9.011c0.058,4.697 1.36,6.022 5.34,5.438c3.386,-0.497 3.664,-0.951 2.067,-3.383c-0.922,-1.405 -1.153,-1.405 -2.075,0c-0.745,1.135 -1.042,-0.119 -1.054,-4.446c-0.016,-5.3 0.206,-5.945 1.828,-5.346c1.015,0.374 2.193,1.189 2.619,1.811c0.428,0.626 0.781,-0.02 0.79,-1.441c0.016,-2.331 0.536,-2.034 5.547,3.161c3.042,3.154 5.437,6.02 5.321,6.368c-0.115,0.349 0.953,0.413 2.374,0.141c3.134,-0.599 3.213,-1.615 0.468,-6.056c-1.164,-1.882 -3.534,-6.863 -5.268,-11.068c-1.734,-4.205 -4.339,-8.745 -5.789,-10.089c-2.058,-1.907 -2.62,-3.436 -2.563,-6.972c0.041,-2.492 0.458,-5.478 0.927,-6.637c0.749,-1.852 0.985,-1.659 1.939,1.58c0.796,2.705 1.111,3.057 1.181,1.318c0.128,-3.207 2.203,-3.04 2.203,0.177c-0,3.451 1.068,5.998 2.218,5.287c1.76,-1.088 0.954,-6.699 -1.841,-12.811c-1.532,-3.35 -3.883,-9.173 -5.225,-12.941c-1.342,-3.767 -2.46,-6.257 -2.485,-5.532c-0.024,0.724 -0.519,1.317 -1.098,1.317c-0.58,-0 -1.054,-2.371 -1.054,-5.27c-0,-2.898 0.271,-5.269 0.602,-5.269c0.92,0 3.2,2.483 3.888,4.234c0.483,1.231 0.63,1.171 0.696,-0.282c0.088,-1.946 3.643,-6.06 5.238,-6.06c1.049,0 4.33,7.604 4.33,10.033c0,2.151 -1.024,1.956 -3.897,-0.744l-2.452,-2.303l0.608,3.621c0.914,5.444 5.815,17.643 9.686,24.109c3.385,5.656 4.379,9.547 2.438,9.547c-0.547,0 -1.732,-1.054 -2.635,-2.342l-1.64,-2.342l-0,2.869c-0,1.578 -0.525,2.869 -1.167,2.869c-0.644,0 -0.872,0.768 -0.508,1.715c0.383,1 -0.061,2.24 -1.065,2.974c-1.591,1.164 -1.584,1.537 0.095,4.873c1,1.986 2.687,4.323 3.749,5.193c2.048,1.677 9.435,14.222 9.435,16.022c-0,0.586 -0.672,0.807 -1.494,0.492c-0.821,-0.315 -1.74,0.069 -2.041,0.854c-0.831,2.164 2.357,2.862 4.909,1.074c3.02,-2.115 4.596,-1.991 5.225,0.413c0.677,2.589 6.673,3.558 14.785,2.389c3.559,-0.513 6.349,-0.482 6.692,0.074c0.98,1.585 -0.406,2.182 -5.692,2.452c-2.772,0.142 -7.149,0.826 -9.726,1.52c-3.38,0.91 -4.794,0.937 -5.073,0.098c-0.214,-0.639 -0.875,-0.862 -1.47,-0.494c-0.595,0.368 -1.467,0.045 -1.937,-0.716c-0.701,-1.133 -1.154,-1.137 -2.497,-0.024c-0.963,0.799 -3.392,1.195 -5.877,0.958c-2.329,-0.222 -4.235,-0.054 -4.235,0.374c-0,0.427 -3.818,0.641 -8.483,0.476c-4.666,-0.166 -8.725,0.09 -9.02,0.568c-0.78,1.261 -1.489,1.098 -6.602,-1.517l-0,0.002Zm-58.431,-8.943c-0.645,-1.115 0.486,-3.625 3.119,-6.921c3.481,-4.357 3.846,-3.369 0.902,2.441c-2.708,5.345 -3.202,5.895 -4.021,4.48Zm40.38,-3.843c0,-2.483 3.238,-13.659 4.153,-14.337c0.392,-0.29 1.568,-1.712 2.615,-3.161c2.282,-3.159 2.068,-2.185 -2.087,9.484c-2.957,8.307 -4.681,11.258 -4.681,8.014Zm-45.07,-4.022c-0.274,-1.046 -1.01,-1.546 -1.684,-1.143c-0.659,0.395 -0.529,-0.106 0.289,-1.113c0.817,-1.007 2.121,-1.588 2.898,-1.29c0.777,0.298 1.445,-0.035 1.486,-0.742c0.101,-1.754 1.867,2.491 1.96,4.71c0.1,2.42 -4.304,2.044 -4.949,-0.422l-0,-0Zm59.22,-22.499c0.51,-2.033 0.106,-3.163 -1.636,-4.573c-2.233,-1.808 -2.264,-2.097 -0.889,-8.295c1.286,-5.794 1.543,-6.197 2.627,-4.122c0.661,1.265 1.756,2.182 2.433,2.037c0.692,-0.148 1.231,0.941 1.231,2.484c0,1.938 0.44,2.579 1.494,2.174c1.807,-0.693 2.737,1.366 2.133,4.725c-0.244,1.36 0.453,-0.135 1.55,-3.323l1.994,-5.797l0.103,7.675c0.095,7.038 -0.094,7.749 -2.268,8.571c-3.596,1.359 -4.27,0.307 -3.582,-5.586c0.424,-3.623 0.299,-4.872 -0.381,-3.809c-0.556,0.869 -1.018,2.851 -1.027,4.403c-0.016,2.491 -2.327,6.136 -3.894,6.136c-0.311,-0 -0.261,-1.215 0.112,-2.7l-0,-0Zm-14.183,-12.318c-0.032,-3.24 -0.117,-3.315 -1.581,-1.38c-1.324,1.751 -1.547,1.794 -1.547,0.295c-0,-0.964 1.541,-3.945 3.425,-6.626l3.425,-4.875l0.319,4.789c0.192,2.886 -0.342,6.066 -1.345,8.005c-2.115,4.092 -2.655,4.05 -2.696,-0.208l-0,-0Zm5.204,-1.652c1.129,-2.212 2.863,-4.695 3.854,-5.517c1.299,-1.078 1.022,0.043 -0.995,4.022c-1.538,3.035 -3.272,5.518 -3.853,5.518c-0.582,-0 -0.135,-1.81 0.994,-4.023Zm-11.471,-7.091c-0.012,-0.606 2.547,-6.137 5.689,-12.292c3.141,-6.155 5.478,-11.424 5.192,-11.711c-0.286,-0.286 0.226,-1.963 1.138,-3.727c2.105,-4.071 2.142,-6.674 0.055,-3.916c-3,3.965 -2.976,0.453 0.036,-5.485c1.682,-3.317 4.104,-8.639 5.381,-11.827c1.304,-3.256 3.287,-6.252 4.523,-6.837c1.211,-0.572 2.201,-1.848 2.201,-2.836c0,-0.987 0.474,-2.088 1.054,-2.447c0.58,-0.358 1.054,0.275 1.054,1.408c0,1.133 1.177,3.176 2.616,4.541c1.44,1.366 2.625,3.103 2.635,3.862c0.012,0.759 0.423,1.129 0.918,0.823c0.495,-0.306 1.433,0.615 2.085,2.046c1.376,3.02 2.828,3.344 3.787,0.845c1.194,-3.111 2.75,-0.004 4.71,9.407c1.379,6.62 2.923,10.581 5.828,14.958c2.228,3.357 3.685,6.65 3.341,7.548c-0.892,2.323 -2.119,1.135 -5.278,-5.106c-3.518,-6.95 -4.758,-8.993 -7.732,-12.74c-1.304,-1.643 -2.371,-3.589 -2.371,-4.324c-0,-2.682 -3.606,-4.603 -8.124,-4.326l-4.436,0.271l-0.69,-4.6c-0.38,-2.53 -0.992,-4.565 -1.361,-4.522c-0.369,0.043 -2.466,3.657 -4.661,8.032c-2.719,5.419 -3.472,7.754 -2.364,7.328c1.367,-0.524 1.522,0.087 0.966,3.825c-1.054,7.08 -16.09,36.613 -16.193,31.802l0.001,-0Zm18.656,-13.824c-0.31,-1.624 0.102,-4.242 0.917,-5.817c1.618,-3.129 1.978,-7.185 0.638,-7.185c-0.463,-0 -1.488,0.592 -2.278,1.317c-0.789,0.724 -0.377,-0.224 0.915,-2.108c1.293,-1.884 2.792,-3.425 3.332,-3.425c1.288,-0 1.249,5.682 -0.087,12.729c-1.279,6.743 -2.661,8.548 -3.437,4.489l0,0Zm5.435,0.435c-0.43,-4.54 1.05,-9.222 2.915,-9.222c1.398,0 1.572,0.767 0.995,4.379c-0.385,2.408 -0.948,4.779 -1.251,5.269c-0.828,1.341 -2.517,1.07 -2.659,-0.426Zm28.727,-29.281c-1.369,-1.14 -3.147,-2.072 -3.952,-2.072c-0.805,-0 -1.464,-0.475 -1.464,-1.054c-0,-0.58 -0.54,-0.936 -1.199,-0.791c-1.418,0.312 -7.106,-9.778 -10.544,-18.706c-1.339,-3.478 -2.592,-5.534 -2.783,-4.569c-0.479,2.412 -3.326,3.328 -4.097,1.318c-0.345,-0.898 -0.372,-4.447 -0.06,-7.886c0.312,-3.447 0.139,-6.252 -0.387,-6.252c-0.525,-0 -0.954,0.416 -0.954,0.925c0,1.682 -9.628,18.545 -11.356,19.889c-3.228,2.511 -3.453,1.293 -0.679,-3.689c5.569,-10.005 8.32,-14.571 11.219,-18.624c1.626,-2.273 3.249,-5.959 3.606,-8.191c1.124,-7.028 2.206,-5.362 2.711,4.174c0.291,5.48 1.238,10.91 2.342,13.42c6.288,14.299 9.751,20.41 12.888,22.746c1.882,1.401 5.125,4.563 7.206,7.026c3.033,3.59 3.408,4.472 1.888,4.444c-1.043,-0.02 -3.017,-0.968 -4.385,-2.108l-0,0Z" style="fill:#30553c;fill-rule:nonzero;"/></svg>