<?xml version="1.0" encoding="UTF-8" standalone="no"?><!DOCTYPE svg PUBLIC "-//W3C//DTD SVG 1.1//EN" "http://www.w3.org/Graphics/SVG/1.1/DTD/svg11.dtd"><svg width="100%" height="100%" viewBox="0 0 65 144" version="1.1" xmlns="http://www.w3.org/2000/svg" xmlns:xlink="http://www.w3.org/1999/xlink" xml:space="preserve" xmlns:serif="http://www.serif.com/" style="fill-rule:evenodd;clip-rule:evenodd;stroke-linejoin:round;stroke-miterlimit:2;"><path id="Hollow-Tree-Svgs" serif:id="Hollow Tree Svgs" d="M24.071,141.307c-1.263,-2.773 -5.005,-4.001 -7.662,-2.514c-2.431,1.36 -7.398,-1.3 -7.81,-4.182c-0.391,-2.742 0.686,-2.989 3.561,-0.814c2.529,1.913 5.922,2.043 7.732,0.297c1.098,-1.06 1.66,-0.884 2.873,0.901c1.372,2.02 1.94,2.12 6.331,1.115c6,-1.373 9.087,-5.101 6.426,-7.762c-1.521,-1.521 -1.731,-1.33 -2.388,2.171c-0.669,3.565 -2.764,5.065 -4.087,2.925c-0.31,-0.502 -0.858,-5.6 -1.218,-11.329c-0.359,-5.729 -0.83,-10.599 -1.046,-10.822c-0.215,-0.224 -1.576,0.369 -3.022,1.317c-2.932,1.921 -5.287,2.289 -4.286,0.67c0.906,-1.466 -0.572,-1.255 -3.688,0.527c-3.848,2.199 -5.27,1.915 -5.27,-1.054c0,-2.981 -1.224,-3.389 -3.162,-1.054c-0.721,0.869 -1.728,1.581 -2.236,1.581c-0.509,-0 -0.925,-0.712 -0.925,-1.581c-0,-0.878 -0.937,-1.581 -2.108,-1.581c-2.912,-0 -2.739,-3.558 0.292,-5.983c4.161,-3.331 9.331,-10.516 10.211,-14.191c0.466,-1.946 1.191,-4.374 1.612,-5.395c0.588,-1.424 0.371,-1.704 -0.932,-1.204c-1.122,0.43 -1.698,0.084 -1.698,-1.022c-0,-1.377 -0.84,-1.558 -4.743,-1.024c-3.028,0.416 -4.742,0.25 -4.742,-0.459c-0,-0.61 0.356,-1.267 0.79,-1.46c0.435,-0.194 1.762,-2.249 2.95,-4.567c1.187,-2.319 2.729,-4.275 3.425,-4.347c0.696,-0.073 1.686,-0.191 2.2,-0.264c2.961,-0.418 7.448,-18.202 5.258,-20.84c-0.908,-1.095 -1.818,-0.847 -4.553,1.239c-3.418,2.607 -5.855,3.345 -5.855,1.773c0,-0.459 2.866,-3.582 6.368,-6.941c3.503,-3.358 7.652,-8.08 9.221,-10.494c1.569,-2.414 3.564,-5.017 4.434,-5.785c1.199,-1.057 1.219,-1.207 0.086,-0.617c-1.154,0.6 -1.303,0.316 -0.649,-1.239c2.644,-6.285 3.638,-9.768 3.68,-12.882c0.031,-2.306 0.447,-3.239 1.231,-2.755c0.772,0.477 1.01,3.179 0.684,7.742c-0.55,7.681 -5.102,17.688 -9.89,21.74c-2.279,1.928 -2.43,2.518 -1.402,5.469c0.823,2.36 1.628,3.124 2.811,2.67c1.323,-0.507 1.526,-0.11 1.005,1.967c-1.13,4.501 -4.96,12.439 -6.924,14.351c-2.673,2.602 -3.782,5.944 -1.709,5.148c2.444,-0.938 1.895,0.788 -1.071,3.367l-2.665,2.317l5.742,7.196l3.412,-3.617c3.819,-4.05 4.606,-4.379 4.606,-1.924c0,1.112 0.573,1.474 1.667,1.054c0.917,-0.351 2.071,-0.639 2.564,-0.639c0.493,-0 1.218,-1.012 1.61,-2.247c0.558,-1.758 0.91,-1.93 1.615,-0.791c0.755,1.219 1.381,1.168 3.837,-0.313c2.159,-1.302 3.074,-2.833 3.462,-5.796c0.335,-2.567 0.836,-3.549 1.379,-2.71c1.333,2.059 2.547,1.559 3.277,-1.35c0.493,-1.964 -0.155,-3.865 -2.46,-7.215c-3.378,-4.91 -5.183,-10.141 -3.5,-10.141c0.568,-0 1.358,-2.455 1.756,-5.455c0.591,-4.46 0.359,-5.951 -1.274,-8.168c-1.098,-1.492 -2.311,-4.847 -2.694,-7.455c-0.519,-3.537 -0.415,-4.273 0.408,-2.898c1.837,3.068 3.031,2.07 1.891,-1.581c-4,-12.809 -5.129,-18.804 -3.954,-20.998c1.734,-3.241 2.645,-1.093 4.109,9.689c2.032,14.965 4.548,21.781 12.391,33.573c4.538,6.823 6.341,12.394 2.6,8.035c-1.96,-2.283 -5.498,-3.37 -5.498,-1.689c-0,0.571 0.426,1.301 0.947,1.623c0.521,0.322 1.763,4.252 2.76,8.734c0.997,4.482 2.942,9.81 4.322,11.841c3.471,5.107 3.33,8.239 -0.389,8.667c-5.395,0.62 -3.686,7.502 5.133,20.673c1.669,2.493 3.035,5.639 3.035,6.991c0,2.11 -0.47,2.423 -3.312,2.199c-2.016,-0.158 -4.085,-1.245 -5.287,-2.776l-1.975,-2.515l0.979,2.723c1.102,3.066 0.444,4.51 -2.261,4.964c-1.094,0.184 -1.844,-0.352 -1.844,-1.317c-0,-1.785 -1.631,-2.197 -2.585,-0.654c-0.331,0.535 -2.273,0.765 -4.316,0.512l-3.715,-0.461l0.65,5.548c0.357,3.051 1.085,6.922 1.619,8.603c0.533,1.68 0.969,4.112 0.969,5.404c0,2.901 2.21,4.9 4.116,3.722c0.817,-0.505 2.574,-0.281 4.18,0.534c1.523,0.772 3.679,1.681 4.791,2.02c1.391,0.423 1.681,0.954 0.931,1.705c-1.402,1.401 -14.057,-0.958 -15.715,-2.929c-1.68,-1.999 -2.518,-1.72 -2.518,0.839c-0,1.832 -0.488,2.137 -2.731,1.708c-3.359,-0.642 -8.862,1.309 -8.862,3.142c0,2.256 -2.08,1.51 -3.308,-1.185l-0,-0Zm-1.439,-34.351c0.37,0 0.373,0.949 0.004,2.108c-0.835,2.63 0.694,2.727 2.99,0.19c1.533,-1.695 1.556,-2.155 0.197,-3.952c-3.152,-4.166 -0.775,-8.968 2.49,-5.03c0.935,1.127 3.376,3.276 5.425,4.774c3.992,2.92 9.018,3.205 10.994,0.622c0.599,-0.783 1.875,-1.261 2.835,-1.063c0.961,0.198 2.029,-0.098 2.375,-0.657c0.943,-1.525 -2.936,-9.788 -6.043,-12.874c-1.501,-1.489 -3.208,-3.97 -3.794,-5.512c-0.724,-1.904 -1.589,-2.604 -2.694,-2.18c-0.896,0.344 -2.334,0.04 -3.196,-0.676c-1.329,-1.103 -1.567,-0.811 -1.567,1.927c-0,3.713 -1.825,5.465 -2.738,2.63c-2.355,-7.319 -4.786,-8.188 -3.873,-1.384c0.459,3.426 0.243,4.215 -1.155,4.215c-0.945,0 -2.657,-0.938 -3.803,-2.084c-2.54,-2.54 -4.875,-1.835 -5.772,1.741c-0.68,2.706 -8.699,14.044 -9.934,14.044c-0.37,-0 -1.318,1.067 -2.105,2.371c-1.125,1.863 -1.134,2.089 -0.043,1.054c1.916,-1.818 3.907,-1.65 4.315,0.364c0.294,1.446 0.737,1.369 3.166,-0.546c3.266,-2.575 4.51,-1.494 2.964,2.574l-1.077,2.832l4.682,-2.744c2.575,-1.509 4.985,-2.744 5.356,-2.744l0.001,0Z" style="fill:#30553c;fill-rule:nonzero;"/></svg>