<?xml version="1.0" encoding="UTF-8" standalone="no"?><!DOCTYPE svg PUBLIC "-//W3C//DTD SVG 1.1//EN" "http://www.w3.org/Graphics/SVG/1.1/DTD/svg11.dtd"><svg width="100%" height="100%" viewBox="0 0 65 159" version="1.1" xmlns="http://www.w3.org/2000/svg" xmlns:xlink="http://www.w3.org/1999/xlink" xml:space="preserve" xmlns:serif="http://www.serif.com/" style="fill-rule:evenodd;clip-rule:evenodd;stroke-linejoin:round;stroke-miterlimit:2;"><path id="Hollow-Tree-Svgs" serif:id="Hollow Tree Svgs" d="M27.594,157.123c-1.574,-1.704 -9.535,-1.74 -11.673,-0.053c-1.063,0.838 -1.771,0.664 -2.751,-0.675c-0.726,-0.993 -1.86,-1.805 -2.521,-1.805c-0.66,-0 -1.201,-0.474 -1.201,-1.054c0,-0.58 0.921,-1.054 2.046,-1.054c1.125,0 2.319,-0.443 2.654,-0.984c0.334,-0.542 2.156,-0.734 4.047,-0.427l3.439,0.558l0.251,-6.16c0.138,-3.388 0.498,-6.95 0.8,-7.916c0.302,-0.966 0.056,-2.061 -0.547,-2.433c-0.603,-0.373 -1.097,-1.599 -1.097,-2.724c0,-2.143 -2.56,-2.817 -3.699,-0.974c-0.364,0.589 -1.111,0.793 -1.66,0.454c-0.549,-0.34 -0.683,-1.128 -0.297,-1.752c0.466,-0.753 -0.185,-0.912 -1.934,-0.473c-3.531,0.886 -4.35,-0.195 -2.401,-3.168c0.885,-1.351 1.476,-2.456 1.314,-2.456c-0.162,0 -1.769,0.423 -3.572,0.94c-5.643,1.619 -6.396,-0.107 -2.447,-5.605c1.975,-2.751 4.101,-4.662 4.86,-4.371c0.742,0.285 1.801,-0.289 2.352,-1.274c1.488,-2.658 2.594,-0.799 1.141,1.916c-0.969,1.811 -0.962,2.151 0.032,1.536c2.204,-1.362 3.091,1.806 1.414,5.05c-0.87,1.682 -1.345,3.295 -1.056,3.584c0.41,0.41 3.206,-3.388 6.597,-8.962c0.48,-0.789 4.625,2.54 4.625,3.714c0,0.71 0.901,1.773 2.003,2.362c1.515,0.811 2.148,0.692 2.601,-0.49c0.919,-2.394 3.312,-1.859 4.892,1.095c2.019,3.771 3.753,1.643 2.228,-2.734c-1.514,-4.342 -1.536,-7.641 -0.045,-6.72c0.68,0.421 1.056,-0.085 0.932,-1.255c-0.334,-3.158 -0.028,-4.594 0.976,-4.594c0.906,0 2.416,4.034 2.789,7.45c0.192,1.763 1.823,3.975 8.127,11.025c3.818,4.269 4.95,6.818 3.027,6.818c-0.508,0 -1.515,-0.711 -2.236,-1.581c-0.722,-0.869 -2.008,-1.58 -2.859,-1.58c-0.85,-0 -2.411,-1.067 -3.469,-2.372c-2.517,-3.105 -3.471,-2.005 -1.977,2.281c1.661,4.766 -0.283,6.718 -3.265,3.279c-1.172,-1.351 -2.131,-1.91 -2.131,-1.242c0,0.668 -1.244,1.215 -2.764,1.215c-2.447,0 -2.598,0.198 -1.317,1.731c0.795,0.952 1.921,5.102 2.5,9.222c0.906,6.436 1.351,7.49 3.162,7.49c1.159,0 2.7,0.384 3.425,0.853c0.741,0.479 1.317,0.396 1.317,-0.19c0,-1.325 5.635,0.225 9.121,2.509c5.873,3.848 -1.509,4.961 -10.427,1.571c-3.049,-1.159 -5.607,-2.107 -5.684,-2.108c-0.078,0 -0.409,1.026 -0.738,2.281c-0.434,1.662 -0.968,2.002 -1.967,1.253c-1.52,-1.141 -2.942,-1.205 -4.532,-0.203c-0.58,0.364 -1.662,0.008 -2.405,-0.798l0,0Zm2.986,-6.715c-0.959,-0.593 -0.98,-2.303 -0.089,-7.216c1.065,-5.874 0.986,-6.62 -0.892,-8.499c-2.713,-2.712 -3.289,-1.91 -3.289,4.581c0,2.975 -0.437,5.86 -0.972,6.411c-0.536,0.55 -0.722,2.279 -0.416,3.84c0.414,2.107 1.276,2.922 3.344,3.162c2.995,0.347 4.37,-1.008 2.314,-2.279l-0,-0Zm29.292,-19.304c-2.465,-2.056 -6.161,-8.893 -6.161,-11.397c0,-0.496 2.016,1.285 4.479,3.958c2.464,2.672 4.479,5.23 4.479,5.685c0,0.454 0.356,1.181 0.791,1.616c0.435,0.435 0.79,1.185 0.79,1.668c0,1.438 -1.41,0.945 -4.378,-1.53Zm-1.945,-16.034c-1.361,-1.449 -3.089,-2.635 -3.839,-2.635c-0.75,-0 -2.107,-1.304 -3.016,-2.898c-1.594,-2.795 -1.628,-2.804 -0.943,-0.264c0.391,1.449 0.933,3.228 1.205,3.952c0.313,0.833 -0.467,1.318 -2.121,1.318c-2.136,-0 -2.626,-0.532 -2.675,-2.899c-0.032,-1.594 0.433,-4.483 1.036,-6.42c0.781,-2.511 0.76,-3.857 -0.072,-4.69c-1.601,-1.601 -1.485,-5.24 0.15,-4.708c1.384,0.451 6.071,9.326 5.469,10.356c-0.192,0.329 1.759,2.641 4.336,5.139c4.48,4.341 5.7,6.383 3.815,6.383c-0.478,0 -1.984,-1.185 -3.345,-2.634l-0,-0Zm-26.295,-2.537c-1.455,-2.72 0.554,-8.831 2.1,-6.386c1.279,2.023 1.285,7.047 0.008,7.836c-0.551,0.34 -1.499,-0.312 -2.108,-1.45l0,0Zm-22.184,-12.186c0,-1.008 4.455,-8.517 5.959,-10.044c1.377,-1.399 1.472,-1.235 0.823,1.412c-0.794,3.237 -1.038,3.248 5.677,-0.25c2.297,-1.196 2.426,-1.098 2.107,1.603c-0.252,2.144 -1.459,3.467 -4.737,5.195c-2.821,1.487 -4.762,1.954 -5.414,1.303c-0.651,-0.652 -1.269,-0.605 -1.723,0.13c-0.699,1.13 -2.692,1.612 -2.692,0.651Zm-9.448,-0.215c-0.02,-0.68 1.09,-2.577 2.466,-4.215c2.191,-2.608 5.094,-6.708 14.979,-21.16c2.46,-3.596 2.379,-7.288 -0.16,-7.288c-0.822,-0 -3.011,1.667 -4.865,3.704c-3.77,4.143 -5.455,2.836 -2.002,-1.553c4.034,-5.128 2.249,-5.734 -2.551,-0.866c-5.32,5.397 -8.982,5.479 -3.94,0.089c3.353,-3.585 12.898,-17.647 12.898,-19.003c0,-0.458 0.949,-2.039 2.108,-3.513c1.159,-1.473 2.108,-3.034 2.108,-3.468c-0,-1.778 -6.377,-0.298 -8.89,2.063c-3.816,3.585 -3.536,0.518 0.37,-4.052c3.795,-4.441 8.739,-5.21 10.641,-1.656c1.022,1.909 0.827,3.114 -1.122,6.939c-1.296,2.546 -3.119,5.796 -4.05,7.221c-0.93,1.426 -1.692,4.383 -1.692,6.573c0,3.311 0.311,3.883 1.845,3.397c1.35,-0.428 1.844,-0 1.844,1.595c0,2.527 1.601,2.911 2.489,0.598c0.735,-1.915 2.78,-2.105 2.78,-0.259c0,0.727 -1.881,5.114 -4.181,9.748c-2.95,5.946 -6.662,11.064 -12.609,17.385c-4.636,4.927 -8.445,8.401 -8.466,7.721l0,0Zm45.336,-11.673c-1.366,-4.918 -1.429,-9.749 -0.127,-9.749c0.541,0 1.287,0.956 1.657,2.123c0.371,1.168 1.093,1.864 1.606,1.547c1.074,-0.663 3.612,3.02 4.734,6.869l0.767,2.635l-5.531,-5.11l0,2.818c0,4.114 -1.835,3.444 -3.106,-1.133l-0,-0Zm11.378,-1.996c-1.362,-2.112 -3.691,-5.907 -5.177,-8.434c-1.486,-2.527 -3.423,-5.186 -4.306,-5.909c-0.882,-0.723 -2.465,-4.265 -3.516,-7.872c-1.932,-6.626 -2.538,-7.52 -9.328,-13.769c-2.305,-2.122 -3.531,-4.073 -3.163,-5.033c0.726,-1.89 3.087,-0.314 4.044,2.699c0.959,3.023 3.642,3.469 4.657,0.775c0.792,-2.103 1.021,-1.86 2.151,2.286c0.695,2.551 2.175,6.338 3.288,8.415c1.113,2.077 2.024,4.145 2.024,4.595c0,0.786 6.597,11.318 12.785,20.414c1.624,2.386 2.652,4.639 2.285,5.006c-1.505,1.505 -3.405,0.456 -5.744,-3.173Zm-21.709,-1.074c-2.205,-0.889 -1.41,-4.983 1.36,-6.999c3.425,-2.493 4.7,-1.532 4.7,3.544c-0,3.629 -0.299,4.143 -2.372,4.07c-1.304,-0.046 -2.964,-0.322 -3.688,-0.615Zm-4.743,-4.119c-0.434,-0.442 -0.776,-2.74 -0.758,-5.107c0.024,-3.468 0.243,-3.941 1.119,-2.436c1.209,2.076 0.887,8.811 -0.36,7.543l-0.001,-0Zm20.797,-27.367c-1.729,-1.952 -3.621,-3.572 -4.204,-3.599c-3.082,-0.14 -11.817,-29.499 -11.93,-40.096c-0.057,-5.432 0.154,-4.97 3.367,7.378c3.471,13.34 4.948,17.163 9.562,24.766c8.154,13.433 9.652,18.833 3.205,11.551Zm-43.684,-12.769c-0.019,-1.249 1.681,-4.324 3.777,-6.833c5.479,-6.558 13.051,-17.33 13.051,-18.566c-0,-0.581 1.126,-3.603 2.503,-6.717c1.378,-3.113 2.855,-6.608 3.285,-7.768c0.484,-1.306 0.965,-1.613 1.267,-0.806c0.531,1.419 -4.392,19.017 -6.363,22.749c-0.671,1.269 -3.919,5.151 -7.218,8.626c-3.299,3.474 -6.958,7.503 -8.132,8.952c-2.077,2.564 -2.135,2.574 -2.17,0.363l0,0Z" style="fill:#30553c;fill-rule:nonzero;"/></svg>