<?xml version="1.0" encoding="UTF-8" standalone="no"?><!DOCTYPE svg PUBLIC "-//W3C//DTD SVG 1.1//EN" "http://www.w3.org/Graphics/SVG/1.1/DTD/svg11.dtd"><svg width="100%" height="100%" viewBox="0 0 114 146" version="1.1" xmlns="http://www.w3.org/2000/svg" xmlns:xlink="http://www.w3.org/1999/xlink" xml:space="preserve" xmlns:serif="http://www.serif.com/" style="fill-rule:evenodd;clip-rule:evenodd;stroke-linejoin:round;stroke-miterlimit:2;"><path id="Hollow-Tree-Svgs" serif:id="Hollow Tree Svgs" d="M0,143.803c0,-1.699 0.752,-1.898 6.06,-1.607c2.691,0.147 3.425,-0.229 3.425,-1.751c-0,-1.066 1.304,-2.877 2.898,-4.024c1.594,-1.148 4.44,-3.665 6.323,-5.595c1.884,-1.93 3.422,-2.882 3.418,-2.116c-0.004,0.765 -2.139,3.484 -4.743,6.042c-2.604,2.557 -4.734,5.045 -4.734,5.527c-0,0.483 3.188,-1.464 7.086,-4.325c3.897,-2.862 7.336,-4.944 7.641,-4.625c0.304,0.318 -1.936,2.818 -4.979,5.556c-3.043,2.737 -5.533,5.786 -5.533,6.775c0,1.452 -0.393,1.587 -2.044,0.704c-1.359,-0.728 -2.262,-0.74 -2.697,-0.036c-0.872,1.412 -6.137,1.35 -7.576,-0.089c-0.825,-0.825 -1.344,-0.825 -1.854,0c-1.031,1.67 -2.691,1.401 -2.691,-0.435l-0,-0.001Zm19.683,0.105c-0.376,-0.98 1.487,-3.31 5.145,-6.435c3.154,-2.695 5.735,-4.378 5.735,-3.74c-0,0.705 0.996,0.507 2.537,-0.502c1.798,-1.179 2.75,-1.318 3.268,-0.48c0.402,0.651 1.395,0.929 2.205,0.617c1.876,-0.719 1.857,0.304 -0.09,4.964c-1.73,4.14 -3.136,5.419 -4.816,4.381c-0.739,-0.456 -0.562,-1.525 0.527,-3.187c2.715,-4.144 1.883,-3.76 -3.12,1.44c-4.639,4.821 -4.798,4.892 -6.388,2.836c-1.552,-2.005 -1.698,-2.017 -3.022,-0.232c-1.156,1.558 -1.491,1.615 -1.981,0.338l0,0Zm27.742,-2.084c-0,-1.52 -0.474,-2.764 -1.054,-2.764c-0.58,-0 -1.054,0.569 -1.054,1.265c0,0.868 -0.34,0.924 -1.086,0.178c-1.572,-1.572 3.038,-13.321 4.94,-12.591c1.007,0.387 1.415,-0.453 1.415,-2.911c0,-1.9 0.673,-4.374 1.495,-5.499c1.437,-1.965 1.524,-1.931 2.23,0.885c0.54,2.149 1.22,2.775 2.552,2.353c1.208,-0.384 2.188,0.224 2.925,1.812c1.108,2.387 1.109,2.387 2.306,-0.656c0.659,-1.674 1.484,-2.758 1.834,-2.408c0.35,0.349 1.576,-0.024 2.726,-0.829c1.15,-0.805 2.818,-1.184 3.708,-0.843c1.292,0.496 1.479,0.068 0.929,-2.123c-0.379,-1.509 -0.243,-3.018 0.301,-3.355c0.941,-0.582 -2.539,-7.448 -8.693,-17.15c-2.985,-4.705 -6.231,-6.25 -10.753,-5.115c-3.401,0.854 -6.829,-0.972 -6.829,-3.637c0,-2.28 2.069,-2.741 3.934,-0.876c0.696,0.696 1.992,0.852 3.109,0.375c1.053,-0.45 3.261,-0.71 4.907,-0.578c3.801,0.306 9.128,-1.865 9.128,-3.721c-0,-0.862 0.655,-1.168 1.669,-0.779c1.344,0.516 1.395,0.814 0.263,1.531c-0.777,0.493 -0.892,0.899 -0.256,0.908c1.889,0.028 7.013,10.271 5.58,11.156c-0.699,0.432 -2.052,-0.324 -3.162,-1.767c-1.067,-1.388 -1.95,-1.93 -1.963,-1.206c-0.012,0.725 -0.735,1.318 -1.604,1.318c-2.11,-0 -1.993,0.999 0.425,3.62c1.103,1.197 3.778,5.496 5.944,9.553c2.166,4.058 5.176,8.877 6.689,10.709c1.512,1.832 3.936,5.02 5.385,7.085c1.449,2.064 3.154,3.766 3.788,3.782c0.635,0.016 2.023,0.989 3.085,2.162c1.062,1.174 2.44,1.949 3.062,1.724c0.622,-0.226 1.996,0.035 3.054,0.581c1.695,0.872 1.787,0.734 0.772,-1.162c-1.078,-2.016 -0.898,-2.128 2.819,-1.758c5.956,0.593 11.874,1.806 11.874,2.435c0,1.857 -3.846,3.046 -7.287,2.253c-2.74,-0.632 -4.069,-0.488 -4.836,0.523c-1.937,2.553 -5.493,3.007 -7.02,0.896c-1.716,-2.373 -6.146,-2.578 -6.158,-0.286c-0.008,1.843 -4.743,4.386 -6.737,3.621c-0.727,-0.279 -2.53,-0.048 -4.005,0.513c-1.846,0.702 -3.053,0.649 -3.87,-0.168c-0.881,-0.881 -1.188,-0.827 -1.188,0.209c-0,0.985 -0.918,1.212 -3.121,0.772c-1.716,-0.343 -3.405,-0.164 -3.752,0.398c-0.404,0.653 -1.311,0.659 -2.514,0.016c-1.232,-0.659 -2.264,-0.626 -2.985,0.095c-0.727,0.727 -1.768,0.755 -3.06,0.084c-2.539,-1.321 -6.089,-0.996 -8.192,0.749c-1.451,1.204 -1.669,1.024 -1.669,-1.378l-0,-0.001Zm22.228,-5.144c-1.181,-3.107 -0.382,-4.438 1.651,-2.751c1.057,0.877 0.99,0.142 -0.264,-2.907c-2.593,-6.305 -3.235,-6.261 -3.908,0.265c-0.51,4.944 -0.299,6.28 1.162,7.349c2.322,1.698 2.598,1.301 1.359,-1.956l0,-0Zm-14.851,-3.354c0,-1.995 -0.474,-3.92 -1.054,-4.278c-0.636,-0.393 -1.054,1.043 -1.054,3.626c0,2.353 0.474,4.278 1.054,4.278c0.58,0 1.054,-1.632 1.054,-3.626Zm4.02,-2.434c-1.489,-5.455 -1.912,-5.553 -1.912,-0.439c-0,3.09 0.443,4.391 1.496,4.391c1.217,0 1.295,-0.734 0.416,-3.952Zm-17.845,1.054c-0.069,-0.434 -0.069,-1.146 -0,-1.581c0.068,-0.434 -0.587,-0.79 -1.456,-0.79c-0.87,0 -1.581,-0.693 -1.581,-1.54c-0,-2.143 4.371,-6.003 6.063,-5.354c0.784,0.301 1.809,-0.495 2.342,-1.818c0.9,-2.239 0.949,-2.21 1.013,0.586c0.11,4.847 -5.751,14.488 -6.381,10.497Zm43.091,-1.581c-0.104,-2.2 -5.594,-9.221 -7.211,-9.221c-0.393,-0 0.04,2.099 0.961,4.664c0.923,2.566 1.996,4.468 2.385,4.227c0.389,-0.24 1.293,0.269 2.01,1.132c1.74,2.097 1.987,1.99 1.855,-0.802Zm-60.794,-5.425c-0.976,-1.176 -0.031,-2.879 4.68,-8.431c3.246,-3.827 6.134,-6.958 6.417,-6.958c0.282,0 -1.46,3.794 -3.872,8.431c-2.413,4.637 -4.75,8.431 -5.194,8.431c-0.444,0 -1.358,-0.663 -2.031,-1.473Zm12.016,0.207c-0.384,-0.987 -0.338,-2.41 0.103,-3.162c0.441,-0.752 -0.148,-0.538 -1.307,0.476c-2.361,2.065 -3.523,2.34 -3.523,0.832c-0,-1.894 4.224,-4.958 6.595,-4.783c3.103,0.227 3.486,2.723 0.904,5.888c-1.831,2.245 -2.155,2.333 -2.772,0.749l0,-0Zm-17.374,-3.521c0,-0.894 2.199,-3.977 4.887,-6.85c5.895,-6.303 4.662,-6.875 -2.062,-0.957c-2.666,2.348 -5.697,4.437 -6.735,4.643c-1.037,0.206 -2.361,0.475 -2.94,0.599c-2.824,0.602 -2.319,-0.441 2.584,-5.344c2.926,-2.926 5.32,-5.841 5.32,-6.478c-0,-0.637 1.768,-3.816 3.929,-7.064c5.283,-7.942 10.977,-18.522 12.252,-22.767c0.348,-1.159 0.217,-2.771 -0.292,-3.582c-0.736,-1.172 -1.939,-0.643 -5.88,2.587c-5.645,4.626 -8.139,5.356 -10.123,2.965c-1.171,-1.411 -1.065,-1.91 0.681,-3.204c1.137,-0.842 3.384,-1.801 4.992,-2.13c1.619,-0.332 3.957,-2.065 5.24,-3.887c1.275,-1.808 3.195,-4.237 4.267,-5.396c2.7,-2.919 10.254,-14.552 9.766,-15.04c-0.22,-0.22 -1.273,-0.538 -2.34,-0.709c-1.478,-0.235 -1.877,-1.097 -1.674,-3.609c0.371,-4.573 -0.514,-4.127 -2.911,1.465c-2.14,4.99 -4.612,6.844 -6.547,4.908c-1.281,-1.28 2.105,-6.276 8.771,-12.942c2.129,-2.129 4.384,-4.754 5.011,-5.834c1.012,-1.741 1.145,-1.76 1.173,-0.168c0.05,2.792 2.339,7.163 3.751,7.163c0.7,-0 1.537,1.965 1.859,4.367c0.322,2.402 1.036,4.655 1.587,5.006c1.245,0.794 -0.342,5.381 -1.861,5.381c-0.599,0 -1.088,-0.61 -1.088,-1.356c-0,-0.746 -0.83,-1.417 -1.845,-1.49c-1.272,-0.091 -2.609,1.613 -4.312,5.497c-1.357,3.096 -3.393,6.466 -4.523,7.488c-2.035,1.843 -2.035,1.871 0.07,2.997c1.97,1.054 2.012,1.356 0.571,4.133c-1.883,3.631 -1.984,4.66 -0.289,2.966c1.786,-1.787 4.004,-1.57 4.004,0.392c0,2.6 -5.305,10.99 -6.95,10.99c-0.814,-0 -1.481,0.52 -1.481,1.157c0,0.636 -2.727,4.953 -6.06,9.592c-3.333,4.64 -6.752,9.399 -7.599,10.578c-1.454,2.021 -1.395,2.097 1.053,1.348c1.427,-0.436 3.343,-1.448 4.258,-2.249c0.915,-0.801 2.175,-1.456 2.8,-1.456c1.883,-0 0.231,4.335 -4.316,11.329c-4.12,6.336 -6.998,8.376 -6.998,4.961l0,-0Zm60.595,-30.797c-0.581,-0.426 -2.279,-2.672 -3.773,-4.99c-1.495,-2.319 -3.864,-5.991 -5.267,-8.161c-1.402,-2.169 -2.917,-3.948 -3.367,-3.952c-0.449,-0.004 -2.697,-2.971 -4.995,-6.594c-3.183,-5.017 -4.182,-7.662 -4.189,-11.098c-0.012,-4.623 2.124,-6.949 4.342,-4.732c0.695,0.696 2.433,-0.282 5.16,-2.903l4.113,-3.951l-2.426,-5.125c-1.335,-2.818 -3.725,-10.815 -5.311,-17.771c-1.587,-6.956 -3.561,-14.141 -4.387,-15.968c-2.436,-5.388 -1.779,-7.008 1.739,-4.286c1.588,1.229 2.592,4.005 5.23,14.458c0.659,2.608 1.682,6.402 2.275,8.431c1.368,4.677 8.973,19.944 11.178,22.44c1.637,1.851 4.368,8.268 4.755,11.171c0.387,2.896 -2.473,2.331 -4.282,-0.847c-1.015,-1.783 -2.166,-3.245 -2.559,-3.249c-1.259,-0.012 -1.538,3.623 -0.421,5.5c0.755,1.269 0.724,2.176 -0.103,3.003c-0.878,0.878 -1.897,-0.028 -3.926,-3.491c-1.507,-2.572 -2.741,-5.523 -2.741,-6.558c0,-1.49 -0.305,-1.627 -1.472,-0.659c-0.809,0.672 -1.228,2.153 -0.931,3.291c0.672,2.569 -2.967,2.907 -4.995,0.463c-0.733,-0.884 -1.508,-1.431 -1.723,-1.217c-0.709,0.71 3.866,10.056 6.395,13.06c1.367,1.625 3.229,4.734 4.137,6.908c0.909,2.174 3.809,6.602 6.445,9.838c2.637,3.236 4.528,6.314 4.203,6.84c-0.708,1.146 -1.678,1.193 -3.104,0.149l0,-0Zm-52.164,-41.995c0,-0.354 1.941,-2.961 4.314,-5.795c2.372,-2.833 4.043,-5.152 3.712,-5.152c-0.331,0 2.048,-4.107 5.287,-9.127c3.238,-5.02 7.056,-11.219 8.484,-13.777c1.428,-2.558 3.521,-5.575 4.651,-6.705c1.811,-1.812 2.131,-1.856 2.7,-0.374c0.361,0.94 -0.347,3.022 -1.605,4.723c-1.237,1.674 -2.25,3.635 -2.25,4.358c0,1.347 -7.913,13.213 -10.074,15.106c-0.662,0.58 -2.549,2.951 -4.192,5.269c-3.081,4.346 -11.027,12.614 -11.027,11.474l0,-0Z" style="fill:#30553c;fill-rule:nonzero;"/></svg>