<?xml version="1.0" encoding="UTF-8" standalone="no"?><!DOCTYPE svg PUBLIC "-//W3C//DTD SVG 1.1//EN" "http://www.w3.org/Graphics/SVG/1.1/DTD/svg11.dtd"><svg width="100%" height="100%" viewBox="0 0 64 139" version="1.1" xmlns="http://www.w3.org/2000/svg" xmlns:xlink="http://www.w3.org/1999/xlink" xml:space="preserve" xmlns:serif="http://www.serif.com/" style="fill-rule:evenodd;clip-rule:evenodd;stroke-linejoin:round;stroke-miterlimit:2;"><path id="Hollow-Tree-Svgs" serif:id="Hollow Tree Svgs" d="M50.586,137.673c-3.693,-1.58 -6.394,-1.747 -9.702,-0.6c-2.165,0.751 -3.607,0.542 -5.99,-0.866c-2.605,-1.538 -3.42,-1.621 -4.789,-0.485c-1.124,0.933 -2.07,1.034 -2.967,0.319c-1.752,-1.398 -5.465,-1.013 -7.639,0.791c-1.43,1.187 -2.148,1.21 -3.887,0.124c-1.192,-0.744 -1.824,-0.832 -1.433,-0.2c1.172,1.896 -2.143,1.261 -3.973,-0.761c-1.62,-1.79 -1.5,-1.889 2.208,-1.819c7.068,0.134 9.662,-5.302 9.374,-19.642c-0.173,-8.607 -0.349,-9.256 -3.092,-11.413c-1.599,-1.258 -2.638,-2.724 -2.309,-3.257c0.33,-0.534 0.053,-0.97 -0.615,-0.97c-0.668,0 -1.47,0.976 -1.782,2.168c-0.348,1.33 -1.145,1.945 -2.064,1.592c-1.432,-0.549 -6.443,1.997 -7.856,3.992c-0.37,0.522 -1.246,0.595 -1.947,0.162c-0.857,-0.53 0.529,-2.364 4.242,-5.612c3.033,-2.653 6.907,-6.746 8.609,-9.096c1.702,-2.349 3.351,-4.125 3.665,-3.946c0.803,0.458 3.162,-4.325 3.988,-8.086c0.773,-3.518 2.056,-4.83 5.564,-5.689c2.65,-0.649 2.986,0.374 1.111,3.377c-1.01,1.617 -0.915,2.713 0.476,5.518c2.632,5.309 3.201,23.614 1.041,33.536c-0.946,4.348 -1.746,9.778 -1.779,12.068c-0.054,3.857 0.192,4.215 3.329,4.865c3.02,0.626 3.278,0.498 2.379,-1.18c-0.684,-1.279 -0.623,-2.01 0.19,-2.281c0.862,-0.287 0.805,-1.122 -0.203,-2.983c-1.388,-2.565 -1.557,-9.263 -0.582,-23.135c0.265,-3.768 0.514,-8.155 0.553,-9.749c0.04,-1.594 0.628,-2.898 1.307,-2.898c0.679,-0 2.078,-0.764 3.11,-1.698c1.753,-1.586 1.986,-1.464 3.524,1.844c0.906,1.949 1.418,2.713 1.138,1.698c-0.619,-2.24 0.802,-2.412 2.549,-0.308c0.965,1.164 1.59,1.243 2.57,0.327c1.016,-0.949 0.777,-2.131 -1.11,-5.488c-3.546,-6.307 -5.638,-11.162 -5.644,-13.102c-0.004,-0.944 -0.5,-3.494 -1.104,-5.668c-1.122,-4.04 -3.706,-5.308 -4.833,-2.371c-0.334,0.869 -1.69,1.581 -3.014,1.581c-1.731,-0 -2.631,-0.815 -3.203,-2.899l-0.796,-2.898l-1.062,3.459c-0.584,1.903 -1.581,3.286 -2.216,3.074c-1.622,-0.54 -1.511,-10.105 0.132,-11.469c1.011,-0.839 1.355,-0.626 1.379,0.855c0.032,1.852 0.105,1.844 1.209,-0.134c1.706,-3.054 1.666,-3.04 3.527,-1.179c0.938,0.938 2.632,1.706 3.765,1.706c1.226,-0 2.463,1.065 3.06,2.635c0.551,1.449 1.301,2.634 1.667,2.634c0.366,0 0.393,-0.711 0.059,-1.581c-0.334,-0.869 -0.179,-1.58 0.343,-1.58c0.523,-0 1.243,0.924 1.602,2.054c0.358,1.129 1.25,1.824 1.981,1.544c1.244,-0.478 2.866,1.88 4.231,6.15c0.892,2.791 -1.004,2.21 -3.439,-1.054c-2.739,-3.671 -2.807,-1.577 -0.195,6.06c3.884,11.358 5.644,14.311 12.446,20.879c5.127,4.951 6.584,6.957 5.696,7.845c-0.887,0.887 -2.039,0.399 -4.504,-1.91l-3.311,-3.102l0.702,2.947c1.037,4.353 -0.338,5.71 -2.766,2.73c-1.127,-1.383 -1.782,-1.985 -1.455,-1.338c0.326,0.647 -0.32,2.002 -1.436,3.012c-1.948,1.763 -2.222,1.678 -6.86,-2.122c-2.657,-2.177 -5.261,-4.718 -5.786,-5.647c-0.629,-1.111 -0.871,0.772 -0.709,5.496c0.136,3.952 -0.13,7.418 -0.591,7.703c-1.372,0.848 -0.95,10.346 0.663,14.92c0.825,2.339 1.221,4.532 0.878,4.875c-0.342,0.342 0.406,0.622 1.662,0.622c1.256,-0 2.283,-0.533 2.283,-1.183c0,-0.87 0.374,-0.873 1.414,-0.008c0.778,0.646 1.663,0.926 1.966,0.623c0.809,-0.809 9.598,4.078 9.504,5.285c-0.116,1.507 -1.48,1.611 -4.453,0.339l0,-0.002Zm-24.744,-7.426c0.265,-0.725 0.933,-7.4 1.485,-14.834c0.554,-7.479 1.568,-14.199 2.269,-15.044c0.697,-0.839 0.937,-1.857 0.533,-2.26c-0.404,-0.404 -1.164,-0.041 -1.688,0.807c-0.758,1.227 -1.219,1.275 -2.261,0.233c-0.719,-0.72 -1.611,-1.309 -1.982,-1.309c-0.37,0 -0.471,5.572 -0.223,12.383c0.333,9.146 0.045,13.554 -1.1,16.862c-1.471,4.25 -1.447,4.479 0.467,4.479c1.11,0 2.234,-0.592 2.5,-1.317l-0,-0Zm25.126,-29.772c-0.334,-0.87 -1.089,-1.581 -1.677,-1.581c-0.617,-0 -0.515,0.67 0.242,1.581c0.721,0.869 1.476,1.581 1.676,1.581c0.201,-0 0.092,-0.712 -0.241,-1.581Zm-50.968,-6.627c0,-0.484 1.064,-2.022 2.365,-3.419c6.005,-6.445 16.605,-26.032 16.605,-30.683c-0,-2.835 -0.081,-2.799 -4.664,2.051c-2.564,2.715 -5.023,4.575 -5.464,4.135c-0.441,-0.441 0.911,-2.571 3.004,-4.734c3.618,-3.74 11.323,-17.288 11.334,-19.929c0.003,-0.683 0.629,-1.869 1.391,-2.635c0.762,-0.766 1.933,-2.341 2.603,-3.5c0.971,-1.682 1.223,-1.762 1.249,-0.392c0.016,0.943 -0.62,2.256 -1.418,2.918c-0.797,0.662 -2.047,3.34 -2.779,5.952c-0.731,2.613 -1.739,5.003 -2.239,5.312c-0.5,0.309 -0.909,3.43 -0.909,6.936c-0,5.233 0.283,6.265 1.581,5.767c2.316,-0.889 1.934,1.761 -0.472,3.263c-1.128,0.705 -3.782,4.731 -5.898,8.946c-2.116,4.216 -5.461,9.864 -7.435,12.553c-3.466,4.722 -8.854,9.261 -8.854,7.459l0,-0Zm26.31,-14.831l-0.036,-2.782l-1.451,2.622c-0.798,1.442 -1.215,3.004 -0.926,3.471c0.289,0.468 0.129,1.444 -0.356,2.171c-0.485,0.726 -0.051,0.416 0.963,-0.69c1.014,-1.106 1.828,-3.262 1.807,-4.792l-0.001,-0Zm22.252,-15.523c-3.699,-6.858 -9.568,-22.182 -9.568,-24.981c-0,-1.415 -2.864,-3.906 -4.492,-3.906c-2.539,0 -2.72,-1.043 -0.961,-5.523c1.578,-4.016 1.751,-4.148 2.333,-1.779c0.622,2.535 0.645,2.526 2.433,-0.875c1.346,-2.561 1.528,-3.951 0.719,-5.464c-0.598,-1.116 -1.119,-3.601 -1.16,-5.523c-0.041,-1.922 -0.482,-4.443 -0.98,-5.602c-0.849,-1.977 -0.91,-1.953 -0.98,0.374c-0.159,5.341 -8.825,18.83 -14.774,22.997c-3.573,2.503 -2.411,0.138 2.66,-5.415c6.149,-6.732 9.712,-13.902 10.251,-20.626c0.408,-5.09 2.024,-8.54 3.111,-6.643c1.326,2.315 3.816,11.974 4.301,16.69c0.298,2.898 2,8.207 3.783,11.797c3.655,7.363 3.919,8.754 1.66,8.754c-0.87,-0 -1.581,-0.384 -1.581,-0.853c0,-0.468 -0.742,-1.773 -1.65,-2.898c-1.531,-1.899 -1.614,-1.591 -1.156,4.278c0.272,3.478 1.249,7.746 2.171,9.485c0.922,1.739 1.689,4.11 1.706,5.269c0.035,2.686 3.524,10.404 6.288,13.916c2.287,2.909 2.703,4.527 1.164,4.527c-0.53,0 -2.904,-3.6 -5.278,-7.999l0,-0Z" style="fill:#30553c;fill-rule:nonzero;"/></svg>