<?xml version="1.0" encoding="UTF-8" standalone="no"?><!DOCTYPE svg PUBLIC "-//W3C//DTD SVG 1.1//EN" "http://www.w3.org/Graphics/SVG/1.1/DTD/svg11.dtd"><svg width="100%" height="100%" viewBox="0 0 58 152" version="1.1" xmlns="http://www.w3.org/2000/svg" xmlns:xlink="http://www.w3.org/1999/xlink" xml:space="preserve" xmlns:serif="http://www.serif.com/" style="fill-rule:evenodd;clip-rule:evenodd;stroke-linejoin:round;stroke-miterlimit:2;"><path id="Hollow-Tree-Svgs" serif:id="Hollow Tree Svgs" d="M25.204,0c0.731,2.2 1.42,6.768 1.532,10.152c0.112,3.384 1.12,9.075 2.24,12.647c1.12,3.572 2.043,7.312 2.05,8.312c0.016,1.935 6.054,13.662 10.18,19.768c1.364,2.019 2.481,4.803 2.481,6.189c-0,2.225 -0.204,2.35 -1.749,1.073c-1.605,-1.328 -1.7,-0.927 -1.156,4.877c0.749,7.979 3.779,15.022 8.438,19.611c4.351,4.285 6.628,7.834 7.535,11.742c0.556,2.395 0.318,2.898 -1.369,2.898c-5.891,-0 -6.963,3.222 -2.741,8.239c2.942,3.497 3.462,6.005 1.053,5.08c-0.963,-0.369 -1.58,-0.002 -1.58,0.941c-0,1.937 -0.419,1.931 -4.268,-0.06c-3.611,-1.867 -4.241,-0.369 -1.265,3.008c1.784,2.024 1.763,2.072 -0.633,1.471c-2.563,-0.643 -7.024,0.856 -9.454,3.177c-0.766,0.731 -2.28,1.329 -3.365,1.329c-1.831,0 -1.957,0.932 -1.769,13.085c0.167,10.77 0.483,13.11 1.784,13.222c0.869,0.075 5.612,0.47 10.539,0.879c4.926,0.408 8.43,1.086 7.785,1.505c-0.644,0.42 -5.387,1.033 -10.538,1.364c-5.152,0.33 -12.45,0.8 -16.217,1.043c-5.566,0.36 -7.343,0.067 -9.478,-1.562l-0,0.001c-2.348,-1.791 -2.431,-2.08 -0.777,-2.715c1.018,-0.39 2.55,-0.129 3.404,0.58c1.734,1.439 4.743,0.72 4.743,-1.134c-0,-0.66 -0.712,-0.926 -1.581,-0.593c-1.357,0.521 -1.581,-1.418 -1.581,-13.717c0,-12.612 -0.189,-14.166 -1.581,-13.011c-1.959,1.626 -4.937,-0.373 -4.04,-2.712c0.777,-2.025 -1.048,-1.892 -5.75,0.417c-4.105,2.016 -7.603,1.945 -7.592,-0.154c0.008,-1.242 1.007,-3.315 4.923,-10.198c2.336,-4.104 6.927,-18.003 6.191,-18.739c-0.259,-0.259 -2.156,0.57 -4.215,1.843c-3.544,2.19 -3.744,2.208 -3.744,0.334c-0,-1.088 1.649,-5.039 3.665,-8.78c4.241,-7.872 4.507,-9.436 1.604,-9.436c-2.373,-0 -2.556,-0.792 -1.08,-4.674c1.266,-3.329 0.426,-3.422 -2.973,-0.332c-2.419,2.2 -2.549,2.219 -1.79,0.263c1.31,-3.38 2.629,-9.286 2.657,-11.893c0.019,-2.092 -0.255,-2.259 -2.105,-1.269c-2.925,1.566 -4.768,0.275 -2.8,-1.96c3.654,-4.152 12.788,-25.076 16.457,-37.698c1.199,-4.127 3.151,-8.738 4.338,-10.246c1.23,-1.564 1.686,-2.54 1.508,-3.58l2.084,-0.587Zm2.322,141.35c-0.704,-5.948 -1.103,-6.601 -4.692,-7.686c-2.287,-0.692 -2.389,-0.498 -2.016,3.845c0.511,5.936 2.366,9.293 5.136,9.293c2.052,-0 2.17,-0.408 1.572,-5.452Zm7.92,-25.374c0.208,-1.462 1.02,-2.319 2.117,-2.236c4.643,0.354 2.055,-4.692 -4.828,-9.415c-5.594,-3.838 -11.18,-20.442 -11.18,-33.229c-0,-6.782 -2.386,-9.185 -4.136,-4.164c-0.662,1.899 -3.137,6.653 -5.5,10.564c-2.594,4.292 -4.037,7.787 -3.641,8.818c0.521,1.357 0.967,1.449 2.173,0.448c1.2,-0.996 2.04,-0.866 4.011,0.62c3.324,2.508 9.416,12.022 8.772,13.7c-0.904,2.356 -6.108,5.07 -9.795,5.108c-3.201,0.032 -3.922,0.63 -6.815,5.637l-3.236,5.599l4.078,-1.702c2.242,-0.936 4.516,-2.141 5.053,-2.676c1.193,-1.19 3.767,0.719 3.767,2.793c-0,2.593 1.881,1.54 4.33,-2.423c1.318,-2.131 2.581,-3.317 2.809,-2.635c0.589,1.767 3.352,1.536 4.072,-0.34c0.922,-2.403 2.489,-1.887 2.489,0.82c0,2.567 2.679,7.084 4.202,7.084c0.506,0 1.073,-1.067 1.258,-2.371l0,-0Zm10.348,-17.716c0,-1.394 1.053,-2.147 3.701,-2.643c2.035,-0.382 3.972,-1.135 4.305,-1.674c0.619,-1.002 -4.493,-7.753 -10.171,-13.431c-1.745,-1.745 -3.848,-4.735 -4.674,-6.645c-1.58,-3.653 -5.788,-10.272 -5.8,-9.123c-0.004,0.37 1.622,5.231 3.613,10.803c1.991,5.571 3.24,10.13 2.775,10.13c-0.897,-0 -7.449,-13.99 -7.449,-15.906c-0,-0.623 -0.593,-0.938 -1.318,-0.7c-2.465,0.81 -2.056,6.772 0.86,12.526c1.807,3.567 2.398,5.716 1.641,5.969c-2.015,0.671 -1.308,5.345 1.437,9.492c2.417,3.653 2.946,3.927 6.85,3.555c3.268,-0.311 4.23,-0.847 4.23,-2.353Zm-23.616,-43.673c2.936,-2.936 4.211,-3.271 5.008,-1.317c0.373,0.916 1.122,0.629 2.459,-0.941c1.423,-1.671 2.469,-2.033 4.03,-1.391c1.159,0.476 2.656,0.9 3.326,0.94c1.73,0.105 0.483,-3.931 -1.697,-5.491c-2.437,-1.743 -9.496,-12.17 -9.69,-14.313c-1.277,-14.129 -2.886,-23.331 -4.078,-23.331c-0.498,0 -1.187,2.253 -1.53,5.006c-0.343,2.753 -1.321,6.349 -2.172,7.99c-0.852,1.641 -1.55,3.538 -1.552,4.215c-0.008,2.05 -6.316,16.871 -7.953,18.679c-1.636,1.808 -2.036,4.106 -0.738,4.238c0.435,0.045 1.727,0.256 2.872,0.469c1.145,0.213 2.423,-0.165 2.841,-0.841c1.209,-1.956 2.116,-0.205 2.292,4.426c0.196,5.159 2.503,5.741 6.582,1.662Z" style="fill:#30553c;fill-rule:nonzero;"/></svg>