<?xml version="1.0" encoding="UTF-8" standalone="no"?><!DOCTYPE svg PUBLIC "-//W3C//DTD SVG 1.1//EN" "http://www.w3.org/Graphics/SVG/1.1/DTD/svg11.dtd"><svg width="100%" height="100%" viewBox="0 0 53 154" version="1.1" xmlns="http://www.w3.org/2000/svg" xmlns:xlink="http://www.w3.org/1999/xlink" xml:space="preserve" xmlns:serif="http://www.serif.com/" style="fill-rule:evenodd;clip-rule:evenodd;stroke-linejoin:round;stroke-miterlimit:2;"><path id="Hollow-Tree-Svgs" serif:id="Hollow Tree Svgs" d="M15.198,151.831c-0.909,-0.909 -1.388,-2.342 -1.065,-3.184c0.323,-0.842 0.587,-1.746 0.587,-2.009c0,-0.263 0.923,0.016 2.051,0.62c1.979,1.059 2.062,0.589 2.371,-13.4c0.177,-7.974 -0.076,-15.069 -0.56,-15.768c-1.086,-1.567 -4.367,0.064 -7.324,3.642c-3.212,3.885 -3.881,2.719 -1.811,-3.157c1.07,-3.04 1.759,-5.715 1.53,-5.944c-0.229,-0.229 -2.327,1.31 -4.663,3.42c-2.336,2.11 -4.719,3.836 -5.297,3.836c-1.476,0 -1.31,-2.737 0.266,-4.404c4.133,-4.369 12.963,-18.552 12.093,-19.423c-0.215,-0.214 -1.454,0.601 -2.754,1.813c-1.301,1.211 -2.625,1.942 -2.943,1.624c-0.727,-0.727 4.418,-6.951 8.666,-10.485l3.206,-2.667l-0.611,14.045l6.768,-13.7l0.735,7.955l2.732,-2.15c2.454,-1.93 2.911,-1.987 4.497,-0.552c0.97,0.878 2.296,1.597 2.946,1.597c0.65,0 1.666,0.83 2.257,1.844c0.987,1.696 1.077,1.675 1.117,-0.263c0.024,-1.159 0.331,-3.846 0.683,-5.972c0.576,-3.481 0.211,-4.309 -3.682,-8.361c-4.296,-4.471 -5.705,-7.477 -6.926,-14.777c-0.351,-2.099 -1.558,-4.877 -2.683,-6.174l-2.044,-2.358l-2.534,5.648c-1.394,3.106 -3.361,7.781 -4.372,10.389c-1.01,2.609 -2.291,5.903 -2.847,7.32c-1.457,3.718 -10.466,16.92 -11.546,16.92c-2.006,-0 -0.651,-3.069 4.837,-10.954c6.382,-9.168 10.736,-19.506 11.59,-27.513l0.561,-5.269l-3.126,3.688c-3.151,3.717 -4.43,3.306 -1.73,-0.556c5.344,-7.643 10.283,-19.735 12.796,-31.324c0.974,-4.492 2.029,-8.167 2.344,-8.167c0.316,-0 0.304,3.201 -0.027,7.113c-0.55,6.518 -3.058,14.46 -6.241,19.761c-0.696,1.159 -1.318,3.767 -1.382,5.796c-0.064,2.029 -0.468,4.874 -0.898,6.323c-0.765,2.576 -0.74,2.57 1.099,-0.263c2.007,-3.092 4.138,-3.973 3.106,-1.284c-0.411,1.074 0.258,1.948 1.995,2.609c1.86,0.707 2.651,1.838 2.74,3.918l0.124,2.925l1.609,-6.324l0.125,3.363c0.169,4.557 1.892,5.33 2.788,1.251l0.727,-3.31l1.335,3.037c0.734,1.67 1.929,6.356 2.655,10.414c1.094,6.117 4.897,19.83 7.065,25.481c0.298,0.775 -0.171,1.393 -1.056,1.393c-0.875,-0 -2.099,-1.459 -2.72,-3.241c-1.764,-5.06 -3.386,-2.678 -2.792,4.101c0.529,6.033 3.451,15.74 5.511,18.306c1.256,1.565 5.582,9.956 5.582,10.828c-0,1.925 -2.417,-0.008 -3.901,-3.12c-3.119,-6.541 -5.056,-4.637 -4.557,4.479c0.235,4.296 -1.41,4.384 -4.878,0.263c-1.463,-1.739 -3.29,-3.161 -4.059,-3.161c-0.77,-0 -1.639,-0.593 -1.931,-1.318c-0.293,-0.724 -0.569,-0.398 -0.615,0.726c-0.079,1.936 -0.197,1.921 -2.253,-0.287c-1.563,-1.677 -2.079,-3.428 -1.845,-6.258c0.358,-4.317 1.857,-4.938 3.474,-1.439c0.572,1.239 1.623,2.252 2.334,2.252c0.712,0 1.824,0.989 2.471,2.198c0.647,1.209 1.442,1.932 1.768,1.606c0.325,-0.325 0.118,-1.196 -0.461,-1.934c-0.578,-0.739 -1.594,-3.567 -2.257,-6.286c-0.971,-3.985 -0.89,-6.304 0.421,-11.956c1.247,-5.378 1.34,-7.358 0.397,-8.494c-1.874,-2.258 -5.186,-1.858 -5.186,0.627c-0,2.587 -2.074,2.836 -2.194,0.263c-0.052,-1.109 -0.778,-0.374 -1.823,1.844l-1.737,3.689l-0.348,-3.952c-0.42,-4.759 -1.618,-5.052 -3.369,-0.826c-1.384,3.343 -3.915,5.971 -4.85,5.036c-0.313,-0.313 -0.61,-2.04 -0.661,-3.839c-0.051,-1.798 -0.238,-3.269 -0.415,-3.269c-0.178,-0 -1.615,2.252 -3.196,5.006c-1.58,2.753 -4.208,6.734 -5.84,8.846c-4.027,5.21 -3.736,5.687 1.263,2.065c4.279,-3.099 8.415,-3.377 8.415,-0.566c0,0.773 2.156,3.208 4.791,5.41c3.876,3.24 4.673,4.474 4.173,6.464c-0.366,1.461 -0.202,2.204 0.403,1.829c1.402,-0.866 1.989,1.877 2.124,9.939c0.063,3.768 0.505,8.273 0.983,10.012c0.81,2.954 1.157,3.139 5.263,2.808c2.417,-0.195 4.395,0.103 4.395,0.661c-0,2.416 -3.638,3.549 -12.566,3.916c-7.637,0.313 -9.873,0.062 -11.196,-1.261l0.003,0Zm9.924,-1.722c3.043,0.796 3.461,-0.968 2.023,-8.546c-1.367,-7.209 -2.94,-9.22 -2.94,-3.76c0,1.739 -0.412,3.162 -0.915,3.162c-0.503,0 -1.168,1.778 -1.477,3.952c-0.309,2.174 -0.938,4.901 -1.397,6.06c-0.779,1.967 -0.717,1.99 0.931,0.357c0.972,-0.963 2.671,-1.514 3.775,-1.225Zm17.739,-90.621c-3.215,-6.06 -4.934,-11.624 -7.713,-24.965c-2.157,-10.356 -2.541,-29.971 -0.65,-33.198c1.143,-1.949 1.242,-1.87 1.316,1.054c0.772,30.587 2.915,44.246 9.147,58.313c2.477,5.59 1.079,4.789 -2.1,-1.204Z" style="fill:#30553c;fill-rule:nonzero;"/></svg>