<?xml version="1.0" encoding="UTF-8" standalone="no"?><!DOCTYPE svg PUBLIC "-//W3C//DTD SVG 1.1//EN" "http://www.w3.org/Graphics/SVG/1.1/DTD/svg11.dtd"><svg width="100%" height="100%" viewBox="0 0 55 153" version="1.1" xmlns="http://www.w3.org/2000/svg" xmlns:xlink="http://www.w3.org/1999/xlink" xml:space="preserve" xmlns:serif="http://www.serif.com/" style="fill-rule:evenodd;clip-rule:evenodd;stroke-linejoin:round;stroke-miterlimit:2;"><path id="Hollow-Tree-Svgs" serif:id="Hollow Tree Svgs" d="M13.716,150.612c-1.793,-1.981 -1.754,-2.073 1.161,-2.715c1.659,-0.366 3.509,-0.809 4.111,-0.986c0.647,-0.189 1.209,-5.001 1.376,-11.768l0.28,-11.447l-4.132,-0.279c-2.685,-0.181 -4.596,0.281 -5.457,1.317c-0.728,0.878 -1.74,1.596 -2.249,1.596c-1.279,0 -1.168,-4.994 0.129,-5.796c0.58,-0.358 1.057,-1.69 1.061,-2.96c0.004,-1.27 0.975,-3.732 2.158,-5.471c1.183,-1.739 2.86,-4.483 3.728,-6.098c1.562,-2.908 1.554,-2.923 -0.836,-1.581c-1.328,0.746 -3.761,2.426 -5.406,3.734c-1.645,1.308 -3.415,2.116 -3.934,1.795c-0.519,-0.32 -1.942,-0.048 -3.163,0.606c-3.669,1.964 -3.388,0.526 0.976,-4.995c5.01,-6.339 11.704,-20.159 12.911,-26.658c2.343,-12.613 3.264,-20.04 2.675,-21.573c-0.576,-1.5 -0.911,-1.516 -3.037,-0.141c-1.857,1.201 -10.011,1.696 -12.088,0.734c-0.116,-0.054 2.035,-3.537 4.78,-7.739c9.674,-14.806 14.923,-28.186 15.689,-39.994c0.312,-4.812 0.894,-9.364 1.292,-10.116c1.051,-1.988 10.526,35.021 12.76,49.847c2.129,14.126 5.033,22.932 10.113,30.671c1.942,2.959 3.53,6.132 3.53,7.052c0,2.899 -2.353,3.305 -4.412,0.762c-2.588,-3.196 -3.603,-1.996 -1.863,2.204c0.761,1.839 1.432,4.429 1.49,5.754c0.058,1.326 0.922,3.312 1.919,4.414c2.227,2.461 2.284,3.822 0.231,5.525c-1.092,0.907 -1.58,0.947 -1.58,0.13c-0,-0.651 -0.445,-1.183 -0.989,-1.183c-1.311,-0 -1.05,4.326 0.382,6.323c2.315,3.228 3.769,6.348 3.802,8.153c0.02,1.022 0.73,2.779 1.581,3.905c2.49,3.292 1.952,5.436 -1.351,5.38c-2.734,-0.046 -2.93,-0.378 -3.465,-5.845c-0.611,-6.257 -2.663,-10.951 -6.176,-14.13c-2.64,-2.389 -2.749,-3.403 -0.599,-5.554c1.839,-1.838 1.118,-5.611 -1.346,-7.046c-0.859,-0.5 -2.457,-1.804 -3.551,-2.898c-2.932,-2.932 -3.374,-2.495 -2.782,2.754c0.52,4.618 -0.808,6.592 -1.951,2.898c-0.314,-1.015 -0.956,-2.58 -1.426,-3.479c-0.471,-0.899 -0.66,-2.796 -0.421,-4.216c1.474,-8.753 1.529,-10.948 0.392,-15.685c-1.491,-6.218 -4.281,-7.868 -7.485,-4.429c-1.109,1.19 -2.016,2.8 -2.016,3.578c-0,0.778 -0.417,1.865 -0.927,2.415c-0.509,0.551 -1.494,2.778 -2.188,4.949c-1.066,3.337 -1.004,4.204 0.4,5.608c0.914,0.913 1.661,2.196 1.661,2.85c-0,0.855 0.349,0.841 1.24,-0.05c0.905,-0.905 1.616,-0.927 2.634,-0.082c1.879,1.559 1.763,2.895 -0.661,7.651c-1.218,2.388 -1.837,5.166 -1.516,6.809c0.407,2.092 -0.639,4.526 -4.25,9.889c-3.827,5.683 -4.417,7.114 -2.934,7.114c1.021,-0 2.709,-0.995 3.75,-2.211c1.465,-1.711 2.821,-2.123 5.999,-1.82c3.761,0.359 4.16,0.146 4.748,-2.531c0.354,-1.608 0.317,-4.402 -0.079,-6.21c-1.22,-5.554 1.776,-3.167 5.4,4.302c2.415,4.979 3.855,6.773 5.532,6.897c2.9,0.213 3.164,0.515 3.97,4.548c0.635,3.175 0.504,3.348 -2.536,3.348c-1.763,0 -3.363,-0.462 -3.556,-1.027c-0.194,-0.565 -1.419,-0.747 -2.723,-0.404c-2.222,0.584 -2.371,1.182 -2.371,9.484c-0,8.683 0.058,8.884 2.879,9.956c1.583,0.602 4.784,0.946 7.113,0.764c3.144,-0.245 4.235,0.063 4.235,1.194c0,1.231 -2.226,1.54 -11.593,1.613c-6.376,0.049 -12.193,0.463 -12.927,0.921c-2.932,1.825 -6.287,1.69 -8.112,-0.327l-0,-0Zm16.193,-8.21c-0.454,-2.753 -0.853,-5.657 -0.887,-6.452c-0.051,-1.166 -0.37,-1.192 -1.644,-0.135c-0.869,0.722 -1.581,1.907 -1.581,2.635c0,0.727 -0.711,1.913 -1.581,2.634c-1.919,1.594 -2.074,4.895 -0.263,5.626c0.725,0.292 2.547,0.569 4.049,0.614c2.678,0.082 2.715,-0.015 1.907,-4.922l-0,-0Zm8.041,-71.928c1.199,0 2.741,0.561 3.426,1.247c0.959,0.959 1.03,0.534 0.305,-1.845c-2.016,-6.617 -3.589,-10.532 -4.843,-12.048c-0.718,-0.87 -1.653,-2.767 -2.075,-4.216c-0.423,-1.449 -1.395,-4.057 -2.161,-5.796c-4.516,-10.26 -7.867,-18.888 -7.923,-20.398c-0.061,-1.66 -3.619,5.264 -6.178,12.023c-0.671,1.769 -2.32,4.405 -3.666,5.856c-3.073,3.315 -5.212,7.247 -4.389,8.07c0.346,0.345 2.297,-0.989 4.337,-2.966c3.54,-3.432 3.735,-3.493 4.297,-1.343c0.324,1.238 1.493,2.488 2.599,2.777c1.675,0.438 2.01,1.507 2.01,6.409c0,5.441 0.175,5.863 2.328,5.631c1.963,-0.212 2.655,0.704 4.418,5.849l2.09,6.099l1.623,-2.674c0.897,-1.479 2.597,-2.675 3.802,-2.675l0,0Z" style="fill:#30553c;fill-rule:nonzero;"/></svg>