<?xml version="1.0" encoding="UTF-8" standalone="no"?><!DOCTYPE svg PUBLIC "-//W3C//DTD SVG 1.1//EN" "http://www.w3.org/Graphics/SVG/1.1/DTD/svg11.dtd"><svg width="100%" height="100%" viewBox="0 0 70 151" version="1.1" xmlns="http://www.w3.org/2000/svg" xmlns:xlink="http://www.w3.org/1999/xlink" xml:space="preserve" xmlns:serif="http://www.serif.com/" style="fill-rule:evenodd;clip-rule:evenodd;stroke-linejoin:round;stroke-miterlimit:2;"><path id="Hollow-Tree-Svgs" serif:id="Hollow Tree Svgs" d="M32.601,149.289c-2.706,-1.845 -6.821,-2.858 -6.821,-1.679c-0,1.809 -2.965,-0.253 -3.543,-2.464c-0.755,-2.888 -0.09,-3.52 1.936,-1.839c1.314,1.09 1.607,1.055 1.607,-0.193c-0,-1.71 4.29,-6.109 5.958,-6.109c0.678,0 0.98,-3.542 0.812,-9.506c-0.257,-9.086 -0.411,-9.638 -3.486,-12.511l-3.217,-3.005l-5.395,3.553c-6.311,4.156 -10.305,4.511 -13.302,1.182c-4.23,-4.7 -3.96,-5.79 3.295,-13.305c5.642,-5.844 6.93,-7.854 7.537,-11.758c0.72,-4.63 0.697,-4.678 -1.351,-2.865c-3.639,3.222 -5.882,2.313 -5.852,-2.371c0.002,-0.29 0.34,-1.634 0.751,-2.988c0.717,-2.359 0.646,-2.396 -1.723,-0.894c-3.348,2.124 -8.963,3.206 -9.779,1.885c-0.362,-0.586 2.829,-5.001 7.093,-9.81c6.371,-7.187 15.497,-20.459 15.497,-22.538c-0,-0.279 -0.989,0.02 -2.198,0.669c-3.092,1.654 -3.723,0.48 -0.976,-1.817c1.262,-1.056 3.432,-4.139 4.822,-6.852c1.39,-2.712 3.042,-5.249 3.671,-5.638c1.726,-1.066 2.526,0.305 1.148,1.966c-0.666,0.802 -1.391,3.328 -1.611,5.614c-0.729,7.565 -8.256,20.288 -18.448,31.181c-4.061,4.341 -3.123,5.116 2.237,1.848c2.722,-1.659 3.005,-2.105 1.343,-2.109c-1.512,-0.004 -1.065,-0.528 1.581,-1.854c3.998,-2.004 5.038,-1.334 3.442,2.219c-0.561,1.247 -1.525,3.813 -2.143,5.702l-1.123,3.434l3.078,-2.192c4.114,-2.929 9.147,-4.354 9.69,-2.742c0.304,0.901 0.858,0.861 2.083,-0.151c2.802,-2.312 1.038,2.35 -1.953,5.16c-2.871,2.697 -3.231,4.122 -1.042,4.122c0.821,0 1.732,0.593 2.024,1.317c0.426,1.054 0.548,1.054 0.615,0c0.046,-0.724 0.543,-1.317 1.104,-1.317c1.6,0 0.016,3.381 -3.213,6.85c-2.594,2.789 -9.627,15.392 -8.964,16.065c0.138,0.141 2.28,-0.724 4.76,-1.922l4.508,-2.178l1.531,2.185c2.395,3.419 3.177,2.645 3.842,-3.801c0.397,-3.851 1.21,-6.317 2.277,-6.915c0.913,-0.511 1.39,-1.366 1.06,-1.9c-0.331,-0.534 -0.261,-2.757 0.154,-4.941l0.756,-3.97l0.832,3.072c0.457,1.689 0.567,3.499 0.244,4.022c-0.323,0.523 0.203,1.528 1.169,2.235c0.966,0.706 2.023,3.273 2.349,5.704c0.326,2.431 0.975,4.184 1.443,3.895c0.467,-0.288 0.999,1.022 1.181,2.912c0.389,4.026 4.02,5.732 4.02,1.888c0,-1.332 0.461,-1.963 1.131,-1.549c0.622,0.385 -0.589,-1.554 -2.691,-4.308c-4.721,-6.185 -3.715,-8.393 2.37,-5.2c2.163,1.135 4.209,2.442 4.547,2.904c0.968,1.325 9.213,-0.378 10.695,-2.208c0.736,-0.909 0.838,-1.353 0.227,-0.988c-0.64,0.382 -1.956,-1.515 -3.105,-4.475c-2.065,-5.321 -3.688,-5.989 -3.688,-1.518c-0,1.415 -0.475,2.572 -1.054,2.572c-0.58,0 -1.054,-0.948 -1.054,-2.108c-0,-2.424 -0.391,-2.537 -3.335,-0.961c-1.992,1.066 -2.093,0.918 -1.428,-2.107c0.614,-2.795 0.415,-3.255 -1.403,-3.255c-1.359,0 -2.282,-0.85 -2.575,-2.371c-0.288,-1.494 -0.51,-0.932 -0.601,1.518c-0.13,3.54 -1.639,6.032 -2.893,4.778c-0.276,-0.276 -0.775,-2.186 -1.109,-4.244c-0.531,-3.273 -0.129,-4.235 3.206,-7.67c2.802,-2.885 3.814,-4.84 3.814,-7.368c0,-4.46 -0.917,-6.761 -2.46,-6.169c-0.698,0.268 -1.766,-1.233 -2.463,-3.462c-1.305,-4.169 -0.584,-6.888 3.486,-13.145c2.62,-4.026 0.691,-8.238 -3.772,-8.238c-3.471,0 -4.68,-1.565 -5.698,-7.377c-0.533,-3.043 -0.188,-4.123 1.969,-6.17c3.254,-3.088 3.46,-8.471 0.602,-15.721c-2.097,-5.32 -3.952,-14.995 -2.875,-14.995c1.469,-0 10.149,21.827 10.172,25.581c0.008,1.291 3.802,9.935 8.431,19.209c4.629,9.274 8.417,17.301 8.417,17.836c-0,1.907 -5.568,-4.198 -7.137,-7.824c-0.878,-2.029 -1.793,-3.131 -2.034,-2.449c-0.43,1.217 2.062,7.035 4.979,11.623c1.97,3.098 0.193,4.664 -1.848,1.628c-1.898,-2.823 -4.45,-3.114 -4.62,-0.527c-0.262,3.972 0.459,6.376 4.431,14.775c2.267,4.793 4.121,9.344 4.121,10.114c-0,0.769 0.666,2.775 1.48,4.458c4.203,8.694 5.917,13.242 5.339,14.177c-0.353,0.57 -1.083,0.765 -1.622,0.431c-0.544,-0.336 -0.982,1.3 -0.982,3.671c0,3.1 -0.435,4.278 -1.58,4.278c-0.879,0 -1.581,0.937 -1.581,2.108c-0,2.378 -2.041,2.768 -4.137,0.79c-1.118,-1.055 -1.496,-1.044 -1.896,0.053c-0.406,1.111 -0.929,1.096 -2.767,-0.079c-1.381,-0.883 -4.015,-1.272 -6.745,-0.996l-4.479,0.453l0,6.677c0,3.673 0.45,6.956 1.001,7.296c0.555,0.343 0.724,2.953 0.38,5.859c-0.514,4.335 -0.333,5.24 1.045,5.24c0.916,-0 1.978,-0.507 2.361,-1.126c0.383,-0.619 1.478,-0.825 2.433,-0.458c0.956,0.368 4.246,0.813 7.311,0.991c3.065,0.177 5.897,0.646 6.293,1.042c1.225,1.225 -2.263,2.707 -4.489,1.907c-4.775,-1.716 -21.605,0.66 -21.605,3.05c0,1.394 -3.485,1.095 -5.825,-0.5l-0,0.001Zm6.493,-9.912c0.036,-1.015 0.193,-2.319 0.35,-2.899c0.157,-0.579 0.214,-3.188 0.127,-5.796c-0.141,-4.226 -0.313,-4.538 -1.585,-2.861c-0.881,1.161 -1.289,3.783 -1.067,6.85c0.198,2.733 0.38,5.325 0.406,5.759c0.099,1.659 1.707,0.701 1.769,-1.053Zm-20.768,-32.41c1.781,-3.769 3.238,-7.163 3.238,-7.541c0,-1.267 -4.26,3.152 -6.443,6.684c-1.188,1.922 -2.849,3.494 -3.692,3.494c-1.205,0 -1.291,0.45 -0.404,2.108c1.948,3.64 3.956,2.335 7.301,-4.745Zm17.171,-38.703c-1.725,-2.088 -2.052,-13.117 -0.437,-14.733c2.018,-2.017 2.421,-0.447 2.095,8.162c-0.258,6.835 -0.534,7.93 -1.658,6.571Zm-22.364,-17.198c-0,-1.031 2.716,-5.319 5.417,-8.551c1.53,-1.832 3.648,-4.796 4.706,-6.587c1.058,-1.791 2.296,-3.257 2.751,-3.257c1.685,-0 0.732,2.891 -2.599,7.882c-1.883,2.823 -3.992,6.098 -4.685,7.276c-1.129,1.918 -5.59,4.502 -5.59,3.237Zm-4.655,-5.608c-0.311,-0.502 0.43,-1.806 1.647,-2.898c3.822,-3.432 10.948,-13.368 13.409,-18.699c1.301,-2.817 3.637,-7.085 5.191,-9.485c1.554,-2.4 3.497,-5.786 4.316,-7.525c1.1,-2.333 1.602,-2.705 1.914,-1.421c0.451,1.851 -5.107,14.969 -7.501,17.708c-0.784,0.896 -2.92,4.531 -4.747,8.079c-3.409,6.619 -10.456,15.154 -12.512,15.154c-0.634,0 -1.407,-0.41 -1.717,-0.913Z" style="fill:#30553c;fill-rule:nonzero;"/></svg>