<?xml version="1.0" encoding="UTF-8" standalone="no"?><!DOCTYPE svg PUBLIC "-//W3C//DTD SVG 1.1//EN" "http://www.w3.org/Graphics/SVG/1.1/DTD/svg11.dtd"><svg width="100%" height="100%" viewBox="0 0 158 172" version="1.1" xmlns="http://www.w3.org/2000/svg" xmlns:xlink="http://www.w3.org/1999/xlink" xml:space="preserve" xmlns:serif="http://www.serif.com/" style="fill-rule:evenodd;clip-rule:evenodd;stroke-linejoin:round;stroke-miterlimit:2;"><path id="Hollow-Tree-Svgs" serif:id="Hollow Tree Svgs" d="M43.208,170.006c0,-0.58 -1.395,-1.054 -3.099,-1.054c-1.705,-0 -3.407,-0.497 -3.782,-1.104c-0.662,-1.071 -5.712,-0.713 -9.281,0.657c-1.348,0.517 -1.754,0.062 -1.754,-1.962c0,-2.795 2.124,-4.247 4.743,-3.242c1.017,0.391 1.581,-0.024 1.581,-1.158c-0,-1.285 0.572,-1.582 2.107,-1.095c1.644,0.521 2.108,0.189 2.108,-1.51c0,-1.198 0.474,-2.179 1.054,-2.179c0.58,0 1.054,-0.89 1.054,-1.979c-0,-1.088 0.668,-2.532 1.484,-3.21c0.816,-0.677 2.261,-2.869 3.211,-4.871c0.95,-2.002 2.104,-3.64 2.564,-3.64c1.069,-0 -0.175,8.329 -1.631,10.921c-1.242,2.212 0.384,6.972 2.387,6.987c0.641,0.003 1.826,-2.444 2.635,-5.441c1.524,-5.649 3.564,-7.661 4.42,-4.358c0.403,1.552 0.516,1.586 0.616,0.181c0.147,-2.074 5.565,-3.376 6.69,-1.607c0.543,0.853 0.782,0.772 0.793,-0.272c0.024,-2.157 1.413,-0.445 1.824,2.246c0.445,2.916 0.505,2.96 3.084,2.285c2.101,-0.549 2.116,-0.706 0.486,-5.238c-0.925,-2.57 -2.469,-4.923 -3.433,-5.229c-1.755,-0.557 -7.214,-12.639 -7.214,-15.965c-0,-1.393 -0.637,-1.157 -3.008,1.115l-3.008,2.881l-1.734,-2.647c-0.955,-1.456 -1.735,-3.347 -1.735,-4.203c-0,-2.425 -1.47,-2.762 -4.711,-1.081c-1.639,0.851 -3.073,1.419 -3.188,1.264c-0.114,-0.155 -1.004,-1.92 -1.977,-3.921c-1.737,-3.574 -1.721,-3.686 0.892,-6.3l2.661,-2.66l-0,2.819c-0,2.611 0.213,2.747 2.898,1.838c1.594,-0.54 4.321,-0.807 6.06,-0.592c1.739,0.214 4.116,0.443 5.283,0.509c1.166,0.066 2.589,1.157 3.161,2.424c1.338,2.961 3.657,3.712 3.737,1.209c0.057,-1.758 0.169,-1.776 1.244,-0.196c0.94,1.382 1.678,1.508 3.626,0.621c1.345,-0.613 2.443,-1.394 2.441,-1.736c-0.003,-0.341 -1.423,-2.755 -3.157,-5.363c-1.734,-2.609 -3.155,-5.604 -3.157,-6.656c-0.002,-1.053 -0.496,-2.831 -1.096,-3.952c-0.752,-1.406 -0.752,-2.039 0,-2.039c1.335,0 1.371,-1.088 0.101,-3.094c-0.79,-1.249 -1.245,-1.274 -2.606,-0.144c-1.385,1.149 -1.759,1.054 -2.343,-0.595c-2.895,-8.175 -3.049,-8.346 -7.342,-8.144c-2.256,0.106 -4.341,-0.12 -4.632,-0.502c-0.292,-0.382 -1.478,-1.234 -2.638,-1.893c-2.594,-1.476 -2.611,-7.193 -0.028,-9.736c1.606,-1.581 1.855,-1.556 3.256,0.334c0.834,1.125 1.516,1.531 1.516,0.903c0,-2.222 3.172,-2.323 5.181,-0.166c1.119,1.201 2.566,1.855 3.216,1.454c0.649,-0.402 1.831,-0.19 2.627,0.471c3.208,2.662 -0.274,-19.614 -3.713,-23.758c-0.635,-0.765 -1.333,-2.956 -1.553,-4.871c-0.219,-1.914 -1.147,-6.088 -2.061,-9.276c-0.991,-3.457 -1.437,-7.711 -1.106,-10.539c0.306,-2.609 0.163,-6.403 -0.319,-8.431l-0.874,-3.689l-1.22,4.216c-0.671,2.318 -1.223,5.023 -1.226,6.01c-0.008,2.451 -2.238,7.163 -3.39,7.163c-0.517,0 -1.64,1.541 -2.497,3.425c-0.857,1.884 -3.868,6.745 -6.692,10.803c-4.22,6.064 -4.853,7.537 -3.556,8.276c0.948,0.541 2.042,0.436 2.741,-0.263c1.947,-1.947 7.065,-1.447 7.065,0.69c-0,2.465 -8.082,14.748 -10.586,16.088c-3.231,1.729 -7.099,7.59 -7.916,11.994c-0.762,4.107 -0.759,4.112 1.613,2.451c2.617,-1.833 5.296,-1.366 5.296,0.924c0,2.003 2.785,1.863 3.569,-0.18c0.793,-2.067 2.754,-0.972 2.754,1.538c0,1.543 -7.293,13.011 -9.452,14.864c-0.338,0.29 -2.26,2.661 -4.271,5.27c-2.011,2.608 -5.391,6.568 -7.511,8.8c-3.286,3.46 -5.742,8.814 -4.583,9.991c0.563,0.572 5.012,-2.044 8.932,-5.253c5.061,-4.142 7.125,-3.92 3.956,0.426c-1.373,1.883 -2.405,4.017 -2.293,4.742c0.113,0.725 0.264,1.865 0.336,2.535c0.083,0.764 0.849,0.568 2.059,-0.527c6.899,-6.243 1.06,5.502 -7.122,14.327l-3.664,3.952l2.849,0c1.829,0 2.848,0.566 2.848,1.581c0,0.87 0.036,1.925 0.079,2.345c0.044,0.42 -0.43,0.934 -1.054,1.142c-0.623,0.207 -1.133,-0.383 -1.133,-1.311c0,-2.308 -4.795,-1.106 -8.775,2.2c-2.916,2.422 -4.925,3.153 -4.925,1.792c-0,-0.376 4.077,-4.912 9.059,-10.081c8.359,-8.671 8.933,-9.538 7.417,-11.212c-0.979,-1.082 -1.395,-2.756 -1.032,-4.147c0.724,-2.77 -1.335,-3.134 -4.44,-0.785c-2.736,2.069 -8.277,2.159 -7.495,0.121c0.315,-0.822 -0.159,-1.775 -1.055,-2.119c-1.441,-0.553 -1.414,-0.958 0.234,-3.512c1.024,-1.588 3.654,-4.441 5.845,-6.339c3.356,-2.908 8.339,-9.042 16.76,-20.631c0.968,-1.331 1.07,-1.862 0.264,-1.367c-0.884,0.542 -1.318,0.114 -1.318,-1.3c0,-2.862 -1.206,-3.398 -5.119,-2.276c-2.872,0.824 -3.312,0.688 -3.312,-1.022c0,-1.084 0.482,-2.27 1.071,-2.634c1.742,-1.076 0.159,-2.473 -2.126,-1.875c-3.534,0.924 -2.391,-1.329 3.953,-7.796c8.86,-9.03 16.468,-18.201 15.721,-18.949c-0.359,-0.358 -1.307,-0.108 -2.107,0.556c-0.868,0.72 -2.848,0.93 -4.901,0.519c-2.62,-0.524 -3.682,-0.267 -4.431,1.072c-0.543,0.969 -1.429,1.488 -1.971,1.153c-1.159,-0.716 1.213,-5.745 5.191,-11.011c4.253,-5.629 10.324,-16.256 16.314,-28.554c4.991,-10.249 5.569,-11.014 7.152,-9.485c0.947,0.914 1.957,3.56 2.244,5.878c0.287,2.319 0.853,5.401 1.257,6.851c1.627,5.826 3.732,17.593 3.733,20.868c0.001,2.005 1.677,6.608 3.954,10.859c2.173,4.058 4.759,8.895 5.745,10.748c2.245,4.216 2.292,4.949 0.315,4.949c-0.87,0 -1.581,-0.383 -1.581,-0.852c-0,-2.065 -2.796,-4.491 -4.447,-3.858c-1.627,0.625 -1.631,0.937 -0.054,4.245c1.324,2.776 1.447,4.133 0.553,6.094c-0.874,1.919 -0.817,2.872 0.237,3.98c1.608,1.689 5.952,17.637 6.283,23.062c0.123,2.028 0.781,4.724 1.461,5.99c0.68,1.266 1.236,3.551 1.236,5.077c0,2.255 -0.378,2.655 -2.019,2.134c-1.11,-0.352 -2.324,-0.147 -2.697,0.456c-0.372,0.604 -1.835,1.097 -3.25,1.097c-1.415,0 -2.572,0.204 -2.572,0.453c-0,0.249 2.177,5.11 4.837,10.802c3.493,7.472 4.98,12.108 5.349,16.673c0.281,3.478 1.035,7.4 1.675,8.716c1.737,3.569 -0.39,5.311 -3.776,3.092c-2.325,-1.523 -2.55,-1.524 -2.426,-0.016c0.167,2.03 -3.462,2.769 -5.46,1.111c-1.137,-0.944 -1.876,-0.645 -3.408,1.377c-1.893,2.501 -2.003,2.519 -3.425,0.583c-1.428,-1.942 -1.487,-1.935 -2.062,0.263c-0.467,1.786 -1.392,2.264 -4.379,2.264c-2.083,0 -3.788,-0.474 -3.788,-1.054l-0.001,-0Zm5.27,-3.162c-0,-0.579 -0.209,-1.054 -0.465,-1.054c-0.256,0 -0.758,0.475 -1.116,1.054c-0.358,0.58 -0.149,1.054 0.465,1.054c0.613,0 1.116,-0.474 1.116,-1.054Zm46.197,-1.794l-10.892,-7.164l-0.304,-6.85c-0.167,-3.768 0.141,-8.747 0.685,-11.066l0.988,-4.215l0.106,3.952c0.058,2.173 0.527,3.952 1.042,3.952c0.515,-0 1.304,-1.779 1.753,-3.952l0.816,-3.952l0.921,4.215c0.507,2.319 1.199,6.695 1.538,9.726c0.652,5.829 2.211,8.099 4.864,7.082c1.912,-0.734 3.227,-4.724 1.447,-4.389c-0.665,0.125 -1.162,-0.365 -1.104,-1.09c0.058,-0.724 0.176,-2.932 0.263,-4.907c0.131,-2.965 0.505,-3.499 2.147,-3.07c1.094,0.286 2.34,-0.048 2.769,-0.742c0.527,-0.853 2.263,0.329 5.341,3.635c5.468,5.871 9.972,8.54 11.186,6.63c1.205,-1.896 1.041,-2.668 -0.998,-4.71c-1.014,-1.016 -3.628,-6.064 -5.808,-11.219c-2.18,-5.155 -5.144,-10.466 -6.586,-11.803c-2.122,-1.967 -2.609,-3.398 -2.549,-7.488c0.089,-6.13 1.84,-11.353 1.959,-5.846c0.079,3.634 2.182,4.904 2.182,1.317c0,-3.65 1.965,-2.285 2.308,1.603c0.382,4.335 2.279,4.991 2.778,0.96c0.321,-2.587 -3.209,-13.152 -5.317,-15.916c-0.518,-0.678 -1.827,-4.235 -2.909,-7.904c-1.083,-3.669 -2.004,-6.078 -2.049,-5.354c-0.044,0.725 -0.851,1.318 -1.793,1.318c-1.356,-0 -1.575,-0.686 -1.054,-3.294c0.362,-1.811 0.659,-4.216 0.659,-5.344c-0,-1.824 0.176,-1.876 1.581,-0.471c0.869,0.87 1.581,2.184 1.581,2.921c-0,0.737 1.291,-0.652 2.87,-3.086c1.578,-2.435 3.261,-4.427 3.74,-4.427c1.099,0 4.928,8.34 4.959,10.803c0.032,2.435 -0.909,2.326 -3.861,-0.448l-2.439,-2.291l-0,2.751c-0,3.798 6.103,19.328 9.709,24.704c3.33,4.966 4.977,10.852 3.036,10.852c-0.67,0 -1.491,-0.711 -1.825,-1.581c-0.957,-2.493 -2.489,-1.844 -2.489,1.054c0,1.449 -0.525,2.635 -1.167,2.635c-0.644,-0 -0.872,0.767 -0.508,1.715c0.377,0.984 -0.044,2.227 -0.989,2.919c-1.488,1.088 -1.49,1.578 -0.02,5.097c0.895,2.141 2.476,4.348 3.515,4.904c1.038,0.555 2.569,2.351 3.403,3.99c0.833,1.639 2.593,4.749 3.91,6.911c2.702,4.435 3.127,7.349 0.95,6.514c-0.794,-0.305 -1.719,0.16 -2.054,1.033c-0.947,2.467 3.002,3.123 6.198,1.029c2.698,-1.767 2.855,-1.754 4.527,0.399c2.241,2.885 7.469,3.748 15.71,2.592c4.871,-0.683 6.881,-0.589 7.668,0.359c1.489,1.795 -1.115,2.638 -9.928,3.215c-3.989,0.261 -7.983,0.884 -8.876,1.383c-1.055,0.59 -2.811,0.242 -5.008,-0.991c-2.311,-1.298 -3.726,-1.558 -4.464,-0.82c-0.594,0.594 -3.252,0.907 -5.905,0.696c-3.172,-0.252 -4.997,0.064 -5.327,0.922c-0.276,0.719 -1.112,1.081 -1.858,0.805c-0.747,-0.275 -4.44,-0.64 -8.208,-0.809c-3.641,-0.164 -5.923,-0.086 -7.205,0.606l-5.615,-0Zm-36.531,-5.298c0.447,-5.011 -1.564,-6.899 -3.97,-3.728c-1.825,2.403 -1.81,2.91 0.19,6.778c2.02,3.908 3.248,2.917 3.78,-3.05l-0,-0Zm51.717,-3.974c-0.498,-2.606 -2.729,-3.551 -3.902,-1.653c-0.446,0.722 3.096,4.288 4.259,4.288c0.081,0 -0.08,-1.186 -0.357,-2.635l-0,0Zm-22.917,-4.115c0,-1.973 -0.355,-3.368 -0.79,-3.099c-0.435,0.268 -0.79,1.883 -0.79,3.588c-0,1.705 0.355,3.099 0.79,3.099c0.435,0 0.79,-1.614 0.79,-3.588Zm-55.328,2.281c-0,-1.782 5.436,-10.285 6.576,-10.285c1.031,-0 -4.014,10.133 -5.503,11.053c-0.59,0.365 -1.073,0.02 -1.073,-0.768Zm42.742,-5.543c0.801,-4.5 3.488,-11.962 4.932,-13.7c0.482,-0.58 1.574,-2.003 2.427,-3.162c1.436,-1.951 1.47,-1.872 0.469,1.054c-0.595,1.739 -1.496,4.11 -2.002,5.269c-0.506,1.16 -1.745,4.479 -2.752,7.378c-2.419,6.962 -4.05,8.639 -3.074,3.161Zm-46.957,-1.906c-0.001,-1.049 -0.475,-1.614 -1.055,-1.255c-0.58,0.358 -1.054,-0.008 -1.054,-0.816c0,-2.185 1.218,-2.995 2.678,-1.783c0.921,0.764 1.52,0.534 2.087,-0.8c0.693,-1.632 0.898,-1.534 1.599,0.764c1.505,4.936 1.186,6.11 -1.621,5.948c-1.782,-0.103 -2.634,-0.768 -2.634,-2.058Zm66.752,-22.392c-0.338,-0.881 -0.313,-3.6 0.055,-6.041c0.472,-3.121 0.358,-3.969 -0.382,-2.858c-0.579,0.87 -1.06,2.558 -1.069,3.751c-0.02,2.481 -2.682,6.581 -3.648,5.615c-0.353,-0.353 -0.159,-1.913 0.432,-3.467c0.913,-2.404 0.808,-2.779 -0.703,-2.518c-3.239,0.561 -4.458,-3.897 -2.538,-9.281c0.966,-2.711 1.853,-4.013 2.058,-3.022c0.234,1.133 1.062,1.557 2.371,1.215c1.451,-0.379 2.012,0.024 2.012,1.446c-0,1.084 0.953,2.482 2.117,3.105c1.594,0.853 1.976,1.839 1.544,3.989c-0.315,1.571 0.438,0.333 1.673,-2.751c1.235,-3.084 2.371,-5.455 2.524,-5.27c0.153,0.186 -0.012,3.843 -0.365,8.126c-0.566,6.859 -0.93,7.894 -3.054,8.676c-1.778,0.654 -2.574,0.466 -3.027,-0.715l-0,0Zm-3.16,-10.795c0.414,-2.173 0.273,-3.237 -0.376,-2.836c-0.571,0.353 -1.038,2.115 -1.038,3.916c0,3.981 0.526,3.579 1.414,-1.08l-0,-0Zm-16.89,-2.421c0.318,-1.215 0.301,-2.931 -0.036,-3.812c-0.487,-1.27 -0.903,-1.084 -1.998,0.892c-0.853,1.538 -1.398,1.887 -1.421,0.911c-0.036,-1.451 7.166,-12.541 7.474,-11.512c1.26,4.205 -1.307,15.731 -3.503,15.731c-0.601,-0 -0.832,-0.995 -0.515,-2.21l-0.001,0Zm3.883,1.214c0,-1.789 5.51,-10.593 6.632,-10.595c0.459,-0.001 -0.449,2.251 -2.018,5.004c-3.482,6.111 -4.614,7.482 -4.614,5.591Zm-10.538,-12.047c-0,-0.217 2.398,-5.078 5.331,-10.802c2.932,-5.725 5.478,-11.357 5.659,-12.516c0.181,-1.159 1.062,-3.768 1.958,-5.796c1.828,-4.143 1.573,-5.155 -0.803,-3.183c-2.444,2.028 -2.101,-1.129 0.625,-5.749c1.228,-2.08 3.553,-7.205 5.169,-11.389c1.955,-5.064 3.763,-8.035 5.409,-8.888c1.359,-0.704 2.78,-2.364 3.157,-3.689c0.663,-2.33 0.689,-2.335 0.791,-0.147c0.057,1.243 1.282,3.378 2.721,4.743c1.439,1.365 2.625,3.019 2.635,3.676c0.012,0.657 0.966,1.442 2.126,1.745c1.261,0.33 2.108,1.438 2.108,2.758c-0,2.841 1.697,2.834 3.222,-0.016c1.76,-3.288 2.804,-1.421 4.779,8.549c1.856,9.366 2.958,12.17 7.292,18.556c1.442,2.126 2.623,4.55 2.623,5.387c-0,3.159 -2.466,0.483 -6.545,-7.104c-2.322,-4.318 -5.356,-9.199 -6.742,-10.847c-1.387,-1.648 -2.522,-3.598 -2.522,-4.333c0,-2.37 -3.899,-5.068 -6.247,-4.322c-1.308,0.415 -2.184,0.226 -2.184,-0.469c0,-0.842 -0.605,-0.838 -2.198,0.016c-1.209,0.647 -2.333,1.019 -2.498,0.827c-0.165,-0.192 -0.751,-2.72 -1.303,-5.618l-1.004,-5.27l-1.987,4.216c-1.093,2.319 -2.783,5.164 -3.755,6.323c-0.972,1.16 -2.09,3.172 -2.484,4.473c-0.567,1.868 -0.371,2.232 0.933,1.731c1.816,-0.697 2.383,2.177 0.642,3.253c-0.555,0.342 -0.774,1.232 -0.489,1.976c0.966,2.516 -13.432,32.304 -15.614,32.304c-0.443,-0 -0.805,-0.178 -0.805,-0.395Zm19.748,-13.921c-0.323,-1.692 0.076,-4.303 0.902,-5.9c1.942,-3.756 1.895,-7.185 -0.1,-7.185c-0.869,0 -1.581,0.554 -1.581,1.23c0,0.676 -0.288,0.941 -0.642,0.588c-0.849,-0.85 3.625,-7.087 5.084,-7.087c1.565,0 0.236,15.054 -1.645,18.644l-1.438,2.745l-0.58,-3.035Zm5.288,0.374c-0.596,-1.789 1.724,-9.319 2.948,-9.568c1.456,-0.295 1.799,4.735 0.547,8.028c-1.138,2.993 -2.77,3.712 -3.495,1.54Zm31.346,-30.32c-1.049,-1.159 -2.782,-2.108 -3.852,-2.108c-1.069,0 -1.944,-0.419 -1.944,-0.931c0,-0.512 -0.91,-1.169 -2.022,-1.459c-1.322,-0.346 -3.877,-4.385 -7.377,-11.659c-2.946,-6.122 -5.355,-11.63 -5.355,-12.241c-0,-1.635 -1.172,-1.353 -2.622,0.631c-0.776,1.06 -1.804,1.414 -2.629,0.905c-0.998,-0.617 -1.198,-2.903 -0.76,-8.694c0.327,-4.322 0.417,-7.68 0.2,-7.464c-0.216,0.217 -2.575,4.65 -5.241,9.851c-4.396,8.576 -9.482,15.095 -10.771,13.805c-0.276,-0.276 1.266,-3.501 3.427,-7.168c2.161,-3.666 4.861,-8.325 6,-10.354c1.139,-2.029 2.68,-4.4 3.424,-5.269c2.217,-2.591 5.797,-10.736 5.992,-13.635c0.1,-1.485 0.502,1.331 0.895,6.257c0.392,4.927 1.524,11.093 2.515,13.701c3.687,9.702 10.486,22.707 12.633,24.165c2.768,1.879 12.215,11.914 12.223,12.984c0.012,1.553 -2.862,0.754 -4.736,-1.317l0,0Z" style="fill:#30553c;fill-rule:nonzero;"/></svg>