<?xml version="1.0" encoding="UTF-8" standalone="no"?><!DOCTYPE svg PUBLIC "-//W3C//DTD SVG 1.1//EN" "http://www.w3.org/Graphics/SVG/1.1/DTD/svg11.dtd"><svg width="100%" height="100%" viewBox="0 0 94 159" version="1.1" xmlns="http://www.w3.org/2000/svg" xmlns:xlink="http://www.w3.org/1999/xlink" xml:space="preserve" xmlns:serif="http://www.serif.com/" style="fill-rule:evenodd;clip-rule:evenodd;stroke-linejoin:round;stroke-miterlimit:2;"><path id="Hollow-Tree-Svgs" serif:id="Hollow Tree Svgs" d="M83.573,156.959c-0.649,-1.213 -1.84,-2.071 -2.647,-1.908c-0.807,0.163 -2.19,-0.651 -3.073,-1.811c-1.543,-2.024 -1.608,-1.972 -1.64,1.318c-0.02,1.883 -0.468,3.425 -1,3.425c-0.531,-0 -2.713,-2.016 -4.847,-4.479c-2.135,-2.464 -3.544,-3.531 -3.132,-2.372c1.407,3.961 1.132,5.286 -1.02,4.91c-2.771,-0.483 -4.469,-3.013 -5.234,-7.794c-0.348,-2.181 -0.984,-3.958 -1.412,-3.95c-1.996,0.042 -3.215,1.929 -3.903,6.044c-0.503,3.011 -1.281,4.479 -2.374,4.479c-1.27,0 -1.495,-0.808 -1.028,-3.689c0.784,-4.828 -0.725,-4.769 -1.981,0.079c-0.908,3.5 -3.288,4.849 -2.919,1.653c0.121,-1.045 -0.149,-1.116 -1.001,-0.263c-2.086,2.086 -5.02,1.235 -6.854,-1.989c-0.987,-1.735 -2.082,-3.158 -2.432,-3.161c-0.35,-0.003 -1.876,1.142 -3.391,2.546c-2.652,2.458 -7.038,4.533 -7.038,3.33c0,-2.274 6.964,-11.122 10.445,-13.27c2.339,-1.444 4.265,-3.009 4.281,-3.477c0.016,-0.469 0.434,-0.602 0.931,-0.296c0.496,0.307 0.673,2.941 0.393,5.853c-0.524,5.451 0.751,8.469 3.576,8.469c1.032,-0 1.452,-1.465 1.452,-5.059c-0,-6.253 3.315,-10.444 4.543,-5.744c0.401,1.534 0.502,1.484 0.604,-0.292c0.321,-5.611 5.357,-8.061 9.026,-4.392c2.456,2.456 4.094,2.305 2.726,-0.252c-0.6,-1.122 -1.091,-3.101 -1.091,-4.4l0,-2.36l2.761,2.555c1.518,1.405 3.863,4.281 5.21,6.392c1.348,2.111 3.899,4.479 5.671,5.263c1.771,0.784 3.22,1.826 3.22,2.315c0,0.489 2.253,2.945 5.006,5.458c4.247,3.877 4.829,4.862 3.839,6.495c-1.674,2.762 -4.296,2.935 -5.667,0.374l-0,-0Zm-29.22,-156.959c-0.743,1.195 -0.459,3.234 0.409,6.577c0.766,2.957 1.394,7.416 1.394,9.91c-0,7.197 6.4,29.65 9.657,33.878c1.064,1.383 1.935,3.426 1.935,4.541c0,1.941 3.844,7.573 9.397,13.767c1.959,2.186 2.304,3.204 1.394,4.115c-0.91,0.91 -1.978,0.387 -4.315,-2.115c-3.449,-3.692 -4.368,-4.066 -4.368,-1.781c0,0.85 -0.886,2.018 -1.968,2.598c-2.995,1.602 -3.393,6.357 -1.251,14.949c2.379,9.548 2.92,10.907 6.45,16.215c3.059,4.598 4.655,10.356 2.691,9.704c-0.649,-0.215 -2.574,-2.831 -4.278,-5.813c-4.071,-7.123 -4.796,-6.104 -1.261,1.773c1.539,3.429 2.532,6.927 2.207,7.773c-1.223,3.186 7.3,18.045 16.06,27.998c4.886,5.552 5.896,7.276 5.057,8.633c-1.198,1.939 -2.396,1.066 -5.791,-4.224l0,-0c-1.859,-2.898 -3.756,-5.269 -4.215,-5.269c-0.459,-0 -2.315,-2.308 -4.124,-5.127c-1.81,-2.82 -4.481,-6.496 -5.937,-8.168c-8.111,-9.32 -15.253,-32.108 -9.779,-31.204c2.9,0.479 3.091,-1.323 0.885,-8.361c-1.153,-3.677 -2.102,-8.168 -2.109,-9.981c-0.012,-3.317 -2.197,-6.289 -3.593,-4.893c-0.413,0.413 -1.139,0.124 -1.612,-0.642c-1.006,-1.629 -2.582,7.056 -1.713,9.438c1.061,2.908 2.509,19.453 1.952,22.315c-0.886,4.557 -2.425,3.387 -2.425,-1.844c-0,-5.061 -1.573,-6.277 -3.067,-2.372c-0.782,2.046 -5.372,7.15 -5.36,5.96c0.003,-0.234 1.284,-3.746 2.847,-7.804c2.257,-5.856 2.874,-9.332 2.993,-16.862c0.082,-5.217 0.342,-10.196 0.578,-11.066c0.336,-1.241 -0.421,-1.506 -3.524,-1.235c-5.336,0.467 -5.194,-1.723 0.332,-5.103c5.286,-3.233 11.524,-10.63 11.524,-13.665c0,-1.242 -1.125,-4.719 -2.5,-7.726c-1.375,-3.008 -3.102,-7.74 -3.837,-10.517c-0.744,-2.806 -2.208,-5.514 -3.297,-6.097c-1.077,-0.576 -1.959,-2.075 -1.959,-3.329c0,-3.019 -1.343,-1.295 -3.066,3.936c-0.763,2.319 -2.769,7.154 -4.457,10.745c-3.179,6.765 -6.177,14.657 -6.177,16.262c-0,2.238 2.979,0.571 5.998,-3.356c3.706,-4.822 5.332,-4.12 2.895,1.251c-3.667,8.082 -4.241,8.825 -7.082,9.156c-1.943,0.226 -2.916,0.989 -3.023,2.371c-0.087,1.121 -0.206,2.631 -0.263,3.355c-0.059,0.725 -1.884,4.118 -4.058,7.541c-2.173,3.423 -3.952,6.84 -3.952,7.594c0,2.274 -6.256,12.266 -10.319,16.482c-4.472,4.639 -7.949,5.545 -4.512,1.175c2.575,-3.274 2.806,-4.773 0.604,-3.928c-2.949,1.132 -1.566,-1.182 3.861,-6.462c10.104,-9.83 15.636,-18.971 15.636,-25.838c-0,-2.451 -0.362,-2.789 -2.535,-2.374c-3.713,0.71 -3.071,-2.133 2.271,-10.049c2.464,-3.65 4.479,-7.069 4.479,-7.597c0,-0.528 2.151,-5.13 4.779,-10.225c5.677,-11.004 7.479,-17.056 8.272,-27.777l0.533,-7.208l4.637,0Zm11.376,146.39c2.189,0 2.316,-0.369 1.355,-3.952c-0.883,-3.295 -1.859,-2.965 -3.339,1.129c-1.2,3.316 -1.696,6.935 -0.568,4.14c0.292,-0.724 1.441,-1.317 2.552,-1.317Zm-39.738,-0.263c0.242,-1.304 0.902,-3.557 1.467,-5.006c1.425,-3.655 3.405,-10.006 3.405,-10.924c-0,-0.419 -0.83,-0.622 -1.845,-0.452c-1.446,0.243 -1.771,-0.315 -1.506,-2.584c0.491,-4.198 -2.23,-2.773 -5.563,2.913c-3.015,5.145 -7.306,8.939 -10.111,8.939c-1.032,-0 -2.059,0.545 -2.282,1.212c-0.222,0.667 -1.006,1.011 -1.743,0.766c-0.906,-0.303 -0.261,-1.801 1.997,-4.638c1.835,-2.304 3.83,-5.139 4.433,-6.298c1.179,-2.264 0.475,-1.715 -9.113,7.114c-6.221,5.728 -6.943,4.845 -1.292,-1.581c5.51,-6.266 20.701,-28.421 20.701,-30.191c0,-0.639 -0.355,-1.106 -0.79,-1.037c-2.42,0.382 -1.94,-0.603 2.497,-5.131c2.698,-2.753 5.64,-5.841 6.537,-6.86c1.138,-1.294 1.856,-1.491 2.375,-0.651c0.534,0.864 1.44,0.717 3.202,-0.517c3.505,-2.455 4.095,-2.18 4.095,1.906c0,1.994 0.475,3.919 1.054,4.278c0.58,0.358 1.054,-0.016 1.054,-0.829c0,-1.476 3.213,-4.968 4.571,-4.968c0.394,0 0.278,0.83 -0.259,1.844c-0.536,1.015 -1.546,3.386 -2.244,5.27c-0.786,2.121 -1.99,3.425 -3.162,3.425c-1.04,0 -2.107,0.593 -2.369,1.317c-0.381,1.053 -0.929,1.051 -2.723,-0.008c-1.335,-0.788 -2.245,-0.895 -2.245,-0.263c0,0.585 -0.711,1.063 -1.581,1.063c-0.869,-0 -1.588,-0.593 -1.597,-1.317c-0.012,-0.886 -0.27,-0.947 -0.79,-0.187c-0.426,0.622 -1.502,1.398 -2.392,1.724c-2.421,0.888 -7.344,8.498 -7.793,12.047c-0.216,1.711 -1.158,4.941 -2.092,7.177c-0.934,2.235 -1.556,4.207 -1.382,4.382c0.174,0.174 2.613,-1.762 5.419,-4.302c5.207,-4.713 9.604,-5.964 8.691,-2.472c-0.264,1.012 0.181,2.39 0.991,3.062c2.39,1.983 1.724,6.217 -2.431,15.454c-3.78,8.402 -6.091,11.222 -5.184,6.324l0,-0.001Z" style="fill:#30553c;fill-rule:nonzero;"/></svg>