<?xml version="1.0" encoding="UTF-8" standalone="no"?><!DOCTYPE svg PUBLIC "-//W3C//DTD SVG 1.1//EN" "http://www.w3.org/Graphics/SVG/1.1/DTD/svg11.dtd"><svg width="100%" height="100%" viewBox="0 0 69 135" version="1.1" xmlns="http://www.w3.org/2000/svg" xmlns:xlink="http://www.w3.org/1999/xlink" xml:space="preserve" xmlns:serif="http://www.serif.com/" style="fill-rule:evenodd;clip-rule:evenodd;stroke-linejoin:round;stroke-miterlimit:2;"><path id="Hollow-Tree-Svgs" serif:id="Hollow Tree Svgs" d="M22.664,133.872c-0.301,-0.301 -2.807,-0.871 -5.569,-1.266c-5.16,-0.738 -7.154,-2.578 -4.075,-3.76c0.956,-0.366 3.645,-0.153 5.975,0.474c2.331,0.628 4.591,0.751 5.024,0.274c1.309,-1.443 2.3,-26.443 1.078,-27.199c-0.594,-0.367 -1.079,-1.551 -1.079,-2.632c-0,-1.752 -0.748,-1.929 -6.875,-1.627c-3.782,0.186 -7.561,0.907 -8.399,1.603c-1.191,0.988 -2.223,0.956 -4.718,-0.149c-3.006,-1.331 -4.445,-4.061 -2.14,-4.061c0.58,0 1.054,0.443 1.054,0.983c0,1.818 4.31,2.418 6.135,0.854c1.072,-0.917 3.639,-1.433 6.512,-1.307c2.608,0.114 5.312,-0.235 6.009,-0.775c0.697,-0.541 2.176,-0.694 3.287,-0.342c1.839,0.584 2.086,-0.122 2.766,-7.912c0.41,-4.704 0.578,-8.721 0.372,-8.927c-0.205,-0.205 -2.241,0.048 -4.524,0.563c-2.473,0.557 -4.619,0.546 -5.311,-0.028c-0.731,-0.606 -2.049,-0.343 -3.55,0.708c-1.632,1.143 -2.731,1.331 -3.469,0.592c-0.738,-0.738 -2.077,-0.733 -4.224,0.016c-2.671,0.932 -3.479,0.761 -5.376,-1.137c-1.806,-1.806 -1.977,-2.487 -0.891,-3.562c1.081,-1.071 1.544,-0.971 2.382,0.515c1.281,2.271 3.404,2.369 5.171,0.24c0.787,-0.947 2.155,-1.343 3.342,-0.967c1.105,0.351 2.668,0.092 3.472,-0.576c0.995,-0.826 2.078,-0.885 3.386,-0.185c2.244,1.201 7.21,0.47 8.585,-1.263c1.069,-1.347 2.254,-11.934 1.428,-12.76c-0.293,-0.293 -2.059,0.412 -3.926,1.565c-3.062,1.893 -3.529,1.936 -4.766,0.446c-0.909,-1.095 -2.254,-1.432 -3.985,-0.997c-1.572,0.395 -2.929,0.144 -3.406,-0.628c-0.62,-1.002 -1.519,-0.982 -4.111,0.092c-2.536,1.05 -3.608,1.083 -4.552,0.139c-3.223,-3.223 5.664,-7.32 9.312,-4.293c0.824,0.684 2.25,0.955 3.169,0.603c0.919,-0.353 2.635,-0.125 3.815,0.506c1.548,0.829 2.465,0.828 3.296,-0.003c0.633,-0.634 2.18,-1.152 3.438,-1.152c1.822,0 2.418,-0.801 2.939,-3.952c0.922,-5.577 0.83,-9.748 -0.214,-9.748c-0.49,-0 -1.749,0.948 -2.798,2.107c-2.429,2.684 -4.953,2.679 -7.391,-0.016c-1.193,-1.318 -2.655,-1.889 -3.859,-1.507c-1.38,0.438 -2.203,-0.089 -2.861,-1.83c-1.075,-2.846 -0.364,-4.694 1.203,-3.127c0.739,0.739 1.655,0.373 2.895,-1.158l1.813,-2.239l2.901,2.901l2.902,2.902l2.03,-2.179c1.116,-1.198 2.723,-2.179 3.57,-2.179c0.846,0 1.539,-0.435 1.539,-0.967c0,-0.533 0.32,-1.801 0.71,-2.818c0.544,-1.416 0.304,-1.694 -1.02,-1.186c-0.951,0.365 -2.01,0.21 -2.353,-0.344c-0.342,-0.555 -1.534,-1.008 -2.647,-1.008c-2.884,-0 -10.581,-3.229 -9.987,-4.19c0.274,-0.443 2.356,-0.465 4.628,-0.049c2.272,0.415 4.915,0.316 5.874,-0.221c1.137,-0.636 2.258,-0.55 3.219,0.248c0.811,0.673 2.174,1.066 3.028,0.874c2.361,-0.533 -0.693,-7.201 -3.298,-7.201c-1.956,-0 -4.477,-1.859 -4.477,-3.302c0,-0.425 1.849,-0.603 4.108,-0.397c3.74,0.342 4.157,0.124 4.649,-2.441c0.298,-1.55 0.068,-3.39 -0.51,-4.089c-0.578,-0.7 -0.767,-1.731 -0.42,-2.293c0.347,-0.561 0.073,-2.244 -0.608,-3.739c-1.761,-3.865 -0.315,-4.581 2.694,-1.334c1.57,1.693 2.353,3.543 2.027,4.789c-0.292,1.116 -0.012,2.348 0.618,2.739c0.765,0.473 0.812,1.338 0.14,2.594c-0.881,1.646 -0.213,2.106 5.266,3.629c3.452,0.96 6.275,2.227 6.275,2.817c0,2.142 -4.777,3.37 -8.794,2.26c-3.447,-0.951 -3.852,-0.854 -3.852,0.922c-0,2.599 3.603,4.463 7.175,3.713c3.588,-0.753 6,0.719 5.085,3.103c-0.433,1.131 -1.433,1.613 -2.671,1.289c-1.088,-0.284 -2.608,-0.128 -3.377,0.347c-0.801,0.495 -2.029,0.342 -2.872,-0.358c-1.162,-0.964 -1.895,-0.703 -3.461,1.231c-3.621,4.471 -1.796,10.812 2.364,8.214c1.514,-0.945 2.451,-0.932 4.031,0.055c1.355,0.846 2.286,0.919 2.721,0.215c0.635,-1.027 8.543,-0.669 9.65,0.437c1.169,1.169 -1.002,2.739 -4.718,3.409c-2.153,0.389 -4.672,1.096 -5.598,1.572c-0.999,0.514 -2.168,0.381 -2.877,-0.328c-0.889,-0.889 -1.848,-0.844 -3.757,0.178c-2.093,1.12 -2.64,2.362 -2.983,6.776c-0.232,2.973 -0.335,5.541 -0.229,5.708c0.195,0.31 7.714,0.495 11.529,0.285c1.159,-0.064 3.963,-0.075 6.23,-0.024l4.123,0.091l-2.276,2.276c-2.024,2.023 -2.648,2.136 -5.623,1.013c-2.414,-0.911 -3.73,-0.945 -4.723,-0.121c-0.989,0.821 -2.326,0.811 -4.757,-0.036c-1.859,-0.648 -3.776,-0.783 -4.259,-0.3c-1.457,1.457 -2.44,15.422 -1.025,14.548c0.66,-0.408 2.091,-0.265 3.18,0.318c1.617,0.865 2.197,0.584 3.161,-1.533c1.172,-2.571 3.733,-3.449 4.84,-1.659c0.317,0.513 2.834,0.757 5.595,0.543c5.885,-0.456 13.676,1.491 14.494,3.623c1.314,3.423 -4.813,5.993 -7.613,3.193c-0.7,-0.701 -1.985,-0.853 -3.109,-0.368c-3.022,1.303 -9.156,1.402 -10.695,0.173c-1,-0.797 -1.988,-0.754 -3.438,0.151c-1.119,0.699 -3.167,0.987 -4.55,0.64c-2.294,-0.576 -2.575,-0.231 -3.205,3.935c-0.38,2.512 -0.94,5.871 -1.245,7.465c-0.366,1.912 -0.106,2.898 0.764,2.898c0.725,0 2.185,0.785 3.245,1.744c1.796,1.625 2.068,1.617 3.979,-0.112c1.965,-1.778 2.189,-1.758 5.344,0.489l3.294,2.345l2.88,-2.76c3.225,-3.089 6.592,-3.553 8.562,-1.179c0.722,0.87 2.914,1.581 4.872,1.581c3.74,-0 4.399,0.847 2.295,2.951c-1.633,1.632 -6.62,1.624 -9.244,-0.016c-1.722,-1.075 -2.446,-0.907 -4.533,1.054c-2.729,2.564 -6.999,3.057 -9.014,1.042c-1.018,-1.018 -1.727,-1.018 -3.358,0c-2.615,1.633 -5.529,1.651 -7.137,0.044c-2.287,-2.287 -2.86,0.26 -3.203,14.242c-0.268,10.949 -0.068,13.612 0.952,12.611c0.753,-0.739 1.994,-0.924 2.975,-0.443c0.925,0.454 5.714,0.93 10.641,1.057c11.247,0.291 16.011,1.097 15.506,2.624c-0.521,1.573 -16,2.108 -23.173,0.802c-3.029,-0.552 -5.981,-0.638 -6.561,-0.192c-1.402,1.081 -7.509,2.206 -8.203,1.512l-0.001,-0.001Z" style="fill:#30553c;fill-rule:nonzero;"/></svg>