<?xml version="1.0" encoding="UTF-8" standalone="no"?><!DOCTYPE svg PUBLIC "-//W3C//DTD SVG 1.1//EN" "http://www.w3.org/Graphics/SVG/1.1/DTD/svg11.dtd"><svg width="100%" height="100%" viewBox="0 0 76 171" version="1.1" xmlns="http://www.w3.org/2000/svg" xmlns:xlink="http://www.w3.org/1999/xlink" xml:space="preserve" xmlns:serif="http://www.serif.com/" style="fill-rule:evenodd;clip-rule:evenodd;stroke-linejoin:round;stroke-miterlimit:2;"><path id="Hollow-Tree-Svgs" serif:id="Hollow Tree Svgs" d="M26.499,167.891c-1.879,-4.942 -1.702,-7.08 0.599,-7.223c7.421,-0.461 6.85,0.266 6.85,-8.712c-0,-4.521 0.48,-8.7 1.068,-9.288c1.507,-1.507 -0.757,-7.544 -3.351,-8.932c-2.519,-1.349 -2.216,-5.527 0.439,-6.033c1.014,-0.193 1.844,0.236 1.844,0.955c-0,0.718 0.83,2.116 1.844,3.105c1.745,1.702 2.088,1.541 6.342,-2.976l4.498,-4.775l2.42,2.274c3.045,2.861 3.721,2.848 4.809,-0.092c0.482,-1.303 1.768,-2.368 2.864,-2.371c1.473,-0.004 1.901,-0.638 1.649,-2.44c-0.187,-1.338 0.2,-3.085 0.861,-3.881c0.932,-1.124 0.654,-1.991 -1.241,-3.876c-1.343,-1.336 -3.248,-4.213 -4.234,-6.394c-1.193,-2.638 -2.489,-3.965 -3.871,-3.965c-1.144,-0 -3.563,-1.249 -5.376,-2.775c-4.497,-3.784 -3.929,-6.592 1.752,-8.656c5.117,-1.859 6.35,-4.704 4.487,-10.351c-1.456,-4.411 -0.529,-5.953 1.242,-2.067c0.694,1.524 1.843,2.771 2.552,2.771c0.808,0 0.154,-2.191 -1.75,-5.859c-1.672,-3.223 -3.04,-6.762 -3.04,-7.865c0,-3.446 -4.452,-14.137 -6.489,-15.581c-1.068,-0.757 -1.942,-2.315 -1.942,-3.462c0,-1.748 -0.336,-1.905 -2.075,-0.975c-2.87,1.536 -7.037,8.988 -8.556,15.299c-0.697,2.898 -1.881,6.682 -2.631,8.409c-0.927,2.134 -1.011,3.357 -0.261,3.82c0.652,0.403 0.806,2.027 0.379,3.975c-0.572,2.603 -0.375,3.293 0.941,3.293c0.962,-0 1.664,-0.89 1.664,-2.108c0,-1.171 0.703,-2.108 1.581,-2.108c2.836,0 1.751,5.839 -2.778,14.947c-2.398,4.821 -4.651,9.004 -5.006,9.296c-1.048,0.858 -5.389,9.276 -5.389,10.448c-0,0.591 0.781,0.775 1.736,0.409c1.417,-0.544 1.637,-0.143 1.193,2.178c-0.627,3.28 2.115,5.426 5.542,4.338c1.785,-0.566 2.067,-0.153 2.067,3.028c0,2.027 -0.763,4.449 -1.697,5.382c-1.561,1.561 -1.803,1.554 -3.001,-0.084c-0.915,-1.251 -1.527,-1.421 -2.053,-0.569c-1.136,1.838 -2.424,1.459 -3.039,-0.894c-0.832,-3.182 -2.271,-2.569 -5.531,2.358c-4.141,6.257 -4.453,3.301 -0.434,-4.114l3.332,-6.148l-6.427,6.587c-3.536,3.622 -6.668,6.587 -6.962,6.587c-1.279,-0 -0.324,-2.201 2.364,-5.448l2.898,-3.501l-4.401,3.447c-8.03,6.289 -5.654,1.8 4.941,-9.334c5.748,-6.042 10.76,-11.887 11.137,-12.989c0.378,-1.103 2.054,-4.325 3.726,-7.16c3.422,-5.803 3.516,-6.117 1.839,-6.117c-0.661,0 -1.736,-0.731 -2.39,-1.625c-1.031,-1.41 -1.627,-1.196 -4.508,1.621c-1.85,1.808 -3.607,2.782 -3.968,2.198c-0.356,-0.576 -1.344,-0.781 -2.194,-0.454c-3.469,1.331 -0.707,-3.885 7.109,-13.422c4.761,-5.811 5.587,-7.934 7.632,-19.625c2.188,-12.509 2.128,-14.384 -0.312,-9.834c-1.066,1.989 -2.529,3.812 -3.249,4.052c-0.895,0.299 -0.753,-0.639 0.447,-2.961c3.267,-6.318 4.692,-11.541 3.803,-13.942c-0.805,-2.176 -1.026,-2.049 -3.648,2.104c-1.535,2.432 -2.791,5.053 -2.791,5.826c0,0.772 -1.423,2.768 -3.161,4.434c-2.981,2.855 -3.162,2.9 -3.162,0.783c-0,-1.234 0.86,-2.864 1.912,-3.622c1.051,-0.757 3.897,-4.992 6.323,-9.411c3.689,-6.718 4.412,-8.994 4.412,-13.902c-0,-3.227 0.419,-6.127 0.932,-6.444c0.513,-0.317 1.253,-2.716 1.645,-5.331c0.393,-2.616 1.106,-4.756 1.586,-4.756c0.479,0 0.85,-0.593 0.823,-1.317c-0.238,-6.389 1.7,-8.154 3.471,-3.162c0.566,1.594 1.525,3.759 2.133,4.81c2.131,3.689 7.424,20.336 10.114,31.813c1.495,6.376 3.681,13.182 4.859,15.124c2.06,3.398 2.065,3.518 0.145,3.162c-2.376,-0.441 -6.165,-7.728 -7.863,-15.125c-0.666,-2.898 -1.922,-6.766 -2.791,-8.596c-0.869,-1.83 -1.955,-4.912 -2.413,-6.85l-0.833,-3.524l-0.072,3.162c-0.12,5.265 3.561,18.906 6.539,24.234c1.541,2.757 2.802,5.508 2.802,6.112c0,2.335 10.924,24.453 15.299,30.977c4.856,7.24 6.684,12.492 4.951,14.225c-0.685,0.686 -2.133,-1.269 -4.238,-5.725c-1.978,-4.187 -3.842,-6.765 -4.891,-6.765c-0.932,-0 -1.547,0.276 -1.368,0.614c2.756,5.189 2.957,6.107 1.929,8.813c-1.355,3.563 -2.49,3.624 -4.304,0.233c-0.776,-1.449 -1.837,-2.634 -2.357,-2.634c-1.084,-0 -0.183,3.514 1.892,7.377c0.778,1.449 2.022,3.82 2.763,5.269c0.741,1.449 1.65,2.872 2.021,3.162c0.37,0.29 1.929,3.017 3.464,6.06c1.535,3.043 3.249,5.533 3.809,5.533c1.092,-0 6.324,9.663 6.324,11.68c-0,0.694 -0.903,0.976 -2.11,0.661c-1.16,-0.304 -1.863,-0.155 -1.563,0.331c0.906,1.465 -1.587,2.349 -3.095,1.096c-1.085,-0.9 -1.54,-0.655 -1.991,1.07c-0.696,2.662 -2.559,1.831 -3.919,-1.747c-0.63,-1.655 -1.506,-2.301 -2.57,-1.893c-0.888,0.341 -1.615,0.174 -1.615,-0.371c0,-0.545 -0.592,-1.021 -1.317,-1.057c-0.725,-0.036 -3.096,-0.317 -5.269,-0.623c-3.693,-0.521 -3.963,-0.372 -4.118,2.261c-0.092,1.551 -0.062,3.53 0.065,4.4c0.128,0.869 0.558,6.086 0.957,11.593l0.724,10.012l3.526,-0c1.939,-0 3.746,-0.356 4.014,-0.791c0.269,-0.435 -0.012,-0.79 -0.627,-0.79c-0.614,-0 -1.116,-0.749 -1.116,-1.665c-0,-1.317 0.715,-1.52 3.425,-0.975c6.03,1.214 7.114,1.697 7.114,3.175c-0,2.192 -1.632,2.755 -4.654,1.606c-1.635,-0.621 -2.724,-0.644 -2.724,-0.057c0,1.664 -7.095,4.446 -11.293,4.428c-2.193,-0.008 -6.535,-0.175 -9.647,-0.367c-5.061,-0.312 -5.755,-0.098 -6.561,2.022c-1.206,3.175 -2.877,2.994 -4.187,-0.453l-0,0Zm18.949,-5.527c1.252,-0.792 1.126,-1.785 -0.79,-6.239c-1.254,-2.914 -2.279,-6.513 -2.279,-8c-0,-1.487 -0.456,-2.703 -1.013,-2.703c-1.155,0 -2.884,5.815 -3.872,13.019l-0.671,4.897l3.568,-0.016c1.963,-0.008 4.239,-0.44 5.057,-0.958l0,-0Zm-10.432,-120.223c-0.946,-5.577 -1.235,-5.376 -1.584,1.102c-0.143,2.634 -0.589,5.954 -0.993,7.377c-0.653,2.301 -0.507,2.237 1.323,-0.574c1.667,-2.562 1.905,-4.062 1.254,-7.905Z" style="fill:#30553c;fill-rule:nonzero;"/></svg>