<?xml version="1.0" encoding="UTF-8" standalone="no"?><!DOCTYPE svg PUBLIC "-//W3C//DTD SVG 1.1//EN" "http://www.w3.org/Graphics/SVG/1.1/DTD/svg11.dtd"><svg width="100%" height="100%" viewBox="0 0 95 159" version="1.1" xmlns="http://www.w3.org/2000/svg" xmlns:xlink="http://www.w3.org/1999/xlink" xml:space="preserve" xmlns:serif="http://www.serif.com/" style="fill-rule:evenodd;clip-rule:evenodd;stroke-linejoin:round;stroke-miterlimit:2;"><path id="Hollow-Tree-Svgs" serif:id="Hollow Tree Svgs" d="M61.209,154.284c-3.225,-3.585 -3.509,-3.351 -1.614,1.331c0.964,2.383 -1.041,1.901 -4.175,-1.003l-2.788,-2.585l-0,2.551c-0,2.182 -0.333,2.427 -2.31,1.696c-1.293,-0.479 -2.838,-2.42 -3.507,-4.408c-1.117,-3.318 -1.238,-3.392 -1.834,-1.113c-0.962,3.676 -2.888,1.631 -2.888,-3.067c0,-3.038 0.552,-4.412 2.108,-5.244c1.598,-0.856 2.115,-0.801 2.14,0.226c0.02,0.803 0.469,0.603 1.106,-0.49c1.578,-2.709 2.496,-2.282 3.993,1.861c1.733,4.79 3.261,3.826 2.534,-1.597c-0.311,-2.319 -0.286,-4.216 0.055,-4.216c0.342,0 1.872,2.134 3.401,4.743c1.529,2.608 3.013,4.742 3.299,4.742c0.285,0 0.199,-1.897 -0.193,-4.215c-0.858,-5.076 -0.126,-5.373 2.193,-0.89c2.076,4.016 4.533,6.641 7.066,7.553c1.436,0.516 1.105,-0.453 -1.393,-4.084c-3.398,-4.939 -3.911,-8.485 -0.773,-5.347c1.196,1.195 1.955,1.366 2.457,0.554c0.465,-0.752 1.616,-0.09 3.191,1.836c2.372,2.9 2.466,2.924 2.502,0.641c0.041,-2.559 2.025,-3.124 4.009,-1.14c2.143,2.142 8.312,3.799 10.204,2.74c1.145,-0.641 2.267,-0.541 3.269,0.29c2.307,1.915 1.855,3.111 -1.636,4.328c-1.738,0.606 -3.161,1.53 -3.161,2.053c-0,1.686 -3.854,1.012 -6.611,-1.157c-3.602,-2.833 -4.217,-2.662 -3.423,0.953c0.385,1.757 0.197,3.356 -0.443,3.751c-0.614,0.379 -1.12,0.306 -1.124,-0.163c-0.004,-0.469 -1.151,-1.382 -2.548,-2.03c-1.987,-0.921 -2.428,-0.887 -2.028,0.157c0.944,2.46 -1.59,2.673 -3.784,0.318c-1.194,-1.281 -2.171,-2.714 -2.171,-3.185c0,-0.47 -0.48,-0.855 -1.068,-0.855c-0.636,0 -0.459,1.457 0.437,3.603c1.378,3.296 1.269,4.851 -0.335,4.814c-0.338,-0.008 -2.209,-1.786 -4.157,-3.952l-0,0Zm-53.894,2.642c-0,-0.149 0.458,-1.868 1.018,-3.819c0.938,-3.274 0.877,-3.437 -0.791,-2.101c-3.192,2.556 -6.736,4.248 -7.435,3.549c-0.373,-0.373 0.26,-1.204 1.409,-1.847c4.346,-2.432 12.316,-10.837 15.951,-16.82c2.077,-3.419 4.011,-5.981 4.299,-5.693c0.573,0.573 -1.428,4.9 -4.246,9.182c-1.737,2.639 -1.712,2.817 0.749,5.269c1.401,1.396 3.291,3.138 4.199,3.87c1.343,1.083 1.426,1.826 0.444,3.981c-0.826,1.812 -1.549,2.307 -2.29,1.566c-1.715,-1.715 -3.622,-1.265 -4.349,1.025c-0.368,1.16 -1.162,2.108 -1.765,2.108c-0.623,0 -0.776,-0.795 -0.355,-1.844c0.408,-1.014 0.984,-2.437 1.28,-3.162c1.125,-2.753 -2.816,-1.172 -4.597,1.845c-1.507,2.551 -3.521,4.205 -3.521,2.891l-0,-0Zm27.506,-7.37c0.058,-0.725 0.485,-2.503 0.949,-3.952c0.753,-2.352 0.855,-2.21 0.949,1.317c0.057,2.174 -0.37,3.952 -0.949,3.952c-0.58,-0 -1.007,-0.593 -0.949,-1.317Zm-5.859,0.331c-0.864,-1.398 0.278,-5.337 1.547,-5.337c1.84,-0 2.186,2.154 0.689,4.291c-0.968,1.382 -1.791,1.767 -2.236,1.046Zm32.975,-14.552c-4.939,-5.816 -7.081,-11.657 -8.323,-22.7c-0.958,-8.508 -1.739,-11.652 -3.23,-13.002c-1.861,-1.685 -1.968,-1.661 -1.968,0.428c0,3.601 -1.894,3.696 -3.709,0.185c-1.379,-2.667 -1.971,-3.038 -3.207,-2.013c-1.234,1.025 -1.515,0.855 -1.515,-0.917c0,-2.837 1.558,-3.721 4.13,-2.345c1.288,0.69 2.299,0.728 2.686,0.102c0.356,-0.575 2.14,-0.108 4.179,1.096c3.751,2.213 4.043,3.131 6.489,20.418c0.407,2.878 2.098,8.526 3.757,12.549c3.156,7.655 3.345,9.3 0.711,6.199l0,-0Zm-22.215,-2.98c-1.169,-1.187 -0.96,-8.654 0.263,-9.41c0.585,-0.361 1.065,0.433 1.078,1.782l0.024,2.434l3.83,-4.981l2.138,4.321c1.752,3.541 1.886,4.53 0.742,5.479c-1.789,1.485 -3.596,0.373 -3.596,-2.213c0,-2.683 -2.926,-1.576 -3.363,1.272c-0.179,1.165 -0.681,1.757 -1.116,1.316l-0,-0Zm-32.384,-0.163c-0.012,-0.71 0.901,-2.811 2.03,-4.668c2.792,-4.59 1.559,-5.932 -2.169,-2.36c-4.249,4.071 -3.796,2.374 1.097,-4.108c2.278,-3.018 5.255,-7.859 6.615,-10.757c1.361,-2.898 3.786,-7.482 5.391,-10.187c1.604,-2.704 3.354,-6.439 3.887,-8.298c0.92,-3.208 0.873,-3.294 -0.921,-1.67c-3.98,3.601 -4.553,0.936 -0.858,-3.985c4.623,-6.157 3.836,-7.028 -1.555,-1.722c-2.967,2.921 -6.048,5.311 -6.845,5.311c-1.365,-0 6.02,-10.126 9.992,-13.701c2.585,-2.326 5.444,-7.054 5.444,-9.003c0,-0.935 1.66,-5.151 3.689,-9.369c2.029,-4.218 3.689,-8.147 3.689,-8.732c-0,-1.599 -8.233,-1.278 -9.605,0.374c-0.656,0.79 -1.608,1.437 -2.117,1.437c-1.574,0 -1.02,-3.411 0.919,-5.671c1.015,-1.182 -0.261,-0.385 -2.835,1.771c-3.331,2.79 -5.002,3.592 -5.797,2.783c-0.79,-0.805 -0.269,-1.871 1.782,-3.648c1.594,-1.381 2.898,-2.968 2.898,-3.527c0,-0.559 1.965,-2.572 4.367,-4.474c6.239,-4.942 8.254,-9.86 11.992,-29.273c0.825,-4.283 1.75,-8.037 2.055,-8.343c1.559,-1.559 1.803,1.744 0.782,10.574c-1.078,9.326 -1.883,11.928 -6.568,21.231c-1.954,3.88 -1.967,4.231 -0.264,7.114c2.109,3.57 3.504,3.813 5.308,0.924c2.133,-3.415 3.244,-2.43 2.675,2.372c-0.958,8.086 -2.349,11.783 -6.461,17.183c-3.389,4.449 -4.174,6.448 -4.762,12.12c-1.318,12.714 -9.967,36.768 -15.047,41.848c-2.099,2.099 -4.853,7.626 -3.799,7.626c0.478,0 1.439,-0.569 2.134,-1.264c1.846,-1.846 1.554,-0.53 -0.9,4.063c-2.845,5.323 -6.213,9.656 -6.243,8.029l0,0Zm56.979,-3.045c-1.193,-1.516 -2.651,-4.48 -3.241,-6.587c-1.651,-5.895 -2.503,-17.5 -1.53,-20.848c0.839,-2.887 0.901,-2.818 1.564,1.737l0.69,4.742l0.192,-4.216c0.105,-2.318 0.888,-5.136 1.739,-6.261c0.851,-1.125 1.547,-2.903 1.547,-3.952c0,-1.048 0.684,-1.906 1.52,-1.906c0.909,-0 -0.204,-1.893 -2.775,-4.718c-2.362,-2.595 -4.637,-4.506 -5.057,-4.247c-0.419,0.259 -2.299,-1.44 -4.176,-3.777c-3.034,-3.775 -3.556,-4.053 -4.688,-2.504c-1.129,1.543 -1.59,1.267 -4.019,-2.404c-2.952,-4.46 -5.029,-10.703 -5.038,-15.145c-0.004,-2.532 0.319,-2.737 3.946,-2.499c2.174,0.143 4.426,0.391 5.006,0.55c1.502,0.415 8.958,-3.041 8.958,-4.151c0,-0.51 -0.595,-1.155 -1.321,-1.434c-0.727,-0.279 -1.96,-2.275 -2.742,-4.435c-0.781,-2.161 -2.266,-4.775 -3.301,-5.809c-1.354,-1.355 -2.08,-4.345 -2.594,-10.696c-0.393,-4.848 -1.159,-12.596 -1.702,-17.218c-1.309,-11.147 -1.26,-12.147 0.594,-12.147c0.87,-0 1.581,0.92 1.581,2.045c0,1.125 0.424,2.308 0.943,2.628c0.518,0.321 1.19,2.364 1.493,4.542c0.303,2.177 1.038,7.603 1.634,12.059c1.532,11.471 3.124,16.797 5.925,19.827c2.146,2.323 13.191,21.296 13.191,22.661c-0,1.909 -2.587,-0.306 -6.121,-5.241c-2.271,-3.171 -4.429,-5.465 -4.796,-5.099c-0.366,0.367 0.997,3.642 3.03,7.277c4.496,8.041 3.034,10.225 -1.698,2.535c-1.816,-2.951 -3.758,-5.214 -4.315,-5.029c-0.557,0.186 -0.977,0.682 -0.934,1.102c0.043,0.42 0.079,1.931 0.079,3.358c-0,1.426 0.865,3.442 1.923,4.479c1.057,1.037 3.935,6.174 6.394,11.415c3.091,6.589 5.751,10.62 8.616,13.059c2.28,1.941 4.145,4.173 4.145,4.961c-0,1.912 -1.533,1.814 -3.21,-0.207c-0.748,-0.901 -2.301,-2.142 -3.452,-2.758c-1.987,-1.063 -2.061,-0.86 -1.483,4.021c0.952,8.043 4.57,16.384 9.192,21.194c4.625,4.813 5.406,7.637 2.114,7.637c-1.159,-0 -2.118,-0.356 -2.131,-0.791c-0.012,-0.434 -0.955,-1.976 -2.094,-3.425l-2.07,-2.635l1.365,10.398l-3.374,-2.403c-1.855,-1.321 -4.164,-3.661 -5.129,-5.198c-0.966,-1.538 -2.673,-3.982 -3.793,-5.431l-2.037,-2.635l0.735,3.162c0.404,1.739 1.655,4.954 2.781,7.146c3.308,6.44 2.017,8.475 -2.076,3.271l-0,-0Zm-50.679,2.314c0,-1.26 8.604,-12.383 9.154,-11.833c0.293,0.294 -0.894,2.611 -2.64,5.148c-3.15,4.578 -6.514,8.03 -6.514,6.685Zm39.726,-1.439c-2.682,-2.963 -6.12,-19.78 -3.476,-17.001c0.685,0.72 5.886,18.199 5.524,18.562c-0.184,0.183 -1.105,-0.519 -2.048,-1.561Zm-29.289,-3.236c-1.428,-0.576 -1.205,-1.316 1.473,-4.894c1.735,-2.319 2.832,-3.305 2.437,-2.193c-0.429,1.21 -0.173,2.362 0.635,2.864c1.945,1.207 -2.283,5.136 -4.545,4.223Zm10.115,-39.814c0.466,-1.082 1.064,-3.513 1.33,-5.402c0.743,-5.29 2.358,-5.171 2.358,0.174c-0,3.801 -0.46,5.014 -2.268,5.981c-2.014,1.079 -2.173,0.994 -1.42,-0.753l-0,0Z" style="fill:#30553c;fill-rule:nonzero;"/></svg>