<?xml version="1.0" encoding="UTF-8" standalone="no"?><!DOCTYPE svg PUBLIC "-//W3C//DTD SVG 1.1//EN" "http://www.w3.org/Graphics/SVG/1.1/DTD/svg11.dtd"><svg width="100%" height="100%" viewBox="0 0 82 165" version="1.1" xmlns="http://www.w3.org/2000/svg" xmlns:xlink="http://www.w3.org/1999/xlink" xml:space="preserve" xmlns:serif="http://www.serif.com/" style="fill-rule:evenodd;clip-rule:evenodd;stroke-linejoin:round;stroke-miterlimit:2;"><path id="Hollow-Tree-Svgs" serif:id="Hollow Tree Svgs" d="M58.464,163.674c-0.371,-0.371 -0.674,-1.686 -0.674,-2.922c-0,-1.237 -0.413,-2.699 -0.918,-3.25c-1.775,-1.936 -2.385,-6.797 -0.852,-6.797c1.664,-0 3.456,3.533 4.434,8.743c0.641,3.419 -0.46,5.757 -1.99,4.226Zm19.764,-1.816c-0.352,-0.917 -1.538,-1.668 -2.635,-1.668c-1.097,-0 -1.995,-0.474 -1.995,-1.054c0,-0.58 -0.537,-1.054 -1.194,-1.054c-1.408,0 -5.129,-4.067 -5.129,-5.606c-0,-0.588 -0.285,-0.784 -0.632,-0.437c-0.348,0.348 -0.06,2.368 0.64,4.489c0.916,2.774 0.952,4.177 0.129,5c-0.824,0.824 -1.86,-0.46 -3.692,-4.576c-2.315,-5.196 -2.399,-5.889 -0.918,-7.561c1.237,-1.396 1.974,-1.556 3.052,-0.661c1.116,0.926 1.421,0.698 1.421,-1.065c-0,-1.348 -2.525,-4.729 -6.324,-8.469c-5.312,-5.231 -6.323,-6.809 -6.323,-9.876c0,-3.536 2.111,-6.715 3.522,-5.304c0.382,0.381 0.694,0.214 0.694,-0.372c-0,-1.69 -4.105,-13.164 -5.171,-14.453c-1.531,-1.852 -2.71,-18.558 -1.309,-18.558c0.644,0 1.46,1.305 1.815,2.898c1.269,5.703 1.61,6.386 4.895,9.824c2.082,2.179 2.846,3.642 2.04,3.911c-0.708,0.235 -1.983,-0.149 -2.833,-0.854c-0.85,-0.705 -1.535,-0.869 -1.523,-0.363c0.063,2.661 7.502,22.037 9.2,23.964c2.877,3.265 5.782,8.147 5.196,8.733c-0.604,0.603 -4.933,-3.875 -4.933,-5.102c-0,-0.471 -0.711,-0.855 -1.581,-0.855c-0.869,-0 -1.581,0.53 -1.581,1.179c0,2.328 7.869,14.22 13.415,20.276c3.11,3.395 5.484,6.685 5.276,7.311c-0.631,1.892 -2.839,2.082 -3.522,0.303l0,0Zm-59.924,-5.35c-0.265,-0.036 -0.538,0.074 -0.812,0.348c-2.019,2.019 -3.189,1.393 -2.652,-1.419c0.439,-2.295 0.285,-2.469 -1.168,-1.317c-0.921,0.73 -2.689,2.394 -3.929,3.698c-1.24,1.304 -2.651,2.371 -3.135,2.371c-0.484,0 -0.311,-0.569 0.385,-1.265c2.675,-2.675 1.087,-2.906 -2.628,-0.382c-2.141,1.455 -4.097,2.44 -4.348,2.189c-0.251,-0.251 2.335,-3.502 5.746,-7.225c8.841,-9.648 17.064,-24.964 18.814,-35.044c1.439,-8.286 2.65,-11.211 2.65,-6.4c0,3.225 1.663,3.765 2.591,0.841c0.596,-1.878 4.786,-6.38 4.786,-5.142c0,0.326 -2.134,5.16 -4.742,10.743c-2.608,5.582 -4.743,10.488 -4.743,10.903c0,0.414 -1.659,3.088 -3.688,5.941c-2.029,2.854 -3.689,5.787 -3.689,6.519c0,0.731 -1.423,2.888 -3.161,4.791c-1.739,1.904 -3.149,3.949 -3.134,4.544c0.028,1.093 5.326,-4.518 8.584,-9.091c1.748,-2.454 1.773,-2.457 3.391,-0.365c0.897,1.159 1.693,1.634 1.769,1.054c0.076,-0.58 0.523,0.132 0.994,1.581l0.855,2.635l0.743,-2.372c0.409,-1.304 1.151,-2.371 1.649,-2.371c0.497,0 0.442,1.217 -0.123,2.703c-0.566,1.487 -1.028,4.57 -1.028,6.851c-0,4.201 -1.352,5.53 -2.522,2.48c-0.352,-0.917 -0.64,-3.526 -0.64,-5.797c0,-5.556 -1.224,-5.186 -3.268,0.987c-0.648,1.958 -1.031,3.201 -1.126,4.24c-0.139,1.525 0.34,2.613 1.505,4.884l-3.926,-2.113Zm32.811,2.979c-1.115,-1.115 -0.815,-7.728 0.351,-7.728c0.58,-0 1.054,1.897 1.054,4.215c0,4.308 -0.174,4.744 -1.405,3.513Zm-12.313,-2.398c-2.019,-1.725 -4.247,-3.156 -4.951,-3.18c-2.847,-0.095 -3.645,-4.152 -1.935,-9.837c1.631,-5.425 4.307,-10.016 5.273,-9.049c0.457,0.456 -1.105,7.309 -3.065,13.443c-0.488,1.529 -0.406,2.26 0.212,1.878c0.557,-0.344 1.912,0.055 3.011,0.888c2.722,2.06 3.581,1.949 3.581,-0.465c-0,-3.428 2.089,-3.578 2.765,-0.199c0.348,1.74 1.291,3.416 2.095,3.725c1.611,0.618 2.043,4.843 0.495,4.843c-0.532,-0 -1.607,0.245 -2.389,0.545c-0.781,0.3 -3.073,-0.866 -5.092,-2.592l0,0Zm9.916,-25.331c-1.344,-0.543 -2.491,-2.242 -2.902,-4.299c-0.374,-1.87 -1.366,-3.926 -2.204,-4.568c-1.787,-1.369 -2.64,-8.331 -1.104,-9.012c0.58,-0.257 1.291,0.802 1.581,2.353c0.29,1.55 1.476,3.881 2.635,5.179c3.616,4.05 5.782,7.616 5.789,9.534c0.008,2.031 -0.507,2.142 -3.795,0.813Zm-32.009,-9.548c1.766,-3.5 3.642,-6.098 4.167,-5.773c1.112,0.687 -1.521,7.583 -3.929,10.292c-3.275,3.685 -3.379,1.704 -0.238,-4.519l-0,0Zm-9.506,2.775c0,-0.815 1.681,-3.492 3.734,-5.95c7.11,-8.511 7.631,-12.335 0.802,-5.884c-2.298,2.169 -4.186,3.265 -4.423,2.565c-0.228,-0.671 1.733,-3.191 4.356,-5.6c5.344,-4.907 10.686,-12.713 9.744,-14.237c-0.34,-0.55 0.636,-3.141 2.17,-5.757c2.305,-3.934 2.493,-4.758 1.084,-4.758c-0.937,0 -2.244,1.186 -2.904,2.635c-2.587,5.677 -3.789,1.914 -1.347,-4.215c0.462,-1.16 -0.782,-0.149 -2.763,2.246c-3.72,4.496 -7.291,7.374 -7.291,5.875c-0,-0.47 1.945,-2.82 4.323,-5.221c6.289,-6.352 4.6,-7.899 -2.114,-1.937c-8.398,7.46 -8.044,4.652 0.432,-3.42c4.589,-4.371 8.138,-8.822 9.386,-11.771c1.104,-2.608 3.073,-7.114 4.375,-10.012c3.357,-7.469 4.09,-11.179 2.054,-10.398c-0.877,0.337 -1.594,0.087 -1.594,-0.555c0,-2.471 -2.772,-1 -4.635,2.46c-1.721,3.195 -4.514,5.492 -5.49,4.516c-0.187,-0.187 1.286,-3.399 3.272,-7.139c4.146,-7.807 4.796,-10.761 1.764,-8.017c-4.224,3.823 -4.593,1.077 -0.428,-3.181c6.719,-6.869 9.703,-14.82 9.721,-25.901c0.008,-3.912 0.435,-7.114 0.953,-7.114c2.838,0 2.991,11.65 0.247,18.872c-1.523,4.009 -1.853,6.955 -1.447,12.921c0.29,4.25 0.994,8.315 1.564,9.032c1.482,1.861 0.259,5.824 -5.066,16.42c-2.569,5.111 -4.67,9.719 -4.67,10.238c-0,0.52 0.987,1.474 2.194,2.12c1.782,0.954 2.468,0.813 3.655,-0.753c1.729,-2.282 1.951,-0.619 0.472,3.536l-1.057,2.967l2.591,-3.12c3.787,-4.562 4.476,-2.503 0.936,2.796c-3.477,5.205 -8.319,16.618 -9.201,21.687c-1.745,10.022 -15.399,31.352 -15.399,24.054l0,-0Zm65.341,-15.343c0,-0.559 -1.715,-2.181 -3.811,-3.605c-3.842,-2.612 -4.392,-3.282 -10.77,-13.134c-1.934,-2.987 -3.887,-5.431 -4.341,-5.431c-1.67,0 -9.113,-19.919 -10.043,-26.874c-0.155,-1.159 -0.649,-3.53 -1.097,-5.269c-0.803,-3.112 -0.783,-3.132 1.323,-1.269c2.08,1.841 2.158,1.82 2.812,-0.789c0.431,-1.718 -0.504,-6.305 -2.599,-12.751c-1.8,-5.538 -3.053,-10.643 -2.783,-11.345c0.797,-2.077 -2.378,-15.735 -3.946,-16.972c-0.793,-0.625 -1.766,-3.627 -2.162,-6.67c-0.576,-4.423 -0.419,-5.533 0.781,-5.533c0.826,0 2.045,1.067 2.709,2.371c1.433,2.817 5.159,20.338 6.606,31.064c1.487,11.027 6.459,20.982 15.782,31.6c2.663,3.034 3.93,5.575 2.779,5.575c-0.181,0 -2.351,-0.977 -4.823,-2.171c-3.174,-1.534 -4.952,-3.269 -6.056,-5.91c-2.202,-5.271 -2.662,-3.92 -0.973,2.857c0.789,3.163 1.447,7.208 1.462,8.988c0.036,4.123 4.66,12.07 15.593,26.799c4.64,6.25 6.201,9.485 4.578,9.485c-0.562,-0 -1.021,-0.457 -1.021,-1.016Zm-26.347,-8.873c0,-0.802 -0.948,-1.706 -2.108,-2.009c-2.385,-0.624 -2.899,-4.805 -0.843,-6.861c1.968,-1.968 2.626,-1.537 3.299,2.16c0.343,1.884 0.935,4.492 1.315,5.797c0.424,1.455 0.236,2.371 -0.486,2.371c-0.647,-0 -1.177,-0.656 -1.177,-1.458Z" style="fill:#30553c;fill-rule:nonzero;"/></svg>