<?xml version="1.0" encoding="UTF-8" standalone="no"?><!DOCTYPE svg PUBLIC "-//W3C//DTD SVG 1.1//EN" "http://www.w3.org/Graphics/SVG/1.1/DTD/svg11.dtd"><svg width="100%" height="100%" viewBox="0 0 91 160" version="1.1" xmlns="http://www.w3.org/2000/svg" xmlns:xlink="http://www.w3.org/1999/xlink" xml:space="preserve" xmlns:serif="http://www.serif.com/" style="fill-rule:evenodd;clip-rule:evenodd;stroke-linejoin:round;stroke-miterlimit:2;"><path id="Hollow-Tree-Svgs" serif:id="Hollow Tree Svgs" d="M2.108,159.519c-0,-0.465 1.66,-2.871 3.688,-5.346c2.029,-2.476 3.689,-4.778 3.689,-5.115c-0,-1.324 -2.091,-0.491 -5.077,2.022c-3.6,3.029 -4.408,3.234 -4.408,1.119c0,-0.833 2.134,-3.048 4.743,-4.921c5.064,-3.637 6.061,-5.304 2.634,-4.408c-1.159,0.303 -2.108,0.071 -2.108,-0.516c0,-1.019 5.672,-6.456 8.67,-8.312c3.112,-1.927 6.199,-7.131 5.613,-9.464c-0.391,-1.56 0.049,-2.82 1.305,-3.735c1.043,-0.759 3.255,-3.183 4.914,-5.387c1.803,-2.394 3.303,-3.547 3.726,-2.863c0.885,1.433 4.024,0.364 7.125,-2.429c1.305,-1.174 2.372,-1.651 2.372,-1.06c-0,0.591 -0.847,1.84 -1.881,2.776c-1.396,1.264 -1.806,2.977 -1.591,6.653c0.159,2.722 0.513,5.173 0.785,5.445c0.806,0.806 -2.375,6.246 -4.021,6.878c-2.413,0.925 -2.579,-0.052 -0.885,-5.196c1.346,-4.089 1.365,-4.959 0.127,-5.724c-0.957,-0.592 -2.215,-0.193 -3.652,1.157c-1.205,1.132 -2.745,2.059 -3.421,2.059c-0.676,-0 -1.546,1.304 -1.934,2.898c-0.387,1.594 -1.345,3.834 -2.128,4.977c-0.783,1.143 -1.423,2.766 -1.423,3.606c-0,0.839 -0.785,2.394 -1.744,3.454c-1.625,1.795 -1.622,1.927 0.035,1.927c1.403,-0 1.561,0.412 0.745,1.937c-1.802,3.367 0.621,8.55 2.543,5.44c0.359,-0.58 2.032,-1.054 3.718,-1.054c2.446,0 2.945,0.374 2.469,1.845c-0.329,1.014 1.371,-0.18 3.778,-2.654c3.685,-3.789 4.601,-4.273 5.806,-3.068c1.09,1.091 6.361,1.684 6.361,0.716c-0,-0.695 4.948,-0.521 5.387,0.19c0.305,0.494 0.964,0.645 1.464,0.336c0.5,-0.309 1.666,0.513 2.592,1.827c1.427,2.027 1.835,2.149 2.69,0.808c0.555,-0.869 1.016,-1.067 1.024,-0.439c0.008,0.628 1.708,2.833 3.775,4.901c2.068,2.067 3.291,4.047 2.72,4.4c-0.572,0.354 -1.724,-0.043 -2.562,-0.88c-1.117,-1.118 -1.835,-1.211 -2.695,-0.351c-0.86,0.86 -1.687,0.706 -3.108,-0.58c-1.53,-1.385 -2.207,-1.481 -3.23,-0.458c-1.023,1.022 -1.489,0.978 -2.224,-0.21c-0.67,-1.085 -1.32,-1.197 -2.328,-0.4c-0.768,0.607 -2.741,1.425 -4.383,1.818c-2.475,0.592 -3.086,0.332 -3.57,-1.52c-0.437,-1.668 -1.149,-2.084 -2.811,-1.638c-1.224,0.329 -2.99,0.604 -3.923,0.612c-0.934,0.008 -3.385,1.16 -5.447,2.56c-3.842,2.606 -5.267,2.602 -4.263,-0.012c0.312,-0.813 0.267,-2.261 -0.1,-3.217c-0.587,-1.529 -0.982,-1.443 -3.275,0.711c-1.434,1.347 -2.614,2.011 -2.623,1.475c-0.008,-0.536 -0.447,-0.293 -0.974,0.539c-0.797,1.26 -1.237,1.281 -2.634,0.121c-1.415,-1.174 -1.966,-1.081 -3.515,0.595c-3.042,3.291 -6.561,6.057 -6.561,5.157l0.001,-0.002Zm65.163,-10.528c-4.363,-4.063 -5.66,-5.879 -4.81,-6.73c0.851,-0.85 1.693,-0.687 3.122,0.606c1.833,1.66 1.913,1.659 1.271,-0.016c-0.88,-2.295 0.945,-2.294 4.448,0.001c4.67,3.06 6.536,2.599 6.334,-1.566c-0.234,-4.843 -9.932,-15.608 -12.02,-13.343c-0.719,0.78 -1.024,2.154 -0.678,3.055c0.714,1.86 -2.203,2.336 -3.312,0.54c-0.373,-0.603 -1.546,-0.821 -2.608,-0.484c-1.255,0.399 -2.474,-0.166 -3.489,-1.615c-0.974,-1.39 -1.824,-1.802 -2.26,-1.097c-0.837,1.355 -2.683,1.433 -4.636,0.195c-1.114,-0.706 -1.163,-1.395 -0.221,-3.155c1.203,-2.247 2.074,-2.295 8.76,-0.482c1.259,0.341 2.166,-0.349 2.86,-2.173c0.559,-1.47 1.934,-3.246 3.056,-3.946c2.006,-1.253 2.003,-1.323 -0.181,-4.277c-1.221,-1.652 -2.83,-2.77 -3.574,-2.485c-0.772,0.297 -2.098,-0.936 -3.087,-2.869c-0.953,-1.864 -5.041,-6.885 -9.085,-11.158c-4.82,-5.093 -6.926,-8.031 -6.117,-8.531c0.755,-0.466 0.961,-1.847 0.531,-3.56c-0.812,-3.234 0.111,-3.549 2.927,-1.001c1.623,1.469 2.359,1.565 4.025,0.525c1.713,-1.071 2.248,-0.937 3.356,0.837c1.576,2.523 5.026,2.809 5.026,0.416c0,-1.072 0.58,-1.471 1.581,-1.087c1.267,0.487 1.581,-0.377 1.581,-4.351c0,-5.646 -4.11,-14.907 -8.575,-19.324c-2.695,-2.665 -4.925,-7.268 -3.521,-7.268c0.381,-0 1.531,1.035 2.555,2.3l1.863,2.3l3.802,-5.802l1.446,3.439c0.795,1.892 1.214,4.044 0.93,4.783c-0.284,0.739 -0.062,1.624 0.492,1.966c0.563,0.348 1.015,-0.917 1.024,-2.864c0.008,-1.918 0.43,-4.141 0.936,-4.94c0.944,-1.49 3.264,-0.789 3.264,0.986c-0,0.545 1.897,2.946 4.215,5.335c4.17,4.297 5.528,8.305 2.813,8.305c-0.772,-0 -2.017,-1.147 -2.767,-2.549c-1.634,-3.053 -5.65,-3.05 -7.891,0.004c-1.215,1.656 -1.235,2.298 -0.112,3.597c0.751,0.87 1.971,4.189 2.71,7.377c0.74,3.188 3.171,9.236 5.404,13.441c2.232,4.204 4.059,7.879 4.059,8.167c-0,0.288 -0.83,0.521 -1.845,0.517c-1.014,-0.003 -2.606,-1.347 -3.538,-2.986c-1.296,-2.278 -2.474,-2.979 -5.006,-2.979c-3.291,-0 -3.312,0.036 -3.312,5.517c0,5.051 0.315,5.77 3.737,8.519c8.402,6.749 14.447,12.582 15.848,15.292c2.444,4.725 -0.267,4.657 -4.907,-0.123c-2.317,-2.388 -4.724,-4.026 -5.348,-3.64c-0.624,0.385 -1.548,0.047 -2.054,-0.751c-0.743,-1.173 -0.923,-1.121 -0.936,0.264c-0.008,0.945 2.125,3.473 4.742,5.617c2.618,2.145 5.455,5.245 6.305,6.89c0.946,1.829 2.719,3.247 4.567,3.653c2.959,0.65 10.561,7.396 9.515,8.443c-0.292,0.292 -2.157,0.718 -4.144,0.946c-3.193,0.368 -3.577,0.738 -3.306,3.192c0.229,2.082 -0.298,3.004 -2.108,3.688c-1.328,0.501 -2.76,0.708 -3.183,0.46c-0.422,-0.249 -1.608,-0.003 -2.634,0.544c-1.492,0.797 -3.063,-0.119 -7.841,-4.568l0.001,0.003Zm-26.17,-19.074c0,-0.985 -0.771,-2.354 -1.714,-3.044c-1.396,-1.02 -1.487,-1.678 -0.49,-3.541c1.474,-2.753 3.159,-2.998 3.046,-0.444c-0.045,1.015 0.26,3.097 0.678,4.628c0.455,1.67 0.303,3.065 -0.38,3.487c-0.646,0.399 -1.14,-0.071 -1.14,-1.086l0,0Zm-34.154,-4.501c-0.44,-0.712 1.966,-4.252 5.81,-8.545c6.871,-7.675 10.835,-9.312 4.9,-2.024c-8.048,9.884 -9.965,11.775 -10.71,10.569Zm-1.678,-9.519c0,-0.878 3.575,-4.136 12.097,-11.028c2.041,-1.651 3.712,-2.687 3.712,-2.302c-0,1.544 -2.253,4.777 -3.33,4.777c-0.631,-0 -3.026,2.134 -5.322,4.742c-3.821,4.342 -7.157,6.118 -7.157,3.811Zm11.193,-22.048c-0.347,-0.561 0.076,-1.607 0.939,-2.323c2.596,-2.155 1.765,-3.523 -1.029,-1.693c-6.332,4.15 -5.59,0.943 1.558,-6.729c2.431,-2.608 5.718,-6.639 7.305,-8.958c3.17,-4.63 10.597,-17.757 10.597,-18.73c0,-1.426 -3.796,-1.236 -4.986,0.249c-1.039,1.297 -1.477,1.347 -2.201,0.252c-0.723,-1.095 -1.173,-1.042 -2.256,0.263c-2.006,2.417 -4.625,2.095 -3.95,-0.485c0.44,-1.68 -0.056,-1.464 -2.408,1.054c-3.023,3.237 -4.704,3.894 -5.727,2.24c-0.597,-0.966 3.117,-6.382 5.325,-7.765c0.694,-0.435 4.643,-5.031 8.776,-10.213c7.893,-9.897 13.715,-20.068 13.737,-23.999c0.016,-3.054 4.083,-14.11 5.896,-16.034c1.228,-1.304 1.473,-1.304 1.834,-0c0.229,0.827 0.958,3.198 1.62,5.267c0.661,2.07 1.202,4.71 1.202,5.867c0,1.157 1.423,4.886 3.162,8.286c2.102,4.111 3.162,7.741 3.162,10.836c-0,4.678 2.609,11.823 4.318,11.823c0.829,-0 12.544,22.385 12.544,23.969c-0,0.367 -0.949,-0.351 -2.108,-1.595c-1.159,-1.244 -2.108,-2.899 -2.108,-3.677c0,-0.777 -0.416,-1.864 -0.925,-2.415c-0.509,-0.551 -2.481,-3.837 -4.382,-7.302c-1.9,-3.466 -4.095,-6.941 -4.878,-7.723c-2.455,-2.455 -3.831,-5.778 -5.309,-12.816c-0.788,-3.749 -2.365,-7.81 -3.505,-9.023c-1.14,-1.214 -2.258,-3.601 -2.484,-5.304c-0.225,-1.703 -0.889,-4.282 -1.475,-5.731l-1.064,-2.635l-1.163,2.967c-0.639,1.632 -1.162,3.425 -1.162,3.985c0,4.547 -8.456,23.518 -10.901,24.456c-1.923,0.738 -5.083,6.977 -4.231,8.355c0.357,0.578 2.406,0.757 4.615,0.404c3.069,-0.491 4.119,-0.252 4.619,1.049c0.771,2.01 -7.395,18.913 -12.42,25.706c-2.278,3.081 -3.105,5.003 -2.358,5.485c0.827,0.535 0.81,1.645 -0.061,3.953c-0.666,1.765 -0.942,3.209 -0.613,3.209c0.33,-0 2.505,-2.004 4.835,-4.454c2.33,-2.449 4.415,-3.918 4.633,-3.264c0.586,1.758 -6.044,12.051 -7.273,11.292c-0.687,-0.425 -0.655,-1.048 0.093,-1.796c0.631,-0.631 1.146,-1.529 1.146,-1.998c0,-1.115 -4.011,1.154 -7.525,4.258c-1.551,1.37 -3.062,2.006 -3.413,1.437l-0.001,-0Z" style="fill:#30553c;fill-rule:nonzero;"/></svg>