<?xml version="1.0" encoding="UTF-8" standalone="no"?><!DOCTYPE svg PUBLIC "-//W3C//DTD SVG 1.1//EN" "http://www.w3.org/Graphics/SVG/1.1/DTD/svg11.dtd"><svg width="100%" height="100%" viewBox="0 0 71 140" version="1.1" xmlns="http://www.w3.org/2000/svg" xmlns:xlink="http://www.w3.org/1999/xlink" xml:space="preserve" xmlns:serif="http://www.serif.com/" style="fill-rule:evenodd;clip-rule:evenodd;stroke-linejoin:round;stroke-miterlimit:2;"><path id="Hollow-Tree-Svgs" serif:id="Hollow Tree Svgs" d="M40.449,138.762c-0.242,-0.392 -3.892,-0.669 -8.11,-0.615c-4.217,0.054 -8.254,-0.263 -8.969,-0.706c-0.716,-0.442 -4.264,-1.189 -7.885,-1.66c-3.621,-0.471 -5.635,-0.932 -4.476,-1.024c4.443,-0.354 13.697,-4.25 13.288,-5.593c-0.227,-0.746 -0.344,-7.673 -0.26,-15.393c0.145,-13.205 0.04,-14 -1.792,-13.419c-1.169,0.371 -3.114,-0.3 -4.867,-1.679c-2.736,-2.152 -3.094,-2.192 -5.661,-0.635c-2.549,1.547 -2.949,1.515 -5.714,-0.454c-2.384,-1.697 -3.278,-1.863 -4.516,-0.835c-1.834,1.522 -1.981,0.646 -0.389,-2.327c0.961,-1.795 1.823,-2.05 5.146,-1.519c2.866,0.459 4.36,0.195 5.298,-0.935c1.84,-2.218 3.148,-1.975 6.46,1.198c3.858,3.696 6.181,2.746 6.181,-2.527c-0,-3.673 -0.34,-4.159 -3.768,-5.399c-2.072,-0.749 -4.044,-1.086 -4.382,-0.748c-0.667,0.668 -3.443,-1.293 -3.443,-2.432c-0,-0.943 6.645,-0.673 8.277,0.335c1.84,1.137 4.369,-1.291 4.369,-4.195c0,-2.769 -4.199,-7.83 -6.496,-7.83c-0.832,0 -1.987,0.475 -2.567,1.055c-0.703,0.702 -2,0.615 -3.891,-0.264c-3.083,-1.432 -3.552,-2.832 -1.604,-4.781c0.965,-0.965 1.682,-0.86 3.135,0.455c1.683,1.523 2.141,1.538 4.283,0.134c1.787,-1.171 2.855,-1.283 4.192,-0.439c2.488,1.57 2.986,0.733 3.705,-6.226c0.624,-6.051 0.617,-6.07 -1.909,-5.226c-1.395,0.466 -4.182,0.856 -6.193,0.867c-2.066,0.012 -4.559,0.862 -5.732,1.954c-2.85,2.655 -5.086,2.423 -7.904,-0.819c-1.726,-1.984 -2.073,-3.071 -1.244,-3.899c0.828,-0.828 1.5,-0.796 2.412,0.116c1.752,1.752 4.539,1.581 6.164,-0.378c0.82,-0.987 2.657,-1.527 4.608,-1.354c1.785,0.158 4.786,-0.088 6.67,-0.549c2.994,-0.732 3.425,-1.27 3.425,-4.279c0,-2.103 -0.819,-4.183 -2.107,-5.349c-2.035,-1.84 -2.182,-1.84 -4.227,0.008c-2.055,1.86 -2.193,1.848 -4.579,-0.393c-1.586,-1.491 -3.172,-2.079 -4.468,-1.656c-1.564,0.51 -1.441,0.192 0.554,-1.436c2.23,-1.82 2.758,-1.894 4.08,-0.573c1.321,1.322 1.714,1.238 3.031,-0.642c1.79,-2.556 3.796,-2.763 5.609,-0.579c2.115,2.549 3.161,1.84 3.161,-2.141c0,-2.617 -0.547,-3.897 -1.844,-4.311c-1.014,-0.324 -2.852,-1.069 -4.084,-1.655c-1.316,-0.627 -3.054,-0.694 -4.215,-0.164c-3.639,1.661 -7.246,1.049 -7.246,-1.229c0,-1.775 0.778,-2.106 5.27,-2.243c3.262,-0.099 5.913,0.41 6.961,1.338c3.951,3.498 7.421,-2.588 4.035,-7.076c-1.62,-2.148 -2.054,-2.261 -3.634,-0.95c-1.569,1.302 -1.978,1.237 -3.261,-0.517c-0.807,-1.103 -1.452,-2.745 -1.435,-3.649c0.024,-1.321 0.251,-1.267 1.15,0.279c1.071,1.842 1.202,1.844 3.188,0.047c1.673,-1.514 2.452,-1.637 4.049,-0.64c1.826,1.141 2.028,0.774 2.634,-4.789c0.36,-3.313 0.782,-6.973 0.936,-8.132c0.153,-1.159 0.662,1.324 1.13,5.519c0.819,7.34 0.946,7.603 3.351,7c1.505,-0.378 2.5,-0.163 2.5,0.54c0,0.643 0.949,1.168 2.108,1.168c1.159,0 2.108,-0.474 2.108,-1.053c-0,-0.58 0.711,-1.054 1.581,-1.054c2.271,-0 1.951,3.845 -0.527,6.323c-2.54,2.539 -3.552,2.621 -5.713,0.46c-2.373,-2.373 -3.772,-0.956 -3.772,3.818c-0,4.558 0.706,4.899 6.192,2.987c3.794,-1.323 9.326,-0.586 12.331,1.642c1.892,1.402 1.91,1.622 0.274,3.283c-1.468,1.491 -2.308,1.587 -5.162,0.592c-1.969,-0.687 -3.899,-0.802 -4.57,-0.272c-0.639,0.504 -2.94,1.236 -5.113,1.628c-3.237,0.583 -3.952,1.158 -3.952,3.176c-0,3.04 3.991,4.44 6.241,2.19c1.312,-1.313 2.054,-1.207 5.635,0.806c4.08,2.293 4.14,2.296 5.635,0.252c1.288,-1.762 1.824,-1.871 3.635,-0.739c1.169,0.729 2.547,1.065 3.063,0.746c1.397,-0.863 2.134,0.918 1.083,2.618c-0.787,1.273 -1.306,1.273 -3.688,-0.002c-1.832,-0.98 -3.016,-1.116 -3.493,-0.401c-1.279,1.916 -4.439,2.509 -6.501,1.221c-1.632,-1.019 -2.39,-0.907 -4.05,0.595c-1.411,1.277 -2.896,1.635 -4.802,1.157c-2.58,-0.647 -2.758,-0.454 -2.758,2.983c-0,3.085 0.504,3.884 3.141,4.977c1.727,0.715 4.217,1.032 5.533,0.703c1.315,-0.328 4.284,-0.17 6.596,0.354c3.458,0.782 4.582,0.614 6.324,-0.946c3.224,-2.887 5.331,-3.27 7.941,-1.441c1.307,0.916 3.852,1.966 5.654,2.335c3.79,0.775 4.239,2.85 1.072,4.953c-1.943,1.29 -2.528,1.211 -4.909,-0.662c-3.47,-2.729 -5.852,-2.688 -8.878,0.154c-2.226,2.092 -2.764,2.169 -6.503,0.935c-2.243,-0.74 -5.128,-1.012 -6.413,-0.604c-1.285,0.408 -3.751,0.156 -5.479,-0.56c-3.691,-1.529 -4.635,-0.799 -5.524,4.272c-0.576,3.284 -0.309,3.881 2.428,5.439c2.912,1.657 3.173,1.643 4.895,-0.26c1.107,-1.223 2.272,-1.658 2.976,-1.11c1.019,0.791 14.446,0.738 20.087,-0.08c2.353,-0.342 3.685,3.162 1.436,3.775c-7.831,2.135 -10.906,2.478 -13.128,1.466c-1.78,-0.811 -2.852,-0.761 -3.994,0.187c-0.859,0.713 -2.466,1.009 -3.571,0.658c-1.152,-0.365 -2.539,0.001 -3.251,0.858c-1.402,1.689 -4.701,1.166 -6.528,-1.035c-2.273,-2.739 -3.067,-1.481 -3.067,4.856c-0,6.043 0.117,6.324 2.635,6.324c1.449,-0 2.634,-0.528 2.634,-1.174c0,-0.738 1.271,-0.962 3.426,-0.604c2.328,0.387 4.836,-0.152 7.835,-1.686c4.059,-2.076 4.563,-2.122 6.323,-0.575c1.052,0.925 2.98,2.007 4.284,2.404c2.908,0.886 3.079,3.29 0.34,4.756c-2.353,1.259 -4.931,0.533 -5.758,-1.622c-0.859,-2.239 -4.52,-1.809 -6.306,0.741c-1.206,1.722 -2.214,2.078 -4.354,1.541c-2.874,-0.722 -9.939,1.193 -11.306,3.063c-1.155,1.58 -0.965,5.58 0.301,6.363c0.609,0.377 2.247,-0.544 3.638,-2.046c3.23,-3.484 6.116,-3.465 8.888,0.059c2.074,2.637 2.301,2.693 4.155,1.014c1.64,-1.484 2.417,-1.567 4.742,-0.508c2.214,1.009 3.321,0.978 5.435,-0.154c1.9,-1.017 3.469,-1.134 5.524,-0.411c3.774,1.327 3.795,4.12 0.031,4.12c-1.561,0 -3.434,0.593 -4.162,1.318c-1.632,1.624 -5.354,1.713 -6.902,0.165c-0.834,-0.834 -1.871,-0.681 -3.751,0.551c-2.988,1.958 -5.693,1.302 -6.615,-1.604c-0.898,-2.828 -4.149,-2.5 -6.196,0.624c-0.949,1.449 -2.664,2.635 -3.81,2.635c-1.953,-0 -2.083,0.749 -2.083,11.988c-0,6.593 0.305,13.515 0.679,15.382c0.622,3.114 0.94,3.343 3.834,2.764c2.175,-0.435 3.519,-0.135 4.327,0.965c0.826,1.124 3.969,1.779 10.657,2.22c10.057,0.663 10.984,0.908 9.399,2.493c-1.163,1.163 -16.19,2.022 -16.845,0.963l-0.002,0.001Z" style="fill:#30553c;fill-rule:nonzero;"/></svg>