<?xml version="1.0" encoding="UTF-8" standalone="no"?><!DOCTYPE svg PUBLIC "-//W3C//DTD SVG 1.1//EN" "http://www.w3.org/Graphics/SVG/1.1/DTD/svg11.dtd"><svg width="100%" height="100%" viewBox="0 0 81 135" version="1.1" xmlns="http://www.w3.org/2000/svg" xmlns:xlink="http://www.w3.org/1999/xlink" xml:space="preserve" xmlns:serif="http://www.serif.com/" style="fill-rule:evenodd;clip-rule:evenodd;stroke-linejoin:round;stroke-miterlimit:2;"><path id="Hollow-Tree-Svgs" serif:id="Hollow Tree Svgs" d="M25.703,133.666c-0.386,-0.387 -0.702,-1.576 -0.702,-2.642c-0,-1.673 0.713,-1.886 5.192,-1.554c4.21,0.311 5.205,0.063 5.257,-1.311c0.035,-0.932 0.296,-6.2 0.58,-11.707c0.529,-10.221 0.065,-14.168 -1.548,-13.171c-0.498,0.308 -1.531,-0.278 -2.296,-1.302c-1.42,-1.904 -5.696,-2.487 -7.87,-1.075c-1.614,1.049 -6.877,0.67 -8.581,-0.617c-0.944,-0.713 -2.257,-0.366 -4.284,1.133c-2.213,1.635 -3.385,1.902 -4.824,1.097c-1.049,-0.588 -2.199,-0.655 -2.566,-0.151c-0.366,0.502 -1.614,1.066 -2.773,1.254c-1.862,0.302 -1.778,0.004 0.73,-2.55c2.409,-2.454 3.089,-2.684 4.499,-1.514c1.377,1.143 1.973,1.111 3.486,-0.187c2.417,-2.075 5.319,-3.053 5.964,-2.009c0.88,1.423 8.038,0.668 9.175,-0.968c0.813,-1.17 1.203,-1.225 1.608,-0.227c0.78,1.925 3.182,1.609 4.005,-0.527c0.675,-1.751 0.764,-1.75 1.758,0.024c1.874,3.337 3.026,0.797 3.026,-6.671l0,-7.315l-3.109,-0c-1.832,-0 -3.521,0.737 -4.113,1.794c-0.821,1.466 -1.295,1.553 -2.594,0.476c-1.074,-0.891 -1.81,-0.961 -2.272,-0.213c-1.199,1.941 -4.797,1.188 -7.316,-1.53c-2.802,-3.024 -3.781,-3.296 -3.781,-1.054c-0,0.869 -0.491,1.581 -1.091,1.581c-0.75,-0 -0.748,-0.64 0.004,-2.049c1.692,-3.162 2.726,-3.365 5.607,-1.098c2.85,2.242 6.017,2.778 6.017,1.019c0,-0.606 1.098,-0.799 2.52,-0.442c1.386,0.348 2.837,0.12 3.224,-0.506c0.387,-0.627 2.366,-1.14 4.397,-1.14c3.532,0 3.679,-0.149 3.363,-3.425c-0.26,-2.694 -0.756,-3.351 -2.326,-3.081c-1.097,0.19 -2.352,-0.232 -2.788,-0.937c-1.045,-1.691 -7.221,-2.131 -9.545,-0.68c-1.357,0.848 -2.256,0.797 -3.451,-0.195c-0.889,-0.737 -2.544,-1.046 -3.677,-0.686c-1.598,0.507 -2.436,-0.125 -3.728,-2.812c-1.61,-3.346 -1.603,-3.389 0.198,-1.263c1.443,1.704 2.262,1.953 3.616,1.099c1.32,-0.833 2.261,-0.643 3.824,0.772c1.966,1.779 2.128,1.781 3.1,0.045c1.241,-2.218 8.227,-2.736 9.89,-0.733c2.988,3.601 7.191,-0.118 7.191,-6.362c0,-3.133 -3.593,-5.334 -6.323,-3.873c-1.627,0.871 -2.511,0.65 -4.215,-1.054c-1.753,-1.753 -2.562,-1.939 -4.327,-0.994c-1.714,0.917 -2.583,0.789 -4.125,-0.606c-1.091,-0.987 -2.521,-1.418 -3.237,-0.975c-0.831,0.513 -1.011,0.352 -0.511,-0.456c0.485,-0.786 2.054,-1.009 4.231,-0.6c2.603,0.488 3.618,0.235 4.1,-1.022c0.895,-2.332 3.105,-2.082 4.74,0.537c1.278,2.046 1.516,2.082 3.263,0.501c1.047,-0.948 2.654,-1.41 3.618,-1.04c1.387,0.532 1.733,-0.012 1.733,-2.732c-0,-3.064 -0.261,-3.348 -2.66,-2.889c-1.463,0.28 -2.914,0.098 -3.224,-0.404c-0.31,-0.502 -1.484,-0.913 -2.609,-0.913c-1.125,0 -2.046,-0.711 -2.046,-1.581c0,-1.876 -2.24,-2.08 -3.96,-0.36c-0.924,0.924 -1.614,0.892 -2.846,-0.129c-2.337,-1.94 -2.006,-3.455 0.424,-1.938c1.698,1.061 2.43,0.934 4.28,-0.739c1.688,-1.528 2.428,-1.7 3.042,-0.706c0.446,0.722 2.552,1.595 4.678,1.94l3.867,0.627l0,-5.996c0,-3.897 -0.385,-5.759 -1.1,-5.317c-0.605,0.374 -1.827,0.077 -2.715,-0.66c-1.307,-1.085 -1.773,-1.085 -2.443,-0c-0.456,0.737 -1.724,1.193 -2.818,1.012c-1.095,-0.18 -2.538,0.016 -3.209,0.438c-0.831,0.522 -1.036,0.067 -0.645,-1.429c0.373,-1.427 1.202,-2.03 2.371,-1.724c1.033,0.27 2.354,-0.42 3.103,-1.62c0.962,-1.54 1.616,-1.78 2.484,-0.912c1.862,1.863 3.918,1.375 3.918,-0.93c0,-1.987 -0.465,-2.273 -4.129,-2.536c-2.915,-0.209 -2.257,-2.552 0.912,-3.248c2.506,-0.55 3.217,-1.27 3.217,-3.257c0,-2.675 -1.595,-3.494 -2.402,-1.234c-0.259,0.725 -0.892,0.921 -1.406,0.436c-0.53,-0.499 0.063,-1.689 1.369,-2.748c1.6,-1.297 2.405,-3.282 2.635,-6.496c0.234,-3.265 0.797,-4.629 1.912,-4.629c1.15,0 1.724,1.581 2.108,5.796c0.438,4.827 0.865,5.797 2.547,5.797c3.073,-0 3.174,2.293 0.133,3.056c-4.958,1.244 -3.234,2.91 4.17,4.031c1.159,0.175 2.108,1.024 2.108,1.885c-0,1.14 -1.219,1.567 -4.481,1.567c-3.436,-0 -4.48,0.399 -4.479,1.715c0.003,2.955 2.602,4.059 8.953,3.802c4.131,-0.167 6.282,0.179 6.581,1.059c0.333,0.978 -1.566,1.243 -7.545,1.054l-7.99,-0.253l0.001,4.487l0.001,4.488l5.006,-0.184c2.971,-0.109 5.466,-0.806 6.137,-1.714c0.947,-1.281 1.492,-1.306 3.34,-0.152c1.697,1.06 2.552,1.093 3.696,0.144c1.171,-0.971 1.988,-0.769 3.831,0.948c2.682,2.498 2.417,4.742 -0.519,4.39c-1.097,-0.131 -3.045,0.296 -4.329,0.949c-1.735,0.883 -2.705,0.882 -3.771,-0.003c-0.947,-0.786 -2.521,-0.88 -4.627,-0.276c-1.755,0.504 -4.418,0.681 -5.918,0.394c-2.644,-0.505 -2.726,-0.361 -2.686,4.77l0.041,5.291l3.146,-1.097c2.293,-0.799 3.795,-0.749 5.538,0.184c1.766,0.945 3.436,0.991 6.388,0.176c2.742,-0.757 4.633,-0.764 6.019,-0.02c3.205,1.715 1.586,3.569 -3.158,3.62c-2.393,0.024 -4.681,0.377 -5.085,0.781c-0.404,0.404 -1.339,0.234 -2.076,-0.378c-0.737,-0.612 -3.152,-0.963 -5.366,-0.781l-4.025,0.332l-0.637,12.281l7.696,-0.217c4.232,-0.12 10.138,0.05 13.124,0.376c4.833,0.529 5.489,0.359 5.988,-1.547c0.548,-2.098 0.613,-2.102 3.158,-0.194c2.733,2.049 2.739,3.528 0.012,3.528c-0.893,0 -3.199,0.748 -5.125,1.662c-2.517,1.194 -4.056,1.366 -5.466,0.611c-1.129,-0.604 -5.644,-0.798 -10.621,-0.457l-8.658,0.593l0,3.887c0,5.401 2.972,6.893 11.806,5.928c16.215,-1.771 16.319,-1.772 17.644,-0.176c1.592,1.919 0.425,4.127 -1.741,3.296c-0.873,-0.335 -3.324,-0.142 -5.446,0.429c-4.838,1.303 -14.612,2.066 -15.47,1.207c-0.355,-0.354 -2.028,-0.644 -3.719,-0.644l-3.074,-0l0.032,8.431c0.024,6.169 0.317,7.943 1.092,6.612c0.752,-1.29 2.047,-1.701 4.447,-1.414c2.134,0.256 4.102,-0.233 5.318,-1.32c1.793,-1.603 2.005,-1.593 2.976,0.142c0.665,1.188 1.752,1.644 2.987,1.253c1.067,-0.339 2.246,-0.123 2.618,0.48c0.943,1.525 4.283,1.373 5.634,-0.256c1.348,-1.623 11.439,-1.298 13.528,0.437c1.493,1.238 0.846,3.447 -0.725,2.476c-1.841,-1.137 -10.521,-0.752 -12.073,0.537c-0.868,0.72 -4.299,1.461 -7.624,1.646c-3.324,0.184 -6.213,0.841 -6.419,1.458c-0.49,1.47 -4.414,1.46 -4.414,-0.012c0,-0.623 -1.304,-0.996 -2.899,-0.829c-1.594,0.167 -3.432,-0.024 -4.083,-0.429c-0.838,-0.517 -1.03,0.651 -0.654,3.983c0.292,2.593 0.04,5.311 -0.565,6.041c-0.603,0.729 -1.183,3.459 -1.288,6.068c-0.297,7.359 -0.201,7.677 2.122,7.069c3.268,-0.854 16.316,2.569 14.234,3.734c-0.923,0.517 -3.201,0.57 -5.063,0.118c-5.546,-1.347 -11.708,-1.048 -13.019,0.632c-1.018,1.304 -1.468,1.321 -2.929,0.108c-1.354,-1.123 -2.299,-1.171 -4.379,-0.223c-3.114,1.418 -3.055,1.411 -3.96,0.506l0.003,-0.003Z" style="fill:#30553c;fill-rule:nonzero;"/></svg>