<?xml version="1.0" encoding="UTF-8" standalone="no"?><!DOCTYPE svg PUBLIC "-//W3C//DTD SVG 1.1//EN" "http://www.w3.org/Graphics/SVG/1.1/DTD/svg11.dtd"><svg width="100%" height="100%" viewBox="0 0 104 131" version="1.1" xmlns="http://www.w3.org/2000/svg" xmlns:xlink="http://www.w3.org/1999/xlink" xml:space="preserve" xmlns:serif="http://www.serif.com/" style="fill-rule:evenodd;clip-rule:evenodd;stroke-linejoin:round;stroke-miterlimit:2;"><path id="Hollow-Tree-Svgs" serif:id="Hollow Tree Svgs" d="M39.029,129.736c-0,-0.52 -1.304,-0.9 -2.898,-0.844c-8.777,0.31 -11.856,-0.302 -11.856,-2.355c-0,-2.803 2.251,-3.283 12.669,-2.701l8.981,0.502l-0.181,-7.104c-0.099,-3.907 -0.228,-11.617 -0.286,-17.133l-0.106,-10.031l-3.952,0.34c-10.815,0.93 -14.091,0.813 -15.214,-0.539c-0.963,-1.161 -1.603,-1.012 -3.561,0.827c-2.948,2.771 -6.5,1.95 -7.42,-1.713l-0.643,-2.562l-3.129,2.632c-3.839,3.231 -4.509,3.258 -6.648,0.262c-1.661,-2.328 -1.72,-2.334 -3.221,-0.326c-1.759,2.354 -2.188,0.094 -0.489,-2.573c0.827,-1.296 1.345,-1.342 2.882,-0.256c3.928,2.774 4.837,2.73 7.386,-0.357c2.382,-2.883 2.618,-2.954 3.784,-1.14c3.702,5.762 3.469,5.684 6.976,2.333c3.031,-2.895 3.375,-2.989 5.002,-1.363c1.626,1.626 1.838,1.623 3.082,-0.052c1.086,-1.462 1.716,-1.568 3.364,-0.563c1.624,0.99 2.36,0.903 3.7,-0.437c1.198,-1.197 2.061,-1.361 3.043,-0.578c1.147,0.917 8.22,2.497 8.22,1.837c0,-0.117 -0.743,-2.288 -1.651,-4.824c-0.949,-2.649 -1.412,-6.181 -1.088,-8.3c0.311,-2.029 0.134,-4.382 -0.392,-5.229c-0.79,-1.271 -1.419,-1.041 -3.605,1.318c-3.269,3.527 -3.887,3.537 -7.937,0.129c-1.784,-1.501 -3.243,-2.212 -3.243,-1.581c0,0.635 -1.872,1.148 -4.191,1.148c-3.33,-0 -4.553,-0.553 -5.953,-2.689c-1.215,-1.855 -1.423,-3.028 -0.67,-3.781c0.752,-0.753 1.311,-0.736 1.799,0.055c0.948,1.533 6.437,1.457 8.971,-0.126c1.745,-1.089 2.354,-0.864 4.277,1.581c2.677,3.403 3.541,3.509 6.282,0.768c1.273,-1.273 2.774,-1.819 3.858,-1.403c1.456,0.559 1.652,0.224 1.092,-1.868c-0.375,-1.402 -0.688,-3.858 -0.696,-5.456c-0.012,-2.559 -0.247,-2.762 -1.955,-1.696c-2.691,1.681 -9.241,0.276 -11.103,-2.381l-1.511,-2.158l-0.698,2.2c-0.667,2.102 -2.664,3.118 -2.664,1.355c0,-1.928 2.727,-6.517 3.877,-6.525c0.683,-0.004 1.981,0.731 2.884,1.634c1.103,1.103 3.118,1.536 6.136,1.317c4.461,-0.322 4.497,-0.357 5.149,-5.067c0.361,-2.608 0.532,-4.888 0.379,-5.065c-0.152,-0.178 -1.633,-0.476 -3.291,-0.663c-2.281,-0.257 -2.929,-0.819 -2.662,-2.312c0.532,-2.988 2.084,-4.173 3.547,-2.709c2.047,2.046 5.059,1.532 5.059,-0.864c0,-1.705 -0.49,-2.004 -2.468,-1.508c-1.735,0.436 -3.419,-0.181 -5.674,-2.079c-2.792,-2.349 -3.376,-2.495 -4.512,-1.126c-2.261,2.724 -4.339,1.948 -3.553,-1.326c0.872,-3.634 1.453,-4.362 1.453,-1.822c-0,1.786 0.187,1.755 2.161,-0.364l2.161,-2.32l3.372,2.533c4.883,3.669 8.114,2.273 8.114,-3.506c-0,-4.383 -0.145,-4.505 -6.642,-5.546c-2.42,-0.388 -2.37,-2.316 0.064,-2.466c6.424,-0.396 6.473,-0.425 7.206,-4.33c0.437,-2.329 0.247,-4.619 -0.479,-5.782c-1.558,-2.494 -1.516,-3.008 0.246,-3.008c2.167,-0 4.854,6.24 3.838,8.913c-0.776,2.041 -0.544,2.195 2.736,1.812c3.975,-0.464 8.839,2.057 8.839,4.581c0,1.609 -3.697,2.194 -4.603,0.728c-0.412,-0.666 -3.822,-0.819 -6.99,-0.313c-0.29,0.046 -0.361,2.743 -0.159,5.993c0.366,5.88 0.382,5.906 3.384,5.306c1.66,-0.332 3.272,-0.192 3.583,0.311c0.584,0.945 5.635,0.666 9.791,-0.541c3.329,-0.966 2.95,0.841 -0.747,3.575c-3.119,2.305 -8.904,3.114 -9.968,1.393c-0.31,-0.502 -1.773,-0.681 -3.25,-0.399c-2.495,0.477 -2.553,0.615 -0.816,1.933c1.029,0.781 3.458,1.434 5.397,1.453c4.111,0.04 10.352,3.966 8.788,5.53c-0.66,0.66 -1.784,0.614 -3.173,-0.129c-1.184,-0.634 -3.815,-1.152 -5.848,-1.152c-2.032,0 -3.988,-0.474 -4.347,-1.054c-1.143,-1.85 -2.198,-1.149 -4.02,2.671c-2.309,4.841 -2.271,5.17 0.961,8.401c2.572,2.572 2.887,2.639 5.232,1.102c1.373,-0.899 3.542,-1.635 4.821,-1.635c1.279,0 3.202,-0.793 4.274,-1.763c1.827,-1.654 2.127,-1.632 4.825,0.355c1.583,1.165 5.378,2.411 8.435,2.77c7.128,0.837 9.175,2.057 4.981,2.97c-6.732,1.465 -11.964,1.017 -14.031,-1.202c-1.769,-1.899 -2.144,-1.958 -3.332,-0.527c-0.736,0.887 -2.882,1.613 -4.769,1.613c-1.886,-0 -4.02,0.711 -4.742,1.581c-1.597,1.924 -4.356,2.04 -6.256,0.263c-1.158,-1.084 -1.291,-0.85 -0.752,1.317c0.361,1.449 0.677,4.532 0.702,6.85c0.036,3.38 0.26,3.85 1.121,2.372c1.344,-2.307 3.728,-2.378 4.976,-0.148c0.872,1.559 1.002,1.559 1.6,-0c0.747,-1.949 3.959,-2.248 5.677,-0.53c0.853,0.852 2.682,0.627 6.798,-0.837c4.698,-1.672 6.639,-1.836 11.72,-0.992c3.529,0.587 5.932,1.493 5.715,2.155c-0.494,1.508 -7.587,2.07 -9.886,0.783c-1.3,-0.728 -3.406,-0.304 -7.506,1.509c-3.976,1.758 -6.222,2.226 -7.432,1.545c-1.257,-0.706 -2.399,-0.351 -4.15,1.289c-1.91,1.79 -2.802,2.023 -4.259,1.113c-1.432,-0.895 -2.387,-0.712 -4.277,0.819c-2.163,1.752 -2.305,2.341 -1.274,5.298c1.665,4.776 1.429,12.082 -0.511,15.834c-2.02,3.907 -0.37,6.848 2.014,3.588c1.101,-1.506 1.846,-1.685 3.452,-0.825c2.996,1.604 19.388,0.553 21.523,-1.379c2.161,-1.955 2.894,-1.951 4.872,0.028c1.411,1.41 1.834,1.41 3.848,-0c1.245,-0.872 3.795,-1.585 5.667,-1.585c1.873,-0 4.626,-0.556 6.118,-1.236c2.1,-0.957 3.003,-0.945 4.001,0.057c2.16,2.166 -3.08,5.343 -8.857,5.371c-3.025,0.016 -5.375,0.624 -6.189,1.604c-1.661,2.002 -5.156,2.05 -5.911,0.081c-0.463,-1.206 -0.987,-1.087 -2.683,0.609c-1.329,1.329 -2.759,1.839 -3.871,1.38c-2.59,-1.069 -17.702,-0.323 -22.027,1.087c-2.277,0.742 -2.334,1.116 -1.903,12.357c0.244,6.376 0.667,11.816 0.94,12.089c0.273,0.272 1.543,-0.065 2.823,-0.75c1.28,-0.684 3.759,-0.958 5.511,-0.608c1.751,0.35 3.708,0.217 4.35,-0.296c1.384,-1.106 15.616,0.766 14.88,1.957c-0.273,0.442 -5.13,0.735 -10.793,0.651c-6.184,-0.091 -11.982,0.409 -14.513,1.253c-2.319,0.773 -5.502,1.156 -7.073,0.85c-1.572,-0.305 -3.141,-0.096 -3.488,0.464c-0.793,1.284 -4.721,1.346 -4.721,0.074l-0,-0.001Z" style="fill:#30553c;fill-rule:nonzero;"/></svg>