<?xml version="1.0" encoding="UTF-8" standalone="no"?><!DOCTYPE svg PUBLIC "-//W3C//DTD SVG 1.1//EN" "http://www.w3.org/Graphics/SVG/1.1/DTD/svg11.dtd"><svg width="100%" height="100%" viewBox="0 0 154 101" version="1.1" xmlns="http://www.w3.org/2000/svg" xmlns:xlink="http://www.w3.org/1999/xlink" xml:space="preserve" xmlns:serif="http://www.serif.com/" style="fill-rule:evenodd;clip-rule:evenodd;stroke-linejoin:round;stroke-miterlimit:2;"><path id="Small-Tent" serif:id="Small Tent" d="M82.697,100.003c0.606,-0.27 3.442,-3.692 6.301,-7.603c2.86,-3.912 5.569,-7.112 6.02,-7.112c0.452,0 3.251,1.587 6.221,3.527c2.97,1.939 6.652,3.861 8.183,4.27c4.822,1.29 1.357,-1.822 -6.434,-5.776c-3.855,-1.957 -7.011,-4.055 -7.013,-4.661c-0.001,-0.607 1.057,-2.204 2.353,-3.549l2.356,-2.446l14.711,8.35c8.091,4.593 14.961,8.073 15.267,7.735c2.223,-2.457 -1.877,-5.171 -18.691,-12.373c-11.291,-4.835 -11.355,-4.881 -9.919,-7.148c0.795,-1.255 1.836,-2.281 2.313,-2.281c0.476,-0 8.596,4.152 18.042,9.226c9.447,5.075 17.824,9.227 18.614,9.227c2.67,-0 0.329,-2.029 -6.377,-5.526c-3.669,-1.914 -10.745,-5.618 -15.724,-8.231c-4.978,-2.613 -10.3,-5.027 -11.826,-5.364c-3.218,-0.712 -3.308,-1.069 -1.071,-4.282l1.661,-2.386l5.507,3.681c3.028,2.025 6.622,4.662 7.986,5.86c1.546,1.358 3.999,2.248 6.519,2.364c2.306,0.106 6.918,1.653 10.75,3.605c3.69,1.88 6.96,3.141 7.267,2.803c0.898,-0.993 -5.201,-4.645 -11.711,-7.013c-3.316,-1.206 -7.157,-2.823 -8.536,-3.592c-3.227,-1.802 -8.612,-10.25 -6.994,-10.972c0.692,-0.309 0.515,-0.547 -0.441,-0.596c-0.973,-0.049 -1.4,-0.642 -1.095,-1.519c0.275,-0.791 -0.361,-3.303 -1.414,-5.583c-1.052,-2.279 -1.552,-4.39 -1.111,-4.692c0.441,-0.301 1.504,1.483 2.361,3.965c1.72,4.978 3.626,7.266 5.172,6.21c0.66,-0.451 -0.128,-2.976 -2.278,-7.299c-3.373,-6.783 -3.924,-9.06 -2.438,-10.075c0.467,-0.319 1.746,2.397 2.842,6.035c2.279,7.571 5.096,12.068 7.307,11.667c0.838,-0.152 2.073,0.104 2.744,0.57c2.285,1.582 2.166,-0.181 -0.304,-4.505c-2.596,-4.545 -6.265,-13.377 -5.779,-13.914c0.157,-0.173 2.359,3.465 4.893,8.084c6.827,12.447 23.622,30.278 23.622,25.08c-0,-0.595 -3.462,-5.05 -7.694,-9.901c-8.936,-10.247 -13.461,-17.305 -20.147,-31.43c-2.653,-5.606 -4.936,-10.327 -5.072,-10.492c-0.137,-0.165 -4.843,-0.713 -10.456,-1.217c-5.614,-0.505 -12.449,-1.596 -15.188,-2.425c-2.739,-0.829 -9.154,-2.289 -14.256,-3.243c-10.694,-2.002 -17.481,-4.632 -24.303,-9.419c-2.654,-1.863 -5.228,-3.386 -5.72,-3.386c-0.492,-0 -1.108,-0.577 -1.368,-1.282c-0.649,-1.76 -2.854,1.413 -9.716,13.98c-4.44,8.132 -8.159,13.131 -17.246,23.182c-6.373,7.048 -13.589,14.012 -16.037,15.476c-5.01,2.996 -6.425,6.052 -2.803,6.052c1.237,0 4.152,-1.118 6.477,-2.485c2.326,-1.366 4.419,-2.274 4.651,-2.017c0.232,0.256 4.966,0.592 10.519,0.746c9.866,0.272 10.273,0.38 17.823,4.685l7.727,4.407l-6.214,6.603c-3.418,3.632 -8.669,8.446 -11.669,10.698c-3,2.251 -5.455,4.538 -5.455,5.081c0,2.586 5.694,0.727 10.823,-3.535c5.688,-4.725 13.293,-13.914 13.293,-16.061c0,-0.931 2.065,-1.101 8.116,-0.667c10.884,0.78 17.507,3.6 22.491,9.576c2.134,2.559 3.652,4.906 3.373,5.215c-0.502,0.555 -2.176,-0.438 -11.255,-6.676c-3.714,-2.552 -6.069,-3.325 -11.826,-3.881c-5.822,-0.563 -7.182,-0.424 -7.157,0.728c0.038,1.749 21.699,10.167 27.96,10.866c2.387,0.266 4.548,1.085 4.803,1.819c0.255,0.734 -1.404,3.754 -3.687,6.71c-3.882,5.026 -4.84,8.17 -2.672,8.768c0.51,0.14 1.423,0.035 2.029,-0.236l0,0Zm5.428,-19.584c-1.119,-5.487 -6.791,-12.565 -12.396,-15.469c-4.648,-2.409 -6.464,-2.74 -15.518,-2.829c-7.781,-0.077 -10.856,-0.51 -12.754,-1.794c-1.375,-0.931 -3.439,-2.319 -4.587,-3.083c-3.524,-2.348 -13.933,-4.761 -20.537,-4.761l-6.272,0l11.652,-13.071c10.459,-11.731 12.106,-14.086 16.072,-22.989c2.43,-5.456 4.761,-9.953 5.179,-9.995c0.418,-0.042 2.562,1.293 4.764,2.968c6.398,4.865 12.225,7.223 32.041,12.965c13.196,3.824 23.161,4.617 29.458,2.344c1.662,-0.6 3.383,-0.939 3.823,-0.752c0.844,0.357 -1.637,6.223 -13.002,30.749c-6.177,13.331 -15.001,28.359 -16.727,28.489c-0.342,0.027 -0.88,-1.222 -1.196,-2.772Zm-19.52,-3.192c-2.044,-1.026 -6.009,-2.475 -8.812,-3.22c-2.803,-0.746 -4.543,-1.561 -3.867,-1.812c0.677,-0.251 2.972,0.039 5.102,0.64c2.129,0.604 5.124,1.363 6.654,1.688c3.144,0.667 8.292,4.568 6.029,4.569c-0.765,-0 -3.063,-0.839 -5.106,-1.865Zm43.099,-12.463c-4.138,-2.333 -4.025,-2.106 -2.675,-5.38c1.351,-3.277 6.258,-2.772 6.134,0.631c-0.044,1.214 0.239,3.245 0.63,4.514c0.87,2.825 0.539,2.845 -4.089,0.235l-0,0Zm8.872,-23.507c-0.778,-1.663 -1.399,-4.085 -1.379,-5.382c0.033,-2.089 0.177,-2 1.275,0.784c2.859,7.256 2.936,10.65 0.104,4.598l0,0Zm-0.379,-11.327c0.041,-2.499 0.074,-2.486 1.316,0.512c0.701,1.692 1.279,3.998 1.283,5.126c0.008,1.808 -0.147,1.748 -1.316,-0.512c-0.729,-1.41 -1.307,-3.717 -1.283,-5.126Zm29.083,47.124c-2.359,-2.881 -9.741,-7.358 -18.363,-11.138c-12.621,-5.532 -11.503,-3.229 1.401,2.886c3.92,1.857 9.278,4.943 11.907,6.856c5.366,3.906 7.619,4.529 5.055,1.396Zm-109.888,-10.959c-0,-2.72 -19.232,-9.317 -22.055,-7.565c-1.469,0.912 -1.449,1.044 0.257,1.653c1.021,0.364 2.988,1.334 4.371,2.155c1.384,0.82 5.14,1.872 8.348,2.337c3.208,0.465 6.563,1.191 7.456,1.613c0.892,0.422 1.623,0.335 1.623,-0.193l-0,0Z" style="fill:#30553c;fill-rule:nonzero;stroke:#30553c;stroke-width:1.04px;"/></svg>