<?xml version="1.0" encoding="UTF-8" standalone="no"?><!DOCTYPE svg PUBLIC "-//W3C//DTD SVG 1.1//EN" "http://www.w3.org/Graphics/SVG/1.1/DTD/svg11.dtd"><svg width="100%" height="100%" viewBox="0 0 169 111" version="1.1" xmlns="http://www.w3.org/2000/svg" xmlns:xlink="http://www.w3.org/1999/xlink" xml:space="preserve" xmlns:serif="http://www.serif.com/" style="fill-rule:evenodd;clip-rule:evenodd;stroke-linejoin:round;stroke-miterlimit:2;"><path id="Big-Tent" serif:id="Big Tent" d="M111.623,108.687c0,-0.39 0.316,-1.765 0.702,-3.054c0.664,-2.216 0.567,-2.544 -1.778,-6.022c-1.365,-2.023 -4.385,-6.919 -6.712,-10.88c-2.326,-3.961 -5.824,-9.594 -7.771,-12.518l-3.542,-5.316l-0.499,5.316c-0.532,5.651 0.429,17.354 1.516,18.467c0.405,0.415 2.212,0.054 5.372,-1.074c4.772,-1.705 5.823,-1.746 5.823,-0.228c0,0.964 -6.074,3.407 -9.71,3.905c-3.134,0.43 -3.629,-0.09 -4.951,-5.198c-1.445,-5.588 -1.31,-14.337 0.293,-18.97c1.453,-4.198 1.441,-4.243 -2.905,-11.038c-3.588,-5.609 -10.434,-20.222 -13.413,-28.631c-1.55,-4.375 -3.001,-7.958 -3.225,-7.961c-0.224,-0.003 -0.743,1.392 -1.152,3.1c-0.921,3.836 -4.24,9.47 -7.716,13.095c-4.708,4.909 -23.344,20.975 -24.953,21.512c-0.631,0.21 -0.642,0.774 -0.053,2.739c0.408,1.361 0.932,7.543 1.164,13.737c0.372,9.904 0.302,11.362 -0.581,12.095c-1.152,0.956 -2.203,0.502 -2.843,-1.229c-0.415,-1.123 -0.677,-1.059 -4.102,1.004c-3.62,2.18 -6.012,2.802 -6.012,1.563c-0,-0.351 0.775,-0.942 1.722,-1.313c0.947,-0.37 3.201,-1.347 5.01,-2.171c3.259,-1.485 3.288,-1.523 3.288,-4.324c-0,-1.553 -0.264,-2.824 -0.586,-2.824c-1.306,-0 -19.12,6.329 -20.034,7.118c-1.515,1.306 -6.85,2.921 -7.291,2.206c-0.731,-1.182 1.17,-2.438 5.595,-3.698c5.257,-1.497 15.869,-4.775 19.654,-6.071l2.662,-0.912l-0,-3.705c-0,-2.73 -0.228,-3.706 -0.863,-3.706c-1.295,0 -2.285,1.495 -2.706,4.086c-0.443,2.734 -1.855,3.495 -8.632,4.65c-2.404,0.41 -4.698,1.015 -5.096,1.346c-0.792,0.657 -12.303,3.701 -13.94,3.686c-1.684,-0.016 0.37,-1.08 4.308,-2.231c1.894,-0.554 4.949,-1.694 6.789,-2.532c1.839,-0.839 5.503,-2.113 8.141,-2.831c2.638,-0.718 4.888,-1.388 4.999,-1.489c0.111,-0.101 -0.092,-1.248 -0.451,-2.549c-0.476,-1.723 -0.456,-2.603 0.071,-3.239c0.606,-0.73 0.895,-0.648 1.764,0.505l1.04,1.378l2.034,-1.817c1.919,-1.715 2.009,-1.984 1.59,-4.774c-0.244,-1.626 -0.651,-2.956 -0.904,-2.956c-0.254,-0 -1.561,0.791 -2.904,1.758c-2.715,1.955 -11.457,6.557 -17.943,9.445c-4.088,1.82 -4.205,1.935 -3.519,3.441c1.629,3.576 -1.961,4.889 -3.817,1.397c-0.529,-0.994 -1.595,-2.461 -2.37,-3.26c-1.658,-1.708 -1.784,-2.923 -0.421,-4.054c0.821,-0.682 1.327,-0.636 3.013,0.272c1.954,1.052 2.159,1.043 5.745,-0.257c3.412,-1.237 13.1,-5.665 19.494,-8.91c1.513,-0.767 2.77,-1.909 2.967,-2.695c0.188,-0.749 1.154,-1.699 2.147,-2.11c0.993,-0.412 3.341,-2.209 5.217,-3.994c1.876,-1.785 5.749,-5.218 8.606,-7.629c9.775,-8.248 13.948,-13.084 17.565,-20.353c2.117,-4.254 4.86,-7.69 5.717,-7.161c0.528,0.327 8.104,-1.905 14.963,-4.407c5.627,-2.052 10.84,-3.462 12.803,-3.462c0.908,0 2.756,-0.564 4.106,-1.252c1.35,-0.689 2.848,-1.253 3.328,-1.253c0.48,0 3.718,-1.409 7.196,-3.131c3.478,-1.722 6.543,-3.131 6.812,-3.131c0.858,-0 7.386,-2.787 7.773,-3.318c0.429,-0.589 3.452,6.111 4.284,9.494c2.816,11.447 6.989,20.915 11.854,26.9c1.803,2.216 3.217,4.591 3.217,5.403c-0,1.627 1.146,4.615 3.777,9.844c0.981,1.95 2.793,5.982 4.026,8.96c1.993,4.817 7.592,16.489 8.249,17.198c0.138,0.15 0.584,-0.062 0.992,-0.469c0.888,-0.889 2.369,-0.98 2.369,-0.147c0,0.328 -0.775,1.807 -1.722,3.288c-0.947,1.481 -2.024,3.24 -2.393,3.908c-0.369,0.669 -1.003,1.326 -1.409,1.462c-1.224,0.408 -1.614,-1.766 -0.633,-3.529c1.281,-2.302 1.148,-2.979 -1.498,-7.634c-1.283,-2.256 -3.203,-6.201 -4.266,-8.767c-3.073,-7.413 -8.117,-20.759 -8.131,-21.512c-0.007,-0.379 -1.585,-2.625 -3.506,-4.993c-6.294,-7.754 -9.409,-14.295 -13.098,-27.498c-1.979,-7.086 -2.586,-8.556 -3.387,-8.209c-0.537,0.233 -2.736,1.06 -4.887,1.838c-2.151,0.778 -5.429,2.272 -7.284,3.319c-4.262,2.405 -12.435,5.495 -15.818,5.98c-1.423,0.205 -6.468,1.642 -11.21,3.194c-5.355,1.753 -9.757,2.823 -11.621,2.823c-1.65,-0 -3.152,0.245 -3.338,0.546c-0.185,0.3 0.335,2.203 1.157,4.227c0.822,2.024 2.412,6.217 3.533,9.317c3.491,9.652 7.156,16.664 14.415,27.58c3.854,5.795 8.481,13.357 10.283,16.804c1.801,3.448 3.842,6.905 4.536,7.684c0.694,0.779 1.15,1.528 1.013,1.664c-0.136,0.137 1.11,2.335 2.771,4.884c1.66,2.549 3.217,5.158 3.46,5.798c0.433,1.143 1.511,1.15 4.441,0.025c1.667,-0.639 1.122,0.638 -1.243,2.916c-1.233,1.187 -2.627,3.075 -3.1,4.194c-0.571,1.356 -1.287,2.035 -2.143,2.035c-0.706,0 -1.284,-0.319 -1.284,-0.71l0,0Zm25.777,-7.356c-0.679,-0.43 -0.578,-1.044 0.527,-3.208l1.365,-2.678l-1.283,-1.635c-0.706,-0.899 -3.02,-4.055 -5.142,-7.014l-3.857,-5.38l-3.527,1.451c-1.94,0.798 -3.897,1.457 -4.35,1.465c-0.452,0.009 -2.363,0.72 -4.246,1.581c-1.882,0.861 -3.78,1.566 -4.218,1.566c-0.437,-0 -1.129,0.333 -1.537,0.741c-0.407,0.407 -0.905,0.577 -1.105,0.376c-0.383,-0.383 10.798,-6.688 17.136,-9.664c0.108,-0.051 -0.811,-2.094 -2.044,-4.541c-2.599,-5.162 -4.048,-10.226 -3.691,-12.902c0.518,-3.882 -0.025,-3.886 -11.455,-0.076c-5.81,1.936 -11.408,3.507 -12.441,3.491c-1.714,-0.026 -1.618,-0.131 1.096,-1.192c1.636,-0.639 4.877,-2.12 7.202,-3.291c2.325,-1.171 6.482,-2.933 9.237,-3.916c2.756,-0.984 5.715,-2.259 6.576,-2.834c0.861,-0.575 3.538,-1.699 5.949,-2.496c2.411,-0.798 4.948,-1.809 5.637,-2.247c1.907,-1.213 7.77,-2.782 10.394,-2.782c1.287,0 2.481,-0.352 2.655,-0.783c0.589,-1.459 0.364,2.958 -0.294,5.793c-0.36,1.55 -0.841,7.75 -1.069,13.778c-0.373,9.869 -0.521,10.941 -1.487,10.78c-0.59,-0.098 -2.422,0.501 -4.071,1.332c-1.648,0.831 -3.913,1.709 -5.032,1.951c-2.478,0.536 -2.521,1.118 -0.324,4.377c5.782,8.577 6.263,9.063 8.592,8.685l2.179,-0.354l-2.64,4.889c-2.731,5.056 -3.311,5.636 -4.732,4.737l-0,-0Zm-3.545,-25.169c4.619,-1.222 9.129,-3.31 8.83,-4.088c-0.51,-1.33 0.846,-16.727 1.78,-20.211l0.902,-3.364l-2.994,0.288c-1.752,0.168 -5.586,1.499 -9.24,3.207c-3.436,1.606 -6.468,2.92 -6.738,2.92c-0.271,-0 -1.464,0.461 -2.653,1.025c-1.968,0.934 -2.123,1.199 -1.733,2.975c0.846,3.851 7.687,17.911 8.715,17.911c0.344,0 1.753,-0.298 3.131,-0.663Zm-57.436,20.397c-2.773,-1.884 -2.713,-1.88 -4.705,-0.313c-1.628,1.28 -3.302,1.657 -3.302,0.742c-0,-0.28 1.02,-0.996 2.266,-1.591c2.175,-1.037 2.223,-1.128 1.187,-2.273c-1.058,-1.168 -1.128,-1.161 -3.475,0.393c-1.318,0.872 -2.909,1.47 -3.535,1.329c-0.827,-0.185 -0.323,-0.665 1.835,-1.745c1.636,-0.818 2.973,-1.643 2.972,-1.833c-0.001,-0.19 -0.706,-1.731 -1.566,-3.426c-0.859,-1.694 -1.567,-3.526 -1.572,-4.07c-0.026,-2.679 -1.015,-2.785 -4.778,-0.513c-3.926,2.372 -8.01,4.22 -9.324,4.22c-0.891,-0 -0.886,-1.055 0.01,-2.505c0.32,-0.517 -0.318,-0.187 -1.416,0.734c-2.72,2.278 -12.825,6.056 -11.811,4.415c0.228,-0.369 1.891,-1.155 3.695,-1.749c1.804,-0.593 4.407,-1.849 5.785,-2.791c2.78,-1.901 7.1,-6.774 8.63,-9.734c1.475,-2.856 3.582,-11.649 3.582,-14.95c0,-3.252 1.342,-10.995 1.906,-10.995c0.768,-0 2.985,4.8 3.327,7.202c1.748,12.275 3.873,24.523 4.851,27.96c1.02,3.58 1.66,4.597 4.574,7.26c1.864,1.703 4.401,3.577 5.638,4.164c1.237,0.587 2.249,1.195 2.249,1.351c-0,0.156 -1.062,0.284 -2.36,0.284c-1.485,-0 -3.213,-0.581 -4.663,-1.566l-0,0Zm-12.589,-38.005c-0.2,-0.5 -0.349,-0.351 -0.379,0.378c-0.027,0.66 0.121,1.03 0.329,0.822c0.208,-0.208 0.231,-0.748 0.05,-1.2l-0,-0Zm-15.145,36.44c-0.637,-1.031 0.121,-1.66 3.59,-2.979c10.866,-4.131 13.833,-5.17 14.076,-4.928c0.24,0.24 -16.276,8.533 -16.994,8.533c-0.157,-0 -0.459,-0.282 -0.672,-0.626Zm8.799,-0.576c-0.634,-1.026 1.528,-2.519 5.174,-3.574c1.959,-0.567 3.985,-1.186 4.501,-1.376c0.806,-0.296 0.818,-0.195 0.083,0.709c-0.472,0.579 -1.947,1.38 -3.278,1.779c-1.331,0.398 -2.892,1.245 -3.467,1.881c-1.131,1.249 -2.444,1.502 -3.013,0.581l-0,-0Zm-12.87,-1.289c0,-0.336 0.692,-1.065 1.537,-1.619c1.644,-1.077 13.62,-5.301 14.912,-5.259c1.263,0.041 -2.177,1.669 -4.55,2.153c-1.205,0.246 -4.256,1.547 -6.78,2.892c-5.043,2.687 -5.119,2.714 -5.119,1.833Zm-30.686,-1.178c0,-0.926 2.105,-1.967 3.978,-1.967c0.855,-0 4.719,-1.134 8.586,-2.519c3.867,-1.386 7.17,-2.38 7.341,-2.21c0.17,0.171 -0.364,0.568 -1.187,0.884c-0.823,0.316 -4.032,1.561 -7.132,2.766c-3.1,1.205 -6.482,2.343 -7.515,2.53c-1.033,0.187 -2.372,0.53 -2.975,0.764c-0.626,0.242 -1.096,0.136 -1.096,-0.248Zm100.121,-45.022c-0.861,-0.947 -1.971,-2.325 -2.465,-3.061c-0.495,-0.736 -1.699,-2.344 -2.675,-3.573c-1.271,-1.599 -2.201,-4.063 -3.277,-8.681c-1.647,-7.071 -1.818,-8.639 -0.942,-8.639c0.32,0 0.902,1.62 1.293,3.601c1.474,7.467 4.611,13.948 9.7,20.04c2.128,2.548 0.655,2.831 -1.634,0.313Z" style="fill:#30553c;fill-rule:nonzero;stroke:#30553c;stroke-width:1.67px;"/></svg>